%TF.GenerationSoftware,KiCad,Pcbnew,8.0.9*%
%TF.CreationDate,2025-04-11T10:25:08+02:00*%
%TF.ProjectId,Ultrasound shield_8mic,556c7472-6173-46f7-956e-642073686965,rev?*%
%TF.SameCoordinates,Original*%
%TF.FileFunction,Copper,L4,Bot*%
%TF.FilePolarity,Positive*%
%FSLAX46Y46*%
G04 Gerber Fmt 4.6, Leading zero omitted, Abs format (unit mm)*
G04 Created by KiCad (PCBNEW 8.0.9) date 2025-04-11 10:25:08*
%MOMM*%
%LPD*%
G01*
G04 APERTURE LIST*
G04 Aperture macros list*
%AMRoundRect*
0 Rectangle with rounded corners*
0 $1 Rounding radius*
0 $2 $3 $4 $5 $6 $7 $8 $9 X,Y pos of 4 corners*
0 Add a 4 corners polygon primitive as box body*
4,1,4,$2,$3,$4,$5,$6,$7,$8,$9,$2,$3,0*
0 Add four circle primitives for the rounded corners*
1,1,$1+$1,$2,$3*
1,1,$1+$1,$4,$5*
1,1,$1+$1,$6,$7*
1,1,$1+$1,$8,$9*
0 Add four rect primitives between the rounded corners*
20,1,$1+$1,$2,$3,$4,$5,0*
20,1,$1+$1,$4,$5,$6,$7,0*
20,1,$1+$1,$6,$7,$8,$9,0*
20,1,$1+$1,$8,$9,$2,$3,0*%
%AMFreePoly0*
4,1,192,0.698469,1.378600,0.699999,1.375093,0.700000,1.375000,0.700000,0.915000,0.698536,0.911464,0.695167,0.910003,0.665263,0.909006,0.634484,0.907020,0.604826,0.903066,0.575061,0.897113,0.546269,0.890163,0.517552,0.882241,0.488828,0.871346,0.460999,0.860413,0.434302,0.847559,0.407514,0.832676,0.381737,0.816814,0.356897,0.799923,0.333145,0.782108,0.310366,0.762300,
0.288536,0.741463,0.267699,0.719633,0.247891,0.696854,0.230076,0.673102,0.213186,0.648263,0.197323,0.622485,0.182440,0.595697,0.169586,0.569000,0.158654,0.541172,0.147758,0.512447,0.139836,0.483731,0.132886,0.454938,0.126934,0.425174,0.122979,0.395515,0.120993,0.364736,0.120002,0.335000,0.120993,0.305263,0.122979,0.274484,0.126934,0.244826,0.132886,0.215061,
0.139836,0.186269,0.147758,0.157552,0.158654,0.128828,0.169586,0.100999,0.182440,0.074302,0.197323,0.047514,0.213186,0.021737,0.230076,-0.003102,0.247891,-0.026854,0.267699,-0.049633,0.288536,-0.071463,0.310366,-0.092300,0.333145,-0.112108,0.356897,-0.129923,0.381737,-0.146814,0.407514,-0.162676,0.434302,-0.177559,0.460999,-0.190413,0.488817,-0.201342,0.517552,-0.212241,
0.546269,-0.220163,0.575061,-0.227113,0.604826,-0.233066,0.634484,-0.237020,0.665263,-0.239006,0.695167,-0.240003,0.698651,-0.241584,0.700000,-0.245000,0.700000,-0.705000,0.698536,-0.708536,0.695000,-0.710000,0.694907,-0.709999,0.640907,-0.708999,0.640547,-0.708979,0.585547,-0.703979,0.585357,-0.703959,0.531357,-0.696959,0.531073,-0.696913,0.478073,-0.686913,0.477896,-0.686877,
0.424896,-0.674877,0.424530,-0.674779,0.372530,-0.658779,0.372364,-0.658725,0.320364,-0.640725,0.320064,-0.640610,0.270064,-0.619610,0.269875,-0.619526,0.220875,-0.596526,0.220619,-0.596396,0.172619,-0.570396,0.172333,-0.570230,0.126333,-0.541230,0.126163,-0.541118,0.081163,-0.510118,0.080956,-0.509967,0.037956,-0.476967,0.037799,-0.476841,-0.004201,-0.441841,-0.004489,-0.441581,
-0.043489,-0.403581,-0.043581,-0.403489,-0.081581,-0.364489,-0.081841,-0.364201,-0.116841,-0.322201,-0.116967,-0.322044,-0.149967,-0.279044,-0.150118,-0.278837,-0.181118,-0.233837,-0.181230,-0.233667,-0.210230,-0.187667,-0.210396,-0.187381,-0.236396,-0.139381,-0.236526,-0.139125,-0.259526,-0.090125,-0.259610,-0.089936,-0.280610,-0.039936,-0.280725,-0.039636,-0.298725,0.012364,-0.298779,0.012530,
-0.314779,0.064530,-0.314877,0.064896,-0.326877,0.117896,-0.326913,0.118073,-0.336913,0.171073,-0.336959,0.171357,-0.343959,0.225357,-0.343979,0.225547,-0.348979,0.280547,-0.348999,0.280907,-0.349999,0.334907,-0.349999,0.335093,-0.348999,0.389093,-0.348979,0.389453,-0.343979,0.444453,-0.343959,0.444643,-0.336959,0.498643,-0.336913,0.498927,-0.326913,0.551927,-0.326877,0.552104,
-0.314877,0.605104,-0.314779,0.605470,-0.298779,0.657470,-0.298725,0.657636,-0.280725,0.709636,-0.280610,0.709936,-0.259610,0.759936,-0.259526,0.760125,-0.236526,0.809125,-0.236396,0.809381,-0.210396,0.857381,-0.210230,0.857667,-0.181230,0.903667,-0.181118,0.903837,-0.150118,0.948837,-0.149967,0.949044,-0.116967,0.992044,-0.116841,0.992201,-0.081841,1.034201,-0.081581,1.034489,
-0.043581,1.073489,-0.043489,1.073581,-0.004489,1.111581,-0.004201,1.111841,0.037799,1.146841,0.037956,1.146967,0.080956,1.179967,0.081163,1.180118,0.126163,1.211118,0.126333,1.211230,0.172333,1.240230,0.172619,1.240396,0.220619,1.266396,0.220875,1.266526,0.269875,1.289526,0.270064,1.289610,0.320064,1.310610,0.320364,1.310725,0.372364,1.328725,0.372530,1.328779,
0.424530,1.344779,0.424896,1.344877,0.477896,1.356877,0.478073,1.356913,0.531073,1.366913,0.531357,1.366959,0.585357,1.373959,0.585547,1.373979,0.640547,1.378979,0.640907,1.378999,0.694907,1.379999,0.698469,1.378600,0.698469,1.378600,$1*%
%AMFreePoly1*
4,1,192,-0.704907,1.379999,-0.650907,1.378999,-0.650547,1.378979,-0.595547,1.373979,-0.595357,1.373959,-0.541357,1.366959,-0.541073,1.366913,-0.488073,1.356913,-0.487896,1.356877,-0.434896,1.344877,-0.434530,1.344779,-0.382530,1.328779,-0.382364,1.328725,-0.330364,1.310725,-0.330064,1.310610,-0.280064,1.289610,-0.279875,1.289526,-0.230875,1.266526,-0.230619,1.266396,-0.182619,1.240396,
-0.182333,1.240230,-0.136333,1.211230,-0.136163,1.211118,-0.091163,1.180118,-0.090956,1.179967,-0.047956,1.146967,-0.047799,1.146841,-0.005799,1.111841,-0.005511,1.111581,0.033489,1.073581,0.033581,1.073489,0.071581,1.034489,0.071841,1.034201,0.106841,0.992201,0.106967,0.992044,0.139967,0.949044,0.140118,0.948837,0.171118,0.903837,0.171230,0.903667,0.200230,0.857667,
0.200396,0.857381,0.226396,0.809381,0.226526,0.809125,0.249526,0.760125,0.249610,0.759936,0.270610,0.709936,0.270725,0.709636,0.288725,0.657636,0.288779,0.657470,0.304779,0.605470,0.304877,0.605104,0.316877,0.552104,0.316913,0.551927,0.326913,0.498927,0.326959,0.498643,0.333959,0.444643,0.333979,0.444453,0.338979,0.389453,0.338999,0.389093,0.339999,0.335093,
0.339999,0.334907,0.338999,0.280907,0.338979,0.280547,0.333979,0.225547,0.333959,0.225357,0.326959,0.171357,0.326913,0.171073,0.316913,0.118073,0.316877,0.117896,0.304877,0.064896,0.304779,0.064530,0.288779,0.012530,0.288725,0.012364,0.270725,-0.039636,0.270610,-0.039936,0.249610,-0.089936,0.249526,-0.090125,0.226526,-0.139125,0.226396,-0.139381,0.200396,-0.187381,
0.200230,-0.187667,0.171230,-0.233667,0.171118,-0.233837,0.140118,-0.278837,0.139967,-0.279044,0.106967,-0.322044,0.106841,-0.322201,0.071841,-0.364201,0.071581,-0.364489,0.033581,-0.403489,0.033489,-0.403581,-0.005511,-0.441581,-0.005799,-0.441841,-0.047799,-0.476841,-0.047956,-0.476967,-0.090956,-0.509967,-0.091163,-0.510118,-0.136163,-0.541118,-0.136333,-0.541230,-0.182333,-0.570230,
-0.182619,-0.570396,-0.230619,-0.596396,-0.230875,-0.596526,-0.279875,-0.619526,-0.280064,-0.619610,-0.330064,-0.640610,-0.330364,-0.640725,-0.382364,-0.658725,-0.382530,-0.658779,-0.434530,-0.674779,-0.434896,-0.674877,-0.487896,-0.686877,-0.488073,-0.686913,-0.541073,-0.696913,-0.541357,-0.696959,-0.595357,-0.703959,-0.595547,-0.703979,-0.650547,-0.708979,-0.650907,-0.708999,-0.704907,-0.709999,
-0.708469,-0.708600,-0.709999,-0.705093,-0.710000,-0.705000,-0.710000,-0.245000,-0.708536,-0.241464,-0.705167,-0.240003,-0.675263,-0.239006,-0.644484,-0.237020,-0.614826,-0.233066,-0.585061,-0.227113,-0.556269,-0.220163,-0.527552,-0.212241,-0.498817,-0.201342,-0.470999,-0.190413,-0.444302,-0.177559,-0.417514,-0.162676,-0.391737,-0.146814,-0.366897,-0.129923,-0.343145,-0.112108,-0.320366,-0.092300,
-0.298536,-0.071463,-0.277699,-0.049633,-0.257891,-0.026854,-0.240076,-0.003102,-0.223186,0.021737,-0.207323,0.047514,-0.192440,0.074302,-0.179586,0.100999,-0.168654,0.128828,-0.157758,0.157552,-0.149836,0.186269,-0.142886,0.215061,-0.136934,0.244826,-0.132979,0.274484,-0.130993,0.305263,-0.130002,0.335000,-0.130993,0.364736,-0.132979,0.395515,-0.136934,0.425174,-0.142886,0.454938,
-0.149836,0.483731,-0.157758,0.512447,-0.168654,0.541172,-0.179586,0.569000,-0.192440,0.595697,-0.207323,0.622485,-0.223186,0.648263,-0.240076,0.673102,-0.257891,0.696854,-0.277699,0.719633,-0.298536,0.741463,-0.320366,0.762300,-0.343145,0.782108,-0.366897,0.799923,-0.391737,0.816814,-0.417514,0.832676,-0.444302,0.847559,-0.470999,0.860413,-0.498828,0.871346,-0.527552,0.882241,
-0.556269,0.890163,-0.585061,0.897113,-0.614826,0.903066,-0.644484,0.907020,-0.675263,0.909006,-0.705167,0.910003,-0.708651,0.911584,-0.710000,0.915000,-0.710000,1.375000,-0.708536,1.378536,-0.705000,1.380000,-0.704907,1.379999,-0.704907,1.379999,$1*%
G04 Aperture macros list end*
%TA.AperFunction,ComponentPad*%
%ADD10R,1.700000X1.700000*%
%TD*%
%TA.AperFunction,ComponentPad*%
%ADD11O,1.700000X1.700000*%
%TD*%
%TA.AperFunction,ComponentPad*%
%ADD12C,1.700000*%
%TD*%
%TA.AperFunction,ComponentPad*%
%ADD13R,1.800000X4.400000*%
%TD*%
%TA.AperFunction,ComponentPad*%
%ADD14O,1.800000X4.000000*%
%TD*%
%TA.AperFunction,ComponentPad*%
%ADD15O,4.000000X1.800000*%
%TD*%
%TA.AperFunction,ComponentPad*%
%ADD16C,2.400000*%
%TD*%
%TA.AperFunction,SMDPad,CuDef*%
%ADD17RoundRect,0.250000X-0.475000X0.250000X-0.475000X-0.250000X0.475000X-0.250000X0.475000X0.250000X0*%
%TD*%
%TA.AperFunction,SMDPad,CuDef*%
%ADD18RoundRect,0.250000X0.450000X-0.262500X0.450000X0.262500X-0.450000X0.262500X-0.450000X-0.262500X0*%
%TD*%
%TA.AperFunction,SMDPad,CuDef*%
%ADD19RoundRect,0.250000X-0.250000X-0.475000X0.250000X-0.475000X0.250000X0.475000X-0.250000X0.475000X0*%
%TD*%
%TA.AperFunction,SMDPad,CuDef*%
%ADD20RoundRect,0.250000X-0.450000X0.262500X-0.450000X-0.262500X0.450000X-0.262500X0.450000X0.262500X0*%
%TD*%
%TA.AperFunction,SMDPad,CuDef*%
%ADD21R,0.750000X0.450000*%
%TD*%
%TA.AperFunction,SMDPad,CuDef*%
%ADD22FreePoly0,180.000000*%
%TD*%
%TA.AperFunction,SMDPad,CuDef*%
%ADD23FreePoly1,180.000000*%
%TD*%
%TA.AperFunction,SMDPad,CuDef*%
%ADD24R,0.450000X0.750000*%
%TD*%
%TA.AperFunction,SMDPad,CuDef*%
%ADD25FreePoly0,270.000000*%
%TD*%
%TA.AperFunction,SMDPad,CuDef*%
%ADD26FreePoly1,270.000000*%
%TD*%
%TA.AperFunction,SMDPad,CuDef*%
%ADD27RoundRect,0.250000X0.475000X-0.250000X0.475000X0.250000X-0.475000X0.250000X-0.475000X-0.250000X0*%
%TD*%
%TA.AperFunction,SMDPad,CuDef*%
%ADD28RoundRect,0.250000X-0.262500X-0.450000X0.262500X-0.450000X0.262500X0.450000X-0.262500X0.450000X0*%
%TD*%
%TA.AperFunction,SMDPad,CuDef*%
%ADD29RoundRect,0.250000X0.262500X0.450000X-0.262500X0.450000X-0.262500X-0.450000X0.262500X-0.450000X0*%
%TD*%
%TA.AperFunction,SMDPad,CuDef*%
%ADD30RoundRect,0.250000X0.250000X0.475000X-0.250000X0.475000X-0.250000X-0.475000X0.250000X-0.475000X0*%
%TD*%
%TA.AperFunction,SMDPad,CuDef*%
%ADD31R,0.355600X1.066800*%
%TD*%
%TA.AperFunction,SMDPad,CuDef*%
%ADD32R,1.066800X0.355600*%
%TD*%
%TA.AperFunction,SMDPad,CuDef*%
%ADD33RoundRect,0.200000X-0.900000X-0.200000X0.900000X-0.200000X0.900000X0.200000X-0.900000X0.200000X0*%
%TD*%
%TA.AperFunction,SMDPad,CuDef*%
%ADD34RoundRect,0.250000X-1.275000X-1.125000X1.275000X-1.125000X1.275000X1.125000X-1.275000X1.125000X0*%
%TD*%
%TA.AperFunction,SMDPad,CuDef*%
%ADD35RoundRect,0.249997X-2.950003X-2.650003X2.950003X-2.650003X2.950003X2.650003X-2.950003X2.650003X0*%
%TD*%
%TA.AperFunction,SMDPad,CuDef*%
%ADD36FreePoly0,90.000000*%
%TD*%
%TA.AperFunction,SMDPad,CuDef*%
%ADD37FreePoly1,90.000000*%
%TD*%
%TA.AperFunction,SMDPad,CuDef*%
%ADD38FreePoly0,0.000000*%
%TD*%
%TA.AperFunction,SMDPad,CuDef*%
%ADD39FreePoly1,0.000000*%
%TD*%
%TA.AperFunction,SMDPad,CuDef*%
%ADD40RoundRect,0.150000X0.512500X0.150000X-0.512500X0.150000X-0.512500X-0.150000X0.512500X-0.150000X0*%
%TD*%
%TA.AperFunction,SMDPad,CuDef*%
%ADD41R,1.500000X2.000000*%
%TD*%
%TA.AperFunction,SMDPad,CuDef*%
%ADD42R,3.800000X2.000000*%
%TD*%
%TA.AperFunction,ViaPad*%
%ADD43C,0.600000*%
%TD*%
%TA.AperFunction,Conductor*%
%ADD44C,0.250000*%
%TD*%
%TA.AperFunction,Conductor*%
%ADD45C,0.400000*%
%TD*%
%TA.AperFunction,Conductor*%
%ADD46C,0.200000*%
%TD*%
G04 APERTURE END LIST*
D10*
%TO.P,J7,1,Pin_1*%
%TO.N,GND*%
X192460000Y-171540000D03*
D11*
%TO.P,J7,2,Pin_2*%
X195000000Y-171540000D03*
%TO.P,J7,3,Pin_3*%
%TO.N,/\u002A52*%
X192460000Y-169000000D03*
%TO.P,J7,4,Pin_4*%
%TO.N,/53*%
X195000000Y-169000000D03*
%TO.P,J7,5,Pin_5*%
%TO.N,/50*%
X192460000Y-166460000D03*
%TO.P,J7,6,Pin_6*%
%TO.N,/51*%
X195000000Y-166460000D03*
%TO.P,J7,7,Pin_7*%
%TO.N,/48*%
X192460000Y-163920000D03*
%TO.P,J7,8,Pin_8*%
%TO.N,/49*%
X195000000Y-163920000D03*
%TO.P,J7,9,Pin_9*%
%TO.N,/\u002A46*%
X192460000Y-161380000D03*
%TO.P,J7,10,Pin_10*%
%TO.N,/47*%
X195000000Y-161380000D03*
%TO.P,J7,11,Pin_11*%
%TO.N,/\u002A44*%
X192460000Y-158840000D03*
%TO.P,J7,12,Pin_12*%
%TO.N,/\u002A45*%
X195000000Y-158840000D03*
%TO.P,J7,13,Pin_13*%
%TO.N,/42*%
X192460000Y-156300000D03*
%TO.P,J7,14,Pin_14*%
%TO.N,/43*%
X195000000Y-156300000D03*
%TO.P,J7,15,Pin_15*%
%TO.N,/40*%
X192460000Y-153760000D03*
%TO.P,J7,16,Pin_16*%
%TO.N,/41*%
X195000000Y-153760000D03*
%TO.P,J7,17,Pin_17*%
%TO.N,/38*%
X192460000Y-151220000D03*
%TO.P,J7,18,Pin_18*%
%TO.N,/39*%
X195000000Y-151220000D03*
%TO.P,J7,19,Pin_19*%
%TO.N,/36*%
X192460000Y-148680000D03*
%TO.P,J7,20,Pin_20*%
%TO.N,/37*%
X195000000Y-148680000D03*
%TO.P,J7,21,Pin_21*%
%TO.N,/34*%
X192460000Y-146140000D03*
%TO.P,J7,22,Pin_22*%
%TO.N,/35*%
X195000000Y-146140000D03*
%TO.P,J7,23,Pin_23*%
%TO.N,/32*%
X192460000Y-143600000D03*
%TO.P,J7,24,Pin_24*%
%TO.N,/33*%
X195000000Y-143600000D03*
%TO.P,J7,25,Pin_25*%
%TO.N,/30*%
X192460000Y-141060000D03*
%TO.P,J7,26,Pin_26*%
%TO.N,/31*%
X195000000Y-141060000D03*
%TO.P,J7,27,Pin_27*%
%TO.N,/28*%
X192460000Y-138520000D03*
%TO.P,J7,28,Pin_28*%
%TO.N,/29*%
X195000000Y-138520000D03*
%TO.P,J7,29,Pin_29*%
%TO.N,/26*%
X192460000Y-135980000D03*
%TO.P,J7,30,Pin_30*%
%TO.N,/27*%
X195000000Y-135980000D03*
%TO.P,J7,31,Pin_31*%
%TO.N,/24*%
X192460000Y-133440000D03*
%TO.P,J7,32,Pin_32*%
%TO.N,/25*%
X195000000Y-133440000D03*
%TO.P,J7,33,Pin_33*%
%TO.N,/22*%
X192460000Y-130900000D03*
%TO.P,J7,34,Pin_34*%
%TO.N,/23*%
X195000000Y-130900000D03*
%TO.P,J7,35,Pin_35*%
%TO.N,unconnected-(J7-Pin_35-Pad35)*%
X192460000Y-128360000D03*
%TO.P,J7,36,Pin_36*%
%TO.N,unconnected-(J7-Pin_36-Pad36)*%
X195000000Y-128360000D03*
%TD*%
D10*
%TO.P,J1,1,Pin_1*%
%TO.N,unconnected-(J1-Pin_1-Pad1)*%
X126420000Y-176620000D03*
D11*
%TO.P,J1,2,Pin_2*%
%TO.N,/IOREF*%
X128960000Y-176620000D03*
%TO.P,J1,3,Pin_3*%
%TO.N,/~{RESET}*%
X131500000Y-176620000D03*
%TO.P,J1,4,Pin_4*%
%TO.N,unconnected-(J1-Pin_4-Pad4)*%
X134040000Y-176620000D03*
%TO.P,J1,5,Pin_5*%
%TO.N,Net-(J1-Pin_5)*%
X136580000Y-176620000D03*
%TO.P,J1,6,Pin_6*%
%TO.N,GND*%
X139120000Y-176620000D03*
%TO.P,J1,7,Pin_7*%
X141660000Y-176620000D03*
%TO.P,J1,8,Pin_8*%
%TO.N,/Vin*%
X144200000Y-176620000D03*
%TD*%
D10*
%TO.P,J3,1,Pin_1*%
%TO.N,/A0*%
X149280000Y-176620000D03*
D11*
%TO.P,J3,2,Pin_2*%
%TO.N,/A1*%
X151820000Y-176620000D03*
%TO.P,J3,3,Pin_3*%
%TO.N,/A2*%
X154360000Y-176620000D03*
%TO.P,J3,4,Pin_4*%
%TO.N,/A3*%
X156900000Y-176620000D03*
%TO.P,J3,5,Pin_5*%
%TO.N,/A4*%
X159440000Y-176620000D03*
%TO.P,J3,6,Pin_6*%
%TO.N,/A5*%
X161980000Y-176620000D03*
%TO.P,J3,7,Pin_7*%
%TO.N,/A6*%
X164520000Y-176620000D03*
%TO.P,J3,8,Pin_8*%
%TO.N,/A7*%
X167060000Y-176620000D03*
%TD*%
D10*
%TO.P,J5,1,Pin_1*%
%TO.N,/A8*%
X172140000Y-176620000D03*
D11*
%TO.P,J5,2,Pin_2*%
%TO.N,/A9*%
X174680000Y-176620000D03*
%TO.P,J5,3,Pin_3*%
%TO.N,/A10*%
X177220000Y-176620000D03*
%TO.P,J5,4,Pin_4*%
%TO.N,/A11*%
X179760000Y-176620000D03*
D12*
%TO.P,J5,5,Pin_5*%
%TO.N,A12*%
X182300000Y-176620000D03*
D11*
%TO.P,J5,6,Pin_6*%
%TO.N,A13*%
X184840000Y-176620000D03*
%TO.P,J5,7,Pin_7*%
%TO.N,unconnected-(J5-Pin_7-Pad7)*%
X187380000Y-176620000D03*
%TO.P,J5,8,Pin_8*%
%TO.N,unconnected-(J5-Pin_8-Pad8)*%
X189920000Y-176620000D03*
%TD*%
D10*
%TO.P,J2,1,Pin_1*%
%TO.N,/SCL1*%
X117276000Y-128360000D03*
D11*
%TO.P,J2,2,Pin_2*%
%TO.N,/SDA1*%
X119816000Y-128360000D03*
%TO.P,J2,3,Pin_3*%
%TO.N,/AREF*%
X122356000Y-128360000D03*
%TO.P,J2,4,Pin_4*%
%TO.N,GND*%
X124896000Y-128360000D03*
%TO.P,J2,5,Pin_5*%
%TO.N,/\u002A13*%
X127436000Y-128360000D03*
%TO.P,J2,6,Pin_6*%
%TO.N,/\u002A12*%
X129976000Y-128360000D03*
%TO.P,J2,7,Pin_7*%
%TO.N,/\u002A11*%
X132516000Y-128360000D03*
%TO.P,J2,8,Pin_8*%
%TO.N,/\u002A10*%
X135056000Y-128360000D03*
%TO.P,J2,9,Pin_9*%
%TO.N,/\u002A9*%
X137596000Y-128360000D03*
%TO.P,J2,10,Pin_10*%
%TO.N,/\u002A8*%
X140136000Y-128360000D03*
%TD*%
D10*
%TO.P,J4,1,Pin_1*%
%TO.N,/\u002A7*%
X144200000Y-128360000D03*
D11*
%TO.P,J4,2,Pin_2*%
%TO.N,/\u002A6*%
X146740000Y-128360000D03*
%TO.P,J4,3,Pin_3*%
%TO.N,/\u002A5*%
X149280000Y-128360000D03*
%TO.P,J4,4,Pin_4*%
%TO.N,/\u002A4*%
X151820000Y-128360000D03*
%TO.P,J4,5,Pin_5*%
%TO.N,/\u002A3*%
X154360000Y-128360000D03*
%TO.P,J4,6,Pin_6*%
%TO.N,/\u002A2*%
X156900000Y-128360000D03*
%TO.P,J4,7,Pin_7*%
%TO.N,/TX0{slash}1*%
X159440000Y-128360000D03*
%TO.P,J4,8,Pin_8*%
%TO.N,/RX0{slash}0*%
X161980000Y-128360000D03*
%TD*%
D10*
%TO.P,J6,1,Pin_1*%
%TO.N,/TX3{slash}14*%
X167060000Y-128360000D03*
D11*
%TO.P,J6,2,Pin_2*%
%TO.N,/RX3{slash}15*%
X169600000Y-128360000D03*
%TO.P,J6,3,Pin_3*%
%TO.N,/TX2{slash}16*%
X172140000Y-128360000D03*
%TO.P,J6,4,Pin_4*%
%TO.N,/RX2{slash}17*%
X174680000Y-128360000D03*
%TO.P,J6,5,Pin_5*%
%TO.N,/TX1{slash}18*%
X177220000Y-128360000D03*
%TO.P,J6,6,Pin_6*%
%TO.N,/RX1{slash}19*%
X179760000Y-128360000D03*
%TO.P,J6,7,Pin_7*%
%TO.N,/SDA{slash}20*%
X182300000Y-128360000D03*
%TO.P,J6,8,Pin_8*%
%TO.N,/SCL{slash}21*%
X184840000Y-128360000D03*
%TD*%
D10*
%TO.P,J17,1,A*%
%TO.N,A12*%
X148690000Y-141300000D03*
D11*
%TO.P,J17,2,C*%
%TO.N,Net-(J17-C)*%
X146150000Y-141300000D03*
%TO.P,J17,3,B*%
%TO.N,Net-(J17-B)*%
X143610000Y-141300000D03*
%TD*%
D13*
%TO.P,J10,1*%
%TO.N,Net-(J18-A)*%
X107370000Y-139160000D03*
D14*
%TO.P,J10,2*%
%TO.N,GND*%
X101570000Y-139160000D03*
D15*
%TO.P,J10,3*%
%TO.N,unconnected-(J10-Pad3)*%
X104370000Y-143960000D03*
%TD*%
D10*
%TO.P,J9,1,Pin_1*%
%TO.N,+2.5V*%
X139750000Y-160360000D03*
D11*
%TO.P,J9,2,Pin_2*%
%TO.N,Net-(J9-Pin_2)*%
X139750000Y-162900000D03*
%TO.P,J9,3,Pin_3*%
%TO.N,Net-(J9-Pin_3)*%
X139750000Y-165440000D03*
%TO.P,J9,4,Pin_4*%
%TO.N,GND*%
X139750000Y-167980000D03*
%TD*%
D10*
%TO.P,J19,1,A*%
%TO.N,GND*%
X125960000Y-133250000D03*
D11*
%TO.P,J19,2,C*%
%TO.N,Net-(J19-C)*%
X123420000Y-133250000D03*
%TO.P,J19,3,B*%
%TO.N,Net-(J19-B)*%
X120880000Y-133250000D03*
%TD*%
D16*
%TO.P,LS2,1,1*%
%TO.N,Net-(C64-Pad1)*%
X181910000Y-157510000D03*
%TO.P,LS2,2,2*%
%TO.N,GND*%
X181910000Y-147510000D03*
%TD*%
D10*
%TO.P,J12,1,Pin_1*%
%TO.N,+2.5V*%
X168750000Y-161100000D03*
D11*
%TO.P,J12,2,Pin_2*%
%TO.N,Net-(J12-Pin_2)*%
X166210000Y-161100000D03*
%TO.P,J12,3,Pin_3*%
%TO.N,Net-(J12-Pin_3)*%
X163670000Y-161100000D03*
%TO.P,J12,4,Pin_4*%
%TO.N,GND*%
X161130000Y-161100000D03*
%TD*%
D10*
%TO.P,J18,1,A*%
%TO.N,Net-(J18-A)*%
X111780000Y-133590000D03*
D11*
%TO.P,J18,2,C*%
%TO.N,Net-(J13-Pin_1)*%
X114320000Y-133590000D03*
%TO.P,J18,3,B*%
%TO.N,Net-(J1-Pin_5)*%
X116860000Y-133590000D03*
%TD*%
D10*
%TO.P,J20,1,Pin_1*%
%TO.N,+2.5V*%
X181900000Y-163890000D03*
D11*
%TO.P,J20,2,Pin_2*%
%TO.N,Net-(J20-Pin_2)*%
X181900000Y-166430000D03*
%TO.P,J20,3,Pin_3*%
%TO.N,Net-(J20-Pin_3)*%
X181900000Y-168970000D03*
%TO.P,J20,4,Pin_4*%
%TO.N,GND*%
X181900000Y-171510000D03*
%TD*%
D10*
%TO.P,J8,1,A*%
%TO.N,A13*%
X188040000Y-140640000D03*
D11*
%TO.P,J8,2,C*%
%TO.N,Net-(J8-C)*%
X188040000Y-138100000D03*
%TO.P,J8,3,B*%
%TO.N,Net-(J8-B)*%
X188040000Y-135560000D03*
%TD*%
D16*
%TO.P,LS1,1,1*%
%TO.N,Net-(C22-Pad1)*%
X148390000Y-147510000D03*
%TO.P,LS1,2,2*%
%TO.N,GND*%
X148390000Y-157510000D03*
%TD*%
D10*
%TO.P,J14,1,Pin_1*%
%TO.N,+2.5V*%
X116750000Y-175035000D03*
D11*
%TO.P,J14,2,Pin_2*%
%TO.N,GND*%
X116750000Y-177575000D03*
%TD*%
D10*
%TO.P,J16,1,Pin_1*%
%TO.N,+1.25V_REF*%
X121180000Y-175025000D03*
D11*
%TO.P,J16,2,Pin_2*%
%TO.N,GND*%
X121180000Y-177565000D03*
%TD*%
D10*
%TO.P,J11,1,Pin_1*%
%TO.N,+2.5V*%
X139430000Y-134190000D03*
D11*
%TO.P,J11,2,Pin_2*%
%TO.N,Net-(J11-Pin_2)*%
X139430000Y-136730000D03*
%TO.P,J11,3,Pin_3*%
%TO.N,Net-(J11-Pin_3)*%
X139430000Y-139270000D03*
%TO.P,J11,4,Pin_4*%
%TO.N,GND*%
X139430000Y-141810000D03*
%TD*%
D10*
%TO.P,J13,1,Pin_1*%
%TO.N,Net-(J13-Pin_1)*%
X111350000Y-140555000D03*
D11*
%TO.P,J13,2,Pin_2*%
%TO.N,GND*%
X111350000Y-138015000D03*
%TD*%
D10*
%TO.P,J15,1,Pin_1*%
%TO.N,+3.3V*%
X100705000Y-148160000D03*
D11*
%TO.P,J15,2,Pin_2*%
%TO.N,GND*%
X103245000Y-148160000D03*
%TD*%
D17*
%TO.P,C71,1*%
%TO.N,GND*%
X221300000Y-149650000D03*
%TO.P,C71,2*%
%TO.N,Net-(U9-+IN2)*%
X221300000Y-151550000D03*
%TD*%
D18*
%TO.P,R43,1*%
%TO.N,Net-(MK5-OUTPUT+)*%
X236400000Y-238212500D03*
%TO.P,R43,2*%
%TO.N,Net-(U9--IN1)*%
X236400000Y-236387500D03*
%TD*%
D19*
%TO.P,C20,1*%
%TO.N,+3.3V*%
X102322000Y-223165200D03*
%TO.P,C20,2*%
%TO.N,GND*%
X104222000Y-223165200D03*
%TD*%
D18*
%TO.P,R10,1*%
%TO.N,Net-(MK4-OUTPUT+)*%
X144700000Y-236512500D03*
%TO.P,R10,2*%
%TO.N,Net-(U2--IN2)*%
X144700000Y-234687500D03*
%TD*%
D20*
%TO.P,R13,1*%
%TO.N,Net-(R13-Pad1)*%
X108700000Y-231087500D03*
%TO.P,R13,2*%
%TO.N,Net-(R13-Pad2)*%
X108700000Y-232912500D03*
%TD*%
D21*
%TO.P,MK5,1,OUTPUT+*%
%TO.N,Net-(MK5-OUTPUT+)*%
X238155000Y-241755000D03*
%TO.P,MK5,2,VDD*%
%TO.N,+2.5V*%
X238155000Y-242455000D03*
%TO.P,MK5,3,OUTPUT-*%
%TO.N,Net-(MK5-OUTPUT-)*%
X239855000Y-241755000D03*
%TO.P,MK5,4,GND*%
%TO.N,GND*%
X239855000Y-242455000D03*
D22*
%TO.P,MK5,5_1,GND*%
X239700000Y-243600000D03*
D23*
%TO.P,MK5,5_2,GND*%
X238300000Y-243600000D03*
%TD*%
D24*
%TO.P,MK6,1,OUTPUT+*%
%TO.N,Net-(MK6-OUTPUT+)*%
X236800000Y-153300000D03*
%TO.P,MK6,2,VDD*%
%TO.N,+2.5V*%
X237500000Y-153300000D03*
%TO.P,MK6,3,OUTPUT-*%
%TO.N,Net-(MK6-OUTPUT-)*%
X236800000Y-151600000D03*
%TO.P,MK6,4,GND*%
%TO.N,GND*%
X237500000Y-151600000D03*
D25*
%TO.P,MK6,5_1,GND*%
X238645000Y-151755000D03*
D26*
%TO.P,MK6,5_2,GND*%
X238645000Y-153155000D03*
%TD*%
D27*
%TO.P,C68,1*%
%TO.N,GND*%
X242000000Y-232050000D03*
%TO.P,C68,2*%
%TO.N,Net-(U9-+IN1)*%
X242000000Y-230150000D03*
%TD*%
D18*
%TO.P,R41,1*%
%TO.N,+3.3V*%
X118440000Y-142272500D03*
%TO.P,R41,2*%
%TO.N,/SDA1*%
X118440000Y-140447500D03*
%TD*%
D28*
%TO.P,R4,1*%
%TO.N,Net-(MK1-OUTPUT+)*%
X65687500Y-68200000D03*
%TO.P,R4,2*%
%TO.N,Net-(U1--IN1)*%
X67512500Y-68200000D03*
%TD*%
D17*
%TO.P,C1,1*%
%TO.N,+2.5V*%
X52900000Y-242250000D03*
%TO.P,C1,2*%
%TO.N,GND*%
X52900000Y-244150000D03*
%TD*%
%TO.P,C69,1*%
%TO.N,GND*%
X228400000Y-154050000D03*
%TO.P,C69,2*%
%TO.N,Net-(U9--IN2)*%
X228400000Y-155950000D03*
%TD*%
D29*
%TO.P,R7,1*%
%TO.N,Net-(R7-Pad1)*%
X74412500Y-110500000D03*
%TO.P,R7,2*%
%TO.N,Net-(R7-Pad2)*%
X72587500Y-110500000D03*
%TD*%
D17*
%TO.P,C14,1*%
%TO.N,+3.3V*%
X68000000Y-104372000D03*
%TO.P,C14,2*%
%TO.N,GND*%
X68000000Y-106272000D03*
%TD*%
D21*
%TO.P,MK4,1,OUTPUT+*%
%TO.N,Net-(MK4-OUTPUT+)*%
X147655000Y-241800000D03*
%TO.P,MK4,2,VDD*%
%TO.N,+2.5V*%
X147655000Y-242500000D03*
%TO.P,MK4,3,OUTPUT-*%
%TO.N,Net-(MK4-OUTPUT-)*%
X149355000Y-241800000D03*
%TO.P,MK4,4,GND*%
%TO.N,GND*%
X149355000Y-242500000D03*
D22*
%TO.P,MK4,5_1,GND*%
X149200000Y-243645000D03*
D23*
%TO.P,MK4,5_2,GND*%
X147800000Y-243645000D03*
%TD*%
D29*
%TO.P,R45,1*%
%TO.N,Net-(MK6-OUTPUT+)*%
X233012500Y-158000000D03*
%TO.P,R45,2*%
%TO.N,Net-(U9--IN2)*%
X231187500Y-158000000D03*
%TD*%
D17*
%TO.P,C56,1*%
%TO.N,+2.5V*%
X115070000Y-170280000D03*
%TO.P,C56,2*%
%TO.N,GND*%
X115070000Y-172180000D03*
%TD*%
D30*
%TO.P,C79,1*%
%TO.N,+3.3V*%
X194950000Y-71000000D03*
%TO.P,C79,2*%
%TO.N,GND*%
X193050000Y-71000000D03*
%TD*%
D27*
%TO.P,C66,1*%
%TO.N,GND*%
X235400000Y-232050000D03*
%TO.P,C66,2*%
%TO.N,Net-(U9--IN1)*%
X235400000Y-230150000D03*
%TD*%
%TO.P,C9,1*%
%TO.N,GND*%
X63400000Y-233450000D03*
%TO.P,C9,2*%
%TO.N,Net-(U2-+IN1)*%
X63400000Y-231550000D03*
%TD*%
D28*
%TO.P,R6,1*%
%TO.N,Net-(MK2-OUTPUT-)*%
X65187500Y-153200000D03*
%TO.P,R6,2*%
%TO.N,Net-(U1-+IN2)*%
X67012500Y-153200000D03*
%TD*%
D17*
%TO.P,C19,1*%
%TO.N,+2.5V*%
X233600000Y-242450000D03*
%TO.P,C19,2*%
%TO.N,GND*%
X233600000Y-244350000D03*
%TD*%
D31*
%TO.P,U1,1,-IN1*%
%TO.N,Net-(U1--IN1)*%
X72504600Y-103544000D03*
%TO.P,U1,2,RG1*%
%TO.N,Net-(R2-Pad1)*%
X73139600Y-103544000D03*
%TO.P,U1,3,RG1*%
%TO.N,Net-(R2-Pad2)*%
X73800000Y-103544000D03*
%TO.P,U1,4,+IN1*%
%TO.N,Net-(U1-+IN1)*%
X74435000Y-103544000D03*
D32*
%TO.P,U1,5,+VS*%
%TO.N,+3.3V*%
X75247800Y-104356800D03*
%TO.P,U1,6,REF1*%
%TO.N,+1.25V_REF*%
X75247800Y-104991800D03*
%TO.P,U1,7,REF2*%
X75247800Y-105652200D03*
%TO.P,U1,8,-VS*%
%TO.N,GND*%
X75247800Y-106287200D03*
D31*
%TO.P,U1,9,+IN2*%
%TO.N,Net-(U1-+IN2)*%
X74435000Y-107100000D03*
%TO.P,U1,10,RG2*%
%TO.N,Net-(R7-Pad1)*%
X73800000Y-107100000D03*
%TO.P,U1,11,RG2*%
%TO.N,Net-(R7-Pad2)*%
X73139600Y-107100000D03*
%TO.P,U1,12,-IN2*%
%TO.N,Net-(U1--IN2)*%
X72504600Y-107100000D03*
D32*
%TO.P,U1,13,-VS*%
%TO.N,GND*%
X71691800Y-106287200D03*
%TO.P,U1,14,OUT2*%
%TO.N,/A3*%
X71691800Y-105652200D03*
%TO.P,U1,15,OUT1*%
%TO.N,/A1*%
X71691800Y-104991800D03*
%TO.P,U1,16,+VS*%
%TO.N,+3.3V*%
X71691800Y-104356800D03*
%TD*%
D19*
%TO.P,C59,1*%
%TO.N,+2.5V*%
X237350000Y-157000000D03*
%TO.P,C59,2*%
%TO.N,GND*%
X239250000Y-157000000D03*
%TD*%
%TO.P,C74,1*%
%TO.N,GND*%
X233450000Y-72700000D03*
%TO.P,C74,2*%
%TO.N,Net-(U10-+IN1)*%
X235350000Y-72700000D03*
%TD*%
D30*
%TO.P,C31,1*%
%TO.N,GND*%
X72250000Y-73000000D03*
%TO.P,C31,2*%
%TO.N,Net-(U1-+IN1)*%
X70350000Y-73000000D03*
%TD*%
D20*
%TO.P,R40,1*%
%TO.N,/SCL1*%
X115730000Y-137117500D03*
%TO.P,R40,2*%
%TO.N,+3.3V*%
X115730000Y-138942500D03*
%TD*%
D17*
%TO.P,C57,1*%
%TO.N,+2.5V*%
X112140000Y-170240000D03*
%TO.P,C57,2*%
%TO.N,GND*%
X112140000Y-172140000D03*
%TD*%
D19*
%TO.P,C8,1*%
%TO.N,+3.3V*%
X120130000Y-159990000D03*
%TO.P,C8,2*%
%TO.N,GND*%
X122030000Y-159990000D03*
%TD*%
%TO.P,C12,1*%
%TO.N,Net-(U1--IN2)*%
X67050000Y-142700000D03*
%TO.P,C12,2*%
%TO.N,Net-(U1-+IN2)*%
X68950000Y-142700000D03*
%TD*%
D32*
%TO.P,U10,1,-IN1*%
%TO.N,Net-(U10--IN1)*%
X195900000Y-75969600D03*
%TO.P,U10,2,RG1*%
%TO.N,Net-(R53-Pad1)*%
X195900000Y-76604600D03*
%TO.P,U10,3,RG1*%
%TO.N,Net-(R53-Pad2)*%
X195900000Y-77265000D03*
%TO.P,U10,4,+IN1*%
%TO.N,Net-(U10-+IN1)*%
X195900000Y-77900000D03*
D31*
%TO.P,U10,5,+VS*%
%TO.N,+3.3V*%
X195087200Y-78712800D03*
%TO.P,U10,6,REF1*%
%TO.N,+1.25V_REF*%
X194452200Y-78712800D03*
%TO.P,U10,7,REF2*%
X193791800Y-78712800D03*
%TO.P,U10,8,-VS*%
%TO.N,GND*%
X193156800Y-78712800D03*
D32*
%TO.P,U10,9,+IN2*%
%TO.N,Net-(U10-+IN2)*%
X192344000Y-77900000D03*
%TO.P,U10,10,RG2*%
%TO.N,Net-(R54-Pad1)*%
X192344000Y-77265000D03*
%TO.P,U10,11,RG2*%
%TO.N,Net-(R54-Pad2)*%
X192344000Y-76604600D03*
%TO.P,U10,12,-IN2*%
%TO.N,Net-(U10--IN2)*%
X192344000Y-75969600D03*
D31*
%TO.P,U10,13,-VS*%
%TO.N,GND*%
X193156800Y-75156800D03*
%TO.P,U10,14,OUT2*%
%TO.N,/A10*%
X193791800Y-75156800D03*
%TO.P,U10,15,OUT1*%
%TO.N,/A9*%
X194452200Y-75156800D03*
%TO.P,U10,16,+VS*%
%TO.N,+3.3V*%
X195087200Y-75156800D03*
%TD*%
D30*
%TO.P,C72,1*%
%TO.N,GND*%
X243250000Y-72700000D03*
%TO.P,C72,2*%
%TO.N,Net-(U10--IN1)*%
X241350000Y-72700000D03*
%TD*%
D27*
%TO.P,C78,1*%
%TO.N,+3.3V*%
X240000000Y-197050000D03*
%TO.P,C78,2*%
%TO.N,GND*%
X240000000Y-195150000D03*
%TD*%
D17*
%TO.P,C2,1*%
%TO.N,+2.5V*%
X143400000Y-242450000D03*
%TO.P,C2,2*%
%TO.N,GND*%
X143400000Y-244350000D03*
%TD*%
D18*
%TO.P,R12,1*%
%TO.N,Net-(R12-Pad1)*%
X97200000Y-233312500D03*
%TO.P,R12,2*%
%TO.N,Net-(R12-Pad2)*%
X97200000Y-231487500D03*
%TD*%
D27*
%TO.P,C60,1*%
%TO.N,+2.5V*%
X243900000Y-63450000D03*
%TO.P,C60,2*%
%TO.N,GND*%
X243900000Y-61550000D03*
%TD*%
D30*
%TO.P,C70,1*%
%TO.N,Net-(U9--IN2)*%
X223950000Y-161600000D03*
%TO.P,C70,2*%
%TO.N,Net-(U9-+IN2)*%
X222050000Y-161600000D03*
%TD*%
D20*
%TO.P,R50,1*%
%TO.N,Net-(MK8-OUTPUT-)*%
X147500000Y-67587500D03*
%TO.P,R50,2*%
%TO.N,Net-(U10-+IN2)*%
X147500000Y-69412500D03*
%TD*%
D27*
%TO.P,C18,1*%
%TO.N,GND*%
X150000000Y-231750000D03*
%TO.P,C18,2*%
%TO.N,Net-(U2-+IN2)*%
X150000000Y-229850000D03*
%TD*%
D17*
%TO.P,C29,1*%
%TO.N,GND*%
X71300000Y-151550000D03*
%TO.P,C29,2*%
%TO.N,Net-(U1-+IN2)*%
X71300000Y-153450000D03*
%TD*%
D30*
%TO.P,C13,1*%
%TO.N,Net-(U1--IN1)*%
X80750000Y-80700000D03*
%TO.P,C13,2*%
%TO.N,Net-(U1-+IN1)*%
X78850000Y-80700000D03*
%TD*%
D33*
%TO.P,U12,1,I*%
%TO.N,Net-(U12-I)*%
X108655000Y-154565000D03*
%TO.P,U12,2,D*%
%TO.N,unconnected-(U12-D-Pad2)*%
X108655000Y-153425000D03*
D34*
%TO.P,U12,3,GND*%
%TO.N,GND*%
X113280000Y-150760000D03*
X113280000Y-153810000D03*
D35*
X114955000Y-152285000D03*
D34*
X116630000Y-150760000D03*
X116630000Y-153810000D03*
D33*
%TO.P,U12,4,RO*%
%TO.N,unconnected-(U12-RO-Pad4)*%
X108655000Y-151145000D03*
%TO.P,U12,5,Q*%
%TO.N,Net-(U12-Q)*%
X108655000Y-150005000D03*
%TD*%
D20*
%TO.P,R47,1*%
%TO.N,Net-(MK7-OUTPUT+)*%
X241000000Y-67587500D03*
%TO.P,R47,2*%
%TO.N,Net-(U10--IN1)*%
X241000000Y-69412500D03*
%TD*%
D18*
%TO.P,R54,1*%
%TO.N,Net-(R54-Pad1)*%
X188100000Y-77812500D03*
%TO.P,R54,2*%
%TO.N,Net-(R54-Pad2)*%
X188100000Y-75987500D03*
%TD*%
D27*
%TO.P,C73,1*%
%TO.N,Net-(U10--IN1)*%
X238700000Y-77050000D03*
%TO.P,C73,2*%
%TO.N,Net-(U10-+IN1)*%
X238700000Y-75150000D03*
%TD*%
D24*
%TO.P,MK2,1,OUTPUT+*%
%TO.N,Net-(MK2-OUTPUT+)*%
X60200000Y-151650000D03*
%TO.P,MK2,2,VDD*%
%TO.N,+2.5V*%
X59500000Y-151650000D03*
%TO.P,MK2,3,OUTPUT-*%
%TO.N,Net-(MK2-OUTPUT-)*%
X60200000Y-153350000D03*
%TO.P,MK2,4,GND*%
%TO.N,GND*%
X59500000Y-153350000D03*
D36*
%TO.P,MK2,5_1,GND*%
X58355000Y-153195000D03*
D37*
%TO.P,MK2,5_2,GND*%
X58355000Y-151795000D03*
%TD*%
D20*
%TO.P,R42,1*%
%TO.N,Net-(J19-B)*%
X122330000Y-137367500D03*
%TO.P,R42,2*%
%TO.N,+3.3V*%
X122330000Y-139192500D03*
%TD*%
D21*
%TO.P,MK7,1,OUTPUT+*%
%TO.N,Net-(MK7-OUTPUT+)*%
X239850000Y-64155000D03*
%TO.P,MK7,2,VDD*%
%TO.N,+2.5V*%
X239850000Y-63455000D03*
%TO.P,MK7,3,OUTPUT-*%
%TO.N,Net-(MK7-OUTPUT-)*%
X238150000Y-64155000D03*
%TO.P,MK7,4,GND*%
%TO.N,GND*%
X238150000Y-63455000D03*
D38*
%TO.P,MK7,5_1,GND*%
X238305000Y-62310000D03*
D39*
%TO.P,MK7,5_2,GND*%
X239705000Y-62310000D03*
%TD*%
D28*
%TO.P,R52,1*%
%TO.N,Net-(R52-Pad1)*%
X230987500Y-191000000D03*
%TO.P,R52,2*%
%TO.N,Net-(R52-Pad2)*%
X232812500Y-191000000D03*
%TD*%
D27*
%TO.P,C28,1*%
%TO.N,GND*%
X71300000Y-149050000D03*
%TO.P,C28,2*%
%TO.N,Net-(U1--IN2)*%
X71300000Y-147150000D03*
%TD*%
D30*
%TO.P,C11,1*%
%TO.N,+2.5V*%
X59550000Y-146300000D03*
%TO.P,C11,2*%
%TO.N,GND*%
X57650000Y-146300000D03*
%TD*%
D17*
%TO.P,C6,1*%
%TO.N,Net-(U2--IN1)*%
X71400000Y-229850000D03*
%TO.P,C6,2*%
%TO.N,Net-(U2-+IN1)*%
X71400000Y-231750000D03*
%TD*%
D40*
%TO.P,U3,1,GND*%
%TO.N,GND*%
X122117500Y-161960000D03*
%TO.P,U3,2,GND*%
X122117500Y-162910000D03*
%TO.P,U3,3*%
%TO.N,N/C*%
X122117500Y-163860000D03*
%TO.P,U3,4,Vin*%
%TO.N,+3.3V*%
X119842500Y-163860000D03*
%TO.P,U3,5*%
%TO.N,N/C*%
X119842500Y-162910000D03*
%TO.P,U3,6,Vout*%
%TO.N,+1.25V_REF*%
X119842500Y-161960000D03*
%TD*%
D17*
%TO.P,C75,1*%
%TO.N,GND*%
X151300000Y-72850000D03*
%TO.P,C75,2*%
%TO.N,Net-(U10--IN2)*%
X151300000Y-74750000D03*
%TD*%
D18*
%TO.P,R11,1*%
%TO.N,Net-(MK4-OUTPUT-)*%
X152200000Y-236712500D03*
%TO.P,R11,2*%
%TO.N,Net-(U2-+IN2)*%
X152200000Y-234887500D03*
%TD*%
D28*
%TO.P,R3,1*%
%TO.N,Net-(MK2-OUTPUT+)*%
X65087500Y-147200000D03*
%TO.P,R3,2*%
%TO.N,Net-(U1--IN2)*%
X66912500Y-147200000D03*
%TD*%
D17*
%TO.P,C76,1*%
%TO.N,Net-(U10--IN2)*%
X152000000Y-77450000D03*
%TO.P,C76,2*%
%TO.N,Net-(U10-+IN2)*%
X152000000Y-79350000D03*
%TD*%
D27*
%TO.P,C17,1*%
%TO.N,Net-(U2--IN2)*%
X144800000Y-227250000D03*
%TO.P,C17,2*%
%TO.N,Net-(U2-+IN2)*%
X144800000Y-225350000D03*
%TD*%
D17*
%TO.P,C77,1*%
%TO.N,GND*%
X147400000Y-72750000D03*
%TO.P,C77,2*%
%TO.N,Net-(U10-+IN2)*%
X147400000Y-74650000D03*
%TD*%
D18*
%TO.P,R8,1*%
%TO.N,Net-(MK3-OUTPUT+)*%
X57200000Y-237912500D03*
%TO.P,R8,2*%
%TO.N,Net-(U2--IN1)*%
X57200000Y-236087500D03*
%TD*%
D31*
%TO.P,U9,1,-IN1*%
%TO.N,Net-(U9--IN1)*%
X233000000Y-197856000D03*
%TO.P,U9,2,RG1*%
%TO.N,Net-(R51-Pad1)*%
X232365000Y-197856000D03*
%TO.P,U9,3,RG1*%
%TO.N,Net-(R51-Pad2)*%
X231704600Y-197856000D03*
%TO.P,U9,4,+IN1*%
%TO.N,Net-(U9-+IN1)*%
X231069600Y-197856000D03*
D32*
%TO.P,U9,5,+VS*%
%TO.N,+3.3V*%
X230256800Y-197043200D03*
%TO.P,U9,6,REF1*%
%TO.N,+1.25V_REF*%
X230256800Y-196408200D03*
%TO.P,U9,7,REF2*%
X230256800Y-195747800D03*
%TO.P,U9,8,-VS*%
%TO.N,GND*%
X230256800Y-195112800D03*
D31*
%TO.P,U9,9,+IN2*%
%TO.N,Net-(U9-+IN2)*%
X231069600Y-194300000D03*
%TO.P,U9,10,RG2*%
%TO.N,Net-(R52-Pad1)*%
X231704600Y-194300000D03*
%TO.P,U9,11,RG2*%
%TO.N,Net-(R52-Pad2)*%
X232365000Y-194300000D03*
%TO.P,U9,12,-IN2*%
%TO.N,Net-(U9--IN2)*%
X233000000Y-194300000D03*
D32*
%TO.P,U9,13,-VS*%
%TO.N,GND*%
X233812800Y-195112800D03*
%TO.P,U9,14,OUT2*%
%TO.N,/A6*%
X233812800Y-195747800D03*
%TO.P,U9,15,OUT1*%
%TO.N,/A8*%
X233812800Y-196408200D03*
%TO.P,U9,16,+VS*%
%TO.N,+3.3V*%
X233812800Y-197043200D03*
%TD*%
D20*
%TO.P,R53,1*%
%TO.N,Net-(R53-Pad1)*%
X202400000Y-75687500D03*
%TO.P,R53,2*%
%TO.N,Net-(R53-Pad2)*%
X202400000Y-77512500D03*
%TD*%
D41*
%TO.P,U13,1,GND*%
%TO.N,GND*%
X112180000Y-160360000D03*
%TO.P,U13,2,VO*%
%TO.N,+2.5V*%
X114480000Y-160360000D03*
D42*
X114480000Y-166660000D03*
D41*
%TO.P,U13,3,VI*%
%TO.N,+3.3V*%
X116780000Y-160360000D03*
%TD*%
D28*
%TO.P,R2,1*%
%TO.N,Net-(R2-Pad1)*%
X72487500Y-100500000D03*
%TO.P,R2,2*%
%TO.N,Net-(R2-Pad2)*%
X74312500Y-100500000D03*
%TD*%
D20*
%TO.P,R48,1*%
%TO.N,Net-(MK7-OUTPUT-)*%
X237400000Y-67587500D03*
%TO.P,R48,2*%
%TO.N,Net-(U10-+IN1)*%
X237400000Y-69412500D03*
%TD*%
D18*
%TO.P,R9,1*%
%TO.N,Net-(MK3-OUTPUT-)*%
X64200000Y-237712500D03*
%TO.P,R9,2*%
%TO.N,Net-(U2-+IN1)*%
X64200000Y-235887500D03*
%TD*%
%TO.P,R44,1*%
%TO.N,Net-(MK5-OUTPUT-)*%
X239900000Y-238112500D03*
%TO.P,R44,2*%
%TO.N,Net-(U9-+IN1)*%
X239900000Y-236287500D03*
%TD*%
D27*
%TO.P,C30,1*%
%TO.N,GND*%
X72200000Y-70150000D03*
%TO.P,C30,2*%
%TO.N,Net-(U1--IN1)*%
X72200000Y-68250000D03*
%TD*%
%TO.P,C16,1*%
%TO.N,GND*%
X146900000Y-231750000D03*
%TO.P,C16,2*%
%TO.N,Net-(U2--IN2)*%
X146900000Y-229850000D03*
%TD*%
%TO.P,C65,1*%
%TO.N,+2.5V*%
X154400000Y-63850000D03*
%TO.P,C65,2*%
%TO.N,GND*%
X154400000Y-61950000D03*
%TD*%
D30*
%TO.P,C7,1*%
%TO.N,GND*%
X121930000Y-166150000D03*
%TO.P,C7,2*%
%TO.N,+1.25V_REF*%
X120030000Y-166150000D03*
%TD*%
D20*
%TO.P,R49,1*%
%TO.N,Net-(MK8-OUTPUT+)*%
X151300000Y-67487500D03*
%TO.P,R49,2*%
%TO.N,Net-(U10--IN2)*%
X151300000Y-69312500D03*
%TD*%
D27*
%TO.P,C5,1*%
%TO.N,GND*%
X60000000Y-233450000D03*
%TO.P,C5,2*%
%TO.N,Net-(U2--IN1)*%
X60000000Y-231550000D03*
%TD*%
D19*
%TO.P,C67,1*%
%TO.N,Net-(U9--IN1)*%
X237850000Y-226700000D03*
%TO.P,C67,2*%
%TO.N,Net-(U9-+IN1)*%
X239750000Y-226700000D03*
%TD*%
D21*
%TO.P,MK1,1,OUTPUT+*%
%TO.N,Net-(MK1-OUTPUT+)*%
X58850000Y-64200000D03*
%TO.P,MK1,2,VDD*%
%TO.N,+2.5V*%
X58850000Y-63500000D03*
%TO.P,MK1,3,OUTPUT-*%
%TO.N,Net-(MK1-OUTPUT-)*%
X57150000Y-64200000D03*
%TO.P,MK1,4,GND*%
%TO.N,GND*%
X57150000Y-63500000D03*
D38*
%TO.P,MK1,5_1,GND*%
X57305000Y-62355000D03*
D39*
%TO.P,MK1,5_2,GND*%
X58705000Y-62355000D03*
%TD*%
D29*
%TO.P,R51,1*%
%TO.N,Net-(R51-Pad1)*%
X233112500Y-201600000D03*
%TO.P,R51,2*%
%TO.N,Net-(R51-Pad2)*%
X231287500Y-201600000D03*
%TD*%
D28*
%TO.P,R5,1*%
%TO.N,Net-(MK1-OUTPUT-)*%
X65787500Y-73000000D03*
%TO.P,R5,2*%
%TO.N,Net-(U1-+IN1)*%
X67612500Y-73000000D03*
%TD*%
D27*
%TO.P,C10,1*%
%TO.N,+2.5V*%
X64100000Y-63650000D03*
%TO.P,C10,2*%
%TO.N,GND*%
X64100000Y-61750000D03*
%TD*%
D32*
%TO.P,U2,1,-IN1*%
%TO.N,Net-(U2--IN1)*%
X101422000Y-233065200D03*
%TO.P,U2,2,RG1*%
%TO.N,Net-(R12-Pad1)*%
X101422000Y-232430200D03*
%TO.P,U2,3,RG1*%
%TO.N,Net-(R12-Pad2)*%
X101422000Y-231769800D03*
%TO.P,U2,4,+IN1*%
%TO.N,Net-(U2-+IN1)*%
X101422000Y-231134800D03*
D31*
%TO.P,U2,5,+VS*%
%TO.N,+3.3V*%
X102234800Y-230322000D03*
%TO.P,U2,6,REF1*%
%TO.N,+1.25V_REF*%
X102869800Y-230322000D03*
%TO.P,U2,7,REF2*%
X103530200Y-230322000D03*
%TO.P,U2,8,-VS*%
%TO.N,GND*%
X104165200Y-230322000D03*
D32*
%TO.P,U2,9,+IN2*%
%TO.N,Net-(U2-+IN2)*%
X104978000Y-231134800D03*
%TO.P,U2,10,RG2*%
%TO.N,Net-(R13-Pad1)*%
X104978000Y-231769800D03*
%TO.P,U2,11,RG2*%
%TO.N,Net-(R13-Pad2)*%
X104978000Y-232430200D03*
%TO.P,U2,12,-IN2*%
%TO.N,Net-(U2--IN2)*%
X104978000Y-233065200D03*
D31*
%TO.P,U2,13,-VS*%
%TO.N,GND*%
X104165200Y-233878000D03*
%TO.P,U2,14,OUT2*%
%TO.N,/A5*%
X103530200Y-233878000D03*
%TO.P,U2,15,OUT1*%
%TO.N,/A4*%
X102869800Y-233878000D03*
%TO.P,U2,16,+VS*%
%TO.N,+3.3V*%
X102234800Y-233878000D03*
%TD*%
D21*
%TO.P,MK8,1,OUTPUT+*%
%TO.N,Net-(MK8-OUTPUT+)*%
X149345000Y-64200000D03*
%TO.P,MK8,2,VDD*%
%TO.N,+2.5V*%
X149345000Y-63500000D03*
%TO.P,MK8,3,OUTPUT-*%
%TO.N,Net-(MK8-OUTPUT-)*%
X147645000Y-64200000D03*
%TO.P,MK8,4,GND*%
%TO.N,GND*%
X147645000Y-63500000D03*
D38*
%TO.P,MK8,5_1,GND*%
X147800000Y-62355000D03*
D39*
%TO.P,MK8,5_2,GND*%
X149200000Y-62355000D03*
%TD*%
D21*
%TO.P,MK3,1,OUTPUT+*%
%TO.N,Net-(MK3-OUTPUT+)*%
X57150000Y-241820000D03*
%TO.P,MK3,2,VDD*%
%TO.N,+2.5V*%
X57150000Y-242520000D03*
%TO.P,MK3,3,OUTPUT-*%
%TO.N,Net-(MK3-OUTPUT-)*%
X58850000Y-241820000D03*
%TO.P,MK3,4,GND*%
%TO.N,GND*%
X58850000Y-242520000D03*
D22*
%TO.P,MK3,5_1,GND*%
X58695000Y-243665000D03*
D23*
%TO.P,MK3,5_2,GND*%
X57295000Y-243665000D03*
%TD*%
D29*
%TO.P,R46,1*%
%TO.N,Net-(MK6-OUTPUT-)*%
X229312500Y-151600000D03*
%TO.P,R46,2*%
%TO.N,Net-(U9-+IN2)*%
X227487500Y-151600000D03*
%TD*%
D43*
%TO.N,GND*%
X176930000Y-143350000D03*
X154000000Y-161000000D03*
X133000000Y-141000000D03*
X238300000Y-234600000D03*
X124930000Y-165000000D03*
X227700000Y-193300000D03*
X154811446Y-170811446D03*
X65900000Y-150300000D03*
X78700000Y-106400000D03*
X161650000Y-141150000D03*
X148400000Y-235300000D03*
X116955000Y-147955000D03*
X128370000Y-153630000D03*
X152000000Y-137000000D03*
X136960000Y-153000000D03*
X67900000Y-108700000D03*
X133830000Y-164750000D03*
X159000000Y-61950000D03*
X109540000Y-160340000D03*
X65700000Y-70200000D03*
X232600000Y-145700000D03*
X120380000Y-140470000D03*
X191200000Y-80500000D03*
X236900000Y-191100000D03*
X103000000Y-236900000D03*
X230500000Y-68000000D03*
X114750000Y-148100000D03*
X164500000Y-131740000D03*
X190500000Y-71200000D03*
X149000000Y-137000000D03*
X60400000Y-237900000D03*
X106800000Y-223200000D03*
%TO.N,/A8*%
X236500000Y-195700000D03*
%TO.N,/A10*%
X198500000Y-179400000D03*
X193800000Y-73900000D03*
%TO.N,/A11*%
X158450000Y-170480000D03*
X159420000Y-172040000D03*
X156260000Y-169009500D03*
%TO.N,/A9*%
X200300000Y-180600000D03*
X194350000Y-72800000D03*
%TO.N,/SCL1*%
X117840000Y-136390000D03*
%TO.N,+2.5V*%
X58100000Y-128300000D03*
X143500000Y-239100000D03*
X141600000Y-172800000D03*
X242400000Y-66000000D03*
X237500000Y-160800000D03*
X175000000Y-162000000D03*
X233600000Y-239100000D03*
X176400000Y-63900000D03*
X54800000Y-156800000D03*
X51200000Y-236600000D03*
X66350000Y-63650000D03*
%TO.N,+3.3V*%
X78600000Y-104200000D03*
X228300000Y-200400000D03*
X124780000Y-141070000D03*
X169300000Y-69400000D03*
X157655000Y-166345000D03*
X128893950Y-149498302D03*
X67800000Y-100900000D03*
X161010000Y-132750000D03*
X236900000Y-200000000D03*
X169200000Y-82400000D03*
X147000000Y-167000000D03*
X129669500Y-152220000D03*
X91700000Y-150800000D03*
X182900000Y-144800000D03*
X175670000Y-145220000D03*
X114180000Y-158190000D03*
X119940000Y-157660000D03*
X132760000Y-147620000D03*
X123730000Y-145600000D03*
X111290000Y-156750000D03*
X95500000Y-235325000D03*
X96900000Y-229700000D03*
%TO.N,+1.25V_REF*%
X118990000Y-172280000D03*
X110000000Y-129100000D03*
X188500000Y-174400000D03*
X146860000Y-168540000D03*
X208900000Y-176500000D03*
X129920000Y-154670000D03*
X128600000Y-132300000D03*
X119260000Y-156590000D03*
%TO.N,/A5*%
X100800000Y-238700000D03*
X160700000Y-182000000D03*
%TO.N,/A0*%
X134210000Y-147550000D03*
%TO.N,/SDA1*%
X119670000Y-138550000D03*
%TO.N,/A6*%
X235200000Y-195300000D03*
%TO.N,/A1*%
X144400000Y-183500000D03*
X70100000Y-105000000D03*
%TO.N,/A2*%
X135150000Y-147520000D03*
X146750000Y-174930000D03*
%TO.N,/A7*%
X160210000Y-174094500D03*
X155350000Y-169580000D03*
X158405589Y-172463949D03*
X157650000Y-171380000D03*
%TO.N,/A3*%
X149900000Y-182100000D03*
X69800000Y-106500000D03*
%TO.N,/A4*%
X100000000Y-239300000D03*
X158800000Y-183600000D03*
%TO.N,Net-(J1-Pin_5)*%
X110270000Y-170360000D03*
X125330000Y-174040000D03*
%TO.N,Net-(U12-Q)*%
X106380000Y-150990000D03*
%TO.N,Net-(U12-I)*%
X110730000Y-148270000D03*
%TO.N,Net-(J12-Pin_3)*%
X146629500Y-161600000D03*
X146629500Y-164240000D03*
%TO.N,Net-(U2--IN1)*%
X87300000Y-234800000D03*
X85700000Y-230200000D03*
%TO.N,Net-(U1--IN1)*%
X72000000Y-84700000D03*
X80100000Y-83200000D03*
%TO.N,Net-(J8-B)*%
X173570000Y-134470000D03*
%TO.N,Net-(U5--IN1)*%
X134770000Y-154100000D03*
X130890000Y-147670000D03*
%TO.N,Net-(U5-+IN1)*%
X130440000Y-151160000D03*
X131690000Y-155750000D03*
%TO.N,Net-(U6-+IN2)*%
X161840000Y-169740000D03*
X149450000Y-172150000D03*
%TO.N,Net-(J8-C)*%
X180680000Y-132180000D03*
%TO.N,Net-(U9-+IN1)*%
X236700000Y-224200000D03*
X239400000Y-224200000D03*
%TO.N,Net-(U10-+IN1)*%
X233300000Y-78400000D03*
X235400000Y-76200000D03*
%TD*%
D44*
%TO.N,GND*%
X238755000Y-235055000D02*
X238300000Y-234600000D01*
X238755000Y-241705000D02*
X238755000Y-235055000D01*
X239855000Y-242455000D02*
X239505000Y-242455000D01*
X239505000Y-242455000D02*
X238755000Y-241705000D01*
%TO.N,Net-(U1-+IN2)*%
X72500000Y-146250000D02*
X68950000Y-142700000D01*
X71300000Y-153450000D02*
X72500000Y-152250000D01*
X72500000Y-152250000D02*
X72500000Y-146250000D01*
%TO.N,GND*%
X59050000Y-152500000D02*
X58355000Y-153195000D01*
X63700000Y-152500000D02*
X59050000Y-152500000D01*
X65900000Y-150300000D02*
X63700000Y-152500000D01*
%TO.N,/A1*%
X70108200Y-104991800D02*
X71691800Y-104991800D01*
X70100000Y-105000000D02*
X70108200Y-104991800D01*
%TO.N,/A3*%
X70647800Y-105652200D02*
X71691800Y-105652200D01*
X69800000Y-106500000D02*
X70647800Y-105652200D01*
%TO.N,GND*%
X69228000Y-107500000D02*
X68000000Y-106272000D01*
X70479000Y-107500000D02*
X69228000Y-107500000D01*
X71691800Y-106287200D02*
X70479000Y-107500000D01*
D45*
%TO.N,+3.3V*%
X68872000Y-103500000D02*
X68015200Y-104356800D01*
X70835000Y-103500000D02*
X68872000Y-103500000D01*
X71691800Y-104356800D02*
X70835000Y-103500000D01*
%TO.N,GND*%
X115070000Y-172180000D02*
X115070000Y-175895000D01*
X113280000Y-149570000D02*
X114750000Y-148100000D01*
X112140000Y-172140000D02*
X115030000Y-172140000D01*
D44*
X243900000Y-61550000D02*
X244850000Y-62500000D01*
X225900000Y-145700000D02*
X232600000Y-145700000D01*
X149355000Y-243490000D02*
X149200000Y-243645000D01*
D46*
X124930000Y-165000000D02*
X124930000Y-164610000D01*
D44*
X143400000Y-244350000D02*
X147095000Y-244350000D01*
X60000000Y-237500000D02*
X60000000Y-233450000D01*
X65950000Y-70150000D02*
X72200000Y-70150000D01*
X233450000Y-70950000D02*
X230500000Y-68000000D01*
X151200000Y-72750000D02*
X151300000Y-72850000D01*
X147400000Y-72750000D02*
X151200000Y-72750000D01*
X147995000Y-63500000D02*
X148700000Y-64205000D01*
X149355000Y-242500000D02*
X149355000Y-243490000D01*
X236900000Y-192050000D02*
X240000000Y-195150000D01*
D45*
X124930000Y-165120000D02*
X123900000Y-166150000D01*
D44*
X106800000Y-223200000D02*
X106765200Y-223165200D01*
X237500000Y-151600000D02*
X238490000Y-151600000D01*
X67150000Y-149050000D02*
X71300000Y-149050000D01*
X58850000Y-243510000D02*
X58695000Y-243665000D01*
X67900000Y-108700000D02*
X67900000Y-106372000D01*
X239705000Y-62310000D02*
X240465000Y-61550000D01*
X58250000Y-242710000D02*
X57295000Y-243665000D01*
X146900000Y-231750000D02*
X148400000Y-233250000D01*
D46*
X122117500Y-161960000D02*
X123650000Y-161960000D01*
D44*
X60400000Y-237900000D02*
X60000000Y-237500000D01*
X104222000Y-230265200D02*
X104165200Y-230322000D01*
X238300000Y-234600000D02*
X240850000Y-232050000D01*
D45*
X122030000Y-159990000D02*
X122030000Y-161872500D01*
D44*
X78700000Y-106400000D02*
X78587200Y-106287200D01*
X149005000Y-242500000D02*
X149355000Y-242500000D01*
X148700000Y-70250000D02*
X151300000Y-72850000D01*
D45*
X123900000Y-166150000D02*
X121930000Y-166150000D01*
D44*
X159000000Y-61950000D02*
X154400000Y-61950000D01*
X72250000Y-70200000D02*
X72200000Y-70150000D01*
X233600000Y-244350000D02*
X237550000Y-244350000D01*
X147800000Y-62355000D02*
X147800000Y-63345000D01*
X233450000Y-72700000D02*
X233450000Y-70950000D01*
D46*
X124600000Y-164280000D02*
X124600000Y-162910000D01*
D44*
X148755000Y-242250000D02*
X149005000Y-242500000D01*
X238645000Y-153155000D02*
X239250000Y-153760000D01*
X193050000Y-75050000D02*
X193156800Y-75156800D01*
D45*
X125960000Y-129424000D02*
X124896000Y-128360000D01*
D44*
X229512800Y-195112800D02*
X230256800Y-195112800D01*
X57800000Y-62850000D02*
X57305000Y-62355000D01*
X238300000Y-234600000D02*
X237950000Y-234600000D01*
X58705000Y-62355000D02*
X59310000Y-61750000D01*
X147095000Y-244350000D02*
X147800000Y-243645000D01*
X52900000Y-244150000D02*
X56810000Y-244150000D01*
X237500000Y-151950000D02*
X237500000Y-151600000D01*
X62100000Y-70200000D02*
X57800000Y-65900000D01*
X103000000Y-236900000D02*
X104165200Y-235734800D01*
X57305000Y-63345000D02*
X57150000Y-63500000D01*
D45*
X109560000Y-160360000D02*
X112180000Y-160360000D01*
D44*
X67900000Y-106372000D02*
X68000000Y-106272000D01*
X191200000Y-80500000D02*
X192987200Y-78712800D01*
X65900000Y-70200000D02*
X65950000Y-70150000D01*
X238490000Y-151600000D02*
X238645000Y-151755000D01*
X57305000Y-62355000D02*
X57305000Y-63345000D01*
X244850000Y-71100000D02*
X243250000Y-72700000D01*
X237950000Y-234600000D02*
X235400000Y-232050000D01*
X233812800Y-194187200D02*
X236900000Y-191100000D01*
X59310000Y-61750000D02*
X64100000Y-61750000D01*
X104222000Y-223165200D02*
X104222000Y-230265200D01*
X233812800Y-195112800D02*
X233812800Y-194187200D01*
D45*
X116955000Y-147955000D02*
X116630000Y-148280000D01*
D44*
X239250000Y-153760000D02*
X239250000Y-157000000D01*
X237550000Y-244350000D02*
X238300000Y-243600000D01*
X106765200Y-223165200D02*
X104222000Y-223165200D01*
X58850000Y-242520000D02*
X58850000Y-243510000D01*
X78587200Y-106287200D02*
X75247800Y-106287200D01*
X56810000Y-244150000D02*
X57295000Y-243665000D01*
X227700000Y-193300000D02*
X229512800Y-195112800D01*
X237250000Y-152200000D02*
X237500000Y-151950000D01*
X57800000Y-65900000D02*
X57800000Y-62850000D01*
D46*
X124930000Y-165120000D02*
X124930000Y-165000000D01*
D44*
X65700000Y-70200000D02*
X65900000Y-70200000D01*
D46*
X123650000Y-161960000D02*
X124600000Y-162910000D01*
D45*
X115030000Y-172140000D02*
X115070000Y-172180000D01*
D44*
X148400000Y-233250000D02*
X148400000Y-235300000D01*
X71300000Y-149050000D02*
X71300000Y-151550000D01*
X63400000Y-233450000D02*
X60000000Y-233450000D01*
X244850000Y-62500000D02*
X244850000Y-71100000D01*
X60400000Y-237900000D02*
X58250000Y-240050000D01*
X192987200Y-78712800D02*
X193156800Y-78712800D01*
X190700000Y-71000000D02*
X193050000Y-71000000D01*
X221300000Y-149650000D02*
X221950000Y-149650000D01*
X72250000Y-73000000D02*
X72250000Y-70200000D01*
X57650000Y-151090000D02*
X58355000Y-151795000D01*
X221950000Y-149650000D02*
X225900000Y-145700000D01*
D45*
X116630000Y-148280000D02*
X116630000Y-153810000D01*
D44*
X65700000Y-70200000D02*
X62100000Y-70200000D01*
X57650000Y-146300000D02*
X57650000Y-151090000D01*
X149345000Y-62355000D02*
X149750000Y-61950000D01*
X240465000Y-61550000D02*
X243900000Y-61550000D01*
D46*
X124930000Y-164610000D02*
X124600000Y-164280000D01*
D44*
X148400000Y-235300000D02*
X148755000Y-235655000D01*
X58510000Y-153350000D02*
X58355000Y-153195000D01*
D45*
X113280000Y-150760000D02*
X113280000Y-149570000D01*
X109540000Y-160340000D02*
X109560000Y-160360000D01*
D44*
X239855000Y-243445000D02*
X239700000Y-243600000D01*
X230250000Y-152200000D02*
X237250000Y-152200000D01*
X232600000Y-145710000D02*
X238645000Y-151755000D01*
D46*
X122117500Y-162910000D02*
X124600000Y-162910000D01*
D44*
X65900000Y-150300000D02*
X67150000Y-149050000D01*
X238305000Y-63300000D02*
X238150000Y-63455000D01*
X190500000Y-71200000D02*
X190700000Y-71000000D01*
X238305000Y-62310000D02*
X238305000Y-63300000D01*
X236900000Y-191100000D02*
X236900000Y-192050000D01*
X148700000Y-64205000D02*
X148700000Y-70250000D01*
X150000000Y-231750000D02*
X146900000Y-231750000D01*
X230500000Y-68000000D02*
X235045000Y-63455000D01*
X240850000Y-232050000D02*
X242000000Y-232050000D01*
X149200000Y-62355000D02*
X149345000Y-62355000D01*
X59500000Y-153350000D02*
X58510000Y-153350000D01*
D45*
X122030000Y-161872500D02*
X122117500Y-161960000D01*
D44*
X104165200Y-235734800D02*
X104165200Y-233878000D01*
D45*
X115070000Y-175895000D02*
X116750000Y-177575000D01*
D44*
X148755000Y-235655000D02*
X148755000Y-242250000D01*
X239855000Y-242455000D02*
X239855000Y-243445000D01*
X232600000Y-145700000D02*
X232600000Y-145710000D01*
X58250000Y-240050000D02*
X58250000Y-242710000D01*
X228400000Y-154050000D02*
X230250000Y-152200000D01*
X149750000Y-61950000D02*
X154400000Y-61950000D01*
D45*
X125960000Y-133250000D02*
X125960000Y-129424000D01*
D44*
X147645000Y-63500000D02*
X147995000Y-63500000D01*
X193050000Y-71000000D02*
X193050000Y-75050000D01*
X235045000Y-63455000D02*
X238150000Y-63455000D01*
%TO.N,/A8*%
X233812800Y-196408200D02*
X235791800Y-196408200D01*
X235791800Y-196408200D02*
X236500000Y-195700000D01*
%TO.N,/A10*%
X180000000Y-179400000D02*
X198500000Y-179400000D01*
X177220000Y-176620000D02*
X180000000Y-179400000D01*
X193800000Y-75148600D02*
X193791800Y-75156800D01*
X193800000Y-73900000D02*
X193800000Y-75148600D01*
D46*
%TO.N,/A11*%
X161400000Y-174020000D02*
X177160000Y-174020000D01*
X159420000Y-172040000D02*
X161400000Y-174020000D01*
X156979500Y-169009500D02*
X158450000Y-170480000D01*
X156260000Y-169009500D02*
X156979500Y-169009500D01*
X177160000Y-174020000D02*
X179760000Y-176620000D01*
D44*
%TO.N,/A9*%
X174680000Y-176620000D02*
X178660000Y-180600000D01*
X178660000Y-180600000D02*
X200300000Y-180600000D01*
X194350000Y-72800000D02*
X194350000Y-75054600D01*
X194350000Y-75054600D02*
X194452200Y-75156800D01*
%TO.N,Net-(MK1-OUTPUT-)*%
X64405025Y-73000000D02*
X57150000Y-65744975D01*
X57150000Y-65744975D02*
X57150000Y-64200000D01*
X65787500Y-73000000D02*
X64405025Y-73000000D01*
%TO.N,Net-(MK1-OUTPUT+)*%
X65687500Y-68200000D02*
X62850000Y-68200000D01*
X62850000Y-68200000D02*
X58850000Y-64200000D01*
%TO.N,Net-(MK2-OUTPUT-)*%
X65187500Y-153200000D02*
X60350000Y-153200000D01*
X60350000Y-153200000D02*
X60200000Y-153350000D01*
%TO.N,Net-(MK2-OUTPUT+)*%
X60200000Y-151650000D02*
X60637500Y-151650000D01*
X60637500Y-151650000D02*
X65087500Y-147200000D01*
%TO.N,Net-(MK3-OUTPUT-)*%
X64200000Y-237712500D02*
X62957500Y-237712500D01*
X62957500Y-237712500D02*
X58850000Y-241820000D01*
%TO.N,Net-(MK3-OUTPUT+)*%
X57200000Y-237912500D02*
X57200000Y-241770000D01*
X57200000Y-241770000D02*
X57150000Y-241820000D01*
D46*
%TO.N,/SCL1*%
X117840000Y-136390000D02*
X117112500Y-137117500D01*
X117112500Y-137117500D02*
X115730000Y-137117500D01*
X117840000Y-136390000D02*
X118690000Y-135540000D01*
X118690000Y-129774000D02*
X117276000Y-128360000D01*
X118690000Y-135540000D02*
X118690000Y-129774000D01*
D45*
%TO.N,+2.5V*%
X143400000Y-242450000D02*
X147605000Y-242450000D01*
X58100000Y-128300000D02*
X58100000Y-143000000D01*
X238155000Y-242455000D02*
X233605000Y-242455000D01*
D44*
X147605000Y-242450000D02*
X147655000Y-242500000D01*
X239855000Y-63450000D02*
X239850000Y-63455000D01*
D45*
X59550000Y-144450000D02*
X59550000Y-146300000D01*
X52900000Y-242250000D02*
X53170000Y-242520000D01*
D44*
X237500000Y-156850000D02*
X237350000Y-157000000D01*
D45*
X115070000Y-170280000D02*
X115070000Y-167250000D01*
D44*
X143500000Y-239200000D02*
X143400000Y-239300000D01*
D45*
X66350000Y-63650000D02*
X64100000Y-63650000D01*
D44*
X233605000Y-242455000D02*
X233600000Y-242450000D01*
D45*
X237500000Y-160600000D02*
X237350000Y-160450000D01*
D44*
X59550000Y-145850000D02*
X59550000Y-146300000D01*
D45*
X53170000Y-242520000D02*
X57150000Y-242520000D01*
X54800000Y-156800000D02*
X54800000Y-146700000D01*
X64100000Y-63650000D02*
X59000000Y-63650000D01*
X54800000Y-146700000D02*
X56600000Y-144900000D01*
X242400000Y-66000000D02*
X242400000Y-64950000D01*
X115070000Y-167250000D02*
X114480000Y-166660000D01*
D44*
X143500000Y-239100000D02*
X143500000Y-239200000D01*
D45*
X51200000Y-236600000D02*
X51200000Y-240550000D01*
D44*
X237500000Y-160800000D02*
X237500000Y-160600000D01*
D45*
X59550000Y-146300000D02*
X59550000Y-151600000D01*
X237350000Y-160450000D02*
X237350000Y-157000000D01*
X233600000Y-239100000D02*
X233600000Y-242450000D01*
X56600000Y-144900000D02*
X58600000Y-144900000D01*
X176350000Y-63850000D02*
X154400000Y-63850000D01*
X143400000Y-239300000D02*
X143400000Y-242450000D01*
X116750000Y-171960000D02*
X116750000Y-175035000D01*
X58600000Y-144900000D02*
X59550000Y-145850000D01*
X114480000Y-160360000D02*
X114480000Y-166660000D01*
X237500000Y-153300000D02*
X237500000Y-156850000D01*
X149345000Y-63500000D02*
X154050000Y-63500000D01*
X242400000Y-64950000D02*
X243900000Y-63450000D01*
X115070000Y-170280000D02*
X116750000Y-171960000D01*
X51200000Y-240550000D02*
X52900000Y-242250000D01*
X154050000Y-63500000D02*
X154400000Y-63850000D01*
D44*
X59550000Y-151600000D02*
X59500000Y-151650000D01*
D45*
X58100000Y-143000000D02*
X59550000Y-144450000D01*
X243900000Y-63450000D02*
X239855000Y-63450000D01*
D44*
X176400000Y-63900000D02*
X176350000Y-63850000D01*
D45*
X59000000Y-63650000D02*
X58850000Y-63500000D01*
X112140000Y-170240000D02*
X115030000Y-170240000D01*
X115030000Y-170240000D02*
X115070000Y-170280000D01*
%TO.N,+3.3V*%
X102322000Y-173122000D02*
X91700000Y-162500000D01*
D44*
X68015200Y-104356800D02*
X68000000Y-104372000D01*
D45*
X120130000Y-157850000D02*
X120130000Y-159990000D01*
X199600000Y-174200000D02*
X222443200Y-197043200D01*
X114610000Y-158190000D02*
X116780000Y-160360000D01*
X99700000Y-235600000D02*
X101422000Y-233878000D01*
X190100000Y-174200000D02*
X199600000Y-174200000D01*
X119940000Y-157660000D02*
X120130000Y-157850000D01*
X95775000Y-235600000D02*
X99700000Y-235600000D01*
X117662500Y-142272500D02*
X118440000Y-142272500D01*
X169200000Y-82400000D02*
X194000000Y-82400000D01*
X118440000Y-142272500D02*
X120402500Y-142272500D01*
X102322000Y-223165200D02*
X102322000Y-230234800D01*
X91700000Y-162500000D02*
X91700000Y-150800000D01*
X75404600Y-104200000D02*
X75247800Y-104356800D01*
X222443200Y-197043200D02*
X230256800Y-197043200D01*
X228300000Y-199000000D02*
X230256800Y-197043200D01*
X194950000Y-71000000D02*
X194950000Y-75019600D01*
X238900000Y-200000000D02*
X240000000Y-198900000D01*
X120130000Y-159990000D02*
X120980000Y-160840000D01*
X67800000Y-100900000D02*
X68000000Y-101100000D01*
X193350000Y-69400000D02*
X194950000Y-71000000D01*
X101422000Y-233878000D02*
X102234800Y-233878000D01*
X240000000Y-198900000D02*
X240000000Y-197050000D01*
X68000000Y-101100000D02*
X68000000Y-104372000D01*
X194000000Y-82400000D02*
X195087200Y-81312800D01*
X236900000Y-200000000D02*
X236900000Y-199000000D01*
X187200000Y-149100000D02*
X187200000Y-171300000D01*
X182900000Y-144800000D02*
X187200000Y-149100000D01*
X120504999Y-163860000D02*
X119842500Y-163860000D01*
X187200000Y-171300000D02*
X190100000Y-174200000D01*
X234943200Y-197043200D02*
X233812800Y-197043200D01*
X120980000Y-160840000D02*
X120980000Y-163384999D01*
X78600000Y-104200000D02*
X75404600Y-104200000D01*
X120980000Y-163384999D02*
X120504999Y-163860000D01*
X169300000Y-69400000D02*
X193350000Y-69400000D01*
D44*
X102322000Y-230234800D02*
X102234800Y-230322000D01*
D45*
X115730000Y-138942500D02*
X115730000Y-140340000D01*
X228300000Y-200400000D02*
X228300000Y-199000000D01*
X96900000Y-229700000D02*
X101612800Y-229700000D01*
X115730000Y-140340000D02*
X117662500Y-142272500D01*
X122330000Y-139900000D02*
X122330000Y-139192500D01*
X236900000Y-199000000D02*
X234943200Y-197043200D01*
X102322000Y-223165200D02*
X102322000Y-173122000D01*
X236900000Y-200000000D02*
X238900000Y-200000000D01*
X195087200Y-81312800D02*
X195087200Y-78712800D01*
X101612800Y-229700000D02*
X102234800Y-230322000D01*
X120402500Y-142272500D02*
X123730000Y-145600000D01*
X114180000Y-158190000D02*
X114610000Y-158190000D01*
X95500000Y-235325000D02*
X95775000Y-235600000D01*
X194950000Y-75019600D02*
X195087200Y-75156800D01*
X124780000Y-141070000D02*
X123500000Y-141070000D01*
X123500000Y-141070000D02*
X122330000Y-139900000D01*
%TO.N,+1.25V_REF*%
X193791800Y-79496200D02*
X193044000Y-80244000D01*
X121180000Y-175025000D02*
X103300000Y-192905000D01*
X110000000Y-127300000D02*
X110000000Y-129100000D01*
X77039600Y-104991800D02*
X77700000Y-105652200D01*
X193756000Y-80244000D02*
X193044000Y-80244000D01*
X155600000Y-81700000D02*
X110000000Y-127300000D01*
X77700000Y-105652200D02*
X75247800Y-105652200D01*
X175709500Y-168409500D02*
X181700000Y-174400000D01*
X129200000Y-132900000D02*
X129200000Y-143500000D01*
X103300000Y-230091800D02*
X103530200Y-230322000D01*
X128600000Y-132300000D02*
X129200000Y-132900000D01*
X228147800Y-195747800D02*
X230256800Y-195747800D01*
X110000000Y-129100000D02*
X110000000Y-111100000D01*
X181700000Y-174400000D02*
X188500000Y-174400000D01*
X208600000Y-178500000D02*
X208600000Y-176800000D01*
X110000000Y-111100000D02*
X104552200Y-105652200D01*
X118470000Y-157380000D02*
X118470000Y-160587500D01*
X193044000Y-80244000D02*
X191588000Y-81700000D01*
X119842500Y-161960000D02*
X119180001Y-161960000D01*
X194452200Y-79547800D02*
X193756000Y-80244000D01*
X103300000Y-192905000D02*
X103300000Y-230091800D01*
X226508200Y-196408200D02*
X208600000Y-178500000D01*
X118470000Y-162670001D02*
X118470000Y-164590000D01*
X129200000Y-143500000D02*
X119260000Y-153440000D01*
X118470000Y-160587500D02*
X119842500Y-161960000D01*
X146860000Y-168540000D02*
X146990500Y-168409500D01*
X119180001Y-161960000D02*
X118470000Y-162670001D01*
X103530200Y-230322000D02*
X102869800Y-230322000D01*
X208600000Y-176800000D02*
X208900000Y-176500000D01*
X193791800Y-78712800D02*
X193791800Y-79496200D01*
X191588000Y-81700000D02*
X155600000Y-81700000D01*
X118990000Y-172280000D02*
X118990000Y-171550000D01*
X120030000Y-170510000D02*
X120030000Y-166150000D01*
X146990500Y-168409500D02*
X175709500Y-168409500D01*
X75247800Y-104991800D02*
X77039600Y-104991800D01*
X119260000Y-156590000D02*
X118470000Y-157380000D01*
X119260000Y-153440000D02*
X119260000Y-156590000D01*
X208900000Y-176500000D02*
X228147800Y-195747800D01*
X194452200Y-78712800D02*
X194452200Y-79547800D01*
X118990000Y-171550000D02*
X120030000Y-170510000D01*
X230256800Y-196408200D02*
X226508200Y-196408200D01*
X104552200Y-105652200D02*
X77700000Y-105652200D01*
X118470000Y-164590000D02*
X120030000Y-166150000D01*
D44*
%TO.N,/A5*%
X160700000Y-182000000D02*
X161980000Y-180720000D01*
X103530200Y-233878000D02*
X103530200Y-234769800D01*
X103530200Y-234769800D02*
X100800000Y-237500000D01*
X100800000Y-237500000D02*
X100800000Y-238700000D01*
X161980000Y-180720000D02*
X161980000Y-176620000D01*
%TO.N,Net-(R12-Pad1)*%
X98082300Y-232430200D02*
X97200000Y-233312500D01*
X101422000Y-232430200D02*
X98082300Y-232430200D01*
D46*
%TO.N,/A0*%
X134210000Y-147550000D02*
X135320000Y-148660000D01*
X141110000Y-148660000D02*
X142340000Y-149890000D01*
X135320000Y-148660000D02*
X141110000Y-148660000D01*
X142340000Y-171550000D02*
X147410000Y-176620000D01*
X147410000Y-176620000D02*
X149280000Y-176620000D01*
X142340000Y-149890000D02*
X142340000Y-171550000D01*
%TO.N,/SDA1*%
X118440000Y-139780000D02*
X118440000Y-140447500D01*
X119670000Y-138550000D02*
X118440000Y-139780000D01*
X119100000Y-137980000D02*
X119100000Y-129076000D01*
X119670000Y-138550000D02*
X119100000Y-137980000D01*
X119100000Y-129076000D02*
X119816000Y-128360000D01*
D44*
%TO.N,/A6*%
X234752200Y-195747800D02*
X235200000Y-195300000D01*
X233812800Y-195747800D02*
X234752200Y-195747800D01*
%TO.N,/A1*%
X144940000Y-183500000D02*
X151820000Y-176620000D01*
X144400000Y-183500000D02*
X144940000Y-183500000D01*
D46*
%TO.N,/A2*%
X146700000Y-174930000D02*
X146750000Y-174930000D01*
X135150000Y-147520000D02*
X140542756Y-147520000D01*
X143320000Y-150297244D02*
X143320000Y-171550000D01*
X140542756Y-147520000D02*
X143320000Y-150297244D01*
X143320000Y-171550000D02*
X146700000Y-174930000D01*
%TO.N,/A7*%
X157150000Y-171380000D02*
X157650000Y-171380000D01*
X159474500Y-174094500D02*
X160210000Y-174094500D01*
X155350000Y-169580000D02*
X157150000Y-171380000D01*
X158405589Y-173025589D02*
X159474500Y-174094500D01*
X158405589Y-172463949D02*
X158405589Y-173025589D01*
D44*
%TO.N,/A3*%
X149900000Y-182100000D02*
X151420000Y-182100000D01*
X151420000Y-182100000D02*
X156900000Y-176620000D01*
%TO.N,/A4*%
X100000000Y-237531200D02*
X102869800Y-234661400D01*
X102869800Y-234661400D02*
X102869800Y-233878000D01*
X100000000Y-239300000D02*
X100000000Y-237531200D01*
X158800000Y-177260000D02*
X159440000Y-176620000D01*
X158800000Y-183600000D02*
X158800000Y-177260000D01*
D45*
%TO.N,Net-(J1-Pin_5)*%
X110000000Y-135710000D02*
X109170000Y-136540000D01*
X114740000Y-135710000D02*
X110000000Y-135710000D01*
X108760000Y-161520000D02*
X109920000Y-162680000D01*
X109170000Y-145310000D02*
X103190000Y-151290000D01*
X109920000Y-170010000D02*
X110270000Y-170360000D01*
X105240000Y-161520000D02*
X108760000Y-161520000D01*
X109170000Y-136540000D02*
X109170000Y-145310000D01*
X116860000Y-133590000D02*
X114740000Y-135710000D01*
X125330000Y-174040000D02*
X134000000Y-174040000D01*
X103190000Y-159470000D02*
X105240000Y-161520000D01*
X103190000Y-151290000D02*
X103190000Y-159470000D01*
X109920000Y-162680000D02*
X109920000Y-170010000D01*
X134000000Y-174040000D02*
X136580000Y-176620000D01*
%TO.N,Net-(U12-Q)*%
X106380000Y-150990000D02*
X107365000Y-150005000D01*
X107365000Y-150005000D02*
X108655000Y-150005000D01*
%TO.N,Net-(U12-I)*%
X110730000Y-148270000D02*
X107138334Y-148270000D01*
X104910000Y-150498334D02*
X104910000Y-152410000D01*
X107065000Y-154565000D02*
X108655000Y-154565000D01*
X104910000Y-152410000D02*
X107065000Y-154565000D01*
X107138334Y-148270000D02*
X104910000Y-150498334D01*
D44*
%TO.N,Net-(R7-Pad2)*%
X72587500Y-110500000D02*
X73139600Y-109947900D01*
X73139600Y-109947900D02*
X73139600Y-107100000D01*
%TO.N,Net-(R7-Pad1)*%
X73800000Y-109887500D02*
X73800000Y-107100000D01*
X74412500Y-110500000D02*
X73800000Y-109887500D01*
%TO.N,Net-(R2-Pad2)*%
X74312500Y-100500000D02*
X73800000Y-101012500D01*
X73800000Y-101012500D02*
X73800000Y-103544000D01*
%TO.N,Net-(R2-Pad1)*%
X72487500Y-100500000D02*
X73139600Y-101152100D01*
X73139600Y-101152100D02*
X73139600Y-103544000D01*
D46*
%TO.N,Net-(J12-Pin_3)*%
X146629500Y-161600000D02*
X146629500Y-164240000D01*
D44*
%TO.N,Net-(U2--IN1)*%
X71400000Y-229850000D02*
X85350000Y-229850000D01*
X57200000Y-236087500D02*
X57200000Y-234350000D01*
X57200000Y-234350000D02*
X60000000Y-231550000D01*
X71400000Y-229850000D02*
X61700000Y-229850000D01*
X61700000Y-229850000D02*
X60000000Y-231550000D01*
X85350000Y-229850000D02*
X85700000Y-230200000D01*
X87300000Y-234800000D02*
X99687200Y-234800000D01*
X99687200Y-234800000D02*
X101422000Y-233065200D01*
%TO.N,Net-(U2-+IN1)*%
X64200000Y-235887500D02*
X64350000Y-235737500D01*
X71400000Y-231750000D02*
X63600000Y-231750000D01*
X64350000Y-232500000D02*
X63400000Y-231550000D01*
X63600000Y-231750000D02*
X63400000Y-231550000D01*
X64350000Y-235737500D02*
X64350000Y-232500000D01*
X71400000Y-231750000D02*
X91746322Y-231750000D01*
X91746322Y-231750000D02*
X92946322Y-230550000D01*
X100837200Y-230550000D02*
X101422000Y-231134800D01*
X92946322Y-230550000D02*
X100837200Y-230550000D01*
%TO.N,Net-(U1--IN2)*%
X72504600Y-107100000D02*
X67050000Y-112554600D01*
X71300000Y-147150000D02*
X66962500Y-147150000D01*
X66912500Y-147200000D02*
X66912500Y-142837500D01*
X66962500Y-147150000D02*
X66912500Y-147200000D01*
X66912500Y-142837500D02*
X67050000Y-142700000D01*
X67050000Y-112554600D02*
X67050000Y-142700000D01*
%TO.N,Net-(U1-+IN2)*%
X75150000Y-107815000D02*
X74435000Y-107100000D01*
X68950000Y-142700000D02*
X68950000Y-117353678D01*
X75150000Y-111153678D02*
X75150000Y-107815000D01*
X71050000Y-153200000D02*
X71300000Y-153450000D01*
X67012500Y-153200000D02*
X71050000Y-153200000D01*
X68950000Y-117353678D02*
X75150000Y-111153678D01*
%TO.N,Net-(U1--IN1)*%
X80750000Y-82550000D02*
X80750000Y-80700000D01*
X80750000Y-76800000D02*
X80750000Y-80700000D01*
X72200000Y-68250000D02*
X80750000Y-76800000D01*
X72150000Y-68200000D02*
X72200000Y-68250000D01*
X67512500Y-68200000D02*
X72150000Y-68200000D01*
X80100000Y-83200000D02*
X80750000Y-82550000D01*
X71000000Y-85700000D02*
X71000000Y-102039400D01*
X72000000Y-84700000D02*
X71000000Y-85700000D01*
X71000000Y-102039400D02*
X72504600Y-103544000D01*
%TO.N,Net-(U1-+IN1)*%
X70350000Y-73000000D02*
X78050000Y-80700000D01*
X78850000Y-99129000D02*
X74435000Y-103544000D01*
X78850000Y-80700000D02*
X78850000Y-99129000D01*
X78050000Y-80700000D02*
X78850000Y-80700000D01*
X67612500Y-73000000D02*
X70350000Y-73000000D01*
%TO.N,Net-(U2--IN2)*%
X144700000Y-234687500D02*
X144700000Y-232050000D01*
X106600300Y-234687500D02*
X104978000Y-233065200D01*
X144700000Y-232050000D02*
X146900000Y-229850000D01*
X144800000Y-227750000D02*
X144800000Y-227250000D01*
X144700000Y-234687500D02*
X106600300Y-234687500D01*
X146900000Y-229850000D02*
X144800000Y-227750000D01*
%TO.N,Net-(U2-+IN2)*%
X140150000Y-230000000D02*
X106112800Y-230000000D01*
X152200000Y-234887500D02*
X152200000Y-232050000D01*
X145500000Y-225350000D02*
X144800000Y-225350000D01*
X152200000Y-232050000D02*
X150000000Y-229850000D01*
X144800000Y-225350000D02*
X140150000Y-230000000D01*
X150000000Y-229850000D02*
X145500000Y-225350000D01*
X106112800Y-230000000D02*
X104978000Y-231134800D01*
D46*
%TO.N,Net-(J8-B)*%
X184080000Y-131600000D02*
X188040000Y-135560000D01*
X173570000Y-134470000D02*
X176440000Y-131600000D01*
X176440000Y-131600000D02*
X184080000Y-131600000D01*
%TO.N,Net-(U5--IN1)*%
X130890000Y-147670000D02*
X130460000Y-148100000D01*
X130460000Y-148100000D02*
X130460000Y-149790000D01*
X130460000Y-149790000D02*
X134770000Y-154100000D01*
%TO.N,Net-(U5-+IN1)*%
X131030000Y-155090000D02*
X131690000Y-155750000D01*
X130440000Y-151160000D02*
X131030000Y-151750000D01*
X131030000Y-151750000D02*
X131030000Y-155090000D01*
%TO.N,Net-(U6-+IN2)*%
X161385000Y-170195000D02*
X161840000Y-169740000D01*
X159855000Y-170195000D02*
X161385000Y-170195000D01*
X157900000Y-172150000D02*
X159855000Y-170195000D01*
X149450000Y-172150000D02*
X157900000Y-172150000D01*
%TO.N,Net-(J8-C)*%
X182120000Y-132180000D02*
X188040000Y-138100000D01*
X180680000Y-132180000D02*
X182120000Y-132180000D01*
D44*
%TO.N,Net-(MK4-OUTPUT+)*%
X144700000Y-238845000D02*
X147655000Y-241800000D01*
X144700000Y-236512500D02*
X144700000Y-238845000D01*
%TO.N,Net-(MK4-OUTPUT-)*%
X152200000Y-236712500D02*
X152200000Y-238955000D01*
X152200000Y-238955000D02*
X149355000Y-241800000D01*
%TO.N,Net-(R12-Pad2)*%
X97482300Y-231769800D02*
X97200000Y-231487500D01*
X101422000Y-231769800D02*
X97482300Y-231769800D01*
%TO.N,Net-(R13-Pad1)*%
X108017700Y-231769800D02*
X104978000Y-231769800D01*
X108700000Y-231087500D02*
X108017700Y-231769800D01*
%TO.N,Net-(R13-Pad2)*%
X108217700Y-232430200D02*
X104978000Y-232430200D01*
X108700000Y-232912500D02*
X108217700Y-232430200D01*
D45*
%TO.N,Net-(J19-B)*%
X120880000Y-135917500D02*
X122330000Y-137367500D01*
X120880000Y-133250000D02*
X120880000Y-135917500D01*
D44*
%TO.N,Net-(U9--IN1)*%
X237850000Y-226700000D02*
X237850000Y-202706000D01*
X235400000Y-230150000D02*
X234450000Y-231100000D01*
X237850000Y-226700000D02*
X237850000Y-227700000D01*
X234450000Y-231100000D02*
X234450000Y-234437500D01*
X237850000Y-202706000D02*
X233000000Y-197856000D01*
X237850000Y-227700000D02*
X235400000Y-230150000D01*
X234450000Y-234437500D02*
X236400000Y-236387500D01*
%TO.N,Net-(U9-+IN1)*%
X239750000Y-227900000D02*
X239750000Y-226700000D01*
X239750000Y-226700000D02*
X239750000Y-224550000D01*
X230550000Y-198375600D02*
X231069600Y-197856000D01*
X242000000Y-230150000D02*
X239750000Y-227900000D01*
X242950000Y-233237500D02*
X239900000Y-236287500D01*
X239750000Y-224550000D02*
X239400000Y-224200000D01*
X236700000Y-224200000D02*
X230550000Y-218050000D01*
X230550000Y-218050000D02*
X230550000Y-198375600D01*
X242000000Y-230150000D02*
X242950000Y-231100000D01*
X242950000Y-231100000D02*
X242950000Y-233237500D01*
%TO.N,Net-(U9--IN2)*%
X223950000Y-161600000D02*
X223950000Y-160400000D01*
X233884800Y-164784800D02*
X233884800Y-193415200D01*
X230600000Y-161500000D02*
X233884800Y-164784800D01*
X224050000Y-161500000D02*
X230600000Y-161500000D01*
X229137500Y-155950000D02*
X231187500Y-158000000D01*
X233884800Y-193415200D02*
X233000000Y-194300000D01*
X223950000Y-161600000D02*
X224050000Y-161500000D01*
X223950000Y-160400000D02*
X228400000Y-155950000D01*
X228400000Y-155950000D02*
X229137500Y-155950000D01*
%TO.N,Net-(U9-+IN2)*%
X222050000Y-161600000D02*
X222050000Y-185280400D01*
X221350000Y-151600000D02*
X221300000Y-151550000D01*
X222050000Y-185280400D02*
X231069600Y-194300000D01*
X227487500Y-151600000D02*
X221350000Y-151600000D01*
X221300000Y-151550000D02*
X222050000Y-152300000D01*
X222050000Y-152300000D02*
X222050000Y-161600000D01*
%TO.N,Net-(U10--IN1)*%
X206950000Y-77050000D02*
X204300000Y-74400000D01*
X199330400Y-75969600D02*
X195900000Y-75969600D01*
X204300000Y-74400000D02*
X200900000Y-74400000D01*
X200900000Y-74400000D02*
X199330400Y-75969600D01*
X241000000Y-69412500D02*
X241000000Y-69550000D01*
X241350000Y-74400000D02*
X241350000Y-72700000D01*
X238700000Y-77050000D02*
X206950000Y-77050000D01*
X241000000Y-69550000D02*
X241350000Y-69900000D01*
X238700000Y-77050000D02*
X241350000Y-74400000D01*
X241350000Y-69900000D02*
X241350000Y-72700000D01*
%TO.N,Net-(U10-+IN1)*%
X237400000Y-70650000D02*
X235350000Y-72700000D01*
X196400000Y-78400000D02*
X195900000Y-77900000D01*
X238700000Y-75150000D02*
X237800000Y-75150000D01*
X233300000Y-78400000D02*
X196400000Y-78400000D01*
X235350000Y-76150000D02*
X235400000Y-76200000D01*
X237400000Y-69412500D02*
X237400000Y-70650000D01*
X237800000Y-75150000D02*
X235350000Y-72700000D01*
X235350000Y-72700000D02*
X235350000Y-76150000D01*
%TO.N,Net-(U10--IN2)*%
X151300000Y-69312500D02*
X152250000Y-70262500D01*
X152250000Y-70262500D02*
X152250000Y-73800000D01*
X151300000Y-76750000D02*
X151300000Y-74750000D01*
X152250000Y-73800000D02*
X151300000Y-74750000D01*
X191124400Y-74750000D02*
X151300000Y-74750000D01*
X152000000Y-77450000D02*
X151300000Y-76750000D01*
X192344000Y-75969600D02*
X191124400Y-74750000D01*
%TO.N,Net-(U10-+IN2)*%
X152000000Y-79350000D02*
X190894000Y-79350000D01*
X147400000Y-74650000D02*
X152000000Y-79250000D01*
X190894000Y-79350000D02*
X192344000Y-77900000D01*
X146450000Y-73700000D02*
X147400000Y-74650000D01*
X152000000Y-79250000D02*
X152000000Y-79350000D01*
X147500000Y-69412500D02*
X146450000Y-70462500D01*
X146450000Y-70462500D02*
X146450000Y-73700000D01*
%TO.N,Net-(MK5-OUTPUT-)*%
X239900000Y-241710000D02*
X239855000Y-241755000D01*
X239900000Y-238112500D02*
X239900000Y-241710000D01*
%TO.N,Net-(MK5-OUTPUT+)*%
X236400000Y-238212500D02*
X236400000Y-240000000D01*
X236400000Y-240000000D02*
X238155000Y-241755000D01*
%TO.N,Net-(MK6-OUTPUT+)*%
X233012500Y-158000000D02*
X233012500Y-157087500D01*
X233012500Y-157087500D02*
X236800000Y-153300000D01*
%TO.N,Net-(MK6-OUTPUT-)*%
X236800000Y-151600000D02*
X229312500Y-151600000D01*
%TO.N,Net-(MK7-OUTPUT-)*%
X238150000Y-64155000D02*
X238150000Y-66837500D01*
X238150000Y-66837500D02*
X237400000Y-67587500D01*
%TO.N,Net-(MK7-OUTPUT+)*%
X239850000Y-66437500D02*
X241000000Y-67587500D01*
X239850000Y-64155000D02*
X239850000Y-66437500D01*
%TO.N,Net-(MK8-OUTPUT+)*%
X149345000Y-65532500D02*
X151300000Y-67487500D01*
X149345000Y-64200000D02*
X149345000Y-65532500D01*
%TO.N,Net-(MK8-OUTPUT-)*%
X147500000Y-64590000D02*
X147500000Y-67587500D01*
X147645000Y-64445000D02*
X147500000Y-64590000D01*
X147645000Y-64200000D02*
X147645000Y-64445000D01*
%TO.N,Net-(R51-Pad1)*%
X232365000Y-200852500D02*
X232365000Y-197856000D01*
X233112500Y-201600000D02*
X232365000Y-200852500D01*
%TO.N,Net-(R51-Pad2)*%
X231287500Y-201600000D02*
X231704600Y-201182900D01*
X231704600Y-201182900D02*
X231704600Y-197856000D01*
%TO.N,Net-(R52-Pad1)*%
X231704600Y-191717100D02*
X230987500Y-191000000D01*
X231704600Y-194300000D02*
X231704600Y-191717100D01*
%TO.N,Net-(R52-Pad2)*%
X232365000Y-191447500D02*
X232812500Y-191000000D01*
X232365000Y-194300000D02*
X232365000Y-191447500D01*
%TO.N,Net-(R53-Pad1)*%
X202400000Y-75687500D02*
X201482900Y-76604600D01*
X201482900Y-76604600D02*
X195900000Y-76604600D01*
%TO.N,Net-(R53-Pad2)*%
X202400000Y-77512500D02*
X202152500Y-77265000D01*
X202152500Y-77265000D02*
X195900000Y-77265000D01*
%TO.N,Net-(R54-Pad1)*%
X188647500Y-77265000D02*
X192344000Y-77265000D01*
X188100000Y-77812500D02*
X188647500Y-77265000D01*
%TO.N,Net-(R54-Pad2)*%
X188100000Y-75987500D02*
X188717100Y-76604600D01*
X188717100Y-76604600D02*
X192344000Y-76604600D01*
%TD*%
M02*
