%TF.GenerationSoftware,KiCad,Pcbnew,8.0.9*%
%TF.CreationDate,2025-04-11T10:25:08+02:00*%
%TF.ProjectId,Ultrasound shield_8mic,556c7472-6173-46f7-956e-642073686965,rev?*%
%TF.SameCoordinates,Original*%
%TF.FileFunction,Copper,L1,Top*%
%TF.FilePolarity,Positive*%
%FSLAX46Y46*%
G04 Gerber Fmt 4.6, Leading zero omitted, Abs format (unit mm)*
G04 Created by KiCad (PCBNEW 8.0.9) date 2025-04-11 10:25:08*
%MOMM*%
%LPD*%
G01*
G04 APERTURE LIST*
G04 Aperture macros list*
%AMRoundRect*
0 Rectangle with rounded corners*
0 $1 Rounding radius*
0 $2 $3 $4 $5 $6 $7 $8 $9 X,Y pos of 4 corners*
0 Add a 4 corners polygon primitive as box body*
4,1,4,$2,$3,$4,$5,$6,$7,$8,$9,$2,$3,0*
0 Add four circle primitives for the rounded corners*
1,1,$1+$1,$2,$3*
1,1,$1+$1,$4,$5*
1,1,$1+$1,$6,$7*
1,1,$1+$1,$8,$9*
0 Add four rect primitives between the rounded corners*
20,1,$1+$1,$2,$3,$4,$5,0*
20,1,$1+$1,$4,$5,$6,$7,0*
20,1,$1+$1,$6,$7,$8,$9,0*
20,1,$1+$1,$8,$9,$2,$3,0*%
G04 Aperture macros list end*
%TA.AperFunction,NonConductor*%
%ADD10C,0.150000*%
%TD*%
%TA.AperFunction,ComponentPad*%
%ADD11R,1.700000X1.700000*%
%TD*%
%TA.AperFunction,ComponentPad*%
%ADD12O,1.700000X1.700000*%
%TD*%
%TA.AperFunction,ComponentPad*%
%ADD13C,1.700000*%
%TD*%
%TA.AperFunction,SMDPad,CuDef*%
%ADD14RoundRect,0.250000X0.262500X0.450000X-0.262500X0.450000X-0.262500X-0.450000X0.262500X-0.450000X0*%
%TD*%
%TA.AperFunction,SMDPad,CuDef*%
%ADD15RoundRect,0.250000X0.475000X-0.250000X0.475000X0.250000X-0.475000X0.250000X-0.475000X-0.250000X0*%
%TD*%
%TA.AperFunction,SMDPad,CuDef*%
%ADD16RoundRect,0.250000X-0.250000X-0.475000X0.250000X-0.475000X0.250000X0.475000X-0.250000X0.475000X0*%
%TD*%
%TA.AperFunction,SMDPad,CuDef*%
%ADD17RoundRect,0.250000X0.250000X0.475000X-0.250000X0.475000X-0.250000X-0.475000X0.250000X-0.475000X0*%
%TD*%
%TA.AperFunction,SMDPad,CuDef*%
%ADD18RoundRect,0.250000X0.450000X-0.262500X0.450000X0.262500X-0.450000X0.262500X-0.450000X-0.262500X0*%
%TD*%
%TA.AperFunction,SMDPad,CuDef*%
%ADD19RoundRect,0.250000X-0.475000X0.250000X-0.475000X-0.250000X0.475000X-0.250000X0.475000X0.250000X0*%
%TD*%
%TA.AperFunction,SMDPad,CuDef*%
%ADD20RoundRect,0.250000X-0.450000X0.262500X-0.450000X-0.262500X0.450000X-0.262500X0.450000X0.262500X0*%
%TD*%
%TA.AperFunction,ComponentPad*%
%ADD21R,1.800000X4.400000*%
%TD*%
%TA.AperFunction,ComponentPad*%
%ADD22O,1.800000X4.000000*%
%TD*%
%TA.AperFunction,ComponentPad*%
%ADD23O,4.000000X1.800000*%
%TD*%
%TA.AperFunction,SMDPad,CuDef*%
%ADD24RoundRect,0.250000X-0.262500X-0.450000X0.262500X-0.450000X0.262500X0.450000X-0.262500X0.450000X0*%
%TD*%
%TA.AperFunction,SMDPad,CuDef*%
%ADD25R,0.350000X0.350000*%
%TD*%
%TA.AperFunction,ComponentPad*%
%ADD26C,2.400000*%
%TD*%
%TA.AperFunction,SMDPad,CuDef*%
%ADD27RoundRect,0.250000X0.275000X0.700000X-0.275000X0.700000X-0.275000X-0.700000X0.275000X-0.700000X0*%
%TD*%
%TA.AperFunction,SMDPad,CuDef*%
%ADD28RoundRect,0.243750X0.243750X0.456250X-0.243750X0.456250X-0.243750X-0.456250X0.243750X-0.456250X0*%
%TD*%
%TA.AperFunction,SMDPad,CuDef*%
%ADD29R,1.981200X0.558800*%
%TD*%
%TA.AperFunction,SMDPad,CuDef*%
%ADD30R,1.066800X0.355600*%
%TD*%
%TA.AperFunction,SMDPad,CuDef*%
%ADD31R,0.355600X1.066800*%
%TD*%
%TA.AperFunction,SMDPad,CuDef*%
%ADD32R,0.558800X1.981200*%
%TD*%
%TA.AperFunction,ViaPad*%
%ADD33C,0.600000*%
%TD*%
%TA.AperFunction,Conductor*%
%ADD34C,0.200000*%
%TD*%
%TA.AperFunction,Conductor*%
%ADD35C,0.250000*%
%TD*%
%TA.AperFunction,Conductor*%
%ADD36C,0.400000*%
%TD*%
G04 APERTURE END LIST*
D10*
X274540000Y-65550000D02*
X274540000Y-65550000D01*
D11*
%TO.P,J7,1,Pin_1*%
%TO.N,GND*%
X192460000Y-171540000D03*
D12*
%TO.P,J7,2,Pin_2*%
X195000000Y-171540000D03*
%TO.P,J7,3,Pin_3*%
%TO.N,/\u002A52*%
X192460000Y-169000000D03*
%TO.P,J7,4,Pin_4*%
%TO.N,/53*%
X195000000Y-169000000D03*
%TO.P,J7,5,Pin_5*%
%TO.N,/50*%
X192460000Y-166460000D03*
%TO.P,J7,6,Pin_6*%
%TO.N,/51*%
X195000000Y-166460000D03*
%TO.P,J7,7,Pin_7*%
%TO.N,/48*%
X192460000Y-163920000D03*
%TO.P,J7,8,Pin_8*%
%TO.N,/49*%
X195000000Y-163920000D03*
%TO.P,J7,9,Pin_9*%
%TO.N,/\u002A46*%
X192460000Y-161380000D03*
%TO.P,J7,10,Pin_10*%
%TO.N,/47*%
X195000000Y-161380000D03*
%TO.P,J7,11,Pin_11*%
%TO.N,/\u002A44*%
X192460000Y-158840000D03*
%TO.P,J7,12,Pin_12*%
%TO.N,/\u002A45*%
X195000000Y-158840000D03*
%TO.P,J7,13,Pin_13*%
%TO.N,/42*%
X192460000Y-156300000D03*
%TO.P,J7,14,Pin_14*%
%TO.N,/43*%
X195000000Y-156300000D03*
%TO.P,J7,15,Pin_15*%
%TO.N,/40*%
X192460000Y-153760000D03*
%TO.P,J7,16,Pin_16*%
%TO.N,/41*%
X195000000Y-153760000D03*
%TO.P,J7,17,Pin_17*%
%TO.N,/38*%
X192460000Y-151220000D03*
%TO.P,J7,18,Pin_18*%
%TO.N,/39*%
X195000000Y-151220000D03*
%TO.P,J7,19,Pin_19*%
%TO.N,/36*%
X192460000Y-148680000D03*
%TO.P,J7,20,Pin_20*%
%TO.N,/37*%
X195000000Y-148680000D03*
%TO.P,J7,21,Pin_21*%
%TO.N,/34*%
X192460000Y-146140000D03*
%TO.P,J7,22,Pin_22*%
%TO.N,/35*%
X195000000Y-146140000D03*
%TO.P,J7,23,Pin_23*%
%TO.N,/32*%
X192460000Y-143600000D03*
%TO.P,J7,24,Pin_24*%
%TO.N,/33*%
X195000000Y-143600000D03*
%TO.P,J7,25,Pin_25*%
%TO.N,/30*%
X192460000Y-141060000D03*
%TO.P,J7,26,Pin_26*%
%TO.N,/31*%
X195000000Y-141060000D03*
%TO.P,J7,27,Pin_27*%
%TO.N,/28*%
X192460000Y-138520000D03*
%TO.P,J7,28,Pin_28*%
%TO.N,/29*%
X195000000Y-138520000D03*
%TO.P,J7,29,Pin_29*%
%TO.N,/26*%
X192460000Y-135980000D03*
%TO.P,J7,30,Pin_30*%
%TO.N,/27*%
X195000000Y-135980000D03*
%TO.P,J7,31,Pin_31*%
%TO.N,/24*%
X192460000Y-133440000D03*
%TO.P,J7,32,Pin_32*%
%TO.N,/25*%
X195000000Y-133440000D03*
%TO.P,J7,33,Pin_33*%
%TO.N,/22*%
X192460000Y-130900000D03*
%TO.P,J7,34,Pin_34*%
%TO.N,/23*%
X195000000Y-130900000D03*
%TO.P,J7,35,Pin_35*%
%TO.N,unconnected-(J7-Pin_35-Pad35)*%
X192460000Y-128360000D03*
%TO.P,J7,36,Pin_36*%
%TO.N,unconnected-(J7-Pin_36-Pad36)*%
X195000000Y-128360000D03*
%TD*%
D11*
%TO.P,J1,1,Pin_1*%
%TO.N,unconnected-(J1-Pin_1-Pad1)*%
X126420000Y-176620000D03*
D12*
%TO.P,J1,2,Pin_2*%
%TO.N,/IOREF*%
X128960000Y-176620000D03*
%TO.P,J1,3,Pin_3*%
%TO.N,/~{RESET}*%
X131500000Y-176620000D03*
%TO.P,J1,4,Pin_4*%
%TO.N,unconnected-(J1-Pin_4-Pad4)*%
X134040000Y-176620000D03*
%TO.P,J1,5,Pin_5*%
%TO.N,Net-(J1-Pin_5)*%
X136580000Y-176620000D03*
%TO.P,J1,6,Pin_6*%
%TO.N,GND*%
X139120000Y-176620000D03*
%TO.P,J1,7,Pin_7*%
X141660000Y-176620000D03*
%TO.P,J1,8,Pin_8*%
%TO.N,/Vin*%
X144200000Y-176620000D03*
%TD*%
D11*
%TO.P,J3,1,Pin_1*%
%TO.N,/A0*%
X149280000Y-176620000D03*
D12*
%TO.P,J3,2,Pin_2*%
%TO.N,/A1*%
X151820000Y-176620000D03*
%TO.P,J3,3,Pin_3*%
%TO.N,/A2*%
X154360000Y-176620000D03*
%TO.P,J3,4,Pin_4*%
%TO.N,/A3*%
X156900000Y-176620000D03*
%TO.P,J3,5,Pin_5*%
%TO.N,/A4*%
X159440000Y-176620000D03*
%TO.P,J3,6,Pin_6*%
%TO.N,/A5*%
X161980000Y-176620000D03*
%TO.P,J3,7,Pin_7*%
%TO.N,/A6*%
X164520000Y-176620000D03*
%TO.P,J3,8,Pin_8*%
%TO.N,/A7*%
X167060000Y-176620000D03*
%TD*%
D11*
%TO.P,J5,1,Pin_1*%
%TO.N,/A8*%
X172140000Y-176620000D03*
D12*
%TO.P,J5,2,Pin_2*%
%TO.N,/A9*%
X174680000Y-176620000D03*
%TO.P,J5,3,Pin_3*%
%TO.N,/A10*%
X177220000Y-176620000D03*
%TO.P,J5,4,Pin_4*%
%TO.N,/A11*%
X179760000Y-176620000D03*
D13*
%TO.P,J5,5,Pin_5*%
%TO.N,A12*%
X182300000Y-176620000D03*
D12*
%TO.P,J5,6,Pin_6*%
%TO.N,A13*%
X184840000Y-176620000D03*
%TO.P,J5,7,Pin_7*%
%TO.N,unconnected-(J5-Pin_7-Pad7)*%
X187380000Y-176620000D03*
%TO.P,J5,8,Pin_8*%
%TO.N,unconnected-(J5-Pin_8-Pad8)*%
X189920000Y-176620000D03*
%TD*%
D11*
%TO.P,J2,1,Pin_1*%
%TO.N,/SCL1*%
X117276000Y-128360000D03*
D12*
%TO.P,J2,2,Pin_2*%
%TO.N,/SDA1*%
X119816000Y-128360000D03*
%TO.P,J2,3,Pin_3*%
%TO.N,/AREF*%
X122356000Y-128360000D03*
%TO.P,J2,4,Pin_4*%
%TO.N,GND*%
X124896000Y-128360000D03*
%TO.P,J2,5,Pin_5*%
%TO.N,/\u002A13*%
X127436000Y-128360000D03*
%TO.P,J2,6,Pin_6*%
%TO.N,/\u002A12*%
X129976000Y-128360000D03*
%TO.P,J2,7,Pin_7*%
%TO.N,/\u002A11*%
X132516000Y-128360000D03*
%TO.P,J2,8,Pin_8*%
%TO.N,/\u002A10*%
X135056000Y-128360000D03*
%TO.P,J2,9,Pin_9*%
%TO.N,/\u002A9*%
X137596000Y-128360000D03*
%TO.P,J2,10,Pin_10*%
%TO.N,/\u002A8*%
X140136000Y-128360000D03*
%TD*%
D11*
%TO.P,J4,1,Pin_1*%
%TO.N,/\u002A7*%
X144200000Y-128360000D03*
D12*
%TO.P,J4,2,Pin_2*%
%TO.N,/\u002A6*%
X146740000Y-128360000D03*
%TO.P,J4,3,Pin_3*%
%TO.N,/\u002A5*%
X149280000Y-128360000D03*
%TO.P,J4,4,Pin_4*%
%TO.N,/\u002A4*%
X151820000Y-128360000D03*
%TO.P,J4,5,Pin_5*%
%TO.N,/\u002A3*%
X154360000Y-128360000D03*
%TO.P,J4,6,Pin_6*%
%TO.N,/\u002A2*%
X156900000Y-128360000D03*
%TO.P,J4,7,Pin_7*%
%TO.N,/TX0{slash}1*%
X159440000Y-128360000D03*
%TO.P,J4,8,Pin_8*%
%TO.N,/RX0{slash}0*%
X161980000Y-128360000D03*
%TD*%
D11*
%TO.P,J6,1,Pin_1*%
%TO.N,/TX3{slash}14*%
X167060000Y-128360000D03*
D12*
%TO.P,J6,2,Pin_2*%
%TO.N,/RX3{slash}15*%
X169600000Y-128360000D03*
%TO.P,J6,3,Pin_3*%
%TO.N,/TX2{slash}16*%
X172140000Y-128360000D03*
%TO.P,J6,4,Pin_4*%
%TO.N,/RX2{slash}17*%
X174680000Y-128360000D03*
%TO.P,J6,5,Pin_5*%
%TO.N,/TX1{slash}18*%
X177220000Y-128360000D03*
%TO.P,J6,6,Pin_6*%
%TO.N,/RX1{slash}19*%
X179760000Y-128360000D03*
%TO.P,J6,7,Pin_7*%
%TO.N,/SDA{slash}20*%
X182300000Y-128360000D03*
%TO.P,J6,8,Pin_8*%
%TO.N,/SCL{slash}21*%
X184840000Y-128360000D03*
%TD*%
D14*
%TO.P,R18,1*%
%TO.N,Net-(C24-Pad1)*%
X147242500Y-136140000D03*
%TO.P,R18,2*%
%TO.N,Net-(J17-B)*%
X145417500Y-136140000D03*
%TD*%
D15*
%TO.P,C52,1*%
%TO.N,GND*%
X144920000Y-170890000D03*
%TO.P,C52,2*%
%TO.N,Net-(U6-+IN1)*%
X144920000Y-168990000D03*
%TD*%
D16*
%TO.P,C43,1*%
%TO.N,GND*%
X178500000Y-142380000D03*
%TO.P,C43,2*%
%TO.N,+3.3V*%
X180400000Y-142380000D03*
%TD*%
D17*
%TO.P,C34,1*%
%TO.N,Net-(C34-Pad1)*%
X169480000Y-138400000D03*
%TO.P,C34,2*%
%TO.N,GND*%
X167580000Y-138400000D03*
%TD*%
D18*
%TO.P,R24,1*%
%TO.N,Net-(J9-Pin_3)*%
X135620000Y-163072500D03*
%TO.P,R24,2*%
%TO.N,Net-(U5-+IN1)*%
X135620000Y-161247500D03*
%TD*%
D11*
%TO.P,J17,1,A*%
%TO.N,A12*%
X148690000Y-141300000D03*
D12*
%TO.P,J17,2,C*%
%TO.N,Net-(J17-C)*%
X146150000Y-141300000D03*
%TO.P,J17,3,B*%
%TO.N,Net-(J17-B)*%
X143610000Y-141300000D03*
%TD*%
D19*
%TO.P,C44,1*%
%TO.N,GND*%
X138670000Y-153500000D03*
%TO.P,C44,2*%
%TO.N,Net-(U5--IN1)*%
X138670000Y-155400000D03*
%TD*%
D17*
%TO.P,C32,1*%
%TO.N,Net-(C32-Pad1)*%
X169410000Y-136180000D03*
%TO.P,C32,2*%
%TO.N,GND*%
X167510000Y-136180000D03*
%TD*%
D20*
%TO.P,R37,1*%
%TO.N,Net-(U4-IN-)*%
X175050000Y-137617500D03*
%TO.P,R37,2*%
%TO.N,Net-(U4-OUT)*%
X175050000Y-139442500D03*
%TD*%
D21*
%TO.P,J10,1*%
%TO.N,Net-(J18-A)*%
X107370000Y-139160000D03*
D22*
%TO.P,J10,2*%
%TO.N,GND*%
X101570000Y-139160000D03*
D23*
%TO.P,J10,3*%
%TO.N,unconnected-(J10-Pad3)*%
X104370000Y-143960000D03*
%TD*%
D16*
%TO.P,C21,1*%
%TO.N,Net-(C21-Pad1)*%
X155430000Y-140630000D03*
%TO.P,C21,2*%
%TO.N,GND*%
X157330000Y-140630000D03*
%TD*%
D17*
%TO.P,C49,1*%
%TO.N,GND*%
X141370000Y-145260000D03*
%TO.P,C49,2*%
%TO.N,Net-(U5-+IN2)*%
X139470000Y-145260000D03*
%TD*%
%TO.P,C27,1*%
%TO.N,GND*%
X164600000Y-133780000D03*
%TO.P,C27,2*%
%TO.N,+3.3V*%
X162700000Y-133780000D03*
%TD*%
D19*
%TO.P,C38,1*%
%TO.N,Net-(J13-Pin_1)*%
X118100000Y-142510000D03*
%TO.P,C38,2*%
%TO.N,GND*%
X118100000Y-144410000D03*
%TD*%
D11*
%TO.P,J9,1,Pin_1*%
%TO.N,+2.5V*%
X139750000Y-160360000D03*
D12*
%TO.P,J9,2,Pin_2*%
%TO.N,Net-(J9-Pin_2)*%
X139750000Y-162900000D03*
%TO.P,J9,3,Pin_3*%
%TO.N,Net-(J9-Pin_3)*%
X139750000Y-165440000D03*
%TO.P,J9,4,Pin_4*%
%TO.N,GND*%
X139750000Y-167980000D03*
%TD*%
D24*
%TO.P,R20,1*%
%TO.N,Net-(U7-IN-)*%
X151747500Y-140610000D03*
%TO.P,R20,2*%
%TO.N,Net-(C21-Pad1)*%
X153572500Y-140610000D03*
%TD*%
D25*
%TO.P,U8,1,GND*%
%TO.N,GND*%
X121407500Y-138895000D03*
%TO.P,U8,2,~{CSB}*%
%TO.N,unconnected-(U8-~{CSB}-Pad2)*%
X121407500Y-138245000D03*
%TO.P,U8,3,SDI*%
%TO.N,/SDA1*%
X121407500Y-137595000D03*
%TO.P,U8,4,SCK*%
%TO.N,/SCL1*%
X121407500Y-136945000D03*
%TO.P,U8,5,SDO*%
%TO.N,Net-(J19-C)*%
X122857500Y-136945000D03*
%TO.P,U8,6,VDDIO*%
%TO.N,+3.3V*%
X122857500Y-137595000D03*
%TO.P,U8,7,GND*%
%TO.N,GND*%
X122857500Y-138245000D03*
%TO.P,U8,8,VDD*%
%TO.N,+3.3V*%
X122857500Y-138895000D03*
%TD*%
D11*
%TO.P,J19,1,A*%
%TO.N,GND*%
X125960000Y-133250000D03*
D12*
%TO.P,J19,2,C*%
%TO.N,Net-(J19-C)*%
X123420000Y-133250000D03*
%TO.P,J19,3,B*%
%TO.N,Net-(J19-B)*%
X120880000Y-133250000D03*
%TD*%
D16*
%TO.P,C53,1*%
%TO.N,GND*%
X171580000Y-164530000D03*
%TO.P,C53,2*%
%TO.N,Net-(U6--IN2)*%
X173480000Y-164530000D03*
%TD*%
D26*
%TO.P,LS2,1,1*%
%TO.N,Net-(C64-Pad1)*%
X181910000Y-157510000D03*
%TO.P,LS2,2,2*%
%TO.N,GND*%
X181910000Y-147510000D03*
%TD*%
D16*
%TO.P,C36,1*%
%TO.N,Net-(U12-I)*%
X111760000Y-146640000D03*
%TO.P,C36,2*%
%TO.N,GND*%
X113660000Y-146640000D03*
%TD*%
D15*
%TO.P,C46,1*%
%TO.N,GND*%
X131720000Y-159850000D03*
%TO.P,C46,2*%
%TO.N,Net-(U5-+IN1)*%
X131720000Y-157950000D03*
%TD*%
D20*
%TO.P,R38,1*%
%TO.N,Net-(U4-OUT)*%
X175080000Y-141287500D03*
%TO.P,R38,2*%
%TO.N,Net-(C64-Pad1)*%
X175080000Y-143112500D03*
%TD*%
D16*
%TO.P,C62,1*%
%TO.N,+3.3V*%
X156280000Y-163630000D03*
%TO.P,C62,2*%
%TO.N,GND*%
X158180000Y-163630000D03*
%TD*%
D20*
%TO.P,R1,1*%
%TO.N,+3.3V*%
X100970000Y-157357500D03*
%TO.P,R1,2*%
%TO.N,Net-(D1-A)*%
X100970000Y-159182500D03*
%TD*%
D19*
%TO.P,C54,1*%
%TO.N,Net-(U6--IN2)*%
X172680000Y-166800000D03*
%TO.P,C54,2*%
%TO.N,Net-(U6-+IN2)*%
X172680000Y-168700000D03*
%TD*%
D27*
%TO.P,FB1,1*%
%TO.N,Net-(J13-Pin_1)*%
X114195000Y-143960000D03*
%TO.P,FB1,2*%
%TO.N,Net-(U12-I)*%
X111345000Y-143960000D03*
%TD*%
D24*
%TO.P,R36,1*%
%TO.N,Net-(U4-IN-)*%
X182277500Y-131770000D03*
%TO.P,R36,2*%
%TO.N,Net-(C39-Pad1)*%
X184102500Y-131770000D03*
%TD*%
D17*
%TO.P,C64,1*%
%TO.N,Net-(C64-Pad1)*%
X172780000Y-145030000D03*
%TO.P,C64,2*%
%TO.N,Net-(C64-Pad2)*%
X170880000Y-145030000D03*
%TD*%
D28*
%TO.P,D1,1,K*%
%TO.N,GND*%
X102917500Y-161160000D03*
%TO.P,D1,2,A*%
%TO.N,Net-(D1-A)*%
X101042500Y-161160000D03*
%TD*%
D11*
%TO.P,J12,1,Pin_1*%
%TO.N,+2.5V*%
X168750000Y-161100000D03*
D12*
%TO.P,J12,2,Pin_2*%
%TO.N,Net-(J12-Pin_2)*%
X166210000Y-161100000D03*
%TO.P,J12,3,Pin_3*%
%TO.N,Net-(J12-Pin_3)*%
X163670000Y-161100000D03*
%TO.P,J12,4,Pin_4*%
%TO.N,GND*%
X161130000Y-161100000D03*
%TD*%
D11*
%TO.P,J18,1,A*%
%TO.N,Net-(J18-A)*%
X111780000Y-133590000D03*
D12*
%TO.P,J18,2,C*%
%TO.N,Net-(J13-Pin_1)*%
X114320000Y-133590000D03*
%TO.P,J18,3,B*%
%TO.N,Net-(J1-Pin_5)*%
X116860000Y-133590000D03*
%TD*%
D17*
%TO.P,C25,1*%
%TO.N,GND*%
X164610000Y-136090000D03*
%TO.P,C25,2*%
%TO.N,+3.3V*%
X162710000Y-136090000D03*
%TD*%
D16*
%TO.P,C48,1*%
%TO.N,Net-(U5--IN2)*%
X134580000Y-145780000D03*
%TO.P,C48,2*%
%TO.N,Net-(U5-+IN2)*%
X136480000Y-145780000D03*
%TD*%
D29*
%TO.P,U7,1,NC*%
%TO.N,unconnected-(U7-NC-Pad1)*%
X153626200Y-133225000D03*
%TO.P,U7,2,IN-*%
%TO.N,Net-(U7-IN-)*%
X153626200Y-134495000D03*
%TO.P,U7,3,IN+*%
%TO.N,Net-(J17-C)*%
X153626200Y-135765000D03*
%TO.P,U7,4,VS-*%
%TO.N,GND*%
X153626200Y-137035000D03*
%TO.P,U7,5,NC*%
%TO.N,unconnected-(U7-NC-Pad5)*%
X158553800Y-137035000D03*
%TO.P,U7,6,OUT*%
%TO.N,Net-(U7-OUT)*%
X158553800Y-135765000D03*
%TO.P,U7,7,VS+*%
%TO.N,+3.3V*%
X158553800Y-134495000D03*
%TO.P,U7,8,NC*%
%TO.N,unconnected-(U7-NC-Pad8)*%
X158553800Y-133225000D03*
%TD*%
D18*
%TO.P,R31,1*%
%TO.N,Net-(J20-Pin_3)*%
X178240000Y-168222500D03*
%TO.P,R31,2*%
%TO.N,Net-(U6-+IN2)*%
X178240000Y-166397500D03*
%TD*%
D14*
%TO.P,R35,1*%
%TO.N,Net-(R35-Pad1)*%
X161612500Y-165980000D03*
%TO.P,R35,2*%
%TO.N,Net-(R35-Pad2)*%
X159787500Y-165980000D03*
%TD*%
D19*
%TO.P,C24,1*%
%TO.N,Net-(C24-Pad1)*%
X149320000Y-133240000D03*
%TO.P,C24,2*%
%TO.N,GND*%
X149320000Y-135140000D03*
%TD*%
D17*
%TO.P,C41,1*%
%TO.N,+2.5V*%
X168060000Y-164170000D03*
%TO.P,C41,2*%
%TO.N,GND*%
X166160000Y-164170000D03*
%TD*%
D24*
%TO.P,R17,1*%
%TO.N,Net-(C23-Pad1)*%
X145397500Y-134160000D03*
%TO.P,R17,2*%
%TO.N,Net-(C24-Pad1)*%
X147222500Y-134160000D03*
%TD*%
D18*
%TO.P,R30,1*%
%TO.N,Net-(J20-Pin_2)*%
X178290000Y-164432500D03*
%TO.P,R30,2*%
%TO.N,Net-(U6--IN2)*%
X178290000Y-162607500D03*
%TD*%
D19*
%TO.P,C4,1*%
%TO.N,+3.3V*%
X103306000Y-157360000D03*
%TO.P,C4,2*%
%TO.N,GND*%
X103306000Y-159260000D03*
%TD*%
D18*
%TO.P,R23,1*%
%TO.N,Net-(J9-Pin_2)*%
X135630000Y-159462500D03*
%TO.P,R23,2*%
%TO.N,Net-(U5--IN1)*%
X135630000Y-157637500D03*
%TD*%
D20*
%TO.P,R22,1*%
%TO.N,Net-(C32-Pad1)*%
X171780000Y-135715000D03*
%TO.P,R22,2*%
%TO.N,Net-(C34-Pad1)*%
X171780000Y-137540000D03*
%TD*%
D24*
%TO.P,R39,1*%
%TO.N,GND*%
X167130000Y-145040000D03*
%TO.P,R39,2*%
%TO.N,Net-(C64-Pad2)*%
X168955000Y-145040000D03*
%TD*%
D16*
%TO.P,C33,1*%
%TO.N,+2.5V*%
X137820000Y-157400000D03*
%TO.P,C33,2*%
%TO.N,GND*%
X139720000Y-157400000D03*
%TD*%
D11*
%TO.P,J20,1,Pin_1*%
%TO.N,+2.5V*%
X181900000Y-163890000D03*
D12*
%TO.P,J20,2,Pin_2*%
%TO.N,Net-(J20-Pin_2)*%
X181900000Y-166430000D03*
%TO.P,J20,3,Pin_3*%
%TO.N,Net-(J20-Pin_3)*%
X181900000Y-168970000D03*
%TO.P,J20,4,Pin_4*%
%TO.N,GND*%
X181900000Y-171510000D03*
%TD*%
D11*
%TO.P,J8,1,A*%
%TO.N,A13*%
X188040000Y-140640000D03*
D12*
%TO.P,J8,2,C*%
%TO.N,Net-(J8-C)*%
X188040000Y-138100000D03*
%TO.P,J8,3,B*%
%TO.N,Net-(J8-B)*%
X188040000Y-135560000D03*
%TD*%
D27*
%TO.P,FB2,1*%
%TO.N,Net-(U12-Q)*%
X105635000Y-154360000D03*
%TO.P,FB2,2*%
%TO.N,+3.3V*%
X102785000Y-154360000D03*
%TD*%
D20*
%TO.P,R14,1*%
%TO.N,GND*%
X160940000Y-143227500D03*
%TO.P,R14,2*%
%TO.N,Net-(C22-Pad2)*%
X160940000Y-145052500D03*
%TD*%
%TO.P,R27,1*%
%TO.N,Net-(J11-Pin_3)*%
X135400000Y-141517500D03*
%TO.P,R27,2*%
%TO.N,Net-(U5-+IN2)*%
X135400000Y-143342500D03*
%TD*%
D26*
%TO.P,LS1,1,1*%
%TO.N,Net-(C22-Pad1)*%
X148390000Y-147510000D03*
%TO.P,LS1,2,2*%
%TO.N,GND*%
X148390000Y-157510000D03*
%TD*%
D19*
%TO.P,C61,1*%
%TO.N,+3.3V*%
X126560000Y-150400000D03*
%TO.P,C61,2*%
%TO.N,GND*%
X126560000Y-152300000D03*
%TD*%
D20*
%TO.P,R26,1*%
%TO.N,Net-(J11-Pin_2)*%
X130350000Y-137657500D03*
%TO.P,R26,2*%
%TO.N,Net-(U5--IN2)*%
X130350000Y-139482500D03*
%TD*%
D24*
%TO.P,R19,1*%
%TO.N,Net-(U7-IN-)*%
X151747500Y-142800000D03*
%TO.P,R19,2*%
%TO.N,Net-(U7-OUT)*%
X153572500Y-142800000D03*
%TD*%
D11*
%TO.P,J14,1,Pin_1*%
%TO.N,+2.5V*%
X116750000Y-175035000D03*
D12*
%TO.P,J14,2,Pin_2*%
%TO.N,GND*%
X116750000Y-177575000D03*
%TD*%
D15*
%TO.P,C15,1*%
%TO.N,+3.3V*%
X125060000Y-139240000D03*
%TO.P,C15,2*%
%TO.N,GND*%
X125060000Y-137340000D03*
%TD*%
%TO.P,C40,1*%
%TO.N,+2.5V*%
X135270000Y-135100000D03*
%TO.P,C40,2*%
%TO.N,GND*%
X135270000Y-133200000D03*
%TD*%
D19*
%TO.P,C37,1*%
%TO.N,+3.3V*%
X105592000Y-157360000D03*
%TO.P,C37,2*%
%TO.N,GND*%
X105592000Y-159260000D03*
%TD*%
D24*
%TO.P,R16,1*%
%TO.N,Net-(C23-Pad1)*%
X142690000Y-132000000D03*
%TO.P,R16,2*%
%TO.N,/\u002A3*%
X144515000Y-132000000D03*
%TD*%
D17*
%TO.P,C63,1*%
%TO.N,GND*%
X184350000Y-142430000D03*
%TO.P,C63,2*%
%TO.N,+3.3V*%
X182450000Y-142430000D03*
%TD*%
D16*
%TO.P,C22,1*%
%TO.N,Net-(C22-Pad1)*%
X155480000Y-144830000D03*
%TO.P,C22,2*%
%TO.N,Net-(C22-Pad2)*%
X157380000Y-144830000D03*
%TD*%
D11*
%TO.P,J16,1,Pin_1*%
%TO.N,+1.25V_REF*%
X121180000Y-175025000D03*
D12*
%TO.P,J16,2,Pin_2*%
%TO.N,GND*%
X121180000Y-177565000D03*
%TD*%
D17*
%TO.P,C42,1*%
%TO.N,+2.5V*%
X186490000Y-173310000D03*
%TO.P,C42,2*%
%TO.N,GND*%
X184590000Y-173310000D03*
%TD*%
D19*
%TO.P,C23,1*%
%TO.N,Net-(C23-Pad1)*%
X142970000Y-134270000D03*
%TO.P,C23,2*%
%TO.N,GND*%
X142970000Y-136170000D03*
%TD*%
D18*
%TO.P,R33,1*%
%TO.N,Net-(R33-Pad1)*%
X138670000Y-151212500D03*
%TO.P,R33,2*%
%TO.N,Net-(R33-Pad2)*%
X138670000Y-149387500D03*
%TD*%
D20*
%TO.P,R25,1*%
%TO.N,Net-(C34-Pad1)*%
X171780000Y-139327500D03*
%TO.P,R25,2*%
%TO.N,Net-(J8-B)*%
X171780000Y-141152500D03*
%TD*%
D16*
%TO.P,C51,1*%
%TO.N,Net-(U6--IN1)*%
X148060000Y-164320000D03*
%TO.P,C51,2*%
%TO.N,Net-(U6-+IN1)*%
X149960000Y-164320000D03*
%TD*%
D30*
%TO.P,U5,1,-IN1*%
%TO.N,Net-(U5--IN1)*%
X132182000Y-149764800D03*
%TO.P,U5,2,RG1*%
%TO.N,Net-(R32-Pad1)*%
X132182000Y-150399800D03*
%TO.P,U5,3,RG1*%
%TO.N,Net-(R32-Pad2)*%
X132182000Y-151060200D03*
%TO.P,U5,4,+IN1*%
%TO.N,Net-(U5-+IN1)*%
X132182000Y-151695200D03*
D31*
%TO.P,U5,5,+VS*%
%TO.N,+3.3V*%
X132994800Y-152508000D03*
%TO.P,U5,6,REF1*%
%TO.N,+1.25V_REF*%
X133629800Y-152508000D03*
%TO.P,U5,7,REF2*%
X134290200Y-152508000D03*
%TO.P,U5,8,-VS*%
%TO.N,GND*%
X134925200Y-152508000D03*
D30*
%TO.P,U5,9,+IN2*%
%TO.N,Net-(U5-+IN2)*%
X135738000Y-151695200D03*
%TO.P,U5,10,RG2*%
%TO.N,Net-(R33-Pad1)*%
X135738000Y-151060200D03*
%TO.P,U5,11,RG2*%
%TO.N,Net-(R33-Pad2)*%
X135738000Y-150399800D03*
%TO.P,U5,12,-IN2*%
%TO.N,Net-(U5--IN2)*%
X135738000Y-149764800D03*
D31*
%TO.P,U5,13,-VS*%
%TO.N,GND*%
X134925200Y-148952000D03*
%TO.P,U5,14,OUT2*%
%TO.N,/A2*%
X134290200Y-148952000D03*
%TO.P,U5,15,OUT1*%
%TO.N,/A0*%
X133629800Y-148952000D03*
%TO.P,U5,16,+VS*%
%TO.N,+3.3V*%
X132994800Y-148952000D03*
%TD*%
D11*
%TO.P,J11,1,Pin_1*%
%TO.N,+2.5V*%
X139430000Y-134190000D03*
D12*
%TO.P,J11,2,Pin_2*%
%TO.N,Net-(J11-Pin_2)*%
X139430000Y-136730000D03*
%TO.P,J11,3,Pin_3*%
%TO.N,Net-(J11-Pin_3)*%
X139430000Y-139270000D03*
%TO.P,J11,4,Pin_4*%
%TO.N,GND*%
X139430000Y-141810000D03*
%TD*%
D17*
%TO.P,C35,1*%
%TO.N,Net-(J8-B)*%
X169480000Y-140720000D03*
%TO.P,C35,2*%
%TO.N,GND*%
X167580000Y-140720000D03*
%TD*%
D16*
%TO.P,C26,1*%
%TO.N,Net-(J17-B)*%
X145400000Y-138420000D03*
%TO.P,C26,2*%
%TO.N,GND*%
X147300000Y-138420000D03*
%TD*%
D11*
%TO.P,J13,1,Pin_1*%
%TO.N,Net-(J13-Pin_1)*%
X111350000Y-140555000D03*
D12*
%TO.P,J13,2,Pin_2*%
%TO.N,GND*%
X111350000Y-138015000D03*
%TD*%
D11*
%TO.P,J15,1,Pin_1*%
%TO.N,+3.3V*%
X100705000Y-148160000D03*
D12*
%TO.P,J15,2,Pin_2*%
%TO.N,GND*%
X103245000Y-148160000D03*
%TD*%
D17*
%TO.P,C45,1*%
%TO.N,Net-(U5--IN1)*%
X135410000Y-155510000D03*
%TO.P,C45,2*%
%TO.N,Net-(U5-+IN1)*%
X133510000Y-155510000D03*
%TD*%
D24*
%TO.P,R15,1*%
%TO.N,Net-(U7-OUT)*%
X155517500Y-142800000D03*
%TO.P,R15,2*%
%TO.N,Net-(C22-Pad1)*%
X157342500Y-142800000D03*
%TD*%
D18*
%TO.P,R21,1*%
%TO.N,Net-(C32-Pad1)*%
X170060000Y-133752500D03*
%TO.P,R21,2*%
%TO.N,/\u002A2*%
X170060000Y-131927500D03*
%TD*%
D20*
%TO.P,R28,1*%
%TO.N,Net-(J12-Pin_2)*%
X144900000Y-161417500D03*
%TO.P,R28,2*%
%TO.N,Net-(U6--IN1)*%
X144900000Y-163242500D03*
%TD*%
D16*
%TO.P,C39,1*%
%TO.N,Net-(C39-Pad1)*%
X186380000Y-131790000D03*
%TO.P,C39,2*%
%TO.N,GND*%
X188280000Y-131790000D03*
%TD*%
D17*
%TO.P,C47,1*%
%TO.N,GND*%
X133260000Y-143670000D03*
%TO.P,C47,2*%
%TO.N,Net-(U5--IN2)*%
X131360000Y-143670000D03*
%TD*%
D19*
%TO.P,C55,1*%
%TO.N,+3.3V*%
X108132000Y-157382000D03*
%TO.P,C55,2*%
%TO.N,GND*%
X108132000Y-159282000D03*
%TD*%
D20*
%TO.P,R32,1*%
%TO.N,Net-(R32-Pad1)*%
X127470000Y-146347500D03*
%TO.P,R32,2*%
%TO.N,Net-(R32-Pad2)*%
X127470000Y-148172500D03*
%TD*%
D14*
%TO.P,R34,1*%
%TO.N,Net-(R34-Pad1)*%
X153742500Y-164090000D03*
%TO.P,R34,2*%
%TO.N,Net-(R34-Pad2)*%
X151917500Y-164090000D03*
%TD*%
D15*
%TO.P,C58,1*%
%TO.N,GND*%
X178260000Y-171870000D03*
%TO.P,C58,2*%
%TO.N,Net-(U6-+IN2)*%
X178260000Y-169970000D03*
%TD*%
D32*
%TO.P,U4,1,NC*%
%TO.N,unconnected-(U4-NC-Pad1)*%
X181672500Y-134381150D03*
%TO.P,U4,2,IN-*%
%TO.N,Net-(U4-IN-)*%
X180402500Y-134381150D03*
%TO.P,U4,3,IN+*%
%TO.N,Net-(J8-C)*%
X179132500Y-134381150D03*
%TO.P,U4,4,VS-*%
%TO.N,GND*%
X177862500Y-134381150D03*
%TO.P,U4,5,NC*%
%TO.N,unconnected-(U4-NC-Pad5)*%
X177862500Y-139308750D03*
%TO.P,U4,6,OUT*%
%TO.N,Net-(U4-OUT)*%
X179132500Y-139308750D03*
%TO.P,U4,7,VS+*%
%TO.N,+3.3V*%
X180402500Y-139308750D03*
%TO.P,U4,8,NC*%
%TO.N,unconnected-(U4-NC-Pad8)*%
X181672500Y-139308750D03*
%TD*%
D16*
%TO.P,C50,1*%
%TO.N,GND*%
X148070000Y-162240000D03*
%TO.P,C50,2*%
%TO.N,Net-(U6--IN1)*%
X149970000Y-162240000D03*
%TD*%
D31*
%TO.P,U6,1,-IN1*%
%TO.N,Net-(U6--IN1)*%
X151800200Y-167107000D03*
%TO.P,U6,2,RG1*%
%TO.N,Net-(R34-Pad1)*%
X151165200Y-167107000D03*
%TO.P,U6,3,RG1*%
%TO.N,Net-(R34-Pad2)*%
X150504800Y-167107000D03*
%TO.P,U6,4,+IN1*%
%TO.N,Net-(U6-+IN1)*%
X149869800Y-167107000D03*
D30*
%TO.P,U6,5,+VS*%
%TO.N,+3.3V*%
X149057000Y-167919800D03*
%TO.P,U6,6,REF1*%
%TO.N,+1.25V_REF*%
X149057000Y-168554800D03*
%TO.P,U6,7,REF2*%
X149057000Y-169215200D03*
%TO.P,U6,8,-VS*%
%TO.N,GND*%
X149057000Y-169850200D03*
D31*
%TO.P,U6,9,+IN2*%
%TO.N,Net-(U6-+IN2)*%
X149869800Y-170663000D03*
%TO.P,U6,10,RG2*%
%TO.N,Net-(R35-Pad1)*%
X150504800Y-170663000D03*
%TO.P,U6,11,RG2*%
%TO.N,Net-(R35-Pad2)*%
X151165200Y-170663000D03*
%TO.P,U6,12,-IN2*%
%TO.N,Net-(U6--IN2)*%
X151800200Y-170663000D03*
D30*
%TO.P,U6,13,-VS*%
%TO.N,GND*%
X152613000Y-169850200D03*
%TO.P,U6,14,OUT2*%
%TO.N,/A7*%
X152613000Y-169215200D03*
%TO.P,U6,15,OUT1*%
%TO.N,/A11*%
X152613000Y-168554800D03*
%TO.P,U6,16,+VS*%
%TO.N,+3.3V*%
X152613000Y-167919800D03*
%TD*%
D17*
%TO.P,C3,1*%
%TO.N,Net-(U12-Q)*%
X104480000Y-151360000D03*
%TO.P,C3,2*%
%TO.N,GND*%
X102580000Y-151360000D03*
%TD*%
D20*
%TO.P,R29,1*%
%TO.N,Net-(J12-Pin_3)*%
X144900000Y-165077500D03*
%TO.P,R29,2*%
%TO.N,Net-(U6-+IN1)*%
X144900000Y-166902500D03*
%TD*%
D33*
%TO.N,GND*%
X176930000Y-143350000D03*
X154000000Y-161000000D03*
X133000000Y-141000000D03*
X238300000Y-234600000D03*
X124930000Y-165000000D03*
X227700000Y-193300000D03*
X154811446Y-170811446D03*
X65900000Y-150300000D03*
X78700000Y-106400000D03*
X161650000Y-141150000D03*
X148400000Y-235300000D03*
X116955000Y-147955000D03*
X128370000Y-153630000D03*
X152000000Y-137000000D03*
X136960000Y-153000000D03*
X67900000Y-108700000D03*
X133830000Y-164750000D03*
X159000000Y-61950000D03*
X109540000Y-160340000D03*
X65700000Y-70200000D03*
X232600000Y-145700000D03*
X120380000Y-140470000D03*
X191200000Y-80500000D03*
X236900000Y-191100000D03*
X103000000Y-236900000D03*
X230500000Y-68000000D03*
X114750000Y-148100000D03*
X164500000Y-131740000D03*
X190500000Y-71200000D03*
X149000000Y-137000000D03*
X60400000Y-237900000D03*
X106800000Y-223200000D03*
%TO.N,/A8*%
X236500000Y-195700000D03*
%TO.N,/A10*%
X198500000Y-179400000D03*
X193800000Y-73900000D03*
%TO.N,/A11*%
X158450000Y-170480000D03*
X159420000Y-172040000D03*
X156260000Y-169009500D03*
%TO.N,/A9*%
X200300000Y-180600000D03*
X194350000Y-72800000D03*
%TO.N,/SCL1*%
X117840000Y-136390000D03*
%TO.N,+2.5V*%
X58100000Y-128300000D03*
X143500000Y-239100000D03*
X141600000Y-172800000D03*
X242400000Y-66000000D03*
X237500000Y-160800000D03*
X175000000Y-162000000D03*
X233600000Y-239100000D03*
X176400000Y-63900000D03*
X54800000Y-156800000D03*
X51200000Y-236600000D03*
X66350000Y-63650000D03*
%TO.N,+3.3V*%
X78600000Y-104200000D03*
X228300000Y-200400000D03*
X124780000Y-141070000D03*
X169300000Y-69400000D03*
X157655000Y-166345000D03*
X128893950Y-149498302D03*
X67800000Y-100900000D03*
X161010000Y-132750000D03*
X236900000Y-200000000D03*
X169200000Y-82400000D03*
X147000000Y-167000000D03*
X129669500Y-152220000D03*
X91700000Y-150800000D03*
X182900000Y-144800000D03*
X175670000Y-145220000D03*
X114180000Y-158190000D03*
X119940000Y-157660000D03*
X132760000Y-147620000D03*
X123730000Y-145600000D03*
X111290000Y-156750000D03*
X95500000Y-235325000D03*
X96900000Y-229700000D03*
%TO.N,+1.25V_REF*%
X118990000Y-172280000D03*
X110000000Y-129100000D03*
X188500000Y-174400000D03*
X146860000Y-168540000D03*
X208900000Y-176500000D03*
X129920000Y-154670000D03*
X128600000Y-132300000D03*
X119260000Y-156590000D03*
%TO.N,/A5*%
X100800000Y-238700000D03*
X160700000Y-182000000D03*
%TO.N,/A0*%
X134210000Y-147550000D03*
%TO.N,/SDA1*%
X119670000Y-138550000D03*
%TO.N,/A6*%
X235200000Y-195300000D03*
%TO.N,/A1*%
X144400000Y-183500000D03*
X70100000Y-105000000D03*
%TO.N,/A2*%
X135150000Y-147520000D03*
X146750000Y-174930000D03*
%TO.N,/A7*%
X160210000Y-174094500D03*
X155350000Y-169580000D03*
X158405589Y-172463949D03*
X157650000Y-171380000D03*
%TO.N,/A3*%
X149900000Y-182100000D03*
X69800000Y-106500000D03*
%TO.N,/A4*%
X100000000Y-239300000D03*
X158800000Y-183600000D03*
%TO.N,Net-(J1-Pin_5)*%
X110270000Y-170360000D03*
X125330000Y-174040000D03*
%TO.N,Net-(U12-Q)*%
X106380000Y-150990000D03*
%TO.N,Net-(U12-I)*%
X110730000Y-148270000D03*
%TO.N,Net-(J12-Pin_3)*%
X146629500Y-161600000D03*
X146629500Y-164240000D03*
%TO.N,Net-(U2--IN1)*%
X87300000Y-234800000D03*
X85700000Y-230200000D03*
%TO.N,Net-(U1--IN1)*%
X72000000Y-84700000D03*
X80100000Y-83200000D03*
%TO.N,Net-(J8-B)*%
X173570000Y-134470000D03*
%TO.N,Net-(U5--IN1)*%
X134770000Y-154100000D03*
X130890000Y-147670000D03*
%TO.N,Net-(U5-+IN1)*%
X130440000Y-151160000D03*
X131690000Y-155750000D03*
%TO.N,Net-(U6-+IN2)*%
X161840000Y-169740000D03*
X149450000Y-172150000D03*
%TO.N,Net-(J8-C)*%
X180680000Y-132180000D03*
%TO.N,Net-(U9-+IN1)*%
X236700000Y-224200000D03*
X239400000Y-224200000D03*
%TO.N,Net-(U10-+IN1)*%
X233300000Y-78400000D03*
X235400000Y-76200000D03*
%TD*%
D34*
%TO.N,Net-(C64-Pad2)*%
X170870000Y-145040000D02*
X170880000Y-145030000D01*
X168955000Y-145040000D02*
X170870000Y-145040000D01*
D35*
%TO.N,/A3*%
X74500000Y-135500000D02*
X83400000Y-135500000D01*
X89200000Y-174100000D02*
X97200000Y-182100000D01*
X69300000Y-130300000D02*
X74500000Y-135500000D01*
X69300000Y-107000000D02*
X69300000Y-130300000D01*
X89200000Y-141300000D02*
X89200000Y-174100000D01*
X69800000Y-106500000D02*
X69300000Y-107000000D01*
X83400000Y-135500000D02*
X89200000Y-141300000D01*
X97200000Y-182100000D02*
X149900000Y-182100000D01*
%TO.N,/A1*%
X95600000Y-183500000D02*
X144400000Y-183500000D01*
X86800000Y-174700000D02*
X95600000Y-183500000D01*
X86800000Y-141300000D02*
X86800000Y-174700000D01*
X72900000Y-137600000D02*
X83100000Y-137600000D01*
X66800000Y-131500000D02*
X72900000Y-137600000D01*
X83100000Y-137600000D02*
X86800000Y-141300000D01*
X67400000Y-105000000D02*
X66800000Y-105600000D01*
X70100000Y-105000000D02*
X67400000Y-105000000D01*
X66800000Y-105600000D02*
X66800000Y-131500000D01*
D34*
%TO.N,GND*%
X171580000Y-164530000D02*
X170620000Y-165490000D01*
X121947500Y-138895000D02*
X122597500Y-138245000D01*
D35*
X154000000Y-161000000D02*
X149310000Y-161000000D01*
X147300000Y-138420000D02*
X147580000Y-138420000D01*
X152000000Y-137000000D02*
X153591200Y-137000000D01*
X153574246Y-170811446D02*
X152613000Y-169850200D01*
D36*
X137130000Y-131340000D02*
X140420000Y-131340000D01*
X184590000Y-173310000D02*
X183700000Y-173310000D01*
D34*
X152442800Y-169680000D02*
X152613000Y-169850200D01*
X134750000Y-149127200D02*
X134925200Y-148952000D01*
D36*
X126560000Y-152300000D02*
X127040000Y-152300000D01*
D35*
X149310000Y-161000000D02*
X148070000Y-162240000D01*
D36*
X125060000Y-137340000D02*
X125960000Y-136440000D01*
D35*
X133000000Y-142000000D02*
X133260000Y-142260000D01*
D34*
X133830000Y-164750000D02*
X133830000Y-161960000D01*
D36*
X183700000Y-173310000D02*
X181900000Y-171510000D01*
D34*
X160940000Y-141860000D02*
X161650000Y-141150000D01*
D35*
X133260000Y-142260000D02*
X133260000Y-143000000D01*
D34*
X137460000Y-153500000D02*
X136960000Y-153000000D01*
X102917500Y-161160000D02*
X102917500Y-159648500D01*
X167130000Y-145040000D02*
X167130000Y-141170000D01*
X164600000Y-133780000D02*
X164600000Y-131840000D01*
D36*
X166160000Y-164170000D02*
X164200000Y-164170000D01*
D34*
X164610000Y-136090000D02*
X164610000Y-133790000D01*
X177900000Y-142380000D02*
X176930000Y-143350000D01*
X176351350Y-132870000D02*
X169260000Y-132870000D01*
X134750000Y-152332800D02*
X134750000Y-149127200D01*
D36*
X125960000Y-136440000D02*
X125960000Y-133250000D01*
D34*
X160940000Y-143227500D02*
X160940000Y-141860000D01*
D36*
X118100000Y-144410000D02*
X118020000Y-144410000D01*
D34*
X120380000Y-140470000D02*
X121407500Y-139442500D01*
X122597500Y-138245000D02*
X122857500Y-138245000D01*
X178260000Y-171870000D02*
X181540000Y-171870000D01*
X135260000Y-153000000D02*
X134935000Y-152675000D01*
D36*
X164200000Y-164170000D02*
X161130000Y-161100000D01*
X118020000Y-144410000D02*
X115790000Y-146640000D01*
D34*
X149227200Y-169680000D02*
X152442800Y-169680000D01*
D36*
X140420000Y-131340000D02*
X141580000Y-132500000D01*
X158600000Y-163630000D02*
X161130000Y-161100000D01*
D34*
X105592000Y-159260000D02*
X108110000Y-159260000D01*
D36*
X127040000Y-152300000D02*
X128370000Y-153630000D01*
D34*
X167510000Y-136180000D02*
X164700000Y-136180000D01*
D35*
X139430000Y-141810000D02*
X142970000Y-138270000D01*
D34*
X178500000Y-142380000D02*
X177900000Y-142380000D01*
X140180000Y-156940000D02*
X139720000Y-157400000D01*
D35*
X133000000Y-141000000D02*
X133000000Y-142000000D01*
D34*
X187120000Y-130630000D02*
X188280000Y-131790000D01*
X134925200Y-152508000D02*
X134750000Y-152332800D01*
X168380000Y-133750000D02*
X168380000Y-135310000D01*
D35*
X142970000Y-138270000D02*
X142970000Y-136170000D01*
D36*
X184350000Y-142430000D02*
X184350000Y-145070000D01*
D34*
X102917500Y-159648500D02*
X103306000Y-159260000D01*
X140800000Y-143180000D02*
X139430000Y-141810000D01*
X167580000Y-140720000D02*
X167580000Y-138400000D01*
X164610000Y-133790000D02*
X164600000Y-133780000D01*
D35*
X141370000Y-145260000D02*
X141370000Y-143750000D01*
D34*
X102580000Y-151360000D02*
X102580000Y-148825000D01*
D36*
X158180000Y-163630000D02*
X158600000Y-163630000D01*
D34*
X177862500Y-133669950D02*
X180902450Y-130630000D01*
D35*
X149320000Y-136680000D02*
X149000000Y-137000000D01*
D36*
X135270000Y-133200000D02*
X137130000Y-131340000D01*
D34*
X138670000Y-153500000D02*
X137460000Y-153500000D01*
X177862500Y-134381150D02*
X176351350Y-132870000D01*
X164700000Y-136180000D02*
X164610000Y-136090000D01*
D35*
X153591200Y-137000000D02*
X153626200Y-137035000D01*
D34*
X121407500Y-138895000D02*
X121947500Y-138895000D01*
D35*
X161650000Y-141150000D02*
X161130000Y-140630000D01*
X154811446Y-170811446D02*
X153574246Y-170811446D01*
X147580000Y-138420000D02*
X149000000Y-137000000D01*
D34*
X121407500Y-139442500D02*
X121407500Y-138895000D01*
X138670000Y-153500000D02*
X140180000Y-155010000D01*
X144920000Y-170890000D02*
X147860000Y-170890000D01*
X164680000Y-165490000D02*
X161130000Y-161940000D01*
X133830000Y-161960000D02*
X131720000Y-159850000D01*
D35*
X161130000Y-140630000D02*
X157330000Y-140630000D01*
D34*
X180902450Y-130630000D02*
X187120000Y-130630000D01*
D36*
X141580000Y-132500000D02*
X141580000Y-134780000D01*
D34*
X167130000Y-141170000D02*
X167580000Y-140720000D01*
X103306000Y-159260000D02*
X105592000Y-159260000D01*
X161130000Y-161940000D02*
X161130000Y-161100000D01*
D35*
X133260000Y-143000000D02*
X133260000Y-143670000D01*
D34*
X136960000Y-153000000D02*
X135260000Y-153000000D01*
D36*
X113660000Y-147010000D02*
X114750000Y-148100000D01*
D34*
X102580000Y-148825000D02*
X103245000Y-148160000D01*
X168380000Y-135310000D02*
X167510000Y-136180000D01*
X177862500Y-134381150D02*
X177862500Y-133669950D01*
X170620000Y-165490000D02*
X164680000Y-165490000D01*
X149057000Y-169850200D02*
X149227200Y-169680000D01*
X140180000Y-155010000D02*
X140180000Y-156940000D01*
X164600000Y-131840000D02*
X164500000Y-131740000D01*
D35*
X149320000Y-135140000D02*
X149320000Y-136680000D01*
D36*
X141580000Y-134780000D02*
X142970000Y-136170000D01*
D34*
X167580000Y-138400000D02*
X167580000Y-136250000D01*
D36*
X184350000Y-145070000D02*
X181910000Y-147510000D01*
X109190000Y-160340000D02*
X108132000Y-159282000D01*
X109540000Y-160340000D02*
X109190000Y-160340000D01*
D34*
X181540000Y-171870000D02*
X181900000Y-171510000D01*
X108110000Y-159260000D02*
X108132000Y-159282000D01*
D35*
X141370000Y-143750000D02*
X140800000Y-143180000D01*
D34*
X167580000Y-136250000D02*
X167510000Y-136180000D01*
X147860000Y-170890000D02*
X148890000Y-169860000D01*
D36*
X113660000Y-146640000D02*
X113660000Y-147010000D01*
X115790000Y-146640000D02*
X113660000Y-146640000D01*
D34*
X169260000Y-132870000D02*
X168380000Y-133750000D01*
D35*
%TO.N,/A8*%
X175800000Y-185800000D02*
X172140000Y-182140000D01*
X236500000Y-195700000D02*
X236375000Y-195575000D01*
X236375000Y-190075000D02*
X232100000Y-185800000D01*
X236375000Y-195575000D02*
X236375000Y-190075000D01*
X172140000Y-182140000D02*
X172140000Y-176620000D01*
X232100000Y-185800000D02*
X175800000Y-185800000D01*
%TO.N,/A10*%
X198100000Y-81200000D02*
X211600000Y-94700000D01*
X194132537Y-73325000D02*
X195725000Y-73325000D01*
X193800000Y-73900000D02*
X193800000Y-73657537D01*
X195725000Y-73325000D02*
X198100000Y-75700000D01*
X211600000Y-176700000D02*
X208900000Y-179400000D01*
X208900000Y-179400000D02*
X198500000Y-179400000D01*
X198100000Y-75700000D02*
X198100000Y-81200000D01*
X193800000Y-73657537D02*
X194132537Y-73325000D01*
X211600000Y-94700000D02*
X211600000Y-176700000D01*
D34*
%TO.N,/A11*%
X152780000Y-168560000D02*
X155810500Y-168560000D01*
X159420000Y-171450000D02*
X158450000Y-170480000D01*
X155810500Y-168560000D02*
X156260000Y-169009500D01*
X159420000Y-172040000D02*
X159420000Y-171450000D01*
D35*
%TO.N,/A9*%
X198700000Y-79800000D02*
X212700000Y-93800000D01*
X194650000Y-72500000D02*
X196100000Y-72500000D01*
X194350000Y-72800000D02*
X194650000Y-72500000D01*
X196100000Y-72500000D02*
X198700000Y-75100000D01*
X212700000Y-93800000D02*
X212700000Y-178100000D01*
X198700000Y-75100000D02*
X198700000Y-79800000D01*
X212700000Y-178100000D02*
X210200000Y-180600000D01*
X210200000Y-180600000D02*
X200300000Y-180600000D01*
%TO.N,/\u002A3*%
X144515000Y-132000000D02*
X150720000Y-132000000D01*
X150720000Y-132000000D02*
X154360000Y-128360000D01*
D34*
%TO.N,/\u002A2*%
X159280000Y-130740000D02*
X168872500Y-130740000D01*
X156900000Y-128360000D02*
X159280000Y-130740000D01*
X168872500Y-130740000D02*
X170060000Y-131927500D01*
%TO.N,Net-(D1-A)*%
X100970000Y-161087500D02*
X101042500Y-161160000D01*
X100970000Y-159182500D02*
X100970000Y-161087500D01*
%TO.N,/SCL1*%
X117840000Y-136390000D02*
X120852500Y-136390000D01*
X120852500Y-136390000D02*
X121407500Y-136945000D01*
%TO.N,Net-(R32-Pad1)*%
X130980000Y-149160244D02*
X130980000Y-149852598D01*
X128167256Y-146347500D02*
X130980000Y-149160244D01*
X131532402Y-150405000D02*
X132015000Y-150405000D01*
X127470000Y-146347500D02*
X128167256Y-146347500D01*
X130980000Y-149852598D02*
X131532402Y-150405000D01*
D36*
%TO.N,+2.5V*%
X135270000Y-135100000D02*
X135660000Y-134710000D01*
X137820000Y-157400000D02*
X137820000Y-158430000D01*
X141600000Y-172800000D02*
X141600000Y-162210000D01*
D35*
X175000000Y-162000000D02*
X174100000Y-161100000D01*
D36*
X186490000Y-173310000D02*
X184180000Y-171000000D01*
X58100000Y-71900000D02*
X58100000Y-128300000D01*
D35*
X174100000Y-161100000D02*
X168750000Y-161100000D01*
D36*
X135660000Y-134710000D02*
X138910000Y-134710000D01*
X137820000Y-158430000D02*
X139750000Y-160360000D01*
X138910000Y-134710000D02*
X139430000Y-134190000D01*
X184180000Y-171000000D02*
X184180000Y-164840000D01*
X168060000Y-161790000D02*
X168750000Y-161100000D01*
X168060000Y-164170000D02*
X168060000Y-161790000D01*
X66350000Y-63650000D02*
X58100000Y-71900000D01*
X141600000Y-162210000D02*
X139750000Y-160360000D01*
X184180000Y-164840000D02*
X183230000Y-163890000D01*
X183230000Y-163890000D02*
X181900000Y-163890000D01*
%TO.N,+3.3V*%
X102785000Y-156839000D02*
X103306000Y-157360000D01*
X162040000Y-133780000D02*
X161010000Y-132750000D01*
X100970000Y-157357500D02*
X103303500Y-157357500D01*
X103306000Y-157360000D02*
X105592000Y-157360000D01*
X157660000Y-166350000D02*
X157655000Y-166345000D01*
X162710000Y-133790000D02*
X162700000Y-133780000D01*
X124780000Y-141070000D02*
X125060000Y-140790000D01*
X124715000Y-138895000D02*
X125060000Y-139240000D01*
D35*
X148137200Y-167000000D02*
X149057000Y-167919800D01*
D36*
X132700000Y-152960000D02*
X132985000Y-152675000D01*
X162710000Y-136090000D02*
X162710000Y-133790000D01*
X125060000Y-140790000D02*
X125060000Y-139240000D01*
X180450000Y-142430000D02*
X180400000Y-142380000D01*
X123415000Y-137595000D02*
X125060000Y-139240000D01*
X100705000Y-148160000D02*
X100705000Y-152280000D01*
X108132000Y-157382000D02*
X110658000Y-157382000D01*
D35*
X105592000Y-157360000D02*
X105614000Y-157382000D01*
D36*
X180400000Y-142380000D02*
X180400000Y-139311250D01*
X132985000Y-147845000D02*
X132985000Y-148785000D01*
X126560000Y-150400000D02*
X127992252Y-150400000D01*
X182450000Y-142430000D02*
X182450000Y-144350000D01*
X129669500Y-152220000D02*
X130409500Y-152960000D01*
X122857500Y-138895000D02*
X124715000Y-138895000D01*
X156280000Y-164970000D02*
X156280000Y-163630000D01*
X110658000Y-157382000D02*
X111290000Y-156750000D01*
X161010000Y-132750000D02*
X159265000Y-134495000D01*
X180400000Y-139311250D02*
X180402500Y-139308750D01*
X102785000Y-154360000D02*
X102785000Y-156839000D01*
X182450000Y-142430000D02*
X180450000Y-142430000D01*
X127992252Y-150400000D02*
X128893950Y-149498302D01*
X157660000Y-166350000D02*
X156100000Y-167910000D01*
X130409500Y-152960000D02*
X132700000Y-152960000D01*
D35*
X147000000Y-167000000D02*
X148137200Y-167000000D01*
D36*
X132760000Y-147620000D02*
X132985000Y-147845000D01*
X156100000Y-167910000D02*
X152780000Y-167910000D01*
D35*
X103303500Y-157357500D02*
X103306000Y-157360000D01*
D36*
X162700000Y-133780000D02*
X162040000Y-133780000D01*
X100705000Y-152280000D02*
X102785000Y-154360000D01*
X122857500Y-137595000D02*
X123415000Y-137595000D01*
X175670000Y-145220000D02*
X177560000Y-145220000D01*
X157655000Y-166345000D02*
X156280000Y-164970000D01*
X159265000Y-134495000D02*
X158553800Y-134495000D01*
X105614000Y-157382000D02*
X108132000Y-157382000D01*
X177560000Y-145220000D02*
X180400000Y-142380000D01*
X182450000Y-144350000D02*
X182900000Y-144800000D01*
%TO.N,+1.25V_REF*%
X148150000Y-169210000D02*
X147500000Y-168560000D01*
X118990000Y-172835000D02*
X121180000Y-175025000D01*
X128600000Y-132300000D02*
X127800000Y-131500000D01*
X134285000Y-152675000D02*
X134285000Y-153205000D01*
X119260000Y-156590000D02*
X121180000Y-154670000D01*
X130430000Y-154160000D02*
X129920000Y-154670000D01*
X121180000Y-154670000D02*
X129920000Y-154670000D01*
X133635000Y-153175000D02*
X133160000Y-153650000D01*
X146860000Y-168540000D02*
X147480000Y-168540000D01*
X148890000Y-169210000D02*
X148150000Y-169210000D01*
X133635000Y-152675000D02*
X133635000Y-153175000D01*
X147500000Y-168560000D02*
X148890000Y-168560000D01*
X188500000Y-174400000D02*
X206800000Y-174400000D01*
X118990000Y-172280000D02*
X118990000Y-172835000D01*
X206800000Y-174400000D02*
X208900000Y-176500000D01*
X112400000Y-131500000D02*
X110000000Y-129100000D01*
X134285000Y-153205000D02*
X133330000Y-154160000D01*
X127800000Y-131500000D02*
X112400000Y-131500000D01*
X133330000Y-154160000D02*
X130430000Y-154160000D01*
X130940000Y-153650000D02*
X129920000Y-154670000D01*
X133160000Y-153650000D02*
X130940000Y-153650000D01*
D35*
%TO.N,/A5*%
X158000000Y-182000000D02*
X160700000Y-182000000D01*
X156700000Y-194900000D02*
X156700000Y-183300000D01*
X101950000Y-240150000D02*
X111450000Y-240150000D01*
X100800000Y-239000000D02*
X101950000Y-240150000D01*
X111450000Y-240150000D02*
X156700000Y-194900000D01*
X156700000Y-183300000D02*
X158000000Y-182000000D01*
X100800000Y-238700000D02*
X100800000Y-239000000D01*
%TO.N,A12*%
X142720000Y-171630000D02*
X144200000Y-173110000D01*
X144200000Y-173110000D02*
X178790000Y-173110000D01*
X148690000Y-142430000D02*
X142720000Y-148400000D01*
X142720000Y-148400000D02*
X142720000Y-171630000D01*
X148690000Y-141300000D02*
X148690000Y-142430000D01*
X178790000Y-173110000D02*
X182300000Y-176620000D01*
D34*
%TO.N,A13*%
X185540000Y-176620000D02*
X184840000Y-176620000D01*
X190020000Y-142620000D02*
X190020000Y-172140000D01*
X190020000Y-172140000D02*
X185540000Y-176620000D01*
X188040000Y-140640000D02*
X190020000Y-142620000D01*
%TO.N,Net-(R33-Pad1)*%
X135905000Y-151055000D02*
X138512500Y-151055000D01*
X138512500Y-151055000D02*
X138670000Y-151212500D01*
%TO.N,/A0*%
X133635000Y-148125000D02*
X134210000Y-147550000D01*
X133635000Y-148785000D02*
X133635000Y-148125000D01*
%TO.N,/SDA1*%
X119670000Y-138550000D02*
X120625000Y-137595000D01*
X120625000Y-137595000D02*
X121407500Y-137595000D01*
D35*
%TO.N,/A6*%
X164520000Y-182220000D02*
X164520000Y-176620000D01*
X235200000Y-190100000D02*
X232000000Y-186900000D01*
X169200000Y-186900000D02*
X164520000Y-182220000D01*
X232000000Y-186900000D02*
X169200000Y-186900000D01*
X235200000Y-195300000D02*
X235200000Y-190100000D01*
D34*
%TO.N,/A2*%
X134285000Y-148785000D02*
X134285000Y-148385000D01*
X134285000Y-148385000D02*
X135150000Y-147520000D01*
X146750000Y-174930000D02*
X147405000Y-174275000D01*
X147405000Y-174275000D02*
X152015000Y-174275000D01*
X152015000Y-174275000D02*
X154360000Y-176620000D01*
%TO.N,/A7*%
X157650000Y-171390000D02*
X158405589Y-172145589D01*
X152780000Y-169210000D02*
X154980000Y-169210000D01*
X157650000Y-171380000D02*
X157650000Y-171390000D01*
X158405589Y-172145589D02*
X158405589Y-172463949D01*
X154980000Y-169210000D02*
X155350000Y-169580000D01*
D35*
X164534500Y-174094500D02*
X167060000Y-176620000D01*
X160210000Y-174094500D02*
X164534500Y-174094500D01*
%TO.N,/A4*%
X158800000Y-183600000D02*
X158800000Y-195100000D01*
X158800000Y-195100000D02*
X112700000Y-241200000D01*
X112700000Y-241200000D02*
X101900000Y-241200000D01*
X101900000Y-241200000D02*
X100000000Y-239300000D01*
D36*
%TO.N,Net-(J1-Pin_5)*%
X122720000Y-171430000D02*
X125330000Y-174040000D01*
X110270000Y-170360000D02*
X111340000Y-171430000D01*
X111340000Y-171430000D02*
X122720000Y-171430000D01*
D35*
%TO.N,Net-(U7-OUT)*%
X157842600Y-135765000D02*
X158553800Y-135765000D01*
X156350000Y-137257600D02*
X157842600Y-135765000D01*
X155517500Y-142800000D02*
X156350000Y-141967500D01*
X156350000Y-141967500D02*
X156350000Y-137257600D01*
X153572500Y-142800000D02*
X155517500Y-142800000D01*
%TO.N,Net-(U7-IN-)*%
X155580000Y-136890000D02*
X155580000Y-135080000D01*
X155580000Y-135080000D02*
X154995000Y-134495000D01*
X151747500Y-142800000D02*
X151747500Y-140610000D01*
X151747500Y-140610000D02*
X151860000Y-140610000D01*
X154995000Y-134495000D02*
X153626200Y-134495000D01*
X151860000Y-140610000D02*
X155580000Y-136890000D01*
D36*
%TO.N,Net-(U12-Q)*%
X106010000Y-151360000D02*
X104480000Y-151360000D01*
D34*
X104480000Y-151360000D02*
X104480000Y-153205000D01*
X104480000Y-153205000D02*
X105635000Y-154360000D01*
D36*
X106380000Y-150990000D02*
X106010000Y-151360000D01*
%TO.N,Net-(U12-I)*%
X111345000Y-146225000D02*
X111760000Y-146640000D01*
X111345000Y-143960000D02*
X111345000Y-146225000D01*
X110730000Y-147670000D02*
X111760000Y-146640000D01*
X110730000Y-148270000D02*
X110730000Y-147670000D01*
D34*
%TO.N,Net-(R32-Pad2)*%
X131645000Y-151055000D02*
X132015000Y-151055000D01*
X128762500Y-148172500D02*
X131645000Y-151055000D01*
X127470000Y-148172500D02*
X128762500Y-148172500D01*
%TO.N,Net-(J9-Pin_2)*%
X135630000Y-159462500D02*
X136312500Y-159462500D01*
X136312500Y-159462500D02*
X139750000Y-162900000D01*
D36*
%TO.N,Net-(J18-A)*%
X110530000Y-133590000D02*
X111780000Y-133590000D01*
X107370000Y-136750000D02*
X110530000Y-133590000D01*
X107370000Y-139160000D02*
X107370000Y-136750000D01*
D35*
%TO.N,Net-(J17-C)*%
X151685000Y-135765000D02*
X153626200Y-135765000D01*
X146150000Y-141300000D02*
X151685000Y-135765000D01*
%TO.N,Net-(J17-B)*%
X145417500Y-138402500D02*
X145400000Y-138420000D01*
X145417500Y-136140000D02*
X145417500Y-138402500D01*
X145400000Y-139510000D02*
X143610000Y-141300000D01*
X145400000Y-138420000D02*
X145400000Y-139510000D01*
D36*
%TO.N,Net-(J13-Pin_1)*%
X111350000Y-141115000D02*
X114195000Y-143960000D01*
X114195000Y-143960000D02*
X115645000Y-142510000D01*
X114320000Y-137585000D02*
X114320000Y-133590000D01*
X111350000Y-140555000D02*
X111350000Y-141115000D01*
X111350000Y-140555000D02*
X114320000Y-137585000D01*
X115645000Y-142510000D02*
X118100000Y-142510000D01*
D34*
%TO.N,Net-(J12-Pin_3)*%
X145792000Y-165077500D02*
X146629500Y-164240000D01*
X147689500Y-160540000D02*
X152780000Y-160540000D01*
X144900000Y-165077500D02*
X145792000Y-165077500D01*
X160710000Y-158140000D02*
X163670000Y-161100000D01*
X155180000Y-158140000D02*
X160710000Y-158140000D01*
X152780000Y-160540000D02*
X155180000Y-158140000D01*
X146629500Y-161600000D02*
X147689500Y-160540000D01*
%TO.N,Net-(J12-Pin_2)*%
X146607500Y-159710000D02*
X152330000Y-159710000D01*
X152330000Y-159710000D02*
X154410000Y-157630000D01*
X162740000Y-157630000D02*
X166210000Y-161100000D01*
X144900000Y-161417500D02*
X146607500Y-159710000D01*
X154410000Y-157630000D02*
X162740000Y-157630000D01*
%TO.N,Net-(J11-Pin_3)*%
X137182500Y-141517500D02*
X139430000Y-139270000D01*
X135400000Y-141517500D02*
X137182500Y-141517500D01*
%TO.N,Net-(J11-Pin_2)*%
X138502500Y-137657500D02*
X139430000Y-136730000D01*
X130350000Y-137657500D02*
X138502500Y-137657500D01*
D35*
%TO.N,Net-(C24-Pad1)*%
X147222500Y-136120000D02*
X147242500Y-136140000D01*
X147222500Y-134160000D02*
X147222500Y-136120000D01*
X147222500Y-134160000D02*
X148400000Y-134160000D01*
X148400000Y-134160000D02*
X149320000Y-133240000D01*
%TO.N,Net-(C23-Pad1)*%
X142970000Y-134270000D02*
X145287500Y-134270000D01*
X142690000Y-133990000D02*
X142970000Y-134270000D01*
X145287500Y-134270000D02*
X145397500Y-134160000D01*
X142690000Y-132000000D02*
X142690000Y-133990000D01*
D34*
%TO.N,Net-(C22-Pad2)*%
X160717500Y-144830000D02*
X160940000Y-145052500D01*
X157380000Y-144830000D02*
X160717500Y-144830000D01*
D35*
%TO.N,Net-(C21-Pad1)*%
X155410000Y-140610000D02*
X155430000Y-140630000D01*
X153572500Y-140610000D02*
X155410000Y-140610000D01*
%TO.N,Net-(U2--IN1)*%
X85700000Y-230200000D02*
X85700000Y-233200000D01*
X85700000Y-233200000D02*
X87300000Y-234800000D01*
%TO.N,Net-(U1--IN1)*%
X79500000Y-83800000D02*
X80100000Y-83200000D01*
X72000000Y-84700000D02*
X72900000Y-83800000D01*
X72900000Y-83800000D02*
X79500000Y-83800000D01*
%TO.N,Net-(C22-Pad1)*%
X151070000Y-144830000D02*
X155480000Y-144830000D01*
X157342500Y-142967500D02*
X157342500Y-142800000D01*
X155480000Y-144830000D02*
X157342500Y-142967500D01*
X148390000Y-147510000D02*
X151070000Y-144830000D01*
D34*
%TO.N,Net-(C32-Pad1)*%
X169410000Y-136180000D02*
X171315000Y-136180000D01*
X170060000Y-135530000D02*
X169410000Y-136180000D01*
X171315000Y-136180000D02*
X171780000Y-135715000D01*
X170060000Y-133752500D02*
X170060000Y-135530000D01*
%TO.N,Net-(C34-Pad1)*%
X171780000Y-137540000D02*
X171780000Y-139327500D01*
X171780000Y-137540000D02*
X170340000Y-137540000D01*
X170340000Y-137540000D02*
X169480000Y-138400000D01*
%TO.N,Net-(J8-B)*%
X173860000Y-139072500D02*
X173860000Y-135740000D01*
X171780000Y-141152500D02*
X169912500Y-141152500D01*
X169912500Y-141152500D02*
X169480000Y-140720000D01*
X171780000Y-141152500D02*
X173860000Y-139072500D01*
X173570000Y-135450000D02*
X173570000Y-134470000D01*
X173860000Y-135740000D02*
X173570000Y-135450000D01*
%TO.N,Net-(C39-Pad1)*%
X186360000Y-131770000D02*
X186380000Y-131790000D01*
X184102500Y-131770000D02*
X186360000Y-131770000D01*
%TO.N,Net-(U5--IN1)*%
X138670000Y-155400000D02*
X138170000Y-155900000D01*
X135410000Y-154740000D02*
X134770000Y-154100000D01*
X130890000Y-147670000D02*
X132015000Y-148795000D01*
X135630000Y-157637500D02*
X135630000Y-155730000D01*
X135410000Y-155510000D02*
X135410000Y-154740000D01*
X135630000Y-155730000D02*
X135410000Y-155510000D01*
X132015000Y-148795000D02*
X132015000Y-149755000D01*
X135800000Y-155900000D02*
X135410000Y-155510000D01*
X138170000Y-155900000D02*
X135800000Y-155900000D01*
%TO.N,Net-(U5-+IN1)*%
X131690000Y-155750000D02*
X131690000Y-157920000D01*
X131690000Y-157920000D02*
X131720000Y-157950000D01*
X135017500Y-161247500D02*
X131720000Y-157950000D01*
X130440000Y-151160000D02*
X130985000Y-151705000D01*
X130985000Y-151705000D02*
X132015000Y-151705000D01*
X135620000Y-161247500D02*
X135017500Y-161247500D01*
X133510000Y-155510000D02*
X131930000Y-155510000D01*
X131930000Y-155510000D02*
X131690000Y-155750000D01*
D35*
%TO.N,Net-(U5--IN2)*%
X131360000Y-140492500D02*
X130350000Y-139482500D01*
X135905000Y-147105000D02*
X134580000Y-145780000D01*
X133470000Y-145780000D02*
X134580000Y-145780000D01*
X131360000Y-143670000D02*
X133470000Y-145780000D01*
X135905000Y-149755000D02*
X135905000Y-147105000D01*
X131360000Y-143670000D02*
X131360000Y-140492500D01*
D34*
%TO.N,Net-(U5-+IN2)*%
X137140000Y-152280000D02*
X139310000Y-152280000D01*
D35*
X136480000Y-145780000D02*
X137000000Y-145260000D01*
X140030000Y-146670000D02*
X140030000Y-147780000D01*
X139470000Y-146110000D02*
X140030000Y-146670000D01*
X136480000Y-144422500D02*
X135400000Y-143342500D01*
D34*
X136565000Y-151705000D02*
X137140000Y-152280000D01*
D35*
X137000000Y-145260000D02*
X139470000Y-145260000D01*
D34*
X139320000Y-152290000D02*
X140030000Y-151580000D01*
X140030000Y-151580000D02*
X140030000Y-147780000D01*
D35*
X139470000Y-145260000D02*
X139470000Y-146110000D01*
D34*
X135905000Y-151705000D02*
X136565000Y-151705000D01*
D35*
X136480000Y-145780000D02*
X136480000Y-144422500D01*
D34*
X139310000Y-152280000D02*
X139320000Y-152290000D01*
%TO.N,Net-(U6--IN1)*%
X146982500Y-163242500D02*
X144900000Y-163242500D01*
X153820000Y-166940000D02*
X151810000Y-166940000D01*
X155310000Y-163500000D02*
X155310000Y-165450000D01*
X155310000Y-165450000D02*
X153820000Y-166940000D01*
X148060000Y-164320000D02*
X149970000Y-162410000D01*
X148060000Y-164320000D02*
X146982500Y-163242500D01*
X154050000Y-162240000D02*
X155310000Y-163500000D01*
X149970000Y-162240000D02*
X154050000Y-162240000D01*
X149970000Y-162410000D02*
X149970000Y-162240000D01*
%TO.N,Net-(U6-+IN1)*%
X144920000Y-166922500D02*
X144900000Y-166902500D01*
X144900000Y-166902500D02*
X146292500Y-165510000D01*
X149150000Y-166940000D02*
X149860000Y-166940000D01*
X144920000Y-168990000D02*
X144920000Y-166922500D01*
X147720000Y-165510000D02*
X149150000Y-166940000D01*
X149860000Y-166940000D02*
X149860000Y-164420000D01*
X149860000Y-164420000D02*
X149960000Y-164320000D01*
X146292500Y-165510000D02*
X147720000Y-165510000D01*
%TO.N,Net-(U6--IN2)*%
X152870000Y-171890000D02*
X154440000Y-171890000D01*
X172680000Y-166800000D02*
X173480000Y-166000000D01*
X175402500Y-162607500D02*
X178290000Y-162607500D01*
X163200000Y-164760000D02*
X165240000Y-166800000D01*
X173480000Y-166000000D02*
X173480000Y-164530000D01*
X158560000Y-165230000D02*
X159030000Y-164760000D01*
X154440000Y-171890000D02*
X158560000Y-167770000D01*
X165240000Y-166800000D02*
X172680000Y-166800000D01*
X159030000Y-164760000D02*
X163200000Y-164760000D01*
X158560000Y-167770000D02*
X158560000Y-165230000D01*
X173480000Y-164530000D02*
X175402500Y-162607500D01*
X151810000Y-170830000D02*
X152870000Y-171890000D01*
%TO.N,Net-(U6-+IN2)*%
X149860000Y-171740000D02*
X149450000Y-172150000D01*
X174982500Y-166397500D02*
X172680000Y-168700000D01*
X161840000Y-169740000D02*
X162880000Y-168700000D01*
X178240000Y-166397500D02*
X174982500Y-166397500D01*
X162880000Y-168700000D02*
X172680000Y-168700000D01*
X176990000Y-168700000D02*
X178260000Y-169970000D01*
X149860000Y-170830000D02*
X149860000Y-171740000D01*
X172680000Y-168700000D02*
X176990000Y-168700000D01*
%TO.N,Net-(C64-Pad1)*%
X179790000Y-147430000D02*
X179790000Y-155390000D01*
X174697500Y-143112500D02*
X175080000Y-143112500D01*
X178480000Y-146120000D02*
X179790000Y-147430000D01*
X172780000Y-145030000D02*
X173870000Y-146120000D01*
X173870000Y-146120000D02*
X178480000Y-146120000D01*
X179790000Y-155390000D02*
X181910000Y-157510000D01*
X172780000Y-145030000D02*
X174697500Y-143112500D01*
%TO.N,Net-(C64-Pad2)*%
X168965000Y-145030000D02*
X168955000Y-145040000D01*
%TO.N,Net-(J8-C)*%
X179132500Y-134381150D02*
X179132500Y-133727500D01*
X179132500Y-133727500D02*
X180680000Y-132180000D01*
%TO.N,Net-(J9-Pin_3)*%
X135620000Y-163072500D02*
X137382500Y-163072500D01*
X137382500Y-163072500D02*
X139750000Y-165440000D01*
%TO.N,Net-(J20-Pin_2)*%
X178290000Y-164432500D02*
X179902500Y-164432500D01*
X179902500Y-164432500D02*
X181900000Y-166430000D01*
%TO.N,Net-(J20-Pin_3)*%
X181152500Y-168222500D02*
X181900000Y-168970000D01*
X178240000Y-168222500D02*
X181152500Y-168222500D01*
%TO.N,Net-(R33-Pad2)*%
X135905000Y-150405000D02*
X137652500Y-150405000D01*
X137652500Y-150405000D02*
X138670000Y-149387500D01*
%TO.N,Net-(R34-Pad1)*%
X152572500Y-165260000D02*
X153742500Y-164090000D01*
X151160000Y-166940000D02*
X151160000Y-165690000D01*
X151590000Y-165260000D02*
X152572500Y-165260000D01*
X151160000Y-165690000D02*
X151590000Y-165260000D01*
%TO.N,Net-(R34-Pad2)*%
X150510000Y-165497500D02*
X151917500Y-164090000D01*
X150510000Y-166940000D02*
X150510000Y-165497500D01*
%TO.N,Net-(R35-Pad1)*%
X161612500Y-166374901D02*
X161612500Y-165980000D01*
X150510000Y-170830000D02*
X150510000Y-172070000D01*
X151145000Y-172705000D02*
X155282401Y-172705000D01*
X150510000Y-172070000D02*
X151145000Y-172705000D01*
X155282401Y-172705000D02*
X161612500Y-166374901D01*
%TO.N,Net-(R35-Pad2)*%
X159787500Y-167662500D02*
X159787500Y-165980000D01*
X159787500Y-167662499D02*
X159787500Y-165980000D01*
X155124999Y-172325000D02*
X159787500Y-167662499D01*
X151575000Y-172325000D02*
X155124999Y-172325000D01*
X151160000Y-170830000D02*
X151160000Y-171910000D01*
X151160000Y-171910000D02*
X151575000Y-172325000D01*
%TO.N,Net-(U4-IN-)*%
X175050000Y-137617500D02*
X175997500Y-136670000D01*
X180402500Y-133669950D02*
X182277500Y-131794950D01*
X180402500Y-136197500D02*
X180402500Y-134381150D01*
X182277500Y-131794950D02*
X182277500Y-131770000D01*
X175997500Y-136670000D02*
X179930000Y-136670000D01*
X180402500Y-134381150D02*
X180402500Y-133669950D01*
X179930000Y-136670000D02*
X180402500Y-136197500D01*
%TO.N,Net-(U4-OUT)*%
X175080000Y-141287500D02*
X175080000Y-139472500D01*
X178290000Y-140940000D02*
X179132500Y-140097500D01*
X175050000Y-139442500D02*
X176547500Y-140940000D01*
X175080000Y-139472500D02*
X175050000Y-139442500D01*
X176547500Y-140940000D02*
X178290000Y-140940000D01*
X179132500Y-140097500D02*
X179132500Y-139308750D01*
D36*
%TO.N,Net-(J19-C)*%
X122857500Y-136945000D02*
X122857500Y-133812500D01*
X122857500Y-133812500D02*
X123420000Y-133250000D01*
D35*
%TO.N,Net-(U9-+IN1)*%
X239400000Y-224200000D02*
X236700000Y-224200000D01*
%TO.N,Net-(U10-+IN1)*%
X235400000Y-76200000D02*
X235400000Y-76300000D01*
X235400000Y-76300000D02*
X233300000Y-78400000D01*
%TD*%
M02*
