%TF.GenerationSoftware,KiCad,Pcbnew,8.0.9*%
%TF.CreationDate,2025-04-11T10:25:09+02:00*%
%TF.ProjectId,Ultrasound shield_8mic,556c7472-6173-46f7-956e-642073686965,rev?*%
%TF.SameCoordinates,Original*%
%TF.FileFunction,Other,User*%
%FSLAX46Y46*%
G04 Gerber Fmt 4.6, Leading zero omitted, Abs format (unit mm)*
G04 Created by KiCad (PCBNEW 8.0.9) date 2025-04-11 10:25:09*
%MOMM*%
%LPD*%
G01*
G04 APERTURE LIST*
%ADD10C,0.050000*%
G04 APERTURE END LIST*
D10*
%TO.C,J7*%
X190700000Y-126590000D02*
X196800000Y-126590000D01*
X190700000Y-173340000D02*
X190700000Y-126590000D01*
X196800000Y-126590000D02*
X196800000Y-173340000D01*
X196800000Y-173340000D02*
X190700000Y-173340000D01*
%TO.C,J1*%
X124620000Y-174870000D02*
X145970000Y-174870000D01*
X124620000Y-178420000D02*
X124620000Y-174870000D01*
X145970000Y-174870000D02*
X145970000Y-178420000D01*
X145970000Y-178420000D02*
X124620000Y-178420000D01*
%TO.C,J3*%
X147480000Y-174870000D02*
X168830000Y-174870000D01*
X147480000Y-178420000D02*
X147480000Y-174870000D01*
X168830000Y-174870000D02*
X168830000Y-178420000D01*
X168830000Y-178420000D02*
X147480000Y-178420000D01*
%TO.C,J5*%
X170340000Y-174870000D02*
X191690000Y-174870000D01*
X170340000Y-178420000D02*
X170340000Y-174870000D01*
X191690000Y-174870000D02*
X191690000Y-178420000D01*
X191690000Y-178420000D02*
X170340000Y-178420000D01*
%TO.C,J2*%
X115476000Y-126610000D02*
X141876000Y-126610000D01*
X115476000Y-130160000D02*
X115476000Y-126610000D01*
X141876000Y-126610000D02*
X141876000Y-130160000D01*
X141876000Y-130160000D02*
X115476000Y-130160000D01*
%TO.C,J4*%
X142400000Y-126610000D02*
X163750000Y-126610000D01*
X142400000Y-130160000D02*
X142400000Y-126610000D01*
X163750000Y-126610000D02*
X163750000Y-130160000D01*
X163750000Y-130160000D02*
X142400000Y-130160000D01*
%TO.C,J6*%
X165260000Y-126610000D02*
X186610000Y-126610000D01*
X165260000Y-130160000D02*
X165260000Y-126610000D01*
X186610000Y-126610000D02*
X186610000Y-130160000D01*
X186610000Y-130160000D02*
X165260000Y-130160000D01*
%TO.C,R18*%
X144650000Y-135190000D02*
X148010000Y-135190000D01*
X144650000Y-137090000D02*
X144650000Y-135190000D01*
X148010000Y-135190000D02*
X148010000Y-137090000D01*
X148010000Y-137090000D02*
X144650000Y-137090000D01*
%TO.C,C52*%
X143940000Y-168240000D02*
X145900000Y-168240000D01*
X143940000Y-171640000D02*
X143940000Y-168240000D01*
X145900000Y-168240000D02*
X145900000Y-171640000D01*
X145900000Y-171640000D02*
X143940000Y-171640000D01*
%TO.C,C43*%
X177750000Y-141400000D02*
X181150000Y-141400000D01*
X177750000Y-143360000D02*
X177750000Y-141400000D01*
X181150000Y-141400000D02*
X181150000Y-143360000D01*
X181150000Y-143360000D02*
X177750000Y-143360000D01*
%TO.C,C34*%
X166830000Y-137420000D02*
X170230000Y-137420000D01*
X166830000Y-139380000D02*
X166830000Y-137420000D01*
X170230000Y-137420000D02*
X170230000Y-139380000D01*
X170230000Y-139380000D02*
X166830000Y-139380000D01*
%TO.C,R24*%
X134670000Y-160480000D02*
X136570000Y-160480000D01*
X134670000Y-163840000D02*
X134670000Y-160480000D01*
X136570000Y-160480000D02*
X136570000Y-163840000D01*
X136570000Y-163840000D02*
X134670000Y-163840000D01*
%TO.C,J17*%
X141840000Y-139500000D02*
X141840000Y-143100000D01*
X141840000Y-143100000D02*
X150490000Y-143100000D01*
X150490000Y-139500000D02*
X141840000Y-139500000D01*
X150490000Y-143100000D02*
X150490000Y-139500000D01*
%TO.C,C44*%
X137690000Y-152750000D02*
X139650000Y-152750000D01*
X137690000Y-156150000D02*
X137690000Y-152750000D01*
X139650000Y-152750000D02*
X139650000Y-156150000D01*
X139650000Y-156150000D02*
X137690000Y-156150000D01*
%TO.C,C32*%
X166760000Y-135200000D02*
X170160000Y-135200000D01*
X166760000Y-137160000D02*
X166760000Y-135200000D01*
X170160000Y-135200000D02*
X170160000Y-137160000D01*
X170160000Y-137160000D02*
X166760000Y-137160000D01*
%TO.C,R37*%
X174100000Y-136850000D02*
X176000000Y-136850000D01*
X174100000Y-140210000D02*
X174100000Y-136850000D01*
X176000000Y-136850000D02*
X176000000Y-140210000D01*
X176000000Y-140210000D02*
X174100000Y-140210000D01*
%TO.C,J10*%
X93270000Y-134160000D02*
X93270000Y-144160000D01*
X93270000Y-144160000D02*
X101870000Y-144160000D01*
X101870000Y-145360000D02*
X101870000Y-144160000D01*
X106870000Y-144160000D02*
X108770000Y-144160000D01*
X106870000Y-145360000D02*
X101870000Y-145360000D01*
X106870000Y-145360000D02*
X106870000Y-144160000D01*
X108770000Y-134160000D02*
X93270000Y-134160000D01*
X108770000Y-144160000D02*
X108770000Y-134160000D01*
%TO.C,C21*%
X154680000Y-139650000D02*
X158080000Y-139650000D01*
X154680000Y-141610000D02*
X154680000Y-139650000D01*
X158080000Y-139650000D02*
X158080000Y-141610000D01*
X158080000Y-141610000D02*
X154680000Y-141610000D01*
%TO.C,C49*%
X138720000Y-144280000D02*
X142120000Y-144280000D01*
X138720000Y-146240000D02*
X138720000Y-144280000D01*
X142120000Y-144280000D02*
X142120000Y-146240000D01*
X142120000Y-146240000D02*
X138720000Y-146240000D01*
%TO.C,C27*%
X161950000Y-132800000D02*
X165350000Y-132800000D01*
X161950000Y-134760000D02*
X161950000Y-132800000D01*
X165350000Y-132800000D02*
X165350000Y-134760000D01*
X165350000Y-134760000D02*
X161950000Y-134760000D01*
%TO.C,MH6*%
X196700000Y-176620000D02*
G75*
G02*
X193300000Y-176620000I-1700000J0D01*
G01*
X193300000Y-176620000D02*
G75*
G02*
X196700000Y-176620000I1700000J0D01*
G01*
%TO.C,C38*%
X117120000Y-141760000D02*
X119080000Y-141760000D01*
X117120000Y-145160000D02*
X117120000Y-141760000D01*
X119080000Y-141760000D02*
X119080000Y-145160000D01*
X119080000Y-145160000D02*
X117120000Y-145160000D01*
%TO.C,J9*%
X137950000Y-158560000D02*
X141500000Y-158560000D01*
X137950000Y-169760000D02*
X137950000Y-158560000D01*
X141500000Y-158560000D02*
X141500000Y-169760000D01*
X141500000Y-169760000D02*
X137950000Y-169760000D01*
%TO.C,R20*%
X150980000Y-139660000D02*
X154340000Y-139660000D01*
X150980000Y-141560000D02*
X150980000Y-139660000D01*
X154340000Y-139660000D02*
X154340000Y-141560000D01*
X154340000Y-141560000D02*
X150980000Y-141560000D01*
%TO.C,U8*%
X120882500Y-136420000D02*
X120882500Y-139420000D01*
X120882500Y-139420000D02*
X123382500Y-139420000D01*
X123382500Y-136420000D02*
X120882500Y-136420000D01*
X123382500Y-139420000D02*
X123382500Y-136420000D01*
%TO.C,J19*%
X119110000Y-131450000D02*
X119110000Y-135050000D01*
X119110000Y-135050000D02*
X127760000Y-135050000D01*
X127760000Y-131450000D02*
X119110000Y-131450000D01*
X127760000Y-135050000D02*
X127760000Y-131450000D01*
%TO.C,C53*%
X170830000Y-163550000D02*
X174230000Y-163550000D01*
X170830000Y-165510000D02*
X170830000Y-163550000D01*
X174230000Y-163550000D02*
X174230000Y-165510000D01*
X174230000Y-165510000D02*
X170830000Y-165510000D01*
%TO.C,C36*%
X111010000Y-145660000D02*
X114410000Y-145660000D01*
X111010000Y-147620000D02*
X111010000Y-145660000D01*
X114410000Y-145660000D02*
X114410000Y-147620000D01*
X114410000Y-147620000D02*
X111010000Y-147620000D01*
%TO.C,C46*%
X130740000Y-157200000D02*
X132700000Y-157200000D01*
X130740000Y-160600000D02*
X130740000Y-157200000D01*
X132700000Y-157200000D02*
X132700000Y-160600000D01*
X132700000Y-160600000D02*
X130740000Y-160600000D01*
%TO.C,R38*%
X174130000Y-140520000D02*
X176030000Y-140520000D01*
X174130000Y-143880000D02*
X174130000Y-140520000D01*
X176030000Y-140520000D02*
X176030000Y-143880000D01*
X176030000Y-143880000D02*
X174130000Y-143880000D01*
%TO.C,C62*%
X155530000Y-162650000D02*
X158930000Y-162650000D01*
X155530000Y-164610000D02*
X155530000Y-162650000D01*
X158930000Y-162650000D02*
X158930000Y-164610000D01*
X158930000Y-164610000D02*
X155530000Y-164610000D01*
%TO.C,R1*%
X100020000Y-156590000D02*
X101920000Y-156590000D01*
X100020000Y-159950000D02*
X100020000Y-156590000D01*
X101920000Y-156590000D02*
X101920000Y-159950000D01*
X101920000Y-159950000D02*
X100020000Y-159950000D01*
%TO.C,C54*%
X171700000Y-166050000D02*
X173660000Y-166050000D01*
X171700000Y-169450000D02*
X171700000Y-166050000D01*
X173660000Y-166050000D02*
X173660000Y-169450000D01*
X173660000Y-169450000D02*
X171700000Y-169450000D01*
%TO.C,FB1*%
X110540000Y-142760000D02*
X114970000Y-142760000D01*
X110540000Y-145160000D02*
X110540000Y-142760000D01*
X114970000Y-142760000D02*
X114970000Y-145160000D01*
X114970000Y-145160000D02*
X110540000Y-145160000D01*
%TO.C,R36*%
X181510000Y-130820000D02*
X184870000Y-130820000D01*
X181510000Y-132720000D02*
X181510000Y-130820000D01*
X184870000Y-130820000D02*
X184870000Y-132720000D01*
X184870000Y-132720000D02*
X181510000Y-132720000D01*
%TO.C,C64*%
X170130000Y-144050000D02*
X173530000Y-144050000D01*
X170130000Y-146010000D02*
X170130000Y-144050000D01*
X173530000Y-144050000D02*
X173530000Y-146010000D01*
X173530000Y-146010000D02*
X170130000Y-146010000D01*
%TO.C,D1*%
X100300000Y-160210000D02*
X103660000Y-160210000D01*
X100300000Y-162110000D02*
X100300000Y-160210000D01*
X103660000Y-160210000D02*
X103660000Y-162110000D01*
X103660000Y-162110000D02*
X100300000Y-162110000D01*
%TO.C,J12*%
X159350000Y-159300000D02*
X170550000Y-159300000D01*
X159350000Y-162850000D02*
X159350000Y-159300000D01*
X170550000Y-159300000D02*
X170550000Y-162850000D01*
X170550000Y-162850000D02*
X159350000Y-162850000D01*
%TO.C,J18*%
X109980000Y-131790000D02*
X109980000Y-135390000D01*
X109980000Y-135390000D02*
X118630000Y-135390000D01*
X118630000Y-131790000D02*
X109980000Y-131790000D01*
X118630000Y-135390000D02*
X118630000Y-131790000D01*
%TO.C,C25*%
X161960000Y-135110000D02*
X165360000Y-135110000D01*
X161960000Y-137070000D02*
X161960000Y-135110000D01*
X165360000Y-135110000D02*
X165360000Y-137070000D01*
X165360000Y-137070000D02*
X161960000Y-137070000D01*
%TO.C,C48*%
X133830000Y-144800000D02*
X137230000Y-144800000D01*
X133830000Y-146760000D02*
X133830000Y-144800000D01*
X137230000Y-144800000D02*
X137230000Y-146760000D01*
X137230000Y-146760000D02*
X133830000Y-146760000D01*
%TO.C,U7*%
X152381600Y-132374100D02*
X153842100Y-132374100D01*
X152381600Y-137885900D02*
X152381600Y-132374100D01*
X153842100Y-132374100D02*
X158337900Y-132374100D01*
X153842100Y-137885900D02*
X152381600Y-137885900D01*
X158337900Y-132374100D02*
X159798400Y-132374100D01*
X158337900Y-137885900D02*
X153842100Y-137885900D01*
X159798400Y-132374100D02*
X159798400Y-132691600D01*
X159798400Y-132691600D02*
X159798400Y-137568400D01*
X159798400Y-137568400D02*
X159798400Y-137885900D01*
X159798400Y-137885900D02*
X158337900Y-137885900D01*
%TO.C,R31*%
X177290000Y-165630000D02*
X179190000Y-165630000D01*
X177290000Y-168990000D02*
X177290000Y-165630000D01*
X179190000Y-165630000D02*
X179190000Y-168990000D01*
X179190000Y-168990000D02*
X177290000Y-168990000D01*
%TO.C,MH1*%
X115420000Y-128360000D02*
G75*
G02*
X112020000Y-128360000I-1700000J0D01*
G01*
X112020000Y-128360000D02*
G75*
G02*
X115420000Y-128360000I1700000J0D01*
G01*
%TO.C,R35*%
X159020000Y-165030000D02*
X162380000Y-165030000D01*
X159020000Y-166930000D02*
X159020000Y-165030000D01*
X162380000Y-165030000D02*
X162380000Y-166930000D01*
X162380000Y-166930000D02*
X159020000Y-166930000D01*
%TO.C,C24*%
X148340000Y-132490000D02*
X150300000Y-132490000D01*
X148340000Y-135890000D02*
X148340000Y-132490000D01*
X150300000Y-132490000D02*
X150300000Y-135890000D01*
X150300000Y-135890000D02*
X148340000Y-135890000D01*
%TO.C,C41*%
X165410000Y-163190000D02*
X168810000Y-163190000D01*
X165410000Y-165150000D02*
X165410000Y-163190000D01*
X168810000Y-163190000D02*
X168810000Y-165150000D01*
X168810000Y-165150000D02*
X165410000Y-165150000D01*
%TO.C,R17*%
X144630000Y-133210000D02*
X147990000Y-133210000D01*
X144630000Y-135110000D02*
X144630000Y-133210000D01*
X147990000Y-133210000D02*
X147990000Y-135110000D01*
X147990000Y-135110000D02*
X144630000Y-135110000D01*
%TO.C,R30*%
X177340000Y-161840000D02*
X179240000Y-161840000D01*
X177340000Y-165200000D02*
X177340000Y-161840000D01*
X179240000Y-161840000D02*
X179240000Y-165200000D01*
X179240000Y-165200000D02*
X177340000Y-165200000D01*
%TO.C,C4*%
X102326000Y-156610000D02*
X104286000Y-156610000D01*
X102326000Y-160010000D02*
X102326000Y-156610000D01*
X104286000Y-156610000D02*
X104286000Y-160010000D01*
X104286000Y-160010000D02*
X102326000Y-160010000D01*
%TO.C,R23*%
X134680000Y-156870000D02*
X136580000Y-156870000D01*
X134680000Y-160230000D02*
X134680000Y-156870000D01*
X136580000Y-156870000D02*
X136580000Y-160230000D01*
X136580000Y-160230000D02*
X134680000Y-160230000D01*
%TO.C,R22*%
X170830000Y-134947500D02*
X172730000Y-134947500D01*
X170830000Y-138307500D02*
X170830000Y-134947500D01*
X172730000Y-134947500D02*
X172730000Y-138307500D01*
X172730000Y-138307500D02*
X170830000Y-138307500D01*
%TO.C,R39*%
X166362500Y-144090000D02*
X169722500Y-144090000D01*
X166362500Y-145990000D02*
X166362500Y-144090000D01*
X169722500Y-144090000D02*
X169722500Y-145990000D01*
X169722500Y-145990000D02*
X166362500Y-145990000D01*
%TO.C,C33*%
X137070000Y-156420000D02*
X140470000Y-156420000D01*
X137070000Y-158380000D02*
X137070000Y-156420000D01*
X140470000Y-156420000D02*
X140470000Y-158380000D01*
X140470000Y-158380000D02*
X137070000Y-158380000D01*
%TO.C,J20*%
X180100000Y-162090000D02*
X183650000Y-162090000D01*
X180100000Y-173290000D02*
X180100000Y-162090000D01*
X183650000Y-162090000D02*
X183650000Y-173290000D01*
X183650000Y-173290000D02*
X180100000Y-173290000D01*
%TO.C,J8*%
X186240000Y-133790000D02*
X186240000Y-142440000D01*
X186240000Y-142440000D02*
X189840000Y-142440000D01*
X189840000Y-133790000D02*
X186240000Y-133790000D01*
X189840000Y-142440000D02*
X189840000Y-133790000D01*
%TO.C,FB2*%
X101980000Y-153160000D02*
X106410000Y-153160000D01*
X101980000Y-155560000D02*
X101980000Y-153160000D01*
X106410000Y-153160000D02*
X106410000Y-155560000D01*
X106410000Y-155560000D02*
X101980000Y-155560000D01*
%TO.C,R14*%
X159990000Y-142460000D02*
X161890000Y-142460000D01*
X159990000Y-145820000D02*
X159990000Y-142460000D01*
X161890000Y-142460000D02*
X161890000Y-145820000D01*
X161890000Y-145820000D02*
X159990000Y-145820000D01*
%TO.C,R27*%
X134450000Y-140750000D02*
X136350000Y-140750000D01*
X134450000Y-144110000D02*
X134450000Y-140750000D01*
X136350000Y-140750000D02*
X136350000Y-144110000D01*
X136350000Y-144110000D02*
X134450000Y-144110000D01*
%TO.C,C61*%
X125580000Y-149650000D02*
X127540000Y-149650000D01*
X125580000Y-153050000D02*
X125580000Y-149650000D01*
X127540000Y-149650000D02*
X127540000Y-153050000D01*
X127540000Y-153050000D02*
X125580000Y-153050000D01*
%TO.C,R26*%
X129400000Y-136890000D02*
X131300000Y-136890000D01*
X129400000Y-140250000D02*
X129400000Y-136890000D01*
X131300000Y-136890000D02*
X131300000Y-140250000D01*
X131300000Y-140250000D02*
X129400000Y-140250000D01*
%TO.C,R19*%
X150980000Y-141850000D02*
X154340000Y-141850000D01*
X150980000Y-143750000D02*
X150980000Y-141850000D01*
X154340000Y-141850000D02*
X154340000Y-143750000D01*
X154340000Y-143750000D02*
X150980000Y-143750000D01*
%TO.C,J14*%
X114950000Y-173235000D02*
X118500000Y-173235000D01*
X114950000Y-179335000D02*
X114950000Y-173235000D01*
X118500000Y-173235000D02*
X118500000Y-179335000D01*
X118500000Y-179335000D02*
X114950000Y-179335000D01*
%TO.C,C15*%
X124080000Y-136590000D02*
X126040000Y-136590000D01*
X124080000Y-139990000D02*
X124080000Y-136590000D01*
X126040000Y-136590000D02*
X126040000Y-139990000D01*
X126040000Y-139990000D02*
X124080000Y-139990000D01*
%TO.C,C40*%
X134290000Y-132450000D02*
X136250000Y-132450000D01*
X134290000Y-135850000D02*
X134290000Y-132450000D01*
X136250000Y-132450000D02*
X136250000Y-135850000D01*
X136250000Y-135850000D02*
X134290000Y-135850000D01*
%TO.C,C37*%
X104612000Y-156610000D02*
X106572000Y-156610000D01*
X104612000Y-160010000D02*
X104612000Y-156610000D01*
X106572000Y-156610000D02*
X106572000Y-160010000D01*
X106572000Y-160010000D02*
X104612000Y-160010000D01*
%TO.C,R16*%
X141922500Y-131050000D02*
X145282500Y-131050000D01*
X141922500Y-132950000D02*
X141922500Y-131050000D01*
X145282500Y-131050000D02*
X145282500Y-132950000D01*
X145282500Y-132950000D02*
X141922500Y-132950000D01*
%TO.C,C63*%
X181700000Y-141450000D02*
X185100000Y-141450000D01*
X181700000Y-143410000D02*
X181700000Y-141450000D01*
X185100000Y-141450000D02*
X185100000Y-143410000D01*
X185100000Y-143410000D02*
X181700000Y-143410000D01*
%TO.C,C22*%
X154730000Y-143850000D02*
X158130000Y-143850000D01*
X154730000Y-145810000D02*
X154730000Y-143850000D01*
X158130000Y-143850000D02*
X158130000Y-145810000D01*
X158130000Y-145810000D02*
X154730000Y-145810000D01*
%TO.C,J16*%
X119380000Y-173225000D02*
X122930000Y-173225000D01*
X119380000Y-179325000D02*
X119380000Y-173225000D01*
X122930000Y-173225000D02*
X122930000Y-179325000D01*
X122930000Y-179325000D02*
X119380000Y-179325000D01*
%TO.C,C42*%
X183840000Y-172330000D02*
X187240000Y-172330000D01*
X183840000Y-174290000D02*
X183840000Y-172330000D01*
X187240000Y-172330000D02*
X187240000Y-174290000D01*
X187240000Y-174290000D02*
X183840000Y-174290000D01*
%TO.C,C23*%
X141990000Y-133520000D02*
X143950000Y-133520000D01*
X141990000Y-136920000D02*
X141990000Y-133520000D01*
X143950000Y-133520000D02*
X143950000Y-136920000D01*
X143950000Y-136920000D02*
X141990000Y-136920000D01*
%TO.C,R33*%
X137720000Y-148620000D02*
X139620000Y-148620000D01*
X137720000Y-151980000D02*
X137720000Y-148620000D01*
X139620000Y-148620000D02*
X139620000Y-151980000D01*
X139620000Y-151980000D02*
X137720000Y-151980000D01*
%TO.C,R25*%
X170830000Y-138560000D02*
X172730000Y-138560000D01*
X170830000Y-141920000D02*
X170830000Y-138560000D01*
X172730000Y-138560000D02*
X172730000Y-141920000D01*
X172730000Y-141920000D02*
X170830000Y-141920000D01*
%TO.C,C51*%
X147310000Y-163340000D02*
X150710000Y-163340000D01*
X147310000Y-165300000D02*
X147310000Y-163340000D01*
X150710000Y-163340000D02*
X150710000Y-165300000D01*
X150710000Y-165300000D02*
X147310000Y-165300000D01*
%TO.C,J11*%
X137630000Y-132390000D02*
X141180000Y-132390000D01*
X137630000Y-143590000D02*
X137630000Y-132390000D01*
X141180000Y-132390000D02*
X141180000Y-143590000D01*
X141180000Y-143590000D02*
X137630000Y-143590000D01*
%TO.C,C35*%
X166830000Y-139740000D02*
X170230000Y-139740000D01*
X166830000Y-141700000D02*
X166830000Y-139740000D01*
X170230000Y-139740000D02*
X170230000Y-141700000D01*
X170230000Y-141700000D02*
X166830000Y-141700000D01*
%TO.C,C26*%
X144650000Y-137440000D02*
X148050000Y-137440000D01*
X144650000Y-139400000D02*
X144650000Y-137440000D01*
X148050000Y-137440000D02*
X148050000Y-139400000D01*
X148050000Y-139400000D02*
X144650000Y-139400000D01*
%TO.C,J13*%
X109600000Y-136255000D02*
X113150000Y-136255000D01*
X109600000Y-142355000D02*
X109600000Y-136255000D01*
X113150000Y-136255000D02*
X113150000Y-142355000D01*
X113150000Y-142355000D02*
X109600000Y-142355000D01*
%TO.C,J15*%
X98905000Y-146410000D02*
X105005000Y-146410000D01*
X98905000Y-149960000D02*
X98905000Y-146410000D01*
X105005000Y-146410000D02*
X105005000Y-149960000D01*
X105005000Y-149960000D02*
X98905000Y-149960000D01*
%TO.C,C45*%
X132760000Y-154530000D02*
X136160000Y-154530000D01*
X132760000Y-156490000D02*
X132760000Y-154530000D01*
X136160000Y-154530000D02*
X136160000Y-156490000D01*
X136160000Y-156490000D02*
X132760000Y-156490000D01*
%TO.C,R15*%
X154750000Y-141850000D02*
X158110000Y-141850000D01*
X154750000Y-143750000D02*
X154750000Y-141850000D01*
X158110000Y-141850000D02*
X158110000Y-143750000D01*
X158110000Y-143750000D02*
X154750000Y-143750000D01*
%TO.C,R21*%
X169110000Y-131160000D02*
X171010000Y-131160000D01*
X169110000Y-134520000D02*
X169110000Y-131160000D01*
X171010000Y-131160000D02*
X171010000Y-134520000D01*
X171010000Y-134520000D02*
X169110000Y-134520000D01*
%TO.C,MH2*%
X114150000Y-176620000D02*
G75*
G02*
X110750000Y-176620000I-1700000J0D01*
G01*
X110750000Y-176620000D02*
G75*
G02*
X114150000Y-176620000I1700000J0D01*
G01*
%TO.C,R28*%
X143950000Y-160650000D02*
X145850000Y-160650000D01*
X143950000Y-164010000D02*
X143950000Y-160650000D01*
X145850000Y-160650000D02*
X145850000Y-164010000D01*
X145850000Y-164010000D02*
X143950000Y-164010000D01*
%TO.C,C39*%
X185630000Y-130810000D02*
X189030000Y-130810000D01*
X185630000Y-132770000D02*
X185630000Y-130810000D01*
X189030000Y-130810000D02*
X189030000Y-132770000D01*
X189030000Y-132770000D02*
X185630000Y-132770000D01*
%TO.C,C47*%
X130610000Y-142690000D02*
X134010000Y-142690000D01*
X130610000Y-144650000D02*
X130610000Y-142690000D01*
X134010000Y-142690000D02*
X134010000Y-144650000D01*
X134010000Y-144650000D02*
X130610000Y-144650000D01*
%TO.C,C55*%
X107152000Y-156632000D02*
X109112000Y-156632000D01*
X107152000Y-160032000D02*
X107152000Y-156632000D01*
X109112000Y-156632000D02*
X109112000Y-160032000D01*
X109112000Y-160032000D02*
X107152000Y-160032000D01*
%TO.C,R32*%
X126520000Y-145580000D02*
X128420000Y-145580000D01*
X126520000Y-148940000D02*
X126520000Y-145580000D01*
X128420000Y-145580000D02*
X128420000Y-148940000D01*
X128420000Y-148940000D02*
X126520000Y-148940000D01*
%TO.C,R34*%
X151150000Y-163140000D02*
X154510000Y-163140000D01*
X151150000Y-165040000D02*
X151150000Y-163140000D01*
X154510000Y-163140000D02*
X154510000Y-165040000D01*
X154510000Y-165040000D02*
X151150000Y-165040000D01*
%TO.C,C58*%
X177280000Y-169220000D02*
X179240000Y-169220000D01*
X177280000Y-172620000D02*
X177280000Y-169220000D01*
X179240000Y-169220000D02*
X179240000Y-172620000D01*
X179240000Y-172620000D02*
X177280000Y-172620000D01*
%TO.C,U4*%
X177011600Y-133136550D02*
X182523400Y-133136550D01*
X177011600Y-134597050D02*
X177011600Y-133136550D01*
X177011600Y-139092850D02*
X177011600Y-134597050D01*
X177011600Y-140553350D02*
X177011600Y-139092850D01*
X177329100Y-140553350D02*
X177011600Y-140553350D01*
X182205900Y-140553350D02*
X177329100Y-140553350D01*
X182523400Y-133136550D02*
X182523400Y-134597050D01*
X182523400Y-134597050D02*
X182523400Y-139092850D01*
X182523400Y-139092850D02*
X182523400Y-140553350D01*
X182523400Y-140553350D02*
X182205900Y-140553350D01*
%TO.C,C50*%
X147320000Y-161260000D02*
X150720000Y-161260000D01*
X147320000Y-163220000D02*
X147320000Y-161260000D01*
X150720000Y-161260000D02*
X150720000Y-163220000D01*
X150720000Y-163220000D02*
X147320000Y-163220000D01*
%TO.C,MH5*%
X190350000Y-128360000D02*
G75*
G02*
X186950000Y-128360000I-1700000J0D01*
G01*
X186950000Y-128360000D02*
G75*
G02*
X190350000Y-128360000I1700000J0D01*
G01*
%TO.C,C3*%
X101830000Y-150380000D02*
X105230000Y-150380000D01*
X101830000Y-152340000D02*
X101830000Y-150380000D01*
X105230000Y-150380000D02*
X105230000Y-152340000D01*
X105230000Y-152340000D02*
X101830000Y-152340000D01*
%TO.C,R29*%
X143950000Y-164310000D02*
X145850000Y-164310000D01*
X143950000Y-167670000D02*
X143950000Y-164310000D01*
X145850000Y-164310000D02*
X145850000Y-167670000D01*
X145850000Y-167670000D02*
X143950000Y-167670000D01*
%TD*%
M02*
