%TF.GenerationSoftware,KiCad,Pcbnew,8.0.9*%
%TF.CreationDate,2025-04-11T10:25:09+02:00*%
%TF.ProjectId,Ultrasound shield_8mic,556c7472-6173-46f7-956e-642073686965,rev?*%
%TF.SameCoordinates,Original*%
%TF.FileFunction,Other,User*%
%FSLAX46Y46*%
G04 Gerber Fmt 4.6, Leading zero omitted, Abs format (unit mm)*
G04 Created by KiCad (PCBNEW 8.0.9) date 2025-04-11 10:25:09*
%MOMM*%
%LPD*%
G01*
G04 APERTURE LIST*
%ADD10C,0.050000*%
G04 APERTURE END LIST*
D10*
%TO.C,C71*%
X220320000Y-148900000D02*
X222280000Y-148900000D01*
X220320000Y-152300000D02*
X220320000Y-148900000D01*
X222280000Y-148900000D02*
X222280000Y-152300000D01*
X222280000Y-152300000D02*
X220320000Y-152300000D01*
%TO.C,R43*%
X235450000Y-235620000D02*
X237350000Y-235620000D01*
X235450000Y-238980000D02*
X235450000Y-235620000D01*
X237350000Y-235620000D02*
X237350000Y-238980000D01*
X237350000Y-238980000D02*
X235450000Y-238980000D01*
%TO.C,C20*%
X101572000Y-222185200D02*
X104972000Y-222185200D01*
X101572000Y-224145200D02*
X101572000Y-222185200D01*
X104972000Y-222185200D02*
X104972000Y-224145200D01*
X104972000Y-224145200D02*
X101572000Y-224145200D01*
%TO.C,R10*%
X143750000Y-233920000D02*
X145650000Y-233920000D01*
X143750000Y-237280000D02*
X143750000Y-233920000D01*
X145650000Y-233920000D02*
X145650000Y-237280000D01*
X145650000Y-237280000D02*
X143750000Y-237280000D01*
%TO.C,R13*%
X107750000Y-230320000D02*
X109650000Y-230320000D01*
X107750000Y-233680000D02*
X107750000Y-230320000D01*
X109650000Y-230320000D02*
X109650000Y-233680000D01*
X109650000Y-233680000D02*
X107750000Y-233680000D01*
%TO.C,MK5*%
X237255000Y-241005000D02*
X237255000Y-245505000D01*
X237255000Y-245505000D02*
X240755000Y-245505000D01*
X240755000Y-241005000D02*
X237255000Y-241005000D01*
X240755000Y-245505000D02*
X240755000Y-241005000D01*
%TO.C,MK6*%
X236050000Y-150700000D02*
X236050000Y-154200000D01*
X236050000Y-154200000D02*
X240550000Y-154200000D01*
X240550000Y-150700000D02*
X236050000Y-150700000D01*
X240550000Y-154200000D02*
X240550000Y-150700000D01*
%TO.C,C68*%
X241020000Y-229400000D02*
X242980000Y-229400000D01*
X241020000Y-232800000D02*
X241020000Y-229400000D01*
X242980000Y-229400000D02*
X242980000Y-232800000D01*
X242980000Y-232800000D02*
X241020000Y-232800000D01*
%TO.C,R41*%
X117490000Y-139680000D02*
X117490000Y-143040000D01*
X117490000Y-143040000D02*
X119390000Y-143040000D01*
X119390000Y-139680000D02*
X117490000Y-139680000D01*
X119390000Y-143040000D02*
X119390000Y-139680000D01*
%TO.C,R4*%
X64920000Y-67250000D02*
X68280000Y-67250000D01*
X64920000Y-69150000D02*
X64920000Y-67250000D01*
X68280000Y-67250000D02*
X68280000Y-69150000D01*
X68280000Y-69150000D02*
X64920000Y-69150000D01*
%TO.C,C1*%
X51920000Y-241500000D02*
X53880000Y-241500000D01*
X51920000Y-244900000D02*
X51920000Y-241500000D01*
X53880000Y-241500000D02*
X53880000Y-244900000D01*
X53880000Y-244900000D02*
X51920000Y-244900000D01*
%TO.C,C69*%
X227420000Y-153300000D02*
X229380000Y-153300000D01*
X227420000Y-156700000D02*
X227420000Y-153300000D01*
X229380000Y-153300000D02*
X229380000Y-156700000D01*
X229380000Y-156700000D02*
X227420000Y-156700000D01*
%TO.C,R7*%
X71820000Y-109550000D02*
X75180000Y-109550000D01*
X71820000Y-111450000D02*
X71820000Y-109550000D01*
X75180000Y-109550000D02*
X75180000Y-111450000D01*
X75180000Y-111450000D02*
X71820000Y-111450000D01*
%TO.C,C14*%
X67020000Y-103622000D02*
X68980000Y-103622000D01*
X67020000Y-107022000D02*
X67020000Y-103622000D01*
X68980000Y-103622000D02*
X68980000Y-107022000D01*
X68980000Y-107022000D02*
X67020000Y-107022000D01*
%TO.C,MK4*%
X146755000Y-241050000D02*
X146755000Y-245550000D01*
X146755000Y-245550000D02*
X150255000Y-245550000D01*
X150255000Y-241050000D02*
X146755000Y-241050000D01*
X150255000Y-245550000D02*
X150255000Y-241050000D01*
%TO.C,R45*%
X230420000Y-157050000D02*
X233780000Y-157050000D01*
X230420000Y-158950000D02*
X230420000Y-157050000D01*
X233780000Y-157050000D02*
X233780000Y-158950000D01*
X233780000Y-158950000D02*
X230420000Y-158950000D01*
%TO.C,C56*%
X114090000Y-169530000D02*
X114090000Y-172930000D01*
X114090000Y-172930000D02*
X116050000Y-172930000D01*
X116050000Y-169530000D02*
X114090000Y-169530000D01*
X116050000Y-172930000D02*
X116050000Y-169530000D01*
%TO.C,C79*%
X192300000Y-70020000D02*
X195700000Y-70020000D01*
X192300000Y-71980000D02*
X192300000Y-70020000D01*
X195700000Y-70020000D02*
X195700000Y-71980000D01*
X195700000Y-71980000D02*
X192300000Y-71980000D01*
%TO.C,C66*%
X234420000Y-229400000D02*
X236380000Y-229400000D01*
X234420000Y-232800000D02*
X234420000Y-229400000D01*
X236380000Y-229400000D02*
X236380000Y-232800000D01*
X236380000Y-232800000D02*
X234420000Y-232800000D01*
%TO.C,C9*%
X62420000Y-230800000D02*
X64380000Y-230800000D01*
X62420000Y-234200000D02*
X62420000Y-230800000D01*
X64380000Y-230800000D02*
X64380000Y-234200000D01*
X64380000Y-234200000D02*
X62420000Y-234200000D01*
%TO.C,R6*%
X64420000Y-152250000D02*
X67780000Y-152250000D01*
X64420000Y-154150000D02*
X64420000Y-152250000D01*
X67780000Y-152250000D02*
X67780000Y-154150000D01*
X67780000Y-154150000D02*
X64420000Y-154150000D01*
%TO.C,C19*%
X232620000Y-241700000D02*
X234580000Y-241700000D01*
X232620000Y-245100000D02*
X232620000Y-241700000D01*
X234580000Y-241700000D02*
X234580000Y-245100000D01*
X234580000Y-245100000D02*
X232620000Y-245100000D01*
%TO.C,C59*%
X236600000Y-156020000D02*
X240000000Y-156020000D01*
X236600000Y-157980000D02*
X236600000Y-156020000D01*
X240000000Y-156020000D02*
X240000000Y-157980000D01*
X240000000Y-157980000D02*
X236600000Y-157980000D01*
%TO.C,C74*%
X232700000Y-71720000D02*
X236100000Y-71720000D01*
X232700000Y-73680000D02*
X232700000Y-71720000D01*
X236100000Y-71720000D02*
X236100000Y-73680000D01*
X236100000Y-73680000D02*
X232700000Y-73680000D01*
%TO.C,C31*%
X69600000Y-72020000D02*
X73000000Y-72020000D01*
X69600000Y-73980000D02*
X69600000Y-72020000D01*
X73000000Y-72020000D02*
X73000000Y-73980000D01*
X73000000Y-73980000D02*
X69600000Y-73980000D01*
%TO.C,R40*%
X114780000Y-136350000D02*
X114780000Y-139710000D01*
X114780000Y-139710000D02*
X116680000Y-139710000D01*
X116680000Y-136350000D02*
X114780000Y-136350000D01*
X116680000Y-139710000D02*
X116680000Y-136350000D01*
%TO.C,C57*%
X111160000Y-169490000D02*
X111160000Y-172890000D01*
X111160000Y-172890000D02*
X113120000Y-172890000D01*
X113120000Y-169490000D02*
X111160000Y-169490000D01*
X113120000Y-172890000D02*
X113120000Y-169490000D01*
%TO.C,C8*%
X119380000Y-159010000D02*
X119380000Y-160970000D01*
X119380000Y-160970000D02*
X122780000Y-160970000D01*
X122780000Y-159010000D02*
X119380000Y-159010000D01*
X122780000Y-160970000D02*
X122780000Y-159010000D01*
%TO.C,C12*%
X66300000Y-141720000D02*
X69700000Y-141720000D01*
X66300000Y-143680000D02*
X66300000Y-141720000D01*
X69700000Y-141720000D02*
X69700000Y-143680000D01*
X69700000Y-143680000D02*
X66300000Y-143680000D01*
%TO.C,C72*%
X240600000Y-71720000D02*
X244000000Y-71720000D01*
X240600000Y-73680000D02*
X240600000Y-71720000D01*
X244000000Y-71720000D02*
X244000000Y-73680000D01*
X244000000Y-73680000D02*
X240600000Y-73680000D01*
%TO.C,C78*%
X239020000Y-194400000D02*
X240980000Y-194400000D01*
X239020000Y-197800000D02*
X239020000Y-194400000D01*
X240980000Y-194400000D02*
X240980000Y-197800000D01*
X240980000Y-197800000D02*
X239020000Y-197800000D01*
%TO.C,C2*%
X142420000Y-241700000D02*
X144380000Y-241700000D01*
X142420000Y-245100000D02*
X142420000Y-241700000D01*
X144380000Y-241700000D02*
X144380000Y-245100000D01*
X144380000Y-245100000D02*
X142420000Y-245100000D01*
%TO.C,R12*%
X96250000Y-230720000D02*
X98150000Y-230720000D01*
X96250000Y-234080000D02*
X96250000Y-230720000D01*
X98150000Y-230720000D02*
X98150000Y-234080000D01*
X98150000Y-234080000D02*
X96250000Y-234080000D01*
%TO.C,C60*%
X242920000Y-60800000D02*
X244880000Y-60800000D01*
X242920000Y-64200000D02*
X242920000Y-60800000D01*
X244880000Y-60800000D02*
X244880000Y-64200000D01*
X244880000Y-64200000D02*
X242920000Y-64200000D01*
%TO.C,C70*%
X221300000Y-160620000D02*
X224700000Y-160620000D01*
X221300000Y-162580000D02*
X221300000Y-160620000D01*
X224700000Y-160620000D02*
X224700000Y-162580000D01*
X224700000Y-162580000D02*
X221300000Y-162580000D01*
%TO.C,R50*%
X146550000Y-66820000D02*
X148450000Y-66820000D01*
X146550000Y-70180000D02*
X146550000Y-66820000D01*
X148450000Y-66820000D02*
X148450000Y-70180000D01*
X148450000Y-70180000D02*
X146550000Y-70180000D01*
%TO.C,C18*%
X149020000Y-229100000D02*
X150980000Y-229100000D01*
X149020000Y-232500000D02*
X149020000Y-229100000D01*
X150980000Y-229100000D02*
X150980000Y-232500000D01*
X150980000Y-232500000D02*
X149020000Y-232500000D01*
%TO.C,C29*%
X70320000Y-150800000D02*
X72280000Y-150800000D01*
X70320000Y-154200000D02*
X70320000Y-150800000D01*
X72280000Y-150800000D02*
X72280000Y-154200000D01*
X72280000Y-154200000D02*
X70320000Y-154200000D01*
%TO.C,C13*%
X78100000Y-79720000D02*
X81500000Y-79720000D01*
X78100000Y-81680000D02*
X78100000Y-79720000D01*
X81500000Y-79720000D02*
X81500000Y-81680000D01*
X81500000Y-81680000D02*
X78100000Y-81680000D01*
%TO.C,U12*%
X107305000Y-148785000D02*
X118405000Y-148785000D01*
X107305000Y-155785000D02*
X107305000Y-148785000D01*
X118405000Y-148785000D02*
X118405000Y-155785000D01*
X118405000Y-155785000D02*
X107305000Y-155785000D01*
%TO.C,R47*%
X240050000Y-66820000D02*
X241950000Y-66820000D01*
X240050000Y-70180000D02*
X240050000Y-66820000D01*
X241950000Y-66820000D02*
X241950000Y-70180000D01*
X241950000Y-70180000D02*
X240050000Y-70180000D01*
%TO.C,R54*%
X187150000Y-75220000D02*
X189050000Y-75220000D01*
X187150000Y-78580000D02*
X187150000Y-75220000D01*
X189050000Y-75220000D02*
X189050000Y-78580000D01*
X189050000Y-78580000D02*
X187150000Y-78580000D01*
%TO.C,C73*%
X237720000Y-74400000D02*
X239680000Y-74400000D01*
X237720000Y-77800000D02*
X237720000Y-74400000D01*
X239680000Y-74400000D02*
X239680000Y-77800000D01*
X239680000Y-77800000D02*
X237720000Y-77800000D01*
%TO.C,MK2*%
X56450000Y-150750000D02*
X56450000Y-154250000D01*
X56450000Y-154250000D02*
X60950000Y-154250000D01*
X60950000Y-150750000D02*
X56450000Y-150750000D01*
X60950000Y-154250000D02*
X60950000Y-150750000D01*
%TO.C,R42*%
X121380000Y-136600000D02*
X121380000Y-139960000D01*
X121380000Y-139960000D02*
X123280000Y-139960000D01*
X123280000Y-136600000D02*
X121380000Y-136600000D01*
X123280000Y-139960000D02*
X123280000Y-136600000D01*
%TO.C,MK7*%
X237250000Y-60405000D02*
X237250000Y-64905000D01*
X237250000Y-64905000D02*
X240750000Y-64905000D01*
X240750000Y-60405000D02*
X237250000Y-60405000D01*
X240750000Y-64905000D02*
X240750000Y-60405000D01*
%TO.C,R52*%
X230220000Y-190050000D02*
X233580000Y-190050000D01*
X230220000Y-191950000D02*
X230220000Y-190050000D01*
X233580000Y-190050000D02*
X233580000Y-191950000D01*
X233580000Y-191950000D02*
X230220000Y-191950000D01*
%TO.C,C28*%
X70320000Y-146400000D02*
X72280000Y-146400000D01*
X70320000Y-149800000D02*
X70320000Y-146400000D01*
X72280000Y-146400000D02*
X72280000Y-149800000D01*
X72280000Y-149800000D02*
X70320000Y-149800000D01*
%TO.C,C11*%
X56900000Y-145320000D02*
X60300000Y-145320000D01*
X56900000Y-147280000D02*
X56900000Y-145320000D01*
X60300000Y-145320000D02*
X60300000Y-147280000D01*
X60300000Y-147280000D02*
X56900000Y-147280000D01*
%TO.C,C6*%
X70420000Y-229100000D02*
X72380000Y-229100000D01*
X70420000Y-232500000D02*
X70420000Y-229100000D01*
X72380000Y-229100000D02*
X72380000Y-232500000D01*
X72380000Y-232500000D02*
X70420000Y-232500000D01*
%TO.C,U3*%
X118930000Y-161210000D02*
X123030000Y-161210000D01*
X118930000Y-164610000D02*
X118930000Y-161210000D01*
X123030000Y-161210000D02*
X123030000Y-164610000D01*
X123030000Y-164610000D02*
X118930000Y-164610000D01*
%TO.C,C75*%
X150320000Y-72100000D02*
X152280000Y-72100000D01*
X150320000Y-75500000D02*
X150320000Y-72100000D01*
X152280000Y-72100000D02*
X152280000Y-75500000D01*
X152280000Y-75500000D02*
X150320000Y-75500000D01*
%TO.C,R11*%
X151250000Y-234120000D02*
X153150000Y-234120000D01*
X151250000Y-237480000D02*
X151250000Y-234120000D01*
X153150000Y-234120000D02*
X153150000Y-237480000D01*
X153150000Y-237480000D02*
X151250000Y-237480000D01*
%TO.C,R3*%
X64320000Y-146250000D02*
X67680000Y-146250000D01*
X64320000Y-148150000D02*
X64320000Y-146250000D01*
X67680000Y-146250000D02*
X67680000Y-148150000D01*
X67680000Y-148150000D02*
X64320000Y-148150000D01*
%TO.C,C76*%
X151020000Y-76700000D02*
X152980000Y-76700000D01*
X151020000Y-80100000D02*
X151020000Y-76700000D01*
X152980000Y-76700000D02*
X152980000Y-80100000D01*
X152980000Y-80100000D02*
X151020000Y-80100000D01*
%TO.C,C17*%
X143820000Y-224600000D02*
X145780000Y-224600000D01*
X143820000Y-228000000D02*
X143820000Y-224600000D01*
X145780000Y-224600000D02*
X145780000Y-228000000D01*
X145780000Y-228000000D02*
X143820000Y-228000000D01*
%TO.C,C77*%
X146420000Y-72000000D02*
X148380000Y-72000000D01*
X146420000Y-75400000D02*
X146420000Y-72000000D01*
X148380000Y-72000000D02*
X148380000Y-75400000D01*
X148380000Y-75400000D02*
X146420000Y-75400000D01*
%TO.C,R8*%
X56250000Y-235320000D02*
X58150000Y-235320000D01*
X56250000Y-238680000D02*
X56250000Y-235320000D01*
X58150000Y-235320000D02*
X58150000Y-238680000D01*
X58150000Y-238680000D02*
X56250000Y-238680000D01*
%TO.C,R53*%
X201450000Y-74920000D02*
X203350000Y-74920000D01*
X201450000Y-78280000D02*
X201450000Y-74920000D01*
X203350000Y-74920000D02*
X203350000Y-78280000D01*
X203350000Y-78280000D02*
X201450000Y-78280000D01*
%TO.C,U13*%
X110880000Y-159110000D02*
X118080000Y-159110000D01*
X110880000Y-167910000D02*
X110880000Y-159110000D01*
X118080000Y-159110000D02*
X118080000Y-167910000D01*
X118080000Y-167910000D02*
X110880000Y-167910000D01*
%TO.C,R2*%
X71720000Y-99550000D02*
X75080000Y-99550000D01*
X71720000Y-101450000D02*
X71720000Y-99550000D01*
X75080000Y-99550000D02*
X75080000Y-101450000D01*
X75080000Y-101450000D02*
X71720000Y-101450000D01*
%TO.C,R48*%
X236450000Y-66820000D02*
X238350000Y-66820000D01*
X236450000Y-70180000D02*
X236450000Y-66820000D01*
X238350000Y-66820000D02*
X238350000Y-70180000D01*
X238350000Y-70180000D02*
X236450000Y-70180000D01*
%TO.C,R9*%
X63250000Y-235120000D02*
X65150000Y-235120000D01*
X63250000Y-238480000D02*
X63250000Y-235120000D01*
X65150000Y-235120000D02*
X65150000Y-238480000D01*
X65150000Y-238480000D02*
X63250000Y-238480000D01*
%TO.C,R44*%
X238950000Y-235520000D02*
X240850000Y-235520000D01*
X238950000Y-238880000D02*
X238950000Y-235520000D01*
X240850000Y-235520000D02*
X240850000Y-238880000D01*
X240850000Y-238880000D02*
X238950000Y-238880000D01*
%TO.C,C30*%
X71220000Y-67500000D02*
X73180000Y-67500000D01*
X71220000Y-70900000D02*
X71220000Y-67500000D01*
X73180000Y-67500000D02*
X73180000Y-70900000D01*
X73180000Y-70900000D02*
X71220000Y-70900000D01*
%TO.C,C16*%
X145920000Y-229100000D02*
X147880000Y-229100000D01*
X145920000Y-232500000D02*
X145920000Y-229100000D01*
X147880000Y-229100000D02*
X147880000Y-232500000D01*
X147880000Y-232500000D02*
X145920000Y-232500000D01*
%TO.C,C65*%
X153420000Y-61200000D02*
X155380000Y-61200000D01*
X153420000Y-64600000D02*
X153420000Y-61200000D01*
X155380000Y-61200000D02*
X155380000Y-64600000D01*
X155380000Y-64600000D02*
X153420000Y-64600000D01*
%TO.C,C7*%
X119280000Y-165170000D02*
X119280000Y-167130000D01*
X119280000Y-167130000D02*
X122680000Y-167130000D01*
X122680000Y-165170000D02*
X119280000Y-165170000D01*
X122680000Y-167130000D02*
X122680000Y-165170000D01*
%TO.C,R49*%
X150350000Y-66720000D02*
X152250000Y-66720000D01*
X150350000Y-70080000D02*
X150350000Y-66720000D01*
X152250000Y-66720000D02*
X152250000Y-70080000D01*
X152250000Y-70080000D02*
X150350000Y-70080000D01*
%TO.C,C5*%
X59020000Y-230800000D02*
X60980000Y-230800000D01*
X59020000Y-234200000D02*
X59020000Y-230800000D01*
X60980000Y-230800000D02*
X60980000Y-234200000D01*
X60980000Y-234200000D02*
X59020000Y-234200000D01*
%TO.C,C67*%
X237100000Y-225720000D02*
X240500000Y-225720000D01*
X237100000Y-227680000D02*
X237100000Y-225720000D01*
X240500000Y-225720000D02*
X240500000Y-227680000D01*
X240500000Y-227680000D02*
X237100000Y-227680000D01*
%TO.C,MK1*%
X56250000Y-60450000D02*
X56250000Y-64950000D01*
X56250000Y-64950000D02*
X59750000Y-64950000D01*
X59750000Y-60450000D02*
X56250000Y-60450000D01*
X59750000Y-64950000D02*
X59750000Y-60450000D01*
%TO.C,R51*%
X230520000Y-200650000D02*
X233880000Y-200650000D01*
X230520000Y-202550000D02*
X230520000Y-200650000D01*
X233880000Y-200650000D02*
X233880000Y-202550000D01*
X233880000Y-202550000D02*
X230520000Y-202550000D01*
%TO.C,R5*%
X65020000Y-72050000D02*
X68380000Y-72050000D01*
X65020000Y-73950000D02*
X65020000Y-72050000D01*
X68380000Y-72050000D02*
X68380000Y-73950000D01*
X68380000Y-73950000D02*
X65020000Y-73950000D01*
%TO.C,C10*%
X63120000Y-61000000D02*
X65080000Y-61000000D01*
X63120000Y-64400000D02*
X63120000Y-61000000D01*
X65080000Y-61000000D02*
X65080000Y-64400000D01*
X65080000Y-64400000D02*
X63120000Y-64400000D01*
%TO.C,MK8*%
X146745000Y-60450000D02*
X146745000Y-64950000D01*
X146745000Y-64950000D02*
X150245000Y-64950000D01*
X150245000Y-60450000D02*
X146745000Y-60450000D01*
X150245000Y-64950000D02*
X150245000Y-60450000D01*
%TO.C,MK3*%
X56250000Y-241070000D02*
X56250000Y-245570000D01*
X56250000Y-245570000D02*
X59750000Y-245570000D01*
X59750000Y-241070000D02*
X56250000Y-241070000D01*
X59750000Y-245570000D02*
X59750000Y-241070000D01*
%TO.C,R46*%
X226720000Y-150650000D02*
X230080000Y-150650000D01*
X226720000Y-152550000D02*
X226720000Y-150650000D01*
X230080000Y-150650000D02*
X230080000Y-152550000D01*
X230080000Y-152550000D02*
X226720000Y-152550000D01*
%TD*%
M02*
