M48
; DRILL file {KiCad 8.0.9} date 2025-04-11T10:25:04+0200
; FORMAT={-:-/ absolute / inch / decimal}
; #@! TF.CreationDate,2025-04-11T10:25:04+02:00
; #@! TF.GenerationSoftware,Kicad,Pcbnew,8.0.9
; #@! TF.FileFunction,Plated,1,4,PTH
FMAT,2
INCH
; #@! TA.AperFunction,Plated,PTH,ViaDrill
T1C0.0157
; #@! TA.AperFunction,Plated,PTH,ComponentDrill
T2C0.0315
; #@! TA.AperFunction,Plated,PTH,ComponentDrill
T3C0.0394
; #@! TA.AperFunction,Plated,PTH,ComponentDrill
T4C0.0433
; #@! TA.AperFunction,Plated,PTH,ComponentDrill
T5C0.0551
%
G90
G05
T1
X2.0157Y-9.315
X2.1575Y-6.1732
X2.2874Y-5.0512
X2.378Y-9.3661
X2.5866Y-2.7638
X2.5945Y-5.9173
X2.6122Y-2.5059
X2.6693Y-3.9724
X2.6732Y-4.2795
X2.748Y-4.1929
X2.7598Y-4.1339
X2.8346Y-3.3346
X3.0945Y-4.1024
X3.0984Y-4.189
X3.1535Y-3.2756
X3.374Y-9.063
X3.437Y-9.2441
X3.6102Y-5.937
X3.7598Y-9.2648
X3.815Y-9.0433
X3.937Y-9.4213
X3.9685Y-9.3976
X4.0551Y-9.3268
X4.1882Y-5.9445
X4.2047Y-8.7874
X4.3126Y-6.3126
X4.3307Y-5.0827
X4.3413Y-6.7071
X4.3594Y-5.8374
X4.3815Y-6.1713
X4.4953Y-6.228
X4.5177Y-5.8307
X4.6045Y-5.825
X4.6394Y-5.3697
X4.6846Y-6.7827
X4.6953Y-6.165
X4.7114Y-5.4547
X4.722Y-6.2071
X4.7394Y-5.5303
X4.8713Y-5.7323
X4.9126Y-5.5539
X4.9185Y-6.4961
X4.9343Y-6.852
X5.0539Y-6.0484
X5.063Y-5.2087
X5.0746Y-5.8858
X5.1051Y-5.9929
X5.115Y-6.0894
X5.1354Y-5.9512
X5.1531Y-5.8138
X5.1846Y-6.1319
X5.2268Y-5.8118
X5.2362Y-5.5512
X5.2689Y-6.4862
X5.2839Y-5.8091
X5.3059Y-6.0669
X5.3209Y-5.8079
X5.3921Y-6.0236
X5.5748Y-6.8031
X5.6496Y-9.4134
X5.685Y-7.2244
X5.7728Y-6.3622
X5.7728Y-6.4661
X5.7776Y-6.887
X5.7819Y-6.6354
X5.7874Y-6.5748
X5.8425Y-9.2638
X5.8661Y-5.3937
X5.8839Y-6.7776
X5.9016Y-7.1693
X5.9843Y-5.3937
X6.063Y-6.3386
X6.0949Y-6.7249
X6.1161Y-6.6764
X6.152Y-6.6539
X6.2067Y-6.7472
X6.2069Y-6.549
X6.2364Y-6.7899
X6.2382Y-6.7118
X6.252Y-7.2283
X6.2598Y-2.439
X6.2764Y-6.7732
X6.3075Y-6.8541
X6.3268Y-7.1654
X6.339Y-5.2264
X6.3642Y-5.5571
X6.3717Y-6.6827
X6.4764Y-5.1866
X6.6614Y-3.2441
X6.6654Y-2.7323
X6.8335Y-5.2941
X6.8898Y-6.378
X6.9161Y-5.7173
X6.9449Y-2.5157
X6.9657Y-5.6437
X7.1134Y-5.2039
X7.2008Y-5.7008
X7.4213Y-6.8661
X7.5Y-2.8031
X7.5276Y-3.1693
X7.6299Y-2.9094
X7.6516Y-2.8661
X7.815Y-7.063
X7.8858Y-7.1102
X8.2244Y-6.9488
X8.9646Y-7.6102
X8.9882Y-7.8898
X9.0748Y-2.6772
X9.1575Y-5.7362
X9.185Y-3.0866
X9.1969Y-9.4134
X9.2598Y-7.689
X9.2677Y-3.0
X9.311Y-7.7047
X9.3189Y-8.8268
X9.3268Y-7.5236
X9.3268Y-7.874
X9.3504Y-6.3307
X9.3819Y-9.2362
X9.4252Y-8.8268
X9.5433Y-2.5984
T3
X3.9648Y-5.8331
X4.0648Y-5.8331
X4.3839Y-5.4337
X4.3839Y-5.5337
X4.4008Y-5.2594
X4.5008Y-5.2594
X4.5965Y-6.8911
X4.5965Y-6.9911
X4.6008Y-5.2594
X4.7591Y-5.2461
X4.7709Y-6.8907
X4.7709Y-6.9907
X4.8591Y-5.2461
X4.9591Y-5.2461
X5.4894Y-5.2831
X5.4894Y-5.3831
X5.4894Y-5.4831
X5.4894Y-5.5831
X5.502Y-6.3134
X5.502Y-6.4134
X5.502Y-6.5134
X5.502Y-6.6134
X5.6539Y-5.563
X5.7539Y-5.563
X5.8539Y-5.563
X6.3437Y-6.3425
X6.4437Y-6.3425
X6.5437Y-6.3425
X6.6437Y-6.3425
X7.1614Y-6.4524
X7.1614Y-6.5524
X7.1614Y-6.6524
X7.1614Y-6.7524
X7.4031Y-5.337
X7.4031Y-5.437
X7.4031Y-5.537
X7.5772Y-5.0535
X7.5772Y-5.1535
X7.5772Y-5.2535
X7.5772Y-5.3535
X7.5772Y-5.4535
X7.5772Y-5.5535
X7.5772Y-5.6535
X7.5772Y-5.7535
X7.5772Y-5.8535
X7.5772Y-5.9535
X7.5772Y-6.0535
X7.5772Y-6.1535
X7.5772Y-6.2535
X7.5772Y-6.3535
X7.5772Y-6.4535
X7.5772Y-6.5535
X7.5772Y-6.6535
X7.5772Y-6.7535
X7.6772Y-5.0535
X7.6772Y-5.1535
X7.6772Y-5.2535
X7.6772Y-5.3535
X7.6772Y-5.4535
X7.6772Y-5.5535
X7.6772Y-5.6535
X7.6772Y-5.7535
X7.6772Y-5.8535
X7.6772Y-5.9535
X7.6772Y-6.0535
X7.6772Y-6.1535
X7.6772Y-6.2535
X7.6772Y-6.3535
X7.6772Y-6.4535
X7.6772Y-6.5535
X7.6772Y-6.6535
X7.6772Y-6.7535
T4
X4.6172Y-5.0535
X4.7172Y-5.0535
X4.8172Y-5.0535
X4.9172Y-5.0535
X4.9772Y-6.9535
X5.0172Y-5.0535
X5.0772Y-6.9535
X5.1172Y-5.0535
X5.1772Y-6.9535
X5.2172Y-5.0535
X5.2772Y-6.9535
X5.3172Y-5.0535
X5.3772Y-6.9535
X5.4172Y-5.0535
X5.4772Y-6.9535
X5.5172Y-5.0535
X5.5772Y-6.9535
X5.6772Y-5.0535
X5.6772Y-6.9535
X5.7772Y-5.0535
X5.8772Y-5.0535
X5.8772Y-6.9535
X5.9772Y-5.0535
X5.9772Y-6.9535
X6.0772Y-5.0535
X6.0772Y-6.9535
X6.1772Y-5.0535
X6.1772Y-6.9535
X6.2772Y-5.0535
X6.2772Y-6.9535
X6.3772Y-5.0535
X6.3772Y-6.9535
X6.4772Y-6.9535
X6.5772Y-5.0535
X6.5772Y-6.9535
X6.6772Y-5.0535
X6.7772Y-5.0535
X6.7772Y-6.9535
X6.8772Y-5.0535
X6.8772Y-6.9535
X6.9772Y-5.0535
X6.9772Y-6.9535
X7.0772Y-5.0535
X7.0772Y-6.9535
X7.1772Y-5.0535
X7.1772Y-6.9535
X7.2772Y-5.0535
X7.2772Y-6.9535
X7.3772Y-6.9535
X7.4772Y-6.9535
T5
X5.8421Y-5.8075
X5.8421Y-6.2012
X7.1618Y-5.8075
X7.1618Y-6.2012
T2
G00X3.9988Y-5.4354
M15
G01X3.9988Y-5.522
M16
G05
G00X4.0657Y-5.6677
M15
G01X4.1524Y-5.6677
M16
G05
G00X4.2272Y-5.4276
M15
G01X4.2272Y-5.5299
M16
G05
M30
