%TF.GenerationSoftware,KiCad,Pcbnew,8.0.9*%
%TF.CreationDate,2025-04-11T10:25:08+02:00*%
%TF.ProjectId,Ultrasound shield_8mic,556c7472-6173-46f7-956e-642073686965,rev?*%
%TF.SameCoordinates,Original*%
%TF.FileFunction,Paste,Top*%
%TF.FilePolarity,Positive*%
%FSLAX46Y46*%
G04 Gerber Fmt 4.6, Leading zero omitted, Abs format (unit mm)*
G04 Created by KiCad (PCBNEW 8.0.9) date 2025-04-11 10:25:08*
%MOMM*%
%LPD*%
G01*
G04 APERTURE LIST*
G04 Aperture macros list*
%AMRoundRect*
0 Rectangle with rounded corners*
0 $1 Rounding radius*
0 $2 $3 $4 $5 $6 $7 $8 $9 X,Y pos of 4 corners*
0 Add a 4 corners polygon primitive as box body*
4,1,4,$2,$3,$4,$5,$6,$7,$8,$9,$2,$3,0*
0 Add four circle primitives for the rounded corners*
1,1,$1+$1,$2,$3*
1,1,$1+$1,$4,$5*
1,1,$1+$1,$6,$7*
1,1,$1+$1,$8,$9*
0 Add four rect primitives between the rounded corners*
20,1,$1+$1,$2,$3,$4,$5,0*
20,1,$1+$1,$4,$5,$6,$7,0*
20,1,$1+$1,$6,$7,$8,$9,0*
20,1,$1+$1,$8,$9,$2,$3,0*%
G04 Aperture macros list end*
%ADD10C,0.100000*%
%ADD11RoundRect,0.250000X0.262500X0.450000X-0.262500X0.450000X-0.262500X-0.450000X0.262500X-0.450000X0*%
%ADD12RoundRect,0.250000X0.475000X-0.250000X0.475000X0.250000X-0.475000X0.250000X-0.475000X-0.250000X0*%
%ADD13RoundRect,0.250000X-0.250000X-0.475000X0.250000X-0.475000X0.250000X0.475000X-0.250000X0.475000X0*%
%ADD14RoundRect,0.250000X0.250000X0.475000X-0.250000X0.475000X-0.250000X-0.475000X0.250000X-0.475000X0*%
%ADD15RoundRect,0.250000X0.450000X-0.262500X0.450000X0.262500X-0.450000X0.262500X-0.450000X-0.262500X0*%
%ADD16RoundRect,0.250000X-0.475000X0.250000X-0.475000X-0.250000X0.475000X-0.250000X0.475000X0.250000X0*%
%ADD17RoundRect,0.250000X-0.450000X0.262500X-0.450000X-0.262500X0.450000X-0.262500X0.450000X0.262500X0*%
%ADD18RoundRect,0.250000X-0.262500X-0.450000X0.262500X-0.450000X0.262500X0.450000X-0.262500X0.450000X0*%
%ADD19RoundRect,0.250000X0.275000X0.700000X-0.275000X0.700000X-0.275000X-0.700000X0.275000X-0.700000X0*%
%ADD20RoundRect,0.243750X0.243750X0.456250X-0.243750X0.456250X-0.243750X-0.456250X0.243750X-0.456250X0*%
%ADD21R,1.981200X0.558800*%
%ADD22R,1.066800X0.355600*%
%ADD23R,0.355600X1.066800*%
%ADD24R,0.558800X1.981200*%
G04 APERTURE END LIST*
D10*
%TO.C,U8*%
X121495000Y-136945000D02*
G75*
G02*
X121320000Y-136945000I-87500J0D01*
G01*
X121320000Y-136945000D02*
G75*
G02*
X121495000Y-136945000I87500J0D01*
G01*
X121495000Y-137595000D02*
G75*
G02*
X121320000Y-137595000I-87500J0D01*
G01*
X121320000Y-137595000D02*
G75*
G02*
X121495000Y-137595000I87500J0D01*
G01*
X121495000Y-138245000D02*
G75*
G02*
X121320000Y-138245000I-87500J0D01*
G01*
X121320000Y-138245000D02*
G75*
G02*
X121495000Y-138245000I87500J0D01*
G01*
X121495000Y-138895000D02*
G75*
G02*
X121320000Y-138895000I-87500J0D01*
G01*
X121320000Y-138895000D02*
G75*
G02*
X121495000Y-138895000I87500J0D01*
G01*
X122945000Y-136945000D02*
G75*
G02*
X122770000Y-136945000I-87500J0D01*
G01*
X122770000Y-136945000D02*
G75*
G02*
X122945000Y-136945000I87500J0D01*
G01*
X122945000Y-137595000D02*
G75*
G02*
X122770000Y-137595000I-87500J0D01*
G01*
X122770000Y-137595000D02*
G75*
G02*
X122945000Y-137595000I87500J0D01*
G01*
X122945000Y-138245000D02*
G75*
G02*
X122770000Y-138245000I-87500J0D01*
G01*
X122770000Y-138245000D02*
G75*
G02*
X122945000Y-138245000I87500J0D01*
G01*
X122945000Y-138895000D02*
G75*
G02*
X122770000Y-138895000I-87500J0D01*
G01*
X122770000Y-138895000D02*
G75*
G02*
X122945000Y-138895000I87500J0D01*
G01*
%TD*%
D11*
%TO.C,R18*%
X147242500Y-136140000D03*
X145417500Y-136140000D03*
%TD*%
D12*
%TO.C,C52*%
X144920000Y-170890000D03*
X144920000Y-168990000D03*
%TD*%
D13*
%TO.C,C43*%
X178500000Y-142380000D03*
X180400000Y-142380000D03*
%TD*%
D14*
%TO.C,C34*%
X169480000Y-138400000D03*
X167580000Y-138400000D03*
%TD*%
D15*
%TO.C,R24*%
X135620000Y-163072500D03*
X135620000Y-161247500D03*
%TD*%
D16*
%TO.C,C44*%
X138670000Y-153500000D03*
X138670000Y-155400000D03*
%TD*%
D14*
%TO.C,C32*%
X169410000Y-136180000D03*
X167510000Y-136180000D03*
%TD*%
D17*
%TO.C,R37*%
X175050000Y-137617500D03*
X175050000Y-139442500D03*
%TD*%
D13*
%TO.C,C21*%
X155430000Y-140630000D03*
X157330000Y-140630000D03*
%TD*%
D14*
%TO.C,C49*%
X141370000Y-145260000D03*
X139470000Y-145260000D03*
%TD*%
%TO.C,C27*%
X164600000Y-133780000D03*
X162700000Y-133780000D03*
%TD*%
D16*
%TO.C,C38*%
X118100000Y-142510000D03*
X118100000Y-144410000D03*
%TD*%
D18*
%TO.C,R20*%
X151747500Y-140610000D03*
X153572500Y-140610000D03*
%TD*%
D13*
%TO.C,C53*%
X171580000Y-164530000D03*
X173480000Y-164530000D03*
%TD*%
%TO.C,C36*%
X111760000Y-146640000D03*
X113660000Y-146640000D03*
%TD*%
D12*
%TO.C,C46*%
X131720000Y-159850000D03*
X131720000Y-157950000D03*
%TD*%
D17*
%TO.C,R38*%
X175080000Y-141287500D03*
X175080000Y-143112500D03*
%TD*%
D13*
%TO.C,C62*%
X156280000Y-163630000D03*
X158180000Y-163630000D03*
%TD*%
D17*
%TO.C,R1*%
X100970000Y-157357500D03*
X100970000Y-159182500D03*
%TD*%
D16*
%TO.C,C54*%
X172680000Y-166800000D03*
X172680000Y-168700000D03*
%TD*%
D19*
%TO.C,FB1*%
X114195000Y-143960000D03*
X111345000Y-143960000D03*
%TD*%
D18*
%TO.C,R36*%
X182277500Y-131770000D03*
X184102500Y-131770000D03*
%TD*%
D14*
%TO.C,C64*%
X172780000Y-145030000D03*
X170880000Y-145030000D03*
%TD*%
D20*
%TO.C,D1*%
X102917500Y-161160000D03*
X101042500Y-161160000D03*
%TD*%
D14*
%TO.C,C25*%
X164610000Y-136090000D03*
X162710000Y-136090000D03*
%TD*%
D13*
%TO.C,C48*%
X134580000Y-145780000D03*
X136480000Y-145780000D03*
%TD*%
D21*
%TO.C,U7*%
X153626200Y-133225000D03*
X153626200Y-134495000D03*
X153626200Y-135765000D03*
X153626200Y-137035000D03*
X158553800Y-137035000D03*
X158553800Y-135765000D03*
X158553800Y-134495000D03*
X158553800Y-133225000D03*
%TD*%
D15*
%TO.C,R31*%
X178240000Y-168222500D03*
X178240000Y-166397500D03*
%TD*%
D11*
%TO.C,R35*%
X161612500Y-165980000D03*
X159787500Y-165980000D03*
%TD*%
D16*
%TO.C,C24*%
X149320000Y-133240000D03*
X149320000Y-135140000D03*
%TD*%
D14*
%TO.C,C41*%
X168060000Y-164170000D03*
X166160000Y-164170000D03*
%TD*%
D18*
%TO.C,R17*%
X145397500Y-134160000D03*
X147222500Y-134160000D03*
%TD*%
D15*
%TO.C,R30*%
X178290000Y-164432500D03*
X178290000Y-162607500D03*
%TD*%
D16*
%TO.C,C4*%
X103306000Y-157360000D03*
X103306000Y-159260000D03*
%TD*%
D15*
%TO.C,R23*%
X135630000Y-159462500D03*
X135630000Y-157637500D03*
%TD*%
D17*
%TO.C,R22*%
X171780000Y-135715000D03*
X171780000Y-137540000D03*
%TD*%
D18*
%TO.C,R39*%
X167130000Y-145040000D03*
X168955000Y-145040000D03*
%TD*%
D13*
%TO.C,C33*%
X137820000Y-157400000D03*
X139720000Y-157400000D03*
%TD*%
D19*
%TO.C,FB2*%
X105635000Y-154360000D03*
X102785000Y-154360000D03*
%TD*%
D17*
%TO.C,R14*%
X160940000Y-143227500D03*
X160940000Y-145052500D03*
%TD*%
%TO.C,R27*%
X135400000Y-141517500D03*
X135400000Y-143342500D03*
%TD*%
D16*
%TO.C,C61*%
X126560000Y-150400000D03*
X126560000Y-152300000D03*
%TD*%
D17*
%TO.C,R26*%
X130350000Y-137657500D03*
X130350000Y-139482500D03*
%TD*%
D18*
%TO.C,R19*%
X151747500Y-142800000D03*
X153572500Y-142800000D03*
%TD*%
D12*
%TO.C,C15*%
X125060000Y-139240000D03*
X125060000Y-137340000D03*
%TD*%
%TO.C,C40*%
X135270000Y-135100000D03*
X135270000Y-133200000D03*
%TD*%
D16*
%TO.C,C37*%
X105592000Y-157360000D03*
X105592000Y-159260000D03*
%TD*%
D18*
%TO.C,R16*%
X142690000Y-132000000D03*
X144515000Y-132000000D03*
%TD*%
D14*
%TO.C,C63*%
X184350000Y-142430000D03*
X182450000Y-142430000D03*
%TD*%
D13*
%TO.C,C22*%
X155480000Y-144830000D03*
X157380000Y-144830000D03*
%TD*%
D14*
%TO.C,C42*%
X186490000Y-173310000D03*
X184590000Y-173310000D03*
%TD*%
D16*
%TO.C,C23*%
X142970000Y-134270000D03*
X142970000Y-136170000D03*
%TD*%
D15*
%TO.C,R33*%
X138670000Y-151212500D03*
X138670000Y-149387500D03*
%TD*%
D17*
%TO.C,R25*%
X171780000Y-139327500D03*
X171780000Y-141152500D03*
%TD*%
D13*
%TO.C,C51*%
X148060000Y-164320000D03*
X149960000Y-164320000D03*
%TD*%
D22*
%TO.C,U5*%
X132182000Y-149764800D03*
X132182000Y-150399800D03*
X132182000Y-151060200D03*
X132182000Y-151695200D03*
D23*
X132994800Y-152508000D03*
X133629800Y-152508000D03*
X134290200Y-152508000D03*
X134925200Y-152508000D03*
D22*
X135738000Y-151695200D03*
X135738000Y-151060200D03*
X135738000Y-150399800D03*
X135738000Y-149764800D03*
D23*
X134925200Y-148952000D03*
X134290200Y-148952000D03*
X133629800Y-148952000D03*
X132994800Y-148952000D03*
%TD*%
D14*
%TO.C,C35*%
X169480000Y-140720000D03*
X167580000Y-140720000D03*
%TD*%
D13*
%TO.C,C26*%
X145400000Y-138420000D03*
X147300000Y-138420000D03*
%TD*%
D14*
%TO.C,C45*%
X135410000Y-155510000D03*
X133510000Y-155510000D03*
%TD*%
D18*
%TO.C,R15*%
X155517500Y-142800000D03*
X157342500Y-142800000D03*
%TD*%
D15*
%TO.C,R21*%
X170060000Y-133752500D03*
X170060000Y-131927500D03*
%TD*%
D17*
%TO.C,R28*%
X144900000Y-161417500D03*
X144900000Y-163242500D03*
%TD*%
D13*
%TO.C,C39*%
X186380000Y-131790000D03*
X188280000Y-131790000D03*
%TD*%
D14*
%TO.C,C47*%
X133260000Y-143670000D03*
X131360000Y-143670000D03*
%TD*%
D16*
%TO.C,C55*%
X108132000Y-157382000D03*
X108132000Y-159282000D03*
%TD*%
D17*
%TO.C,R32*%
X127470000Y-146347500D03*
X127470000Y-148172500D03*
%TD*%
D11*
%TO.C,R34*%
X153742500Y-164090000D03*
X151917500Y-164090000D03*
%TD*%
D12*
%TO.C,C58*%
X178260000Y-171870000D03*
X178260000Y-169970000D03*
%TD*%
D24*
%TO.C,U4*%
X181672500Y-134381150D03*
X180402500Y-134381150D03*
X179132500Y-134381150D03*
X177862500Y-134381150D03*
X177862500Y-139308750D03*
X179132500Y-139308750D03*
X180402500Y-139308750D03*
X181672500Y-139308750D03*
%TD*%
D13*
%TO.C,C50*%
X148070000Y-162240000D03*
X149970000Y-162240000D03*
%TD*%
D23*
%TO.C,U6*%
X151800200Y-167107000D03*
X151165200Y-167107000D03*
X150504800Y-167107000D03*
X149869800Y-167107000D03*
D22*
X149057000Y-167919800D03*
X149057000Y-168554800D03*
X149057000Y-169215200D03*
X149057000Y-169850200D03*
D23*
X149869800Y-170663000D03*
X150504800Y-170663000D03*
X151165200Y-170663000D03*
X151800200Y-170663000D03*
D22*
X152613000Y-169850200D03*
X152613000Y-169215200D03*
X152613000Y-168554800D03*
X152613000Y-167919800D03*
%TD*%
D14*
%TO.C,C3*%
X104480000Y-151360000D03*
X102580000Y-151360000D03*
%TD*%
D17*
%TO.C,R29*%
X144900000Y-165077500D03*
X144900000Y-166902500D03*
%TD*%
M02*
