%TF.GenerationSoftware,KiCad,Pcbnew,8.0.9*%
%TF.CreationDate,2025-04-11T10:25:09+02:00*%
%TF.ProjectId,Ultrasound shield_8mic,556c7472-6173-46f7-956e-642073686965,rev?*%
%TF.SameCoordinates,Original*%
%TF.FileFunction,Soldermask,Bot*%
%TF.FilePolarity,Negative*%
%FSLAX46Y46*%
G04 Gerber Fmt 4.6, Leading zero omitted, Abs format (unit mm)*
G04 Created by KiCad (PCBNEW 8.0.9) date 2025-04-11 10:25:09*
%MOMM*%
%LPD*%
G01*
G04 APERTURE LIST*
G04 Aperture macros list*
%AMRoundRect*
0 Rectangle with rounded corners*
0 $1 Rounding radius*
0 $2 $3 $4 $5 $6 $7 $8 $9 X,Y pos of 4 corners*
0 Add a 4 corners polygon primitive as box body*
4,1,4,$2,$3,$4,$5,$6,$7,$8,$9,$2,$3,0*
0 Add four circle primitives for the rounded corners*
1,1,$1+$1,$2,$3*
1,1,$1+$1,$4,$5*
1,1,$1+$1,$6,$7*
1,1,$1+$1,$8,$9*
0 Add four rect primitives between the rounded corners*
20,1,$1+$1,$2,$3,$4,$5,0*
20,1,$1+$1,$4,$5,$6,$7,0*
20,1,$1+$1,$6,$7,$8,$9,0*
20,1,$1+$1,$8,$9,$2,$3,0*%
G04 Aperture macros list end*
%ADD10C,0.010000*%
%ADD11R,1.700000X1.700000*%
%ADD12O,1.700000X1.700000*%
%ADD13C,1.700000*%
%ADD14R,1.800000X4.400000*%
%ADD15O,1.800000X4.000000*%
%ADD16O,4.000000X1.800000*%
%ADD17C,3.200000*%
%ADD18C,2.400000*%
%ADD19RoundRect,0.250000X-0.475000X0.250000X-0.475000X-0.250000X0.475000X-0.250000X0.475000X0.250000X0*%
%ADD20RoundRect,0.250000X0.450000X-0.262500X0.450000X0.262500X-0.450000X0.262500X-0.450000X-0.262500X0*%
%ADD21RoundRect,0.250000X-0.250000X-0.475000X0.250000X-0.475000X0.250000X0.475000X-0.250000X0.475000X0*%
%ADD22RoundRect,0.250000X-0.450000X0.262500X-0.450000X-0.262500X0.450000X-0.262500X0.450000X0.262500X0*%
%ADD23C,0.800000*%
%ADD24R,0.750000X0.450000*%
%ADD25R,0.450000X0.750000*%
%ADD26RoundRect,0.250000X0.475000X-0.250000X0.475000X0.250000X-0.475000X0.250000X-0.475000X-0.250000X0*%
%ADD27RoundRect,0.250000X-0.262500X-0.450000X0.262500X-0.450000X0.262500X0.450000X-0.262500X0.450000X0*%
%ADD28RoundRect,0.250000X0.262500X0.450000X-0.262500X0.450000X-0.262500X-0.450000X0.262500X-0.450000X0*%
%ADD29RoundRect,0.250000X0.250000X0.475000X-0.250000X0.475000X-0.250000X-0.475000X0.250000X-0.475000X0*%
%ADD30RoundRect,0.102000X-0.177800X0.533400X-0.177800X-0.533400X0.177800X-0.533400X0.177800X0.533400X0*%
%ADD31RoundRect,0.102000X-0.533400X0.177800X-0.533400X-0.177800X0.533400X-0.177800X0.533400X0.177800X0*%
%ADD32RoundRect,0.102000X0.533400X0.177800X-0.533400X0.177800X-0.533400X-0.177800X0.533400X-0.177800X0*%
%ADD33RoundRect,0.102000X0.177800X0.533400X-0.177800X0.533400X-0.177800X-0.533400X0.177800X-0.533400X0*%
%ADD34RoundRect,0.200000X-0.900000X-0.200000X0.900000X-0.200000X0.900000X0.200000X-0.900000X0.200000X0*%
%ADD35RoundRect,0.249997X-2.950003X-2.650003X2.950003X-2.650003X2.950003X2.650003X-2.950003X2.650003X0*%
%ADD36RoundRect,0.150000X0.512500X0.150000X-0.512500X0.150000X-0.512500X-0.150000X0.512500X-0.150000X0*%
%ADD37RoundRect,0.102000X0.177800X-0.533400X0.177800X0.533400X-0.177800X0.533400X-0.177800X-0.533400X0*%
%ADD38RoundRect,0.102000X0.533400X-0.177800X0.533400X0.177800X-0.533400X0.177800X-0.533400X-0.177800X0*%
%ADD39R,1.500000X2.000000*%
%ADD40R,3.800000X2.000000*%
%ADD41RoundRect,0.102000X-0.533400X-0.177800X0.533400X-0.177800X0.533400X0.177800X-0.533400X0.177800X0*%
%ADD42RoundRect,0.102000X-0.177800X-0.533400X0.177800X-0.533400X0.177800X0.533400X-0.177800X0.533400X0*%
G04 APERTURE END LIST*
D10*
%TO.C,MK5*%
X239062000Y-242846000D02*
X239119000Y-242851000D01*
X239176000Y-242858000D01*
X239232000Y-242869000D01*
X239287000Y-242882000D01*
X239342000Y-242898000D01*
X239396000Y-242917000D01*
X239448000Y-242939000D01*
X239500000Y-242964000D01*
X239550000Y-242991000D01*
X239599000Y-243021000D01*
X239646000Y-243053000D01*
X239691000Y-243088000D01*
X239734000Y-243125000D01*
X239776000Y-243164000D01*
X239815000Y-243206000D01*
X239852000Y-243249000D01*
X239887000Y-243294000D01*
X239919000Y-243341000D01*
X239949000Y-243390000D01*
X239976000Y-243440000D01*
X240001000Y-243492000D01*
X240023000Y-243544000D01*
X240042000Y-243598000D01*
X240058000Y-243653000D01*
X240071000Y-243708000D01*
X240082000Y-243764000D01*
X240089000Y-243821000D01*
X240094000Y-243878000D01*
X240095000Y-243935000D01*
X240094000Y-243992000D01*
X240089000Y-244049000D01*
X240082000Y-244106000D01*
X240071000Y-244162000D01*
X240058000Y-244217000D01*
X240042000Y-244272000D01*
X240023000Y-244326000D01*
X240001000Y-244378000D01*
X239976000Y-244430000D01*
X239949000Y-244480000D01*
X239919000Y-244529000D01*
X239887000Y-244576000D01*
X239852000Y-244621000D01*
X239815000Y-244664000D01*
X239776000Y-244706000D01*
X239734000Y-244745000D01*
X239691000Y-244782000D01*
X239646000Y-244817000D01*
X239599000Y-244849000D01*
X239550000Y-244879000D01*
X239500000Y-244906000D01*
X239448000Y-244931000D01*
X239396000Y-244953000D01*
X239342000Y-244972000D01*
X239287000Y-244988000D01*
X239232000Y-245001000D01*
X239176000Y-245012000D01*
X239119000Y-245019000D01*
X239062000Y-245024000D01*
X239005000Y-245025000D01*
X239005000Y-244465000D01*
X239033000Y-244464000D01*
X239060000Y-244462000D01*
X239088000Y-244458000D01*
X239115000Y-244453000D01*
X239142000Y-244447000D01*
X239169000Y-244439000D01*
X239195000Y-244430000D01*
X239221000Y-244419000D01*
X239246000Y-244407000D01*
X239270000Y-244394000D01*
X239294000Y-244379000D01*
X239317000Y-244364000D01*
X239339000Y-244347000D01*
X239360000Y-244329000D01*
X239380000Y-244310000D01*
X239399000Y-244290000D01*
X239417000Y-244269000D01*
X239434000Y-244247000D01*
X239449000Y-244224000D01*
X239464000Y-244200000D01*
X239477000Y-244176000D01*
X239489000Y-244151000D01*
X239500000Y-244125000D01*
X239509000Y-244099000D01*
X239517000Y-244072000D01*
X239523000Y-244045000D01*
X239528000Y-244018000D01*
X239532000Y-243990000D01*
X239534000Y-243963000D01*
X239535000Y-243935000D01*
X239534000Y-243907000D01*
X239532000Y-243880000D01*
X239528000Y-243852000D01*
X239523000Y-243825000D01*
X239517000Y-243798000D01*
X239509000Y-243771000D01*
X239500000Y-243745000D01*
X239489000Y-243719000D01*
X239477000Y-243694000D01*
X239464000Y-243670000D01*
X239449000Y-243646000D01*
X239434000Y-243623000D01*
X239417000Y-243601000D01*
X239399000Y-243580000D01*
X239380000Y-243560000D01*
X239360000Y-243541000D01*
X239339000Y-243523000D01*
X239317000Y-243506000D01*
X239294000Y-243491000D01*
X239270000Y-243476000D01*
X239246000Y-243463000D01*
X239221000Y-243451000D01*
X239195000Y-243440000D01*
X239169000Y-243431000D01*
X239142000Y-243423000D01*
X239115000Y-243417000D01*
X239088000Y-243412000D01*
X239060000Y-243408000D01*
X239033000Y-243406000D01*
X239005000Y-243405000D01*
X239005000Y-242845000D01*
X239062000Y-242846000D01*
G36*
X239062000Y-242846000D02*
G01*
X239119000Y-242851000D01*
X239176000Y-242858000D01*
X239232000Y-242869000D01*
X239287000Y-242882000D01*
X239342000Y-242898000D01*
X239396000Y-242917000D01*
X239448000Y-242939000D01*
X239500000Y-242964000D01*
X239550000Y-242991000D01*
X239599000Y-243021000D01*
X239646000Y-243053000D01*
X239691000Y-243088000D01*
X239734000Y-243125000D01*
X239776000Y-243164000D01*
X239815000Y-243206000D01*
X239852000Y-243249000D01*
X239887000Y-243294000D01*
X239919000Y-243341000D01*
X239949000Y-243390000D01*
X239976000Y-243440000D01*
X240001000Y-243492000D01*
X240023000Y-243544000D01*
X240042000Y-243598000D01*
X240058000Y-243653000D01*
X240071000Y-243708000D01*
X240082000Y-243764000D01*
X240089000Y-243821000D01*
X240094000Y-243878000D01*
X240095000Y-243935000D01*
X240094000Y-243992000D01*
X240089000Y-244049000D01*
X240082000Y-244106000D01*
X240071000Y-244162000D01*
X240058000Y-244217000D01*
X240042000Y-244272000D01*
X240023000Y-244326000D01*
X240001000Y-244378000D01*
X239976000Y-244430000D01*
X239949000Y-244480000D01*
X239919000Y-244529000D01*
X239887000Y-244576000D01*
X239852000Y-244621000D01*
X239815000Y-244664000D01*
X239776000Y-244706000D01*
X239734000Y-244745000D01*
X239691000Y-244782000D01*
X239646000Y-244817000D01*
X239599000Y-244849000D01*
X239550000Y-244879000D01*
X239500000Y-244906000D01*
X239448000Y-244931000D01*
X239396000Y-244953000D01*
X239342000Y-244972000D01*
X239287000Y-244988000D01*
X239232000Y-245001000D01*
X239176000Y-245012000D01*
X239119000Y-245019000D01*
X239062000Y-245024000D01*
X239005000Y-245025000D01*
X239005000Y-244465000D01*
X239033000Y-244464000D01*
X239060000Y-244462000D01*
X239088000Y-244458000D01*
X239115000Y-244453000D01*
X239142000Y-244447000D01*
X239169000Y-244439000D01*
X239195000Y-244430000D01*
X239221000Y-244419000D01*
X239246000Y-244407000D01*
X239270000Y-244394000D01*
X239294000Y-244379000D01*
X239317000Y-244364000D01*
X239339000Y-244347000D01*
X239360000Y-244329000D01*
X239380000Y-244310000D01*
X239399000Y-244290000D01*
X239417000Y-244269000D01*
X239434000Y-244247000D01*
X239449000Y-244224000D01*
X239464000Y-244200000D01*
X239477000Y-244176000D01*
X239489000Y-244151000D01*
X239500000Y-244125000D01*
X239509000Y-244099000D01*
X239517000Y-244072000D01*
X239523000Y-244045000D01*
X239528000Y-244018000D01*
X239532000Y-243990000D01*
X239534000Y-243963000D01*
X239535000Y-243935000D01*
X239534000Y-243907000D01*
X239532000Y-243880000D01*
X239528000Y-243852000D01*
X239523000Y-243825000D01*
X239517000Y-243798000D01*
X239509000Y-243771000D01*
X239500000Y-243745000D01*
X239489000Y-243719000D01*
X239477000Y-243694000D01*
X239464000Y-243670000D01*
X239449000Y-243646000D01*
X239434000Y-243623000D01*
X239417000Y-243601000D01*
X239399000Y-243580000D01*
X239380000Y-243560000D01*
X239360000Y-243541000D01*
X239339000Y-243523000D01*
X239317000Y-243506000D01*
X239294000Y-243491000D01*
X239270000Y-243476000D01*
X239246000Y-243463000D01*
X239221000Y-243451000D01*
X239195000Y-243440000D01*
X239169000Y-243431000D01*
X239142000Y-243423000D01*
X239115000Y-243417000D01*
X239088000Y-243412000D01*
X239060000Y-243408000D01*
X239033000Y-243406000D01*
X239005000Y-243405000D01*
X239005000Y-242845000D01*
X239062000Y-242846000D01*
G37*
X239005000Y-243405000D02*
X238977000Y-243406000D01*
X238950000Y-243408000D01*
X238922000Y-243412000D01*
X238895000Y-243417000D01*
X238868000Y-243423000D01*
X238841000Y-243431000D01*
X238815000Y-243440000D01*
X238789000Y-243451000D01*
X238764000Y-243463000D01*
X238740000Y-243476000D01*
X238716000Y-243491000D01*
X238693000Y-243506000D01*
X238671000Y-243523000D01*
X238650000Y-243541000D01*
X238630000Y-243560000D01*
X238611000Y-243580000D01*
X238593000Y-243601000D01*
X238576000Y-243623000D01*
X238561000Y-243646000D01*
X238546000Y-243670000D01*
X238533000Y-243694000D01*
X238521000Y-243719000D01*
X238510000Y-243745000D01*
X238501000Y-243771000D01*
X238493000Y-243798000D01*
X238487000Y-243825000D01*
X238482000Y-243852000D01*
X238478000Y-243880000D01*
X238476000Y-243907000D01*
X238475000Y-243935000D01*
X238476000Y-243963000D01*
X238478000Y-243990000D01*
X238482000Y-244018000D01*
X238487000Y-244045000D01*
X238493000Y-244072000D01*
X238501000Y-244099000D01*
X238510000Y-244125000D01*
X238521000Y-244151000D01*
X238533000Y-244176000D01*
X238546000Y-244200000D01*
X238561000Y-244224000D01*
X238576000Y-244247000D01*
X238593000Y-244269000D01*
X238611000Y-244290000D01*
X238630000Y-244310000D01*
X238650000Y-244329000D01*
X238671000Y-244347000D01*
X238693000Y-244364000D01*
X238716000Y-244379000D01*
X238740000Y-244394000D01*
X238764000Y-244407000D01*
X238789000Y-244419000D01*
X238815000Y-244430000D01*
X238841000Y-244439000D01*
X238868000Y-244447000D01*
X238895000Y-244453000D01*
X238922000Y-244458000D01*
X238950000Y-244462000D01*
X238977000Y-244464000D01*
X239005000Y-244465000D01*
X239005000Y-245025000D01*
X238948000Y-245024000D01*
X238891000Y-245019000D01*
X238834000Y-245012000D01*
X238778000Y-245001000D01*
X238723000Y-244988000D01*
X238668000Y-244972000D01*
X238614000Y-244953000D01*
X238562000Y-244931000D01*
X238510000Y-244906000D01*
X238460000Y-244879000D01*
X238411000Y-244849000D01*
X238364000Y-244817000D01*
X238319000Y-244782000D01*
X238276000Y-244745000D01*
X238234000Y-244706000D01*
X238195000Y-244664000D01*
X238158000Y-244621000D01*
X238123000Y-244576000D01*
X238091000Y-244529000D01*
X238061000Y-244480000D01*
X238034000Y-244430000D01*
X238009000Y-244378000D01*
X237987000Y-244326000D01*
X237968000Y-244272000D01*
X237952000Y-244217000D01*
X237939000Y-244162000D01*
X237928000Y-244106000D01*
X237921000Y-244049000D01*
X237916000Y-243992000D01*
X237915000Y-243935000D01*
X237916000Y-243878000D01*
X237921000Y-243821000D01*
X237928000Y-243764000D01*
X237939000Y-243708000D01*
X237952000Y-243653000D01*
X237968000Y-243598000D01*
X237987000Y-243544000D01*
X238009000Y-243492000D01*
X238034000Y-243440000D01*
X238061000Y-243390000D01*
X238091000Y-243341000D01*
X238123000Y-243294000D01*
X238158000Y-243249000D01*
X238195000Y-243206000D01*
X238234000Y-243164000D01*
X238276000Y-243125000D01*
X238319000Y-243088000D01*
X238364000Y-243053000D01*
X238411000Y-243021000D01*
X238460000Y-242991000D01*
X238510000Y-242964000D01*
X238562000Y-242939000D01*
X238614000Y-242917000D01*
X238668000Y-242898000D01*
X238723000Y-242882000D01*
X238778000Y-242869000D01*
X238834000Y-242858000D01*
X238891000Y-242851000D01*
X238948000Y-242846000D01*
X239005000Y-242845000D01*
X239005000Y-243405000D01*
G36*
X239005000Y-243405000D02*
G01*
X238977000Y-243406000D01*
X238950000Y-243408000D01*
X238922000Y-243412000D01*
X238895000Y-243417000D01*
X238868000Y-243423000D01*
X238841000Y-243431000D01*
X238815000Y-243440000D01*
X238789000Y-243451000D01*
X238764000Y-243463000D01*
X238740000Y-243476000D01*
X238716000Y-243491000D01*
X238693000Y-243506000D01*
X238671000Y-243523000D01*
X238650000Y-243541000D01*
X238630000Y-243560000D01*
X238611000Y-243580000D01*
X238593000Y-243601000D01*
X238576000Y-243623000D01*
X238561000Y-243646000D01*
X238546000Y-243670000D01*
X238533000Y-243694000D01*
X238521000Y-243719000D01*
X238510000Y-243745000D01*
X238501000Y-243771000D01*
X238493000Y-243798000D01*
X238487000Y-243825000D01*
X238482000Y-243852000D01*
X238478000Y-243880000D01*
X238476000Y-243907000D01*
X238475000Y-243935000D01*
X238476000Y-243963000D01*
X238478000Y-243990000D01*
X238482000Y-244018000D01*
X238487000Y-244045000D01*
X238493000Y-244072000D01*
X238501000Y-244099000D01*
X238510000Y-244125000D01*
X238521000Y-244151000D01*
X238533000Y-244176000D01*
X238546000Y-244200000D01*
X238561000Y-244224000D01*
X238576000Y-244247000D01*
X238593000Y-244269000D01*
X238611000Y-244290000D01*
X238630000Y-244310000D01*
X238650000Y-244329000D01*
X238671000Y-244347000D01*
X238693000Y-244364000D01*
X238716000Y-244379000D01*
X238740000Y-244394000D01*
X238764000Y-244407000D01*
X238789000Y-244419000D01*
X238815000Y-244430000D01*
X238841000Y-244439000D01*
X238868000Y-244447000D01*
X238895000Y-244453000D01*
X238922000Y-244458000D01*
X238950000Y-244462000D01*
X238977000Y-244464000D01*
X239005000Y-244465000D01*
X239005000Y-245025000D01*
X238948000Y-245024000D01*
X238891000Y-245019000D01*
X238834000Y-245012000D01*
X238778000Y-245001000D01*
X238723000Y-244988000D01*
X238668000Y-244972000D01*
X238614000Y-244953000D01*
X238562000Y-244931000D01*
X238510000Y-244906000D01*
X238460000Y-244879000D01*
X238411000Y-244849000D01*
X238364000Y-244817000D01*
X238319000Y-244782000D01*
X238276000Y-244745000D01*
X238234000Y-244706000D01*
X238195000Y-244664000D01*
X238158000Y-244621000D01*
X238123000Y-244576000D01*
X238091000Y-244529000D01*
X238061000Y-244480000D01*
X238034000Y-244430000D01*
X238009000Y-244378000D01*
X237987000Y-244326000D01*
X237968000Y-244272000D01*
X237952000Y-244217000D01*
X237939000Y-244162000D01*
X237928000Y-244106000D01*
X237921000Y-244049000D01*
X237916000Y-243992000D01*
X237915000Y-243935000D01*
X237916000Y-243878000D01*
X237921000Y-243821000D01*
X237928000Y-243764000D01*
X237939000Y-243708000D01*
X237952000Y-243653000D01*
X237968000Y-243598000D01*
X237987000Y-243544000D01*
X238009000Y-243492000D01*
X238034000Y-243440000D01*
X238061000Y-243390000D01*
X238091000Y-243341000D01*
X238123000Y-243294000D01*
X238158000Y-243249000D01*
X238195000Y-243206000D01*
X238234000Y-243164000D01*
X238276000Y-243125000D01*
X238319000Y-243088000D01*
X238364000Y-243053000D01*
X238411000Y-243021000D01*
X238460000Y-242991000D01*
X238510000Y-242964000D01*
X238562000Y-242939000D01*
X238614000Y-242917000D01*
X238668000Y-242898000D01*
X238723000Y-242882000D01*
X238778000Y-242869000D01*
X238834000Y-242858000D01*
X238891000Y-242851000D01*
X238948000Y-242846000D01*
X239005000Y-242845000D01*
X239005000Y-243405000D01*
G37*
%TO.C,MK6*%
X239037000Y-151361000D02*
X239094000Y-151366000D01*
X239151000Y-151373000D01*
X239207000Y-151384000D01*
X239262000Y-151397000D01*
X239317000Y-151413000D01*
X239371000Y-151432000D01*
X239423000Y-151454000D01*
X239475000Y-151479000D01*
X239525000Y-151506000D01*
X239574000Y-151536000D01*
X239621000Y-151568000D01*
X239666000Y-151603000D01*
X239709000Y-151640000D01*
X239751000Y-151679000D01*
X239790000Y-151721000D01*
X239827000Y-151764000D01*
X239862000Y-151809000D01*
X239894000Y-151856000D01*
X239924000Y-151905000D01*
X239951000Y-151955000D01*
X239976000Y-152007000D01*
X239998000Y-152059000D01*
X240017000Y-152113000D01*
X240033000Y-152168000D01*
X240046000Y-152223000D01*
X240057000Y-152279000D01*
X240064000Y-152336000D01*
X240069000Y-152393000D01*
X240070000Y-152450000D01*
X239510000Y-152450000D01*
X239509000Y-152422000D01*
X239507000Y-152395000D01*
X239503000Y-152367000D01*
X239498000Y-152340000D01*
X239492000Y-152313000D01*
X239484000Y-152286000D01*
X239475000Y-152260000D01*
X239464000Y-152234000D01*
X239452000Y-152209000D01*
X239439000Y-152185000D01*
X239424000Y-152161000D01*
X239409000Y-152138000D01*
X239392000Y-152116000D01*
X239374000Y-152095000D01*
X239355000Y-152075000D01*
X239335000Y-152056000D01*
X239314000Y-152038000D01*
X239292000Y-152021000D01*
X239269000Y-152006000D01*
X239245000Y-151991000D01*
X239221000Y-151978000D01*
X239196000Y-151966000D01*
X239170000Y-151955000D01*
X239144000Y-151946000D01*
X239117000Y-151938000D01*
X239090000Y-151932000D01*
X239063000Y-151927000D01*
X239035000Y-151923000D01*
X239008000Y-151921000D01*
X238980000Y-151920000D01*
X238952000Y-151921000D01*
X238925000Y-151923000D01*
X238897000Y-151927000D01*
X238870000Y-151932000D01*
X238843000Y-151938000D01*
X238816000Y-151946000D01*
X238790000Y-151955000D01*
X238764000Y-151966000D01*
X238739000Y-151978000D01*
X238715000Y-151991000D01*
X238691000Y-152006000D01*
X238668000Y-152021000D01*
X238646000Y-152038000D01*
X238625000Y-152056000D01*
X238605000Y-152075000D01*
X238586000Y-152095000D01*
X238568000Y-152116000D01*
X238551000Y-152138000D01*
X238536000Y-152161000D01*
X238521000Y-152185000D01*
X238508000Y-152209000D01*
X238496000Y-152234000D01*
X238485000Y-152260000D01*
X238476000Y-152286000D01*
X238468000Y-152313000D01*
X238462000Y-152340000D01*
X238457000Y-152367000D01*
X238453000Y-152395000D01*
X238451000Y-152422000D01*
X238450000Y-152450000D01*
X237890000Y-152450000D01*
X237891000Y-152393000D01*
X237896000Y-152336000D01*
X237903000Y-152279000D01*
X237914000Y-152223000D01*
X237927000Y-152168000D01*
X237943000Y-152113000D01*
X237962000Y-152059000D01*
X237984000Y-152007000D01*
X238009000Y-151955000D01*
X238036000Y-151905000D01*
X238066000Y-151856000D01*
X238098000Y-151809000D01*
X238133000Y-151764000D01*
X238170000Y-151721000D01*
X238209000Y-151679000D01*
X238251000Y-151640000D01*
X238294000Y-151603000D01*
X238339000Y-151568000D01*
X238386000Y-151536000D01*
X238435000Y-151506000D01*
X238485000Y-151479000D01*
X238537000Y-151454000D01*
X238589000Y-151432000D01*
X238643000Y-151413000D01*
X238698000Y-151397000D01*
X238753000Y-151384000D01*
X238809000Y-151373000D01*
X238866000Y-151366000D01*
X238923000Y-151361000D01*
X238980000Y-151360000D01*
X239037000Y-151361000D01*
G36*
X239037000Y-151361000D02*
G01*
X239094000Y-151366000D01*
X239151000Y-151373000D01*
X239207000Y-151384000D01*
X239262000Y-151397000D01*
X239317000Y-151413000D01*
X239371000Y-151432000D01*
X239423000Y-151454000D01*
X239475000Y-151479000D01*
X239525000Y-151506000D01*
X239574000Y-151536000D01*
X239621000Y-151568000D01*
X239666000Y-151603000D01*
X239709000Y-151640000D01*
X239751000Y-151679000D01*
X239790000Y-151721000D01*
X239827000Y-151764000D01*
X239862000Y-151809000D01*
X239894000Y-151856000D01*
X239924000Y-151905000D01*
X239951000Y-151955000D01*
X239976000Y-152007000D01*
X239998000Y-152059000D01*
X240017000Y-152113000D01*
X240033000Y-152168000D01*
X240046000Y-152223000D01*
X240057000Y-152279000D01*
X240064000Y-152336000D01*
X240069000Y-152393000D01*
X240070000Y-152450000D01*
X239510000Y-152450000D01*
X239509000Y-152422000D01*
X239507000Y-152395000D01*
X239503000Y-152367000D01*
X239498000Y-152340000D01*
X239492000Y-152313000D01*
X239484000Y-152286000D01*
X239475000Y-152260000D01*
X239464000Y-152234000D01*
X239452000Y-152209000D01*
X239439000Y-152185000D01*
X239424000Y-152161000D01*
X239409000Y-152138000D01*
X239392000Y-152116000D01*
X239374000Y-152095000D01*
X239355000Y-152075000D01*
X239335000Y-152056000D01*
X239314000Y-152038000D01*
X239292000Y-152021000D01*
X239269000Y-152006000D01*
X239245000Y-151991000D01*
X239221000Y-151978000D01*
X239196000Y-151966000D01*
X239170000Y-151955000D01*
X239144000Y-151946000D01*
X239117000Y-151938000D01*
X239090000Y-151932000D01*
X239063000Y-151927000D01*
X239035000Y-151923000D01*
X239008000Y-151921000D01*
X238980000Y-151920000D01*
X238952000Y-151921000D01*
X238925000Y-151923000D01*
X238897000Y-151927000D01*
X238870000Y-151932000D01*
X238843000Y-151938000D01*
X238816000Y-151946000D01*
X238790000Y-151955000D01*
X238764000Y-151966000D01*
X238739000Y-151978000D01*
X238715000Y-151991000D01*
X238691000Y-152006000D01*
X238668000Y-152021000D01*
X238646000Y-152038000D01*
X238625000Y-152056000D01*
X238605000Y-152075000D01*
X238586000Y-152095000D01*
X238568000Y-152116000D01*
X238551000Y-152138000D01*
X238536000Y-152161000D01*
X238521000Y-152185000D01*
X238508000Y-152209000D01*
X238496000Y-152234000D01*
X238485000Y-152260000D01*
X238476000Y-152286000D01*
X238468000Y-152313000D01*
X238462000Y-152340000D01*
X238457000Y-152367000D01*
X238453000Y-152395000D01*
X238451000Y-152422000D01*
X238450000Y-152450000D01*
X237890000Y-152450000D01*
X237891000Y-152393000D01*
X237896000Y-152336000D01*
X237903000Y-152279000D01*
X237914000Y-152223000D01*
X237927000Y-152168000D01*
X237943000Y-152113000D01*
X237962000Y-152059000D01*
X237984000Y-152007000D01*
X238009000Y-151955000D01*
X238036000Y-151905000D01*
X238066000Y-151856000D01*
X238098000Y-151809000D01*
X238133000Y-151764000D01*
X238170000Y-151721000D01*
X238209000Y-151679000D01*
X238251000Y-151640000D01*
X238294000Y-151603000D01*
X238339000Y-151568000D01*
X238386000Y-151536000D01*
X238435000Y-151506000D01*
X238485000Y-151479000D01*
X238537000Y-151454000D01*
X238589000Y-151432000D01*
X238643000Y-151413000D01*
X238698000Y-151397000D01*
X238753000Y-151384000D01*
X238809000Y-151373000D01*
X238866000Y-151366000D01*
X238923000Y-151361000D01*
X238980000Y-151360000D01*
X239037000Y-151361000D01*
G37*
X238451000Y-152478000D02*
X238453000Y-152505000D01*
X238457000Y-152533000D01*
X238462000Y-152560000D01*
X238468000Y-152587000D01*
X238476000Y-152614000D01*
X238485000Y-152640000D01*
X238496000Y-152666000D01*
X238508000Y-152691000D01*
X238521000Y-152715000D01*
X238536000Y-152739000D01*
X238551000Y-152762000D01*
X238568000Y-152784000D01*
X238586000Y-152805000D01*
X238605000Y-152825000D01*
X238625000Y-152844000D01*
X238646000Y-152862000D01*
X238668000Y-152879000D01*
X238691000Y-152894000D01*
X238715000Y-152909000D01*
X238739000Y-152922000D01*
X238764000Y-152934000D01*
X238790000Y-152945000D01*
X238816000Y-152954000D01*
X238843000Y-152962000D01*
X238870000Y-152968000D01*
X238897000Y-152973000D01*
X238925000Y-152977000D01*
X238952000Y-152979000D01*
X238980000Y-152980000D01*
X239008000Y-152979000D01*
X239035000Y-152977000D01*
X239063000Y-152973000D01*
X239090000Y-152968000D01*
X239117000Y-152962000D01*
X239144000Y-152954000D01*
X239170000Y-152945000D01*
X239196000Y-152934000D01*
X239221000Y-152922000D01*
X239245000Y-152909000D01*
X239269000Y-152894000D01*
X239292000Y-152879000D01*
X239314000Y-152862000D01*
X239335000Y-152844000D01*
X239355000Y-152825000D01*
X239374000Y-152805000D01*
X239392000Y-152784000D01*
X239409000Y-152762000D01*
X239424000Y-152739000D01*
X239439000Y-152715000D01*
X239452000Y-152691000D01*
X239464000Y-152666000D01*
X239475000Y-152640000D01*
X239484000Y-152614000D01*
X239492000Y-152587000D01*
X239498000Y-152560000D01*
X239503000Y-152533000D01*
X239507000Y-152505000D01*
X239509000Y-152478000D01*
X239510000Y-152450000D01*
X240070000Y-152450000D01*
X240069000Y-152507000D01*
X240064000Y-152564000D01*
X240057000Y-152621000D01*
X240046000Y-152677000D01*
X240033000Y-152732000D01*
X240017000Y-152787000D01*
X239998000Y-152841000D01*
X239976000Y-152893000D01*
X239951000Y-152945000D01*
X239924000Y-152995000D01*
X239894000Y-153044000D01*
X239862000Y-153091000D01*
X239827000Y-153136000D01*
X239790000Y-153179000D01*
X239751000Y-153221000D01*
X239709000Y-153260000D01*
X239666000Y-153297000D01*
X239621000Y-153332000D01*
X239574000Y-153364000D01*
X239525000Y-153394000D01*
X239475000Y-153421000D01*
X239423000Y-153446000D01*
X239371000Y-153468000D01*
X239317000Y-153487000D01*
X239262000Y-153503000D01*
X239207000Y-153516000D01*
X239151000Y-153527000D01*
X239094000Y-153534000D01*
X239037000Y-153539000D01*
X238980000Y-153540000D01*
X238923000Y-153539000D01*
X238866000Y-153534000D01*
X238809000Y-153527000D01*
X238753000Y-153516000D01*
X238698000Y-153503000D01*
X238643000Y-153487000D01*
X238589000Y-153468000D01*
X238537000Y-153446000D01*
X238485000Y-153421000D01*
X238435000Y-153394000D01*
X238386000Y-153364000D01*
X238339000Y-153332000D01*
X238294000Y-153297000D01*
X238251000Y-153260000D01*
X238209000Y-153221000D01*
X238170000Y-153179000D01*
X238133000Y-153136000D01*
X238098000Y-153091000D01*
X238066000Y-153044000D01*
X238036000Y-152995000D01*
X238009000Y-152945000D01*
X237984000Y-152893000D01*
X237962000Y-152841000D01*
X237943000Y-152787000D01*
X237927000Y-152732000D01*
X237914000Y-152677000D01*
X237903000Y-152621000D01*
X237896000Y-152564000D01*
X237891000Y-152507000D01*
X237890000Y-152450000D01*
X238450000Y-152450000D01*
X238451000Y-152478000D01*
G36*
X238451000Y-152478000D02*
G01*
X238453000Y-152505000D01*
X238457000Y-152533000D01*
X238462000Y-152560000D01*
X238468000Y-152587000D01*
X238476000Y-152614000D01*
X238485000Y-152640000D01*
X238496000Y-152666000D01*
X238508000Y-152691000D01*
X238521000Y-152715000D01*
X238536000Y-152739000D01*
X238551000Y-152762000D01*
X238568000Y-152784000D01*
X238586000Y-152805000D01*
X238605000Y-152825000D01*
X238625000Y-152844000D01*
X238646000Y-152862000D01*
X238668000Y-152879000D01*
X238691000Y-152894000D01*
X238715000Y-152909000D01*
X238739000Y-152922000D01*
X238764000Y-152934000D01*
X238790000Y-152945000D01*
X238816000Y-152954000D01*
X238843000Y-152962000D01*
X238870000Y-152968000D01*
X238897000Y-152973000D01*
X238925000Y-152977000D01*
X238952000Y-152979000D01*
X238980000Y-152980000D01*
X239008000Y-152979000D01*
X239035000Y-152977000D01*
X239063000Y-152973000D01*
X239090000Y-152968000D01*
X239117000Y-152962000D01*
X239144000Y-152954000D01*
X239170000Y-152945000D01*
X239196000Y-152934000D01*
X239221000Y-152922000D01*
X239245000Y-152909000D01*
X239269000Y-152894000D01*
X239292000Y-152879000D01*
X239314000Y-152862000D01*
X239335000Y-152844000D01*
X239355000Y-152825000D01*
X239374000Y-152805000D01*
X239392000Y-152784000D01*
X239409000Y-152762000D01*
X239424000Y-152739000D01*
X239439000Y-152715000D01*
X239452000Y-152691000D01*
X239464000Y-152666000D01*
X239475000Y-152640000D01*
X239484000Y-152614000D01*
X239492000Y-152587000D01*
X239498000Y-152560000D01*
X239503000Y-152533000D01*
X239507000Y-152505000D01*
X239509000Y-152478000D01*
X239510000Y-152450000D01*
X240070000Y-152450000D01*
X240069000Y-152507000D01*
X240064000Y-152564000D01*
X240057000Y-152621000D01*
X240046000Y-152677000D01*
X240033000Y-152732000D01*
X240017000Y-152787000D01*
X239998000Y-152841000D01*
X239976000Y-152893000D01*
X239951000Y-152945000D01*
X239924000Y-152995000D01*
X239894000Y-153044000D01*
X239862000Y-153091000D01*
X239827000Y-153136000D01*
X239790000Y-153179000D01*
X239751000Y-153221000D01*
X239709000Y-153260000D01*
X239666000Y-153297000D01*
X239621000Y-153332000D01*
X239574000Y-153364000D01*
X239525000Y-153394000D01*
X239475000Y-153421000D01*
X239423000Y-153446000D01*
X239371000Y-153468000D01*
X239317000Y-153487000D01*
X239262000Y-153503000D01*
X239207000Y-153516000D01*
X239151000Y-153527000D01*
X239094000Y-153534000D01*
X239037000Y-153539000D01*
X238980000Y-153540000D01*
X238923000Y-153539000D01*
X238866000Y-153534000D01*
X238809000Y-153527000D01*
X238753000Y-153516000D01*
X238698000Y-153503000D01*
X238643000Y-153487000D01*
X238589000Y-153468000D01*
X238537000Y-153446000D01*
X238485000Y-153421000D01*
X238435000Y-153394000D01*
X238386000Y-153364000D01*
X238339000Y-153332000D01*
X238294000Y-153297000D01*
X238251000Y-153260000D01*
X238209000Y-153221000D01*
X238170000Y-153179000D01*
X238133000Y-153136000D01*
X238098000Y-153091000D01*
X238066000Y-153044000D01*
X238036000Y-152995000D01*
X238009000Y-152945000D01*
X237984000Y-152893000D01*
X237962000Y-152841000D01*
X237943000Y-152787000D01*
X237927000Y-152732000D01*
X237914000Y-152677000D01*
X237903000Y-152621000D01*
X237896000Y-152564000D01*
X237891000Y-152507000D01*
X237890000Y-152450000D01*
X238450000Y-152450000D01*
X238451000Y-152478000D01*
G37*
%TO.C,MK4*%
X148562000Y-242891000D02*
X148619000Y-242896000D01*
X148676000Y-242903000D01*
X148732000Y-242914000D01*
X148787000Y-242927000D01*
X148842000Y-242943000D01*
X148896000Y-242962000D01*
X148948000Y-242984000D01*
X149000000Y-243009000D01*
X149050000Y-243036000D01*
X149099000Y-243066000D01*
X149146000Y-243098000D01*
X149191000Y-243133000D01*
X149234000Y-243170000D01*
X149276000Y-243209000D01*
X149315000Y-243251000D01*
X149352000Y-243294000D01*
X149387000Y-243339000D01*
X149419000Y-243386000D01*
X149449000Y-243435000D01*
X149476000Y-243485000D01*
X149501000Y-243537000D01*
X149523000Y-243589000D01*
X149542000Y-243643000D01*
X149558000Y-243698000D01*
X149571000Y-243753000D01*
X149582000Y-243809000D01*
X149589000Y-243866000D01*
X149594000Y-243923000D01*
X149595000Y-243980000D01*
X149594000Y-244037000D01*
X149589000Y-244094000D01*
X149582000Y-244151000D01*
X149571000Y-244207000D01*
X149558000Y-244262000D01*
X149542000Y-244317000D01*
X149523000Y-244371000D01*
X149501000Y-244423000D01*
X149476000Y-244475000D01*
X149449000Y-244525000D01*
X149419000Y-244574000D01*
X149387000Y-244621000D01*
X149352000Y-244666000D01*
X149315000Y-244709000D01*
X149276000Y-244751000D01*
X149234000Y-244790000D01*
X149191000Y-244827000D01*
X149146000Y-244862000D01*
X149099000Y-244894000D01*
X149050000Y-244924000D01*
X149000000Y-244951000D01*
X148948000Y-244976000D01*
X148896000Y-244998000D01*
X148842000Y-245017000D01*
X148787000Y-245033000D01*
X148732000Y-245046000D01*
X148676000Y-245057000D01*
X148619000Y-245064000D01*
X148562000Y-245069000D01*
X148505000Y-245070000D01*
X148505000Y-244510000D01*
X148533000Y-244509000D01*
X148560000Y-244507000D01*
X148588000Y-244503000D01*
X148615000Y-244498000D01*
X148642000Y-244492000D01*
X148669000Y-244484000D01*
X148695000Y-244475000D01*
X148721000Y-244464000D01*
X148746000Y-244452000D01*
X148770000Y-244439000D01*
X148794000Y-244424000D01*
X148817000Y-244409000D01*
X148839000Y-244392000D01*
X148860000Y-244374000D01*
X148880000Y-244355000D01*
X148899000Y-244335000D01*
X148917000Y-244314000D01*
X148934000Y-244292000D01*
X148949000Y-244269000D01*
X148964000Y-244245000D01*
X148977000Y-244221000D01*
X148989000Y-244196000D01*
X149000000Y-244170000D01*
X149009000Y-244144000D01*
X149017000Y-244117000D01*
X149023000Y-244090000D01*
X149028000Y-244063000D01*
X149032000Y-244035000D01*
X149034000Y-244008000D01*
X149035000Y-243980000D01*
X149034000Y-243952000D01*
X149032000Y-243925000D01*
X149028000Y-243897000D01*
X149023000Y-243870000D01*
X149017000Y-243843000D01*
X149009000Y-243816000D01*
X149000000Y-243790000D01*
X148989000Y-243764000D01*
X148977000Y-243739000D01*
X148964000Y-243715000D01*
X148949000Y-243691000D01*
X148934000Y-243668000D01*
X148917000Y-243646000D01*
X148899000Y-243625000D01*
X148880000Y-243605000D01*
X148860000Y-243586000D01*
X148839000Y-243568000D01*
X148817000Y-243551000D01*
X148794000Y-243536000D01*
X148770000Y-243521000D01*
X148746000Y-243508000D01*
X148721000Y-243496000D01*
X148695000Y-243485000D01*
X148669000Y-243476000D01*
X148642000Y-243468000D01*
X148615000Y-243462000D01*
X148588000Y-243457000D01*
X148560000Y-243453000D01*
X148533000Y-243451000D01*
X148505000Y-243450000D01*
X148505000Y-242890000D01*
X148562000Y-242891000D01*
G36*
X148562000Y-242891000D02*
G01*
X148619000Y-242896000D01*
X148676000Y-242903000D01*
X148732000Y-242914000D01*
X148787000Y-242927000D01*
X148842000Y-242943000D01*
X148896000Y-242962000D01*
X148948000Y-242984000D01*
X149000000Y-243009000D01*
X149050000Y-243036000D01*
X149099000Y-243066000D01*
X149146000Y-243098000D01*
X149191000Y-243133000D01*
X149234000Y-243170000D01*
X149276000Y-243209000D01*
X149315000Y-243251000D01*
X149352000Y-243294000D01*
X149387000Y-243339000D01*
X149419000Y-243386000D01*
X149449000Y-243435000D01*
X149476000Y-243485000D01*
X149501000Y-243537000D01*
X149523000Y-243589000D01*
X149542000Y-243643000D01*
X149558000Y-243698000D01*
X149571000Y-243753000D01*
X149582000Y-243809000D01*
X149589000Y-243866000D01*
X149594000Y-243923000D01*
X149595000Y-243980000D01*
X149594000Y-244037000D01*
X149589000Y-244094000D01*
X149582000Y-244151000D01*
X149571000Y-244207000D01*
X149558000Y-244262000D01*
X149542000Y-244317000D01*
X149523000Y-244371000D01*
X149501000Y-244423000D01*
X149476000Y-244475000D01*
X149449000Y-244525000D01*
X149419000Y-244574000D01*
X149387000Y-244621000D01*
X149352000Y-244666000D01*
X149315000Y-244709000D01*
X149276000Y-244751000D01*
X149234000Y-244790000D01*
X149191000Y-244827000D01*
X149146000Y-244862000D01*
X149099000Y-244894000D01*
X149050000Y-244924000D01*
X149000000Y-244951000D01*
X148948000Y-244976000D01*
X148896000Y-244998000D01*
X148842000Y-245017000D01*
X148787000Y-245033000D01*
X148732000Y-245046000D01*
X148676000Y-245057000D01*
X148619000Y-245064000D01*
X148562000Y-245069000D01*
X148505000Y-245070000D01*
X148505000Y-244510000D01*
X148533000Y-244509000D01*
X148560000Y-244507000D01*
X148588000Y-244503000D01*
X148615000Y-244498000D01*
X148642000Y-244492000D01*
X148669000Y-244484000D01*
X148695000Y-244475000D01*
X148721000Y-244464000D01*
X148746000Y-244452000D01*
X148770000Y-244439000D01*
X148794000Y-244424000D01*
X148817000Y-244409000D01*
X148839000Y-244392000D01*
X148860000Y-244374000D01*
X148880000Y-244355000D01*
X148899000Y-244335000D01*
X148917000Y-244314000D01*
X148934000Y-244292000D01*
X148949000Y-244269000D01*
X148964000Y-244245000D01*
X148977000Y-244221000D01*
X148989000Y-244196000D01*
X149000000Y-244170000D01*
X149009000Y-244144000D01*
X149017000Y-244117000D01*
X149023000Y-244090000D01*
X149028000Y-244063000D01*
X149032000Y-244035000D01*
X149034000Y-244008000D01*
X149035000Y-243980000D01*
X149034000Y-243952000D01*
X149032000Y-243925000D01*
X149028000Y-243897000D01*
X149023000Y-243870000D01*
X149017000Y-243843000D01*
X149009000Y-243816000D01*
X149000000Y-243790000D01*
X148989000Y-243764000D01*
X148977000Y-243739000D01*
X148964000Y-243715000D01*
X148949000Y-243691000D01*
X148934000Y-243668000D01*
X148917000Y-243646000D01*
X148899000Y-243625000D01*
X148880000Y-243605000D01*
X148860000Y-243586000D01*
X148839000Y-243568000D01*
X148817000Y-243551000D01*
X148794000Y-243536000D01*
X148770000Y-243521000D01*
X148746000Y-243508000D01*
X148721000Y-243496000D01*
X148695000Y-243485000D01*
X148669000Y-243476000D01*
X148642000Y-243468000D01*
X148615000Y-243462000D01*
X148588000Y-243457000D01*
X148560000Y-243453000D01*
X148533000Y-243451000D01*
X148505000Y-243450000D01*
X148505000Y-242890000D01*
X148562000Y-242891000D01*
G37*
X148505000Y-243450000D02*
X148477000Y-243451000D01*
X148450000Y-243453000D01*
X148422000Y-243457000D01*
X148395000Y-243462000D01*
X148368000Y-243468000D01*
X148341000Y-243476000D01*
X148315000Y-243485000D01*
X148289000Y-243496000D01*
X148264000Y-243508000D01*
X148240000Y-243521000D01*
X148216000Y-243536000D01*
X148193000Y-243551000D01*
X148171000Y-243568000D01*
X148150000Y-243586000D01*
X148130000Y-243605000D01*
X148111000Y-243625000D01*
X148093000Y-243646000D01*
X148076000Y-243668000D01*
X148061000Y-243691000D01*
X148046000Y-243715000D01*
X148033000Y-243739000D01*
X148021000Y-243764000D01*
X148010000Y-243790000D01*
X148001000Y-243816000D01*
X147993000Y-243843000D01*
X147987000Y-243870000D01*
X147982000Y-243897000D01*
X147978000Y-243925000D01*
X147976000Y-243952000D01*
X147975000Y-243980000D01*
X147976000Y-244008000D01*
X147978000Y-244035000D01*
X147982000Y-244063000D01*
X147987000Y-244090000D01*
X147993000Y-244117000D01*
X148001000Y-244144000D01*
X148010000Y-244170000D01*
X148021000Y-244196000D01*
X148033000Y-244221000D01*
X148046000Y-244245000D01*
X148061000Y-244269000D01*
X148076000Y-244292000D01*
X148093000Y-244314000D01*
X148111000Y-244335000D01*
X148130000Y-244355000D01*
X148150000Y-244374000D01*
X148171000Y-244392000D01*
X148193000Y-244409000D01*
X148216000Y-244424000D01*
X148240000Y-244439000D01*
X148264000Y-244452000D01*
X148289000Y-244464000D01*
X148315000Y-244475000D01*
X148341000Y-244484000D01*
X148368000Y-244492000D01*
X148395000Y-244498000D01*
X148422000Y-244503000D01*
X148450000Y-244507000D01*
X148477000Y-244509000D01*
X148505000Y-244510000D01*
X148505000Y-245070000D01*
X148448000Y-245069000D01*
X148391000Y-245064000D01*
X148334000Y-245057000D01*
X148278000Y-245046000D01*
X148223000Y-245033000D01*
X148168000Y-245017000D01*
X148114000Y-244998000D01*
X148062000Y-244976000D01*
X148010000Y-244951000D01*
X147960000Y-244924000D01*
X147911000Y-244894000D01*
X147864000Y-244862000D01*
X147819000Y-244827000D01*
X147776000Y-244790000D01*
X147734000Y-244751000D01*
X147695000Y-244709000D01*
X147658000Y-244666000D01*
X147623000Y-244621000D01*
X147591000Y-244574000D01*
X147561000Y-244525000D01*
X147534000Y-244475000D01*
X147509000Y-244423000D01*
X147487000Y-244371000D01*
X147468000Y-244317000D01*
X147452000Y-244262000D01*
X147439000Y-244207000D01*
X147428000Y-244151000D01*
X147421000Y-244094000D01*
X147416000Y-244037000D01*
X147415000Y-243980000D01*
X147416000Y-243923000D01*
X147421000Y-243866000D01*
X147428000Y-243809000D01*
X147439000Y-243753000D01*
X147452000Y-243698000D01*
X147468000Y-243643000D01*
X147487000Y-243589000D01*
X147509000Y-243537000D01*
X147534000Y-243485000D01*
X147561000Y-243435000D01*
X147591000Y-243386000D01*
X147623000Y-243339000D01*
X147658000Y-243294000D01*
X147695000Y-243251000D01*
X147734000Y-243209000D01*
X147776000Y-243170000D01*
X147819000Y-243133000D01*
X147864000Y-243098000D01*
X147911000Y-243066000D01*
X147960000Y-243036000D01*
X148010000Y-243009000D01*
X148062000Y-242984000D01*
X148114000Y-242962000D01*
X148168000Y-242943000D01*
X148223000Y-242927000D01*
X148278000Y-242914000D01*
X148334000Y-242903000D01*
X148391000Y-242896000D01*
X148448000Y-242891000D01*
X148505000Y-242890000D01*
X148505000Y-243450000D01*
G36*
X148505000Y-243450000D02*
G01*
X148477000Y-243451000D01*
X148450000Y-243453000D01*
X148422000Y-243457000D01*
X148395000Y-243462000D01*
X148368000Y-243468000D01*
X148341000Y-243476000D01*
X148315000Y-243485000D01*
X148289000Y-243496000D01*
X148264000Y-243508000D01*
X148240000Y-243521000D01*
X148216000Y-243536000D01*
X148193000Y-243551000D01*
X148171000Y-243568000D01*
X148150000Y-243586000D01*
X148130000Y-243605000D01*
X148111000Y-243625000D01*
X148093000Y-243646000D01*
X148076000Y-243668000D01*
X148061000Y-243691000D01*
X148046000Y-243715000D01*
X148033000Y-243739000D01*
X148021000Y-243764000D01*
X148010000Y-243790000D01*
X148001000Y-243816000D01*
X147993000Y-243843000D01*
X147987000Y-243870000D01*
X147982000Y-243897000D01*
X147978000Y-243925000D01*
X147976000Y-243952000D01*
X147975000Y-243980000D01*
X147976000Y-244008000D01*
X147978000Y-244035000D01*
X147982000Y-244063000D01*
X147987000Y-244090000D01*
X147993000Y-244117000D01*
X148001000Y-244144000D01*
X148010000Y-244170000D01*
X148021000Y-244196000D01*
X148033000Y-244221000D01*
X148046000Y-244245000D01*
X148061000Y-244269000D01*
X148076000Y-244292000D01*
X148093000Y-244314000D01*
X148111000Y-244335000D01*
X148130000Y-244355000D01*
X148150000Y-244374000D01*
X148171000Y-244392000D01*
X148193000Y-244409000D01*
X148216000Y-244424000D01*
X148240000Y-244439000D01*
X148264000Y-244452000D01*
X148289000Y-244464000D01*
X148315000Y-244475000D01*
X148341000Y-244484000D01*
X148368000Y-244492000D01*
X148395000Y-244498000D01*
X148422000Y-244503000D01*
X148450000Y-244507000D01*
X148477000Y-244509000D01*
X148505000Y-244510000D01*
X148505000Y-245070000D01*
X148448000Y-245069000D01*
X148391000Y-245064000D01*
X148334000Y-245057000D01*
X148278000Y-245046000D01*
X148223000Y-245033000D01*
X148168000Y-245017000D01*
X148114000Y-244998000D01*
X148062000Y-244976000D01*
X148010000Y-244951000D01*
X147960000Y-244924000D01*
X147911000Y-244894000D01*
X147864000Y-244862000D01*
X147819000Y-244827000D01*
X147776000Y-244790000D01*
X147734000Y-244751000D01*
X147695000Y-244709000D01*
X147658000Y-244666000D01*
X147623000Y-244621000D01*
X147591000Y-244574000D01*
X147561000Y-244525000D01*
X147534000Y-244475000D01*
X147509000Y-244423000D01*
X147487000Y-244371000D01*
X147468000Y-244317000D01*
X147452000Y-244262000D01*
X147439000Y-244207000D01*
X147428000Y-244151000D01*
X147421000Y-244094000D01*
X147416000Y-244037000D01*
X147415000Y-243980000D01*
X147416000Y-243923000D01*
X147421000Y-243866000D01*
X147428000Y-243809000D01*
X147439000Y-243753000D01*
X147452000Y-243698000D01*
X147468000Y-243643000D01*
X147487000Y-243589000D01*
X147509000Y-243537000D01*
X147534000Y-243485000D01*
X147561000Y-243435000D01*
X147591000Y-243386000D01*
X147623000Y-243339000D01*
X147658000Y-243294000D01*
X147695000Y-243251000D01*
X147734000Y-243209000D01*
X147776000Y-243170000D01*
X147819000Y-243133000D01*
X147864000Y-243098000D01*
X147911000Y-243066000D01*
X147960000Y-243036000D01*
X148010000Y-243009000D01*
X148062000Y-242984000D01*
X148114000Y-242962000D01*
X148168000Y-242943000D01*
X148223000Y-242927000D01*
X148278000Y-242914000D01*
X148334000Y-242903000D01*
X148391000Y-242896000D01*
X148448000Y-242891000D01*
X148505000Y-242890000D01*
X148505000Y-243450000D01*
G37*
%TO.C,MK2*%
X58077000Y-151411000D02*
X58134000Y-151416000D01*
X58191000Y-151423000D01*
X58247000Y-151434000D01*
X58302000Y-151447000D01*
X58357000Y-151463000D01*
X58411000Y-151482000D01*
X58463000Y-151504000D01*
X58515000Y-151529000D01*
X58565000Y-151556000D01*
X58614000Y-151586000D01*
X58661000Y-151618000D01*
X58706000Y-151653000D01*
X58749000Y-151690000D01*
X58791000Y-151729000D01*
X58830000Y-151771000D01*
X58867000Y-151814000D01*
X58902000Y-151859000D01*
X58934000Y-151906000D01*
X58964000Y-151955000D01*
X58991000Y-152005000D01*
X59016000Y-152057000D01*
X59038000Y-152109000D01*
X59057000Y-152163000D01*
X59073000Y-152218000D01*
X59086000Y-152273000D01*
X59097000Y-152329000D01*
X59104000Y-152386000D01*
X59109000Y-152443000D01*
X59110000Y-152500000D01*
X58550000Y-152500000D01*
X58549000Y-152472000D01*
X58547000Y-152445000D01*
X58543000Y-152417000D01*
X58538000Y-152390000D01*
X58532000Y-152363000D01*
X58524000Y-152336000D01*
X58515000Y-152310000D01*
X58504000Y-152284000D01*
X58492000Y-152259000D01*
X58479000Y-152235000D01*
X58464000Y-152211000D01*
X58449000Y-152188000D01*
X58432000Y-152166000D01*
X58414000Y-152145000D01*
X58395000Y-152125000D01*
X58375000Y-152106000D01*
X58354000Y-152088000D01*
X58332000Y-152071000D01*
X58309000Y-152056000D01*
X58285000Y-152041000D01*
X58261000Y-152028000D01*
X58236000Y-152016000D01*
X58210000Y-152005000D01*
X58184000Y-151996000D01*
X58157000Y-151988000D01*
X58130000Y-151982000D01*
X58103000Y-151977000D01*
X58075000Y-151973000D01*
X58048000Y-151971000D01*
X58020000Y-151970000D01*
X57992000Y-151971000D01*
X57965000Y-151973000D01*
X57937000Y-151977000D01*
X57910000Y-151982000D01*
X57883000Y-151988000D01*
X57856000Y-151996000D01*
X57830000Y-152005000D01*
X57804000Y-152016000D01*
X57779000Y-152028000D01*
X57755000Y-152041000D01*
X57731000Y-152056000D01*
X57708000Y-152071000D01*
X57686000Y-152088000D01*
X57665000Y-152106000D01*
X57645000Y-152125000D01*
X57626000Y-152145000D01*
X57608000Y-152166000D01*
X57591000Y-152188000D01*
X57576000Y-152211000D01*
X57561000Y-152235000D01*
X57548000Y-152259000D01*
X57536000Y-152284000D01*
X57525000Y-152310000D01*
X57516000Y-152336000D01*
X57508000Y-152363000D01*
X57502000Y-152390000D01*
X57497000Y-152417000D01*
X57493000Y-152445000D01*
X57491000Y-152472000D01*
X57490000Y-152500000D01*
X56930000Y-152500000D01*
X56931000Y-152443000D01*
X56936000Y-152386000D01*
X56943000Y-152329000D01*
X56954000Y-152273000D01*
X56967000Y-152218000D01*
X56983000Y-152163000D01*
X57002000Y-152109000D01*
X57024000Y-152057000D01*
X57049000Y-152005000D01*
X57076000Y-151955000D01*
X57106000Y-151906000D01*
X57138000Y-151859000D01*
X57173000Y-151814000D01*
X57210000Y-151771000D01*
X57249000Y-151729000D01*
X57291000Y-151690000D01*
X57334000Y-151653000D01*
X57379000Y-151618000D01*
X57426000Y-151586000D01*
X57475000Y-151556000D01*
X57525000Y-151529000D01*
X57577000Y-151504000D01*
X57629000Y-151482000D01*
X57683000Y-151463000D01*
X57738000Y-151447000D01*
X57793000Y-151434000D01*
X57849000Y-151423000D01*
X57906000Y-151416000D01*
X57963000Y-151411000D01*
X58020000Y-151410000D01*
X58077000Y-151411000D01*
G36*
X58077000Y-151411000D02*
G01*
X58134000Y-151416000D01*
X58191000Y-151423000D01*
X58247000Y-151434000D01*
X58302000Y-151447000D01*
X58357000Y-151463000D01*
X58411000Y-151482000D01*
X58463000Y-151504000D01*
X58515000Y-151529000D01*
X58565000Y-151556000D01*
X58614000Y-151586000D01*
X58661000Y-151618000D01*
X58706000Y-151653000D01*
X58749000Y-151690000D01*
X58791000Y-151729000D01*
X58830000Y-151771000D01*
X58867000Y-151814000D01*
X58902000Y-151859000D01*
X58934000Y-151906000D01*
X58964000Y-151955000D01*
X58991000Y-152005000D01*
X59016000Y-152057000D01*
X59038000Y-152109000D01*
X59057000Y-152163000D01*
X59073000Y-152218000D01*
X59086000Y-152273000D01*
X59097000Y-152329000D01*
X59104000Y-152386000D01*
X59109000Y-152443000D01*
X59110000Y-152500000D01*
X58550000Y-152500000D01*
X58549000Y-152472000D01*
X58547000Y-152445000D01*
X58543000Y-152417000D01*
X58538000Y-152390000D01*
X58532000Y-152363000D01*
X58524000Y-152336000D01*
X58515000Y-152310000D01*
X58504000Y-152284000D01*
X58492000Y-152259000D01*
X58479000Y-152235000D01*
X58464000Y-152211000D01*
X58449000Y-152188000D01*
X58432000Y-152166000D01*
X58414000Y-152145000D01*
X58395000Y-152125000D01*
X58375000Y-152106000D01*
X58354000Y-152088000D01*
X58332000Y-152071000D01*
X58309000Y-152056000D01*
X58285000Y-152041000D01*
X58261000Y-152028000D01*
X58236000Y-152016000D01*
X58210000Y-152005000D01*
X58184000Y-151996000D01*
X58157000Y-151988000D01*
X58130000Y-151982000D01*
X58103000Y-151977000D01*
X58075000Y-151973000D01*
X58048000Y-151971000D01*
X58020000Y-151970000D01*
X57992000Y-151971000D01*
X57965000Y-151973000D01*
X57937000Y-151977000D01*
X57910000Y-151982000D01*
X57883000Y-151988000D01*
X57856000Y-151996000D01*
X57830000Y-152005000D01*
X57804000Y-152016000D01*
X57779000Y-152028000D01*
X57755000Y-152041000D01*
X57731000Y-152056000D01*
X57708000Y-152071000D01*
X57686000Y-152088000D01*
X57665000Y-152106000D01*
X57645000Y-152125000D01*
X57626000Y-152145000D01*
X57608000Y-152166000D01*
X57591000Y-152188000D01*
X57576000Y-152211000D01*
X57561000Y-152235000D01*
X57548000Y-152259000D01*
X57536000Y-152284000D01*
X57525000Y-152310000D01*
X57516000Y-152336000D01*
X57508000Y-152363000D01*
X57502000Y-152390000D01*
X57497000Y-152417000D01*
X57493000Y-152445000D01*
X57491000Y-152472000D01*
X57490000Y-152500000D01*
X56930000Y-152500000D01*
X56931000Y-152443000D01*
X56936000Y-152386000D01*
X56943000Y-152329000D01*
X56954000Y-152273000D01*
X56967000Y-152218000D01*
X56983000Y-152163000D01*
X57002000Y-152109000D01*
X57024000Y-152057000D01*
X57049000Y-152005000D01*
X57076000Y-151955000D01*
X57106000Y-151906000D01*
X57138000Y-151859000D01*
X57173000Y-151814000D01*
X57210000Y-151771000D01*
X57249000Y-151729000D01*
X57291000Y-151690000D01*
X57334000Y-151653000D01*
X57379000Y-151618000D01*
X57426000Y-151586000D01*
X57475000Y-151556000D01*
X57525000Y-151529000D01*
X57577000Y-151504000D01*
X57629000Y-151482000D01*
X57683000Y-151463000D01*
X57738000Y-151447000D01*
X57793000Y-151434000D01*
X57849000Y-151423000D01*
X57906000Y-151416000D01*
X57963000Y-151411000D01*
X58020000Y-151410000D01*
X58077000Y-151411000D01*
G37*
X57491000Y-152528000D02*
X57493000Y-152555000D01*
X57497000Y-152583000D01*
X57502000Y-152610000D01*
X57508000Y-152637000D01*
X57516000Y-152664000D01*
X57525000Y-152690000D01*
X57536000Y-152716000D01*
X57548000Y-152741000D01*
X57561000Y-152765000D01*
X57576000Y-152789000D01*
X57591000Y-152812000D01*
X57608000Y-152834000D01*
X57626000Y-152855000D01*
X57645000Y-152875000D01*
X57665000Y-152894000D01*
X57686000Y-152912000D01*
X57708000Y-152929000D01*
X57731000Y-152944000D01*
X57755000Y-152959000D01*
X57779000Y-152972000D01*
X57804000Y-152984000D01*
X57830000Y-152995000D01*
X57856000Y-153004000D01*
X57883000Y-153012000D01*
X57910000Y-153018000D01*
X57937000Y-153023000D01*
X57965000Y-153027000D01*
X57992000Y-153029000D01*
X58020000Y-153030000D01*
X58048000Y-153029000D01*
X58075000Y-153027000D01*
X58103000Y-153023000D01*
X58130000Y-153018000D01*
X58157000Y-153012000D01*
X58184000Y-153004000D01*
X58210000Y-152995000D01*
X58236000Y-152984000D01*
X58261000Y-152972000D01*
X58285000Y-152959000D01*
X58309000Y-152944000D01*
X58332000Y-152929000D01*
X58354000Y-152912000D01*
X58375000Y-152894000D01*
X58395000Y-152875000D01*
X58414000Y-152855000D01*
X58432000Y-152834000D01*
X58449000Y-152812000D01*
X58464000Y-152789000D01*
X58479000Y-152765000D01*
X58492000Y-152741000D01*
X58504000Y-152716000D01*
X58515000Y-152690000D01*
X58524000Y-152664000D01*
X58532000Y-152637000D01*
X58538000Y-152610000D01*
X58543000Y-152583000D01*
X58547000Y-152555000D01*
X58549000Y-152528000D01*
X58550000Y-152500000D01*
X59110000Y-152500000D01*
X59109000Y-152557000D01*
X59104000Y-152614000D01*
X59097000Y-152671000D01*
X59086000Y-152727000D01*
X59073000Y-152782000D01*
X59057000Y-152837000D01*
X59038000Y-152891000D01*
X59016000Y-152943000D01*
X58991000Y-152995000D01*
X58964000Y-153045000D01*
X58934000Y-153094000D01*
X58902000Y-153141000D01*
X58867000Y-153186000D01*
X58830000Y-153229000D01*
X58791000Y-153271000D01*
X58749000Y-153310000D01*
X58706000Y-153347000D01*
X58661000Y-153382000D01*
X58614000Y-153414000D01*
X58565000Y-153444000D01*
X58515000Y-153471000D01*
X58463000Y-153496000D01*
X58411000Y-153518000D01*
X58357000Y-153537000D01*
X58302000Y-153553000D01*
X58247000Y-153566000D01*
X58191000Y-153577000D01*
X58134000Y-153584000D01*
X58077000Y-153589000D01*
X58020000Y-153590000D01*
X57963000Y-153589000D01*
X57906000Y-153584000D01*
X57849000Y-153577000D01*
X57793000Y-153566000D01*
X57738000Y-153553000D01*
X57683000Y-153537000D01*
X57629000Y-153518000D01*
X57577000Y-153496000D01*
X57525000Y-153471000D01*
X57475000Y-153444000D01*
X57426000Y-153414000D01*
X57379000Y-153382000D01*
X57334000Y-153347000D01*
X57291000Y-153310000D01*
X57249000Y-153271000D01*
X57210000Y-153229000D01*
X57173000Y-153186000D01*
X57138000Y-153141000D01*
X57106000Y-153094000D01*
X57076000Y-153045000D01*
X57049000Y-152995000D01*
X57024000Y-152943000D01*
X57002000Y-152891000D01*
X56983000Y-152837000D01*
X56967000Y-152782000D01*
X56954000Y-152727000D01*
X56943000Y-152671000D01*
X56936000Y-152614000D01*
X56931000Y-152557000D01*
X56930000Y-152500000D01*
X57490000Y-152500000D01*
X57491000Y-152528000D01*
G36*
X57491000Y-152528000D02*
G01*
X57493000Y-152555000D01*
X57497000Y-152583000D01*
X57502000Y-152610000D01*
X57508000Y-152637000D01*
X57516000Y-152664000D01*
X57525000Y-152690000D01*
X57536000Y-152716000D01*
X57548000Y-152741000D01*
X57561000Y-152765000D01*
X57576000Y-152789000D01*
X57591000Y-152812000D01*
X57608000Y-152834000D01*
X57626000Y-152855000D01*
X57645000Y-152875000D01*
X57665000Y-152894000D01*
X57686000Y-152912000D01*
X57708000Y-152929000D01*
X57731000Y-152944000D01*
X57755000Y-152959000D01*
X57779000Y-152972000D01*
X57804000Y-152984000D01*
X57830000Y-152995000D01*
X57856000Y-153004000D01*
X57883000Y-153012000D01*
X57910000Y-153018000D01*
X57937000Y-153023000D01*
X57965000Y-153027000D01*
X57992000Y-153029000D01*
X58020000Y-153030000D01*
X58048000Y-153029000D01*
X58075000Y-153027000D01*
X58103000Y-153023000D01*
X58130000Y-153018000D01*
X58157000Y-153012000D01*
X58184000Y-153004000D01*
X58210000Y-152995000D01*
X58236000Y-152984000D01*
X58261000Y-152972000D01*
X58285000Y-152959000D01*
X58309000Y-152944000D01*
X58332000Y-152929000D01*
X58354000Y-152912000D01*
X58375000Y-152894000D01*
X58395000Y-152875000D01*
X58414000Y-152855000D01*
X58432000Y-152834000D01*
X58449000Y-152812000D01*
X58464000Y-152789000D01*
X58479000Y-152765000D01*
X58492000Y-152741000D01*
X58504000Y-152716000D01*
X58515000Y-152690000D01*
X58524000Y-152664000D01*
X58532000Y-152637000D01*
X58538000Y-152610000D01*
X58543000Y-152583000D01*
X58547000Y-152555000D01*
X58549000Y-152528000D01*
X58550000Y-152500000D01*
X59110000Y-152500000D01*
X59109000Y-152557000D01*
X59104000Y-152614000D01*
X59097000Y-152671000D01*
X59086000Y-152727000D01*
X59073000Y-152782000D01*
X59057000Y-152837000D01*
X59038000Y-152891000D01*
X59016000Y-152943000D01*
X58991000Y-152995000D01*
X58964000Y-153045000D01*
X58934000Y-153094000D01*
X58902000Y-153141000D01*
X58867000Y-153186000D01*
X58830000Y-153229000D01*
X58791000Y-153271000D01*
X58749000Y-153310000D01*
X58706000Y-153347000D01*
X58661000Y-153382000D01*
X58614000Y-153414000D01*
X58565000Y-153444000D01*
X58515000Y-153471000D01*
X58463000Y-153496000D01*
X58411000Y-153518000D01*
X58357000Y-153537000D01*
X58302000Y-153553000D01*
X58247000Y-153566000D01*
X58191000Y-153577000D01*
X58134000Y-153584000D01*
X58077000Y-153589000D01*
X58020000Y-153590000D01*
X57963000Y-153589000D01*
X57906000Y-153584000D01*
X57849000Y-153577000D01*
X57793000Y-153566000D01*
X57738000Y-153553000D01*
X57683000Y-153537000D01*
X57629000Y-153518000D01*
X57577000Y-153496000D01*
X57525000Y-153471000D01*
X57475000Y-153444000D01*
X57426000Y-153414000D01*
X57379000Y-153382000D01*
X57334000Y-153347000D01*
X57291000Y-153310000D01*
X57249000Y-153271000D01*
X57210000Y-153229000D01*
X57173000Y-153186000D01*
X57138000Y-153141000D01*
X57106000Y-153094000D01*
X57076000Y-153045000D01*
X57049000Y-152995000D01*
X57024000Y-152943000D01*
X57002000Y-152891000D01*
X56983000Y-152837000D01*
X56967000Y-152782000D01*
X56954000Y-152727000D01*
X56943000Y-152671000D01*
X56936000Y-152614000D01*
X56931000Y-152557000D01*
X56930000Y-152500000D01*
X57490000Y-152500000D01*
X57491000Y-152528000D01*
G37*
%TO.C,MK7*%
X239057000Y-60886000D02*
X239114000Y-60891000D01*
X239171000Y-60898000D01*
X239227000Y-60909000D01*
X239282000Y-60922000D01*
X239337000Y-60938000D01*
X239391000Y-60957000D01*
X239443000Y-60979000D01*
X239495000Y-61004000D01*
X239545000Y-61031000D01*
X239594000Y-61061000D01*
X239641000Y-61093000D01*
X239686000Y-61128000D01*
X239729000Y-61165000D01*
X239771000Y-61204000D01*
X239810000Y-61246000D01*
X239847000Y-61289000D01*
X239882000Y-61334000D01*
X239914000Y-61381000D01*
X239944000Y-61430000D01*
X239971000Y-61480000D01*
X239996000Y-61532000D01*
X240018000Y-61584000D01*
X240037000Y-61638000D01*
X240053000Y-61693000D01*
X240066000Y-61748000D01*
X240077000Y-61804000D01*
X240084000Y-61861000D01*
X240089000Y-61918000D01*
X240090000Y-61975000D01*
X240089000Y-62032000D01*
X240084000Y-62089000D01*
X240077000Y-62146000D01*
X240066000Y-62202000D01*
X240053000Y-62257000D01*
X240037000Y-62312000D01*
X240018000Y-62366000D01*
X239996000Y-62418000D01*
X239971000Y-62470000D01*
X239944000Y-62520000D01*
X239914000Y-62569000D01*
X239882000Y-62616000D01*
X239847000Y-62661000D01*
X239810000Y-62704000D01*
X239771000Y-62746000D01*
X239729000Y-62785000D01*
X239686000Y-62822000D01*
X239641000Y-62857000D01*
X239594000Y-62889000D01*
X239545000Y-62919000D01*
X239495000Y-62946000D01*
X239443000Y-62971000D01*
X239391000Y-62993000D01*
X239337000Y-63012000D01*
X239282000Y-63028000D01*
X239227000Y-63041000D01*
X239171000Y-63052000D01*
X239114000Y-63059000D01*
X239057000Y-63064000D01*
X239000000Y-63065000D01*
X239000000Y-62505000D01*
X239028000Y-62504000D01*
X239055000Y-62502000D01*
X239083000Y-62498000D01*
X239110000Y-62493000D01*
X239137000Y-62487000D01*
X239164000Y-62479000D01*
X239190000Y-62470000D01*
X239216000Y-62459000D01*
X239241000Y-62447000D01*
X239265000Y-62434000D01*
X239289000Y-62419000D01*
X239312000Y-62404000D01*
X239334000Y-62387000D01*
X239355000Y-62369000D01*
X239375000Y-62350000D01*
X239394000Y-62330000D01*
X239412000Y-62309000D01*
X239429000Y-62287000D01*
X239444000Y-62264000D01*
X239459000Y-62240000D01*
X239472000Y-62216000D01*
X239484000Y-62191000D01*
X239495000Y-62165000D01*
X239504000Y-62139000D01*
X239512000Y-62112000D01*
X239518000Y-62085000D01*
X239523000Y-62058000D01*
X239527000Y-62030000D01*
X239529000Y-62003000D01*
X239530000Y-61975000D01*
X239529000Y-61947000D01*
X239527000Y-61920000D01*
X239523000Y-61892000D01*
X239518000Y-61865000D01*
X239512000Y-61838000D01*
X239504000Y-61811000D01*
X239495000Y-61785000D01*
X239484000Y-61759000D01*
X239472000Y-61734000D01*
X239459000Y-61710000D01*
X239444000Y-61686000D01*
X239429000Y-61663000D01*
X239412000Y-61641000D01*
X239394000Y-61620000D01*
X239375000Y-61600000D01*
X239355000Y-61581000D01*
X239334000Y-61563000D01*
X239312000Y-61546000D01*
X239289000Y-61531000D01*
X239265000Y-61516000D01*
X239241000Y-61503000D01*
X239216000Y-61491000D01*
X239190000Y-61480000D01*
X239164000Y-61471000D01*
X239137000Y-61463000D01*
X239110000Y-61457000D01*
X239083000Y-61452000D01*
X239055000Y-61448000D01*
X239028000Y-61446000D01*
X239000000Y-61445000D01*
X239000000Y-60885000D01*
X239057000Y-60886000D01*
G36*
X239057000Y-60886000D02*
G01*
X239114000Y-60891000D01*
X239171000Y-60898000D01*
X239227000Y-60909000D01*
X239282000Y-60922000D01*
X239337000Y-60938000D01*
X239391000Y-60957000D01*
X239443000Y-60979000D01*
X239495000Y-61004000D01*
X239545000Y-61031000D01*
X239594000Y-61061000D01*
X239641000Y-61093000D01*
X239686000Y-61128000D01*
X239729000Y-61165000D01*
X239771000Y-61204000D01*
X239810000Y-61246000D01*
X239847000Y-61289000D01*
X239882000Y-61334000D01*
X239914000Y-61381000D01*
X239944000Y-61430000D01*
X239971000Y-61480000D01*
X239996000Y-61532000D01*
X240018000Y-61584000D01*
X240037000Y-61638000D01*
X240053000Y-61693000D01*
X240066000Y-61748000D01*
X240077000Y-61804000D01*
X240084000Y-61861000D01*
X240089000Y-61918000D01*
X240090000Y-61975000D01*
X240089000Y-62032000D01*
X240084000Y-62089000D01*
X240077000Y-62146000D01*
X240066000Y-62202000D01*
X240053000Y-62257000D01*
X240037000Y-62312000D01*
X240018000Y-62366000D01*
X239996000Y-62418000D01*
X239971000Y-62470000D01*
X239944000Y-62520000D01*
X239914000Y-62569000D01*
X239882000Y-62616000D01*
X239847000Y-62661000D01*
X239810000Y-62704000D01*
X239771000Y-62746000D01*
X239729000Y-62785000D01*
X239686000Y-62822000D01*
X239641000Y-62857000D01*
X239594000Y-62889000D01*
X239545000Y-62919000D01*
X239495000Y-62946000D01*
X239443000Y-62971000D01*
X239391000Y-62993000D01*
X239337000Y-63012000D01*
X239282000Y-63028000D01*
X239227000Y-63041000D01*
X239171000Y-63052000D01*
X239114000Y-63059000D01*
X239057000Y-63064000D01*
X239000000Y-63065000D01*
X239000000Y-62505000D01*
X239028000Y-62504000D01*
X239055000Y-62502000D01*
X239083000Y-62498000D01*
X239110000Y-62493000D01*
X239137000Y-62487000D01*
X239164000Y-62479000D01*
X239190000Y-62470000D01*
X239216000Y-62459000D01*
X239241000Y-62447000D01*
X239265000Y-62434000D01*
X239289000Y-62419000D01*
X239312000Y-62404000D01*
X239334000Y-62387000D01*
X239355000Y-62369000D01*
X239375000Y-62350000D01*
X239394000Y-62330000D01*
X239412000Y-62309000D01*
X239429000Y-62287000D01*
X239444000Y-62264000D01*
X239459000Y-62240000D01*
X239472000Y-62216000D01*
X239484000Y-62191000D01*
X239495000Y-62165000D01*
X239504000Y-62139000D01*
X239512000Y-62112000D01*
X239518000Y-62085000D01*
X239523000Y-62058000D01*
X239527000Y-62030000D01*
X239529000Y-62003000D01*
X239530000Y-61975000D01*
X239529000Y-61947000D01*
X239527000Y-61920000D01*
X239523000Y-61892000D01*
X239518000Y-61865000D01*
X239512000Y-61838000D01*
X239504000Y-61811000D01*
X239495000Y-61785000D01*
X239484000Y-61759000D01*
X239472000Y-61734000D01*
X239459000Y-61710000D01*
X239444000Y-61686000D01*
X239429000Y-61663000D01*
X239412000Y-61641000D01*
X239394000Y-61620000D01*
X239375000Y-61600000D01*
X239355000Y-61581000D01*
X239334000Y-61563000D01*
X239312000Y-61546000D01*
X239289000Y-61531000D01*
X239265000Y-61516000D01*
X239241000Y-61503000D01*
X239216000Y-61491000D01*
X239190000Y-61480000D01*
X239164000Y-61471000D01*
X239137000Y-61463000D01*
X239110000Y-61457000D01*
X239083000Y-61452000D01*
X239055000Y-61448000D01*
X239028000Y-61446000D01*
X239000000Y-61445000D01*
X239000000Y-60885000D01*
X239057000Y-60886000D01*
G37*
X239000000Y-61445000D02*
X238972000Y-61446000D01*
X238945000Y-61448000D01*
X238917000Y-61452000D01*
X238890000Y-61457000D01*
X238863000Y-61463000D01*
X238836000Y-61471000D01*
X238810000Y-61480000D01*
X238784000Y-61491000D01*
X238759000Y-61503000D01*
X238735000Y-61516000D01*
X238711000Y-61531000D01*
X238688000Y-61546000D01*
X238666000Y-61563000D01*
X238645000Y-61581000D01*
X238625000Y-61600000D01*
X238606000Y-61620000D01*
X238588000Y-61641000D01*
X238571000Y-61663000D01*
X238556000Y-61686000D01*
X238541000Y-61710000D01*
X238528000Y-61734000D01*
X238516000Y-61759000D01*
X238505000Y-61785000D01*
X238496000Y-61811000D01*
X238488000Y-61838000D01*
X238482000Y-61865000D01*
X238477000Y-61892000D01*
X238473000Y-61920000D01*
X238471000Y-61947000D01*
X238470000Y-61975000D01*
X238471000Y-62003000D01*
X238473000Y-62030000D01*
X238477000Y-62058000D01*
X238482000Y-62085000D01*
X238488000Y-62112000D01*
X238496000Y-62139000D01*
X238505000Y-62165000D01*
X238516000Y-62191000D01*
X238528000Y-62216000D01*
X238541000Y-62240000D01*
X238556000Y-62264000D01*
X238571000Y-62287000D01*
X238588000Y-62309000D01*
X238606000Y-62330000D01*
X238625000Y-62350000D01*
X238645000Y-62369000D01*
X238666000Y-62387000D01*
X238688000Y-62404000D01*
X238711000Y-62419000D01*
X238735000Y-62434000D01*
X238759000Y-62447000D01*
X238784000Y-62459000D01*
X238810000Y-62470000D01*
X238836000Y-62479000D01*
X238863000Y-62487000D01*
X238890000Y-62493000D01*
X238917000Y-62498000D01*
X238945000Y-62502000D01*
X238972000Y-62504000D01*
X239000000Y-62505000D01*
X239000000Y-63065000D01*
X238943000Y-63064000D01*
X238886000Y-63059000D01*
X238829000Y-63052000D01*
X238773000Y-63041000D01*
X238718000Y-63028000D01*
X238663000Y-63012000D01*
X238609000Y-62993000D01*
X238557000Y-62971000D01*
X238505000Y-62946000D01*
X238455000Y-62919000D01*
X238406000Y-62889000D01*
X238359000Y-62857000D01*
X238314000Y-62822000D01*
X238271000Y-62785000D01*
X238229000Y-62746000D01*
X238190000Y-62704000D01*
X238153000Y-62661000D01*
X238118000Y-62616000D01*
X238086000Y-62569000D01*
X238056000Y-62520000D01*
X238029000Y-62470000D01*
X238004000Y-62418000D01*
X237982000Y-62366000D01*
X237963000Y-62312000D01*
X237947000Y-62257000D01*
X237934000Y-62202000D01*
X237923000Y-62146000D01*
X237916000Y-62089000D01*
X237911000Y-62032000D01*
X237910000Y-61975000D01*
X237911000Y-61918000D01*
X237916000Y-61861000D01*
X237923000Y-61804000D01*
X237934000Y-61748000D01*
X237947000Y-61693000D01*
X237963000Y-61638000D01*
X237982000Y-61584000D01*
X238004000Y-61532000D01*
X238029000Y-61480000D01*
X238056000Y-61430000D01*
X238086000Y-61381000D01*
X238118000Y-61334000D01*
X238153000Y-61289000D01*
X238190000Y-61246000D01*
X238229000Y-61204000D01*
X238271000Y-61165000D01*
X238314000Y-61128000D01*
X238359000Y-61093000D01*
X238406000Y-61061000D01*
X238455000Y-61031000D01*
X238505000Y-61004000D01*
X238557000Y-60979000D01*
X238609000Y-60957000D01*
X238663000Y-60938000D01*
X238718000Y-60922000D01*
X238773000Y-60909000D01*
X238829000Y-60898000D01*
X238886000Y-60891000D01*
X238943000Y-60886000D01*
X239000000Y-60885000D01*
X239000000Y-61445000D01*
G36*
X239000000Y-61445000D02*
G01*
X238972000Y-61446000D01*
X238945000Y-61448000D01*
X238917000Y-61452000D01*
X238890000Y-61457000D01*
X238863000Y-61463000D01*
X238836000Y-61471000D01*
X238810000Y-61480000D01*
X238784000Y-61491000D01*
X238759000Y-61503000D01*
X238735000Y-61516000D01*
X238711000Y-61531000D01*
X238688000Y-61546000D01*
X238666000Y-61563000D01*
X238645000Y-61581000D01*
X238625000Y-61600000D01*
X238606000Y-61620000D01*
X238588000Y-61641000D01*
X238571000Y-61663000D01*
X238556000Y-61686000D01*
X238541000Y-61710000D01*
X238528000Y-61734000D01*
X238516000Y-61759000D01*
X238505000Y-61785000D01*
X238496000Y-61811000D01*
X238488000Y-61838000D01*
X238482000Y-61865000D01*
X238477000Y-61892000D01*
X238473000Y-61920000D01*
X238471000Y-61947000D01*
X238470000Y-61975000D01*
X238471000Y-62003000D01*
X238473000Y-62030000D01*
X238477000Y-62058000D01*
X238482000Y-62085000D01*
X238488000Y-62112000D01*
X238496000Y-62139000D01*
X238505000Y-62165000D01*
X238516000Y-62191000D01*
X238528000Y-62216000D01*
X238541000Y-62240000D01*
X238556000Y-62264000D01*
X238571000Y-62287000D01*
X238588000Y-62309000D01*
X238606000Y-62330000D01*
X238625000Y-62350000D01*
X238645000Y-62369000D01*
X238666000Y-62387000D01*
X238688000Y-62404000D01*
X238711000Y-62419000D01*
X238735000Y-62434000D01*
X238759000Y-62447000D01*
X238784000Y-62459000D01*
X238810000Y-62470000D01*
X238836000Y-62479000D01*
X238863000Y-62487000D01*
X238890000Y-62493000D01*
X238917000Y-62498000D01*
X238945000Y-62502000D01*
X238972000Y-62504000D01*
X239000000Y-62505000D01*
X239000000Y-63065000D01*
X238943000Y-63064000D01*
X238886000Y-63059000D01*
X238829000Y-63052000D01*
X238773000Y-63041000D01*
X238718000Y-63028000D01*
X238663000Y-63012000D01*
X238609000Y-62993000D01*
X238557000Y-62971000D01*
X238505000Y-62946000D01*
X238455000Y-62919000D01*
X238406000Y-62889000D01*
X238359000Y-62857000D01*
X238314000Y-62822000D01*
X238271000Y-62785000D01*
X238229000Y-62746000D01*
X238190000Y-62704000D01*
X238153000Y-62661000D01*
X238118000Y-62616000D01*
X238086000Y-62569000D01*
X238056000Y-62520000D01*
X238029000Y-62470000D01*
X238004000Y-62418000D01*
X237982000Y-62366000D01*
X237963000Y-62312000D01*
X237947000Y-62257000D01*
X237934000Y-62202000D01*
X237923000Y-62146000D01*
X237916000Y-62089000D01*
X237911000Y-62032000D01*
X237910000Y-61975000D01*
X237911000Y-61918000D01*
X237916000Y-61861000D01*
X237923000Y-61804000D01*
X237934000Y-61748000D01*
X237947000Y-61693000D01*
X237963000Y-61638000D01*
X237982000Y-61584000D01*
X238004000Y-61532000D01*
X238029000Y-61480000D01*
X238056000Y-61430000D01*
X238086000Y-61381000D01*
X238118000Y-61334000D01*
X238153000Y-61289000D01*
X238190000Y-61246000D01*
X238229000Y-61204000D01*
X238271000Y-61165000D01*
X238314000Y-61128000D01*
X238359000Y-61093000D01*
X238406000Y-61061000D01*
X238455000Y-61031000D01*
X238505000Y-61004000D01*
X238557000Y-60979000D01*
X238609000Y-60957000D01*
X238663000Y-60938000D01*
X238718000Y-60922000D01*
X238773000Y-60909000D01*
X238829000Y-60898000D01*
X238886000Y-60891000D01*
X238943000Y-60886000D01*
X239000000Y-60885000D01*
X239000000Y-61445000D01*
G37*
%TO.C,MK1*%
X58057000Y-60931000D02*
X58114000Y-60936000D01*
X58171000Y-60943000D01*
X58227000Y-60954000D01*
X58282000Y-60967000D01*
X58337000Y-60983000D01*
X58391000Y-61002000D01*
X58443000Y-61024000D01*
X58495000Y-61049000D01*
X58545000Y-61076000D01*
X58594000Y-61106000D01*
X58641000Y-61138000D01*
X58686000Y-61173000D01*
X58729000Y-61210000D01*
X58771000Y-61249000D01*
X58810000Y-61291000D01*
X58847000Y-61334000D01*
X58882000Y-61379000D01*
X58914000Y-61426000D01*
X58944000Y-61475000D01*
X58971000Y-61525000D01*
X58996000Y-61577000D01*
X59018000Y-61629000D01*
X59037000Y-61683000D01*
X59053000Y-61738000D01*
X59066000Y-61793000D01*
X59077000Y-61849000D01*
X59084000Y-61906000D01*
X59089000Y-61963000D01*
X59090000Y-62020000D01*
X59089000Y-62077000D01*
X59084000Y-62134000D01*
X59077000Y-62191000D01*
X59066000Y-62247000D01*
X59053000Y-62302000D01*
X59037000Y-62357000D01*
X59018000Y-62411000D01*
X58996000Y-62463000D01*
X58971000Y-62515000D01*
X58944000Y-62565000D01*
X58914000Y-62614000D01*
X58882000Y-62661000D01*
X58847000Y-62706000D01*
X58810000Y-62749000D01*
X58771000Y-62791000D01*
X58729000Y-62830000D01*
X58686000Y-62867000D01*
X58641000Y-62902000D01*
X58594000Y-62934000D01*
X58545000Y-62964000D01*
X58495000Y-62991000D01*
X58443000Y-63016000D01*
X58391000Y-63038000D01*
X58337000Y-63057000D01*
X58282000Y-63073000D01*
X58227000Y-63086000D01*
X58171000Y-63097000D01*
X58114000Y-63104000D01*
X58057000Y-63109000D01*
X58000000Y-63110000D01*
X58000000Y-62550000D01*
X58028000Y-62549000D01*
X58055000Y-62547000D01*
X58083000Y-62543000D01*
X58110000Y-62538000D01*
X58137000Y-62532000D01*
X58164000Y-62524000D01*
X58190000Y-62515000D01*
X58216000Y-62504000D01*
X58241000Y-62492000D01*
X58265000Y-62479000D01*
X58289000Y-62464000D01*
X58312000Y-62449000D01*
X58334000Y-62432000D01*
X58355000Y-62414000D01*
X58375000Y-62395000D01*
X58394000Y-62375000D01*
X58412000Y-62354000D01*
X58429000Y-62332000D01*
X58444000Y-62309000D01*
X58459000Y-62285000D01*
X58472000Y-62261000D01*
X58484000Y-62236000D01*
X58495000Y-62210000D01*
X58504000Y-62184000D01*
X58512000Y-62157000D01*
X58518000Y-62130000D01*
X58523000Y-62103000D01*
X58527000Y-62075000D01*
X58529000Y-62048000D01*
X58530000Y-62020000D01*
X58529000Y-61992000D01*
X58527000Y-61965000D01*
X58523000Y-61937000D01*
X58518000Y-61910000D01*
X58512000Y-61883000D01*
X58504000Y-61856000D01*
X58495000Y-61830000D01*
X58484000Y-61804000D01*
X58472000Y-61779000D01*
X58459000Y-61755000D01*
X58444000Y-61731000D01*
X58429000Y-61708000D01*
X58412000Y-61686000D01*
X58394000Y-61665000D01*
X58375000Y-61645000D01*
X58355000Y-61626000D01*
X58334000Y-61608000D01*
X58312000Y-61591000D01*
X58289000Y-61576000D01*
X58265000Y-61561000D01*
X58241000Y-61548000D01*
X58216000Y-61536000D01*
X58190000Y-61525000D01*
X58164000Y-61516000D01*
X58137000Y-61508000D01*
X58110000Y-61502000D01*
X58083000Y-61497000D01*
X58055000Y-61493000D01*
X58028000Y-61491000D01*
X58000000Y-61490000D01*
X58000000Y-60930000D01*
X58057000Y-60931000D01*
G36*
X58057000Y-60931000D02*
G01*
X58114000Y-60936000D01*
X58171000Y-60943000D01*
X58227000Y-60954000D01*
X58282000Y-60967000D01*
X58337000Y-60983000D01*
X58391000Y-61002000D01*
X58443000Y-61024000D01*
X58495000Y-61049000D01*
X58545000Y-61076000D01*
X58594000Y-61106000D01*
X58641000Y-61138000D01*
X58686000Y-61173000D01*
X58729000Y-61210000D01*
X58771000Y-61249000D01*
X58810000Y-61291000D01*
X58847000Y-61334000D01*
X58882000Y-61379000D01*
X58914000Y-61426000D01*
X58944000Y-61475000D01*
X58971000Y-61525000D01*
X58996000Y-61577000D01*
X59018000Y-61629000D01*
X59037000Y-61683000D01*
X59053000Y-61738000D01*
X59066000Y-61793000D01*
X59077000Y-61849000D01*
X59084000Y-61906000D01*
X59089000Y-61963000D01*
X59090000Y-62020000D01*
X59089000Y-62077000D01*
X59084000Y-62134000D01*
X59077000Y-62191000D01*
X59066000Y-62247000D01*
X59053000Y-62302000D01*
X59037000Y-62357000D01*
X59018000Y-62411000D01*
X58996000Y-62463000D01*
X58971000Y-62515000D01*
X58944000Y-62565000D01*
X58914000Y-62614000D01*
X58882000Y-62661000D01*
X58847000Y-62706000D01*
X58810000Y-62749000D01*
X58771000Y-62791000D01*
X58729000Y-62830000D01*
X58686000Y-62867000D01*
X58641000Y-62902000D01*
X58594000Y-62934000D01*
X58545000Y-62964000D01*
X58495000Y-62991000D01*
X58443000Y-63016000D01*
X58391000Y-63038000D01*
X58337000Y-63057000D01*
X58282000Y-63073000D01*
X58227000Y-63086000D01*
X58171000Y-63097000D01*
X58114000Y-63104000D01*
X58057000Y-63109000D01*
X58000000Y-63110000D01*
X58000000Y-62550000D01*
X58028000Y-62549000D01*
X58055000Y-62547000D01*
X58083000Y-62543000D01*
X58110000Y-62538000D01*
X58137000Y-62532000D01*
X58164000Y-62524000D01*
X58190000Y-62515000D01*
X58216000Y-62504000D01*
X58241000Y-62492000D01*
X58265000Y-62479000D01*
X58289000Y-62464000D01*
X58312000Y-62449000D01*
X58334000Y-62432000D01*
X58355000Y-62414000D01*
X58375000Y-62395000D01*
X58394000Y-62375000D01*
X58412000Y-62354000D01*
X58429000Y-62332000D01*
X58444000Y-62309000D01*
X58459000Y-62285000D01*
X58472000Y-62261000D01*
X58484000Y-62236000D01*
X58495000Y-62210000D01*
X58504000Y-62184000D01*
X58512000Y-62157000D01*
X58518000Y-62130000D01*
X58523000Y-62103000D01*
X58527000Y-62075000D01*
X58529000Y-62048000D01*
X58530000Y-62020000D01*
X58529000Y-61992000D01*
X58527000Y-61965000D01*
X58523000Y-61937000D01*
X58518000Y-61910000D01*
X58512000Y-61883000D01*
X58504000Y-61856000D01*
X58495000Y-61830000D01*
X58484000Y-61804000D01*
X58472000Y-61779000D01*
X58459000Y-61755000D01*
X58444000Y-61731000D01*
X58429000Y-61708000D01*
X58412000Y-61686000D01*
X58394000Y-61665000D01*
X58375000Y-61645000D01*
X58355000Y-61626000D01*
X58334000Y-61608000D01*
X58312000Y-61591000D01*
X58289000Y-61576000D01*
X58265000Y-61561000D01*
X58241000Y-61548000D01*
X58216000Y-61536000D01*
X58190000Y-61525000D01*
X58164000Y-61516000D01*
X58137000Y-61508000D01*
X58110000Y-61502000D01*
X58083000Y-61497000D01*
X58055000Y-61493000D01*
X58028000Y-61491000D01*
X58000000Y-61490000D01*
X58000000Y-60930000D01*
X58057000Y-60931000D01*
G37*
X58000000Y-61490000D02*
X57972000Y-61491000D01*
X57945000Y-61493000D01*
X57917000Y-61497000D01*
X57890000Y-61502000D01*
X57863000Y-61508000D01*
X57836000Y-61516000D01*
X57810000Y-61525000D01*
X57784000Y-61536000D01*
X57759000Y-61548000D01*
X57735000Y-61561000D01*
X57711000Y-61576000D01*
X57688000Y-61591000D01*
X57666000Y-61608000D01*
X57645000Y-61626000D01*
X57625000Y-61645000D01*
X57606000Y-61665000D01*
X57588000Y-61686000D01*
X57571000Y-61708000D01*
X57556000Y-61731000D01*
X57541000Y-61755000D01*
X57528000Y-61779000D01*
X57516000Y-61804000D01*
X57505000Y-61830000D01*
X57496000Y-61856000D01*
X57488000Y-61883000D01*
X57482000Y-61910000D01*
X57477000Y-61937000D01*
X57473000Y-61965000D01*
X57471000Y-61992000D01*
X57470000Y-62020000D01*
X57471000Y-62048000D01*
X57473000Y-62075000D01*
X57477000Y-62103000D01*
X57482000Y-62130000D01*
X57488000Y-62157000D01*
X57496000Y-62184000D01*
X57505000Y-62210000D01*
X57516000Y-62236000D01*
X57528000Y-62261000D01*
X57541000Y-62285000D01*
X57556000Y-62309000D01*
X57571000Y-62332000D01*
X57588000Y-62354000D01*
X57606000Y-62375000D01*
X57625000Y-62395000D01*
X57645000Y-62414000D01*
X57666000Y-62432000D01*
X57688000Y-62449000D01*
X57711000Y-62464000D01*
X57735000Y-62479000D01*
X57759000Y-62492000D01*
X57784000Y-62504000D01*
X57810000Y-62515000D01*
X57836000Y-62524000D01*
X57863000Y-62532000D01*
X57890000Y-62538000D01*
X57917000Y-62543000D01*
X57945000Y-62547000D01*
X57972000Y-62549000D01*
X58000000Y-62550000D01*
X58000000Y-63110000D01*
X57943000Y-63109000D01*
X57886000Y-63104000D01*
X57829000Y-63097000D01*
X57773000Y-63086000D01*
X57718000Y-63073000D01*
X57663000Y-63057000D01*
X57609000Y-63038000D01*
X57557000Y-63016000D01*
X57505000Y-62991000D01*
X57455000Y-62964000D01*
X57406000Y-62934000D01*
X57359000Y-62902000D01*
X57314000Y-62867000D01*
X57271000Y-62830000D01*
X57229000Y-62791000D01*
X57190000Y-62749000D01*
X57153000Y-62706000D01*
X57118000Y-62661000D01*
X57086000Y-62614000D01*
X57056000Y-62565000D01*
X57029000Y-62515000D01*
X57004000Y-62463000D01*
X56982000Y-62411000D01*
X56963000Y-62357000D01*
X56947000Y-62302000D01*
X56934000Y-62247000D01*
X56923000Y-62191000D01*
X56916000Y-62134000D01*
X56911000Y-62077000D01*
X56910000Y-62020000D01*
X56911000Y-61963000D01*
X56916000Y-61906000D01*
X56923000Y-61849000D01*
X56934000Y-61793000D01*
X56947000Y-61738000D01*
X56963000Y-61683000D01*
X56982000Y-61629000D01*
X57004000Y-61577000D01*
X57029000Y-61525000D01*
X57056000Y-61475000D01*
X57086000Y-61426000D01*
X57118000Y-61379000D01*
X57153000Y-61334000D01*
X57190000Y-61291000D01*
X57229000Y-61249000D01*
X57271000Y-61210000D01*
X57314000Y-61173000D01*
X57359000Y-61138000D01*
X57406000Y-61106000D01*
X57455000Y-61076000D01*
X57505000Y-61049000D01*
X57557000Y-61024000D01*
X57609000Y-61002000D01*
X57663000Y-60983000D01*
X57718000Y-60967000D01*
X57773000Y-60954000D01*
X57829000Y-60943000D01*
X57886000Y-60936000D01*
X57943000Y-60931000D01*
X58000000Y-60930000D01*
X58000000Y-61490000D01*
G36*
X58000000Y-61490000D02*
G01*
X57972000Y-61491000D01*
X57945000Y-61493000D01*
X57917000Y-61497000D01*
X57890000Y-61502000D01*
X57863000Y-61508000D01*
X57836000Y-61516000D01*
X57810000Y-61525000D01*
X57784000Y-61536000D01*
X57759000Y-61548000D01*
X57735000Y-61561000D01*
X57711000Y-61576000D01*
X57688000Y-61591000D01*
X57666000Y-61608000D01*
X57645000Y-61626000D01*
X57625000Y-61645000D01*
X57606000Y-61665000D01*
X57588000Y-61686000D01*
X57571000Y-61708000D01*
X57556000Y-61731000D01*
X57541000Y-61755000D01*
X57528000Y-61779000D01*
X57516000Y-61804000D01*
X57505000Y-61830000D01*
X57496000Y-61856000D01*
X57488000Y-61883000D01*
X57482000Y-61910000D01*
X57477000Y-61937000D01*
X57473000Y-61965000D01*
X57471000Y-61992000D01*
X57470000Y-62020000D01*
X57471000Y-62048000D01*
X57473000Y-62075000D01*
X57477000Y-62103000D01*
X57482000Y-62130000D01*
X57488000Y-62157000D01*
X57496000Y-62184000D01*
X57505000Y-62210000D01*
X57516000Y-62236000D01*
X57528000Y-62261000D01*
X57541000Y-62285000D01*
X57556000Y-62309000D01*
X57571000Y-62332000D01*
X57588000Y-62354000D01*
X57606000Y-62375000D01*
X57625000Y-62395000D01*
X57645000Y-62414000D01*
X57666000Y-62432000D01*
X57688000Y-62449000D01*
X57711000Y-62464000D01*
X57735000Y-62479000D01*
X57759000Y-62492000D01*
X57784000Y-62504000D01*
X57810000Y-62515000D01*
X57836000Y-62524000D01*
X57863000Y-62532000D01*
X57890000Y-62538000D01*
X57917000Y-62543000D01*
X57945000Y-62547000D01*
X57972000Y-62549000D01*
X58000000Y-62550000D01*
X58000000Y-63110000D01*
X57943000Y-63109000D01*
X57886000Y-63104000D01*
X57829000Y-63097000D01*
X57773000Y-63086000D01*
X57718000Y-63073000D01*
X57663000Y-63057000D01*
X57609000Y-63038000D01*
X57557000Y-63016000D01*
X57505000Y-62991000D01*
X57455000Y-62964000D01*
X57406000Y-62934000D01*
X57359000Y-62902000D01*
X57314000Y-62867000D01*
X57271000Y-62830000D01*
X57229000Y-62791000D01*
X57190000Y-62749000D01*
X57153000Y-62706000D01*
X57118000Y-62661000D01*
X57086000Y-62614000D01*
X57056000Y-62565000D01*
X57029000Y-62515000D01*
X57004000Y-62463000D01*
X56982000Y-62411000D01*
X56963000Y-62357000D01*
X56947000Y-62302000D01*
X56934000Y-62247000D01*
X56923000Y-62191000D01*
X56916000Y-62134000D01*
X56911000Y-62077000D01*
X56910000Y-62020000D01*
X56911000Y-61963000D01*
X56916000Y-61906000D01*
X56923000Y-61849000D01*
X56934000Y-61793000D01*
X56947000Y-61738000D01*
X56963000Y-61683000D01*
X56982000Y-61629000D01*
X57004000Y-61577000D01*
X57029000Y-61525000D01*
X57056000Y-61475000D01*
X57086000Y-61426000D01*
X57118000Y-61379000D01*
X57153000Y-61334000D01*
X57190000Y-61291000D01*
X57229000Y-61249000D01*
X57271000Y-61210000D01*
X57314000Y-61173000D01*
X57359000Y-61138000D01*
X57406000Y-61106000D01*
X57455000Y-61076000D01*
X57505000Y-61049000D01*
X57557000Y-61024000D01*
X57609000Y-61002000D01*
X57663000Y-60983000D01*
X57718000Y-60967000D01*
X57773000Y-60954000D01*
X57829000Y-60943000D01*
X57886000Y-60936000D01*
X57943000Y-60931000D01*
X58000000Y-60930000D01*
X58000000Y-61490000D01*
G37*
%TO.C,MK8*%
X148552000Y-60931000D02*
X148609000Y-60936000D01*
X148666000Y-60943000D01*
X148722000Y-60954000D01*
X148777000Y-60967000D01*
X148832000Y-60983000D01*
X148886000Y-61002000D01*
X148938000Y-61024000D01*
X148990000Y-61049000D01*
X149040000Y-61076000D01*
X149089000Y-61106000D01*
X149136000Y-61138000D01*
X149181000Y-61173000D01*
X149224000Y-61210000D01*
X149266000Y-61249000D01*
X149305000Y-61291000D01*
X149342000Y-61334000D01*
X149377000Y-61379000D01*
X149409000Y-61426000D01*
X149439000Y-61475000D01*
X149466000Y-61525000D01*
X149491000Y-61577000D01*
X149513000Y-61629000D01*
X149532000Y-61683000D01*
X149548000Y-61738000D01*
X149561000Y-61793000D01*
X149572000Y-61849000D01*
X149579000Y-61906000D01*
X149584000Y-61963000D01*
X149585000Y-62020000D01*
X149584000Y-62077000D01*
X149579000Y-62134000D01*
X149572000Y-62191000D01*
X149561000Y-62247000D01*
X149548000Y-62302000D01*
X149532000Y-62357000D01*
X149513000Y-62411000D01*
X149491000Y-62463000D01*
X149466000Y-62515000D01*
X149439000Y-62565000D01*
X149409000Y-62614000D01*
X149377000Y-62661000D01*
X149342000Y-62706000D01*
X149305000Y-62749000D01*
X149266000Y-62791000D01*
X149224000Y-62830000D01*
X149181000Y-62867000D01*
X149136000Y-62902000D01*
X149089000Y-62934000D01*
X149040000Y-62964000D01*
X148990000Y-62991000D01*
X148938000Y-63016000D01*
X148886000Y-63038000D01*
X148832000Y-63057000D01*
X148777000Y-63073000D01*
X148722000Y-63086000D01*
X148666000Y-63097000D01*
X148609000Y-63104000D01*
X148552000Y-63109000D01*
X148495000Y-63110000D01*
X148495000Y-62550000D01*
X148523000Y-62549000D01*
X148550000Y-62547000D01*
X148578000Y-62543000D01*
X148605000Y-62538000D01*
X148632000Y-62532000D01*
X148659000Y-62524000D01*
X148685000Y-62515000D01*
X148711000Y-62504000D01*
X148736000Y-62492000D01*
X148760000Y-62479000D01*
X148784000Y-62464000D01*
X148807000Y-62449000D01*
X148829000Y-62432000D01*
X148850000Y-62414000D01*
X148870000Y-62395000D01*
X148889000Y-62375000D01*
X148907000Y-62354000D01*
X148924000Y-62332000D01*
X148939000Y-62309000D01*
X148954000Y-62285000D01*
X148967000Y-62261000D01*
X148979000Y-62236000D01*
X148990000Y-62210000D01*
X148999000Y-62184000D01*
X149007000Y-62157000D01*
X149013000Y-62130000D01*
X149018000Y-62103000D01*
X149022000Y-62075000D01*
X149024000Y-62048000D01*
X149025000Y-62020000D01*
X149024000Y-61992000D01*
X149022000Y-61965000D01*
X149018000Y-61937000D01*
X149013000Y-61910000D01*
X149007000Y-61883000D01*
X148999000Y-61856000D01*
X148990000Y-61830000D01*
X148979000Y-61804000D01*
X148967000Y-61779000D01*
X148954000Y-61755000D01*
X148939000Y-61731000D01*
X148924000Y-61708000D01*
X148907000Y-61686000D01*
X148889000Y-61665000D01*
X148870000Y-61645000D01*
X148850000Y-61626000D01*
X148829000Y-61608000D01*
X148807000Y-61591000D01*
X148784000Y-61576000D01*
X148760000Y-61561000D01*
X148736000Y-61548000D01*
X148711000Y-61536000D01*
X148685000Y-61525000D01*
X148659000Y-61516000D01*
X148632000Y-61508000D01*
X148605000Y-61502000D01*
X148578000Y-61497000D01*
X148550000Y-61493000D01*
X148523000Y-61491000D01*
X148495000Y-61490000D01*
X148495000Y-60930000D01*
X148552000Y-60931000D01*
G36*
X148552000Y-60931000D02*
G01*
X148609000Y-60936000D01*
X148666000Y-60943000D01*
X148722000Y-60954000D01*
X148777000Y-60967000D01*
X148832000Y-60983000D01*
X148886000Y-61002000D01*
X148938000Y-61024000D01*
X148990000Y-61049000D01*
X149040000Y-61076000D01*
X149089000Y-61106000D01*
X149136000Y-61138000D01*
X149181000Y-61173000D01*
X149224000Y-61210000D01*
X149266000Y-61249000D01*
X149305000Y-61291000D01*
X149342000Y-61334000D01*
X149377000Y-61379000D01*
X149409000Y-61426000D01*
X149439000Y-61475000D01*
X149466000Y-61525000D01*
X149491000Y-61577000D01*
X149513000Y-61629000D01*
X149532000Y-61683000D01*
X149548000Y-61738000D01*
X149561000Y-61793000D01*
X149572000Y-61849000D01*
X149579000Y-61906000D01*
X149584000Y-61963000D01*
X149585000Y-62020000D01*
X149584000Y-62077000D01*
X149579000Y-62134000D01*
X149572000Y-62191000D01*
X149561000Y-62247000D01*
X149548000Y-62302000D01*
X149532000Y-62357000D01*
X149513000Y-62411000D01*
X149491000Y-62463000D01*
X149466000Y-62515000D01*
X149439000Y-62565000D01*
X149409000Y-62614000D01*
X149377000Y-62661000D01*
X149342000Y-62706000D01*
X149305000Y-62749000D01*
X149266000Y-62791000D01*
X149224000Y-62830000D01*
X149181000Y-62867000D01*
X149136000Y-62902000D01*
X149089000Y-62934000D01*
X149040000Y-62964000D01*
X148990000Y-62991000D01*
X148938000Y-63016000D01*
X148886000Y-63038000D01*
X148832000Y-63057000D01*
X148777000Y-63073000D01*
X148722000Y-63086000D01*
X148666000Y-63097000D01*
X148609000Y-63104000D01*
X148552000Y-63109000D01*
X148495000Y-63110000D01*
X148495000Y-62550000D01*
X148523000Y-62549000D01*
X148550000Y-62547000D01*
X148578000Y-62543000D01*
X148605000Y-62538000D01*
X148632000Y-62532000D01*
X148659000Y-62524000D01*
X148685000Y-62515000D01*
X148711000Y-62504000D01*
X148736000Y-62492000D01*
X148760000Y-62479000D01*
X148784000Y-62464000D01*
X148807000Y-62449000D01*
X148829000Y-62432000D01*
X148850000Y-62414000D01*
X148870000Y-62395000D01*
X148889000Y-62375000D01*
X148907000Y-62354000D01*
X148924000Y-62332000D01*
X148939000Y-62309000D01*
X148954000Y-62285000D01*
X148967000Y-62261000D01*
X148979000Y-62236000D01*
X148990000Y-62210000D01*
X148999000Y-62184000D01*
X149007000Y-62157000D01*
X149013000Y-62130000D01*
X149018000Y-62103000D01*
X149022000Y-62075000D01*
X149024000Y-62048000D01*
X149025000Y-62020000D01*
X149024000Y-61992000D01*
X149022000Y-61965000D01*
X149018000Y-61937000D01*
X149013000Y-61910000D01*
X149007000Y-61883000D01*
X148999000Y-61856000D01*
X148990000Y-61830000D01*
X148979000Y-61804000D01*
X148967000Y-61779000D01*
X148954000Y-61755000D01*
X148939000Y-61731000D01*
X148924000Y-61708000D01*
X148907000Y-61686000D01*
X148889000Y-61665000D01*
X148870000Y-61645000D01*
X148850000Y-61626000D01*
X148829000Y-61608000D01*
X148807000Y-61591000D01*
X148784000Y-61576000D01*
X148760000Y-61561000D01*
X148736000Y-61548000D01*
X148711000Y-61536000D01*
X148685000Y-61525000D01*
X148659000Y-61516000D01*
X148632000Y-61508000D01*
X148605000Y-61502000D01*
X148578000Y-61497000D01*
X148550000Y-61493000D01*
X148523000Y-61491000D01*
X148495000Y-61490000D01*
X148495000Y-60930000D01*
X148552000Y-60931000D01*
G37*
X148495000Y-61490000D02*
X148467000Y-61491000D01*
X148440000Y-61493000D01*
X148412000Y-61497000D01*
X148385000Y-61502000D01*
X148358000Y-61508000D01*
X148331000Y-61516000D01*
X148305000Y-61525000D01*
X148279000Y-61536000D01*
X148254000Y-61548000D01*
X148230000Y-61561000D01*
X148206000Y-61576000D01*
X148183000Y-61591000D01*
X148161000Y-61608000D01*
X148140000Y-61626000D01*
X148120000Y-61645000D01*
X148101000Y-61665000D01*
X148083000Y-61686000D01*
X148066000Y-61708000D01*
X148051000Y-61731000D01*
X148036000Y-61755000D01*
X148023000Y-61779000D01*
X148011000Y-61804000D01*
X148000000Y-61830000D01*
X147991000Y-61856000D01*
X147983000Y-61883000D01*
X147977000Y-61910000D01*
X147972000Y-61937000D01*
X147968000Y-61965000D01*
X147966000Y-61992000D01*
X147965000Y-62020000D01*
X147966000Y-62048000D01*
X147968000Y-62075000D01*
X147972000Y-62103000D01*
X147977000Y-62130000D01*
X147983000Y-62157000D01*
X147991000Y-62184000D01*
X148000000Y-62210000D01*
X148011000Y-62236000D01*
X148023000Y-62261000D01*
X148036000Y-62285000D01*
X148051000Y-62309000D01*
X148066000Y-62332000D01*
X148083000Y-62354000D01*
X148101000Y-62375000D01*
X148120000Y-62395000D01*
X148140000Y-62414000D01*
X148161000Y-62432000D01*
X148183000Y-62449000D01*
X148206000Y-62464000D01*
X148230000Y-62479000D01*
X148254000Y-62492000D01*
X148279000Y-62504000D01*
X148305000Y-62515000D01*
X148331000Y-62524000D01*
X148358000Y-62532000D01*
X148385000Y-62538000D01*
X148412000Y-62543000D01*
X148440000Y-62547000D01*
X148467000Y-62549000D01*
X148495000Y-62550000D01*
X148495000Y-63110000D01*
X148438000Y-63109000D01*
X148381000Y-63104000D01*
X148324000Y-63097000D01*
X148268000Y-63086000D01*
X148213000Y-63073000D01*
X148158000Y-63057000D01*
X148104000Y-63038000D01*
X148052000Y-63016000D01*
X148000000Y-62991000D01*
X147950000Y-62964000D01*
X147901000Y-62934000D01*
X147854000Y-62902000D01*
X147809000Y-62867000D01*
X147766000Y-62830000D01*
X147724000Y-62791000D01*
X147685000Y-62749000D01*
X147648000Y-62706000D01*
X147613000Y-62661000D01*
X147581000Y-62614000D01*
X147551000Y-62565000D01*
X147524000Y-62515000D01*
X147499000Y-62463000D01*
X147477000Y-62411000D01*
X147458000Y-62357000D01*
X147442000Y-62302000D01*
X147429000Y-62247000D01*
X147418000Y-62191000D01*
X147411000Y-62134000D01*
X147406000Y-62077000D01*
X147405000Y-62020000D01*
X147406000Y-61963000D01*
X147411000Y-61906000D01*
X147418000Y-61849000D01*
X147429000Y-61793000D01*
X147442000Y-61738000D01*
X147458000Y-61683000D01*
X147477000Y-61629000D01*
X147499000Y-61577000D01*
X147524000Y-61525000D01*
X147551000Y-61475000D01*
X147581000Y-61426000D01*
X147613000Y-61379000D01*
X147648000Y-61334000D01*
X147685000Y-61291000D01*
X147724000Y-61249000D01*
X147766000Y-61210000D01*
X147809000Y-61173000D01*
X147854000Y-61138000D01*
X147901000Y-61106000D01*
X147950000Y-61076000D01*
X148000000Y-61049000D01*
X148052000Y-61024000D01*
X148104000Y-61002000D01*
X148158000Y-60983000D01*
X148213000Y-60967000D01*
X148268000Y-60954000D01*
X148324000Y-60943000D01*
X148381000Y-60936000D01*
X148438000Y-60931000D01*
X148495000Y-60930000D01*
X148495000Y-61490000D01*
G36*
X148495000Y-61490000D02*
G01*
X148467000Y-61491000D01*
X148440000Y-61493000D01*
X148412000Y-61497000D01*
X148385000Y-61502000D01*
X148358000Y-61508000D01*
X148331000Y-61516000D01*
X148305000Y-61525000D01*
X148279000Y-61536000D01*
X148254000Y-61548000D01*
X148230000Y-61561000D01*
X148206000Y-61576000D01*
X148183000Y-61591000D01*
X148161000Y-61608000D01*
X148140000Y-61626000D01*
X148120000Y-61645000D01*
X148101000Y-61665000D01*
X148083000Y-61686000D01*
X148066000Y-61708000D01*
X148051000Y-61731000D01*
X148036000Y-61755000D01*
X148023000Y-61779000D01*
X148011000Y-61804000D01*
X148000000Y-61830000D01*
X147991000Y-61856000D01*
X147983000Y-61883000D01*
X147977000Y-61910000D01*
X147972000Y-61937000D01*
X147968000Y-61965000D01*
X147966000Y-61992000D01*
X147965000Y-62020000D01*
X147966000Y-62048000D01*
X147968000Y-62075000D01*
X147972000Y-62103000D01*
X147977000Y-62130000D01*
X147983000Y-62157000D01*
X147991000Y-62184000D01*
X148000000Y-62210000D01*
X148011000Y-62236000D01*
X148023000Y-62261000D01*
X148036000Y-62285000D01*
X148051000Y-62309000D01*
X148066000Y-62332000D01*
X148083000Y-62354000D01*
X148101000Y-62375000D01*
X148120000Y-62395000D01*
X148140000Y-62414000D01*
X148161000Y-62432000D01*
X148183000Y-62449000D01*
X148206000Y-62464000D01*
X148230000Y-62479000D01*
X148254000Y-62492000D01*
X148279000Y-62504000D01*
X148305000Y-62515000D01*
X148331000Y-62524000D01*
X148358000Y-62532000D01*
X148385000Y-62538000D01*
X148412000Y-62543000D01*
X148440000Y-62547000D01*
X148467000Y-62549000D01*
X148495000Y-62550000D01*
X148495000Y-63110000D01*
X148438000Y-63109000D01*
X148381000Y-63104000D01*
X148324000Y-63097000D01*
X148268000Y-63086000D01*
X148213000Y-63073000D01*
X148158000Y-63057000D01*
X148104000Y-63038000D01*
X148052000Y-63016000D01*
X148000000Y-62991000D01*
X147950000Y-62964000D01*
X147901000Y-62934000D01*
X147854000Y-62902000D01*
X147809000Y-62867000D01*
X147766000Y-62830000D01*
X147724000Y-62791000D01*
X147685000Y-62749000D01*
X147648000Y-62706000D01*
X147613000Y-62661000D01*
X147581000Y-62614000D01*
X147551000Y-62565000D01*
X147524000Y-62515000D01*
X147499000Y-62463000D01*
X147477000Y-62411000D01*
X147458000Y-62357000D01*
X147442000Y-62302000D01*
X147429000Y-62247000D01*
X147418000Y-62191000D01*
X147411000Y-62134000D01*
X147406000Y-62077000D01*
X147405000Y-62020000D01*
X147406000Y-61963000D01*
X147411000Y-61906000D01*
X147418000Y-61849000D01*
X147429000Y-61793000D01*
X147442000Y-61738000D01*
X147458000Y-61683000D01*
X147477000Y-61629000D01*
X147499000Y-61577000D01*
X147524000Y-61525000D01*
X147551000Y-61475000D01*
X147581000Y-61426000D01*
X147613000Y-61379000D01*
X147648000Y-61334000D01*
X147685000Y-61291000D01*
X147724000Y-61249000D01*
X147766000Y-61210000D01*
X147809000Y-61173000D01*
X147854000Y-61138000D01*
X147901000Y-61106000D01*
X147950000Y-61076000D01*
X148000000Y-61049000D01*
X148052000Y-61024000D01*
X148104000Y-61002000D01*
X148158000Y-60983000D01*
X148213000Y-60967000D01*
X148268000Y-60954000D01*
X148324000Y-60943000D01*
X148381000Y-60936000D01*
X148438000Y-60931000D01*
X148495000Y-60930000D01*
X148495000Y-61490000D01*
G37*
%TO.C,MK3*%
X58057000Y-242911000D02*
X58114000Y-242916000D01*
X58171000Y-242923000D01*
X58227000Y-242934000D01*
X58282000Y-242947000D01*
X58337000Y-242963000D01*
X58391000Y-242982000D01*
X58443000Y-243004000D01*
X58495000Y-243029000D01*
X58545000Y-243056000D01*
X58594000Y-243086000D01*
X58641000Y-243118000D01*
X58686000Y-243153000D01*
X58729000Y-243190000D01*
X58771000Y-243229000D01*
X58810000Y-243271000D01*
X58847000Y-243314000D01*
X58882000Y-243359000D01*
X58914000Y-243406000D01*
X58944000Y-243455000D01*
X58971000Y-243505000D01*
X58996000Y-243557000D01*
X59018000Y-243609000D01*
X59037000Y-243663000D01*
X59053000Y-243718000D01*
X59066000Y-243773000D01*
X59077000Y-243829000D01*
X59084000Y-243886000D01*
X59089000Y-243943000D01*
X59090000Y-244000000D01*
X59089000Y-244057000D01*
X59084000Y-244114000D01*
X59077000Y-244171000D01*
X59066000Y-244227000D01*
X59053000Y-244282000D01*
X59037000Y-244337000D01*
X59018000Y-244391000D01*
X58996000Y-244443000D01*
X58971000Y-244495000D01*
X58944000Y-244545000D01*
X58914000Y-244594000D01*
X58882000Y-244641000D01*
X58847000Y-244686000D01*
X58810000Y-244729000D01*
X58771000Y-244771000D01*
X58729000Y-244810000D01*
X58686000Y-244847000D01*
X58641000Y-244882000D01*
X58594000Y-244914000D01*
X58545000Y-244944000D01*
X58495000Y-244971000D01*
X58443000Y-244996000D01*
X58391000Y-245018000D01*
X58337000Y-245037000D01*
X58282000Y-245053000D01*
X58227000Y-245066000D01*
X58171000Y-245077000D01*
X58114000Y-245084000D01*
X58057000Y-245089000D01*
X58000000Y-245090000D01*
X58000000Y-244530000D01*
X58028000Y-244529000D01*
X58055000Y-244527000D01*
X58083000Y-244523000D01*
X58110000Y-244518000D01*
X58137000Y-244512000D01*
X58164000Y-244504000D01*
X58190000Y-244495000D01*
X58216000Y-244484000D01*
X58241000Y-244472000D01*
X58265000Y-244459000D01*
X58289000Y-244444000D01*
X58312000Y-244429000D01*
X58334000Y-244412000D01*
X58355000Y-244394000D01*
X58375000Y-244375000D01*
X58394000Y-244355000D01*
X58412000Y-244334000D01*
X58429000Y-244312000D01*
X58444000Y-244289000D01*
X58459000Y-244265000D01*
X58472000Y-244241000D01*
X58484000Y-244216000D01*
X58495000Y-244190000D01*
X58504000Y-244164000D01*
X58512000Y-244137000D01*
X58518000Y-244110000D01*
X58523000Y-244083000D01*
X58527000Y-244055000D01*
X58529000Y-244028000D01*
X58530000Y-244000000D01*
X58529000Y-243972000D01*
X58527000Y-243945000D01*
X58523000Y-243917000D01*
X58518000Y-243890000D01*
X58512000Y-243863000D01*
X58504000Y-243836000D01*
X58495000Y-243810000D01*
X58484000Y-243784000D01*
X58472000Y-243759000D01*
X58459000Y-243735000D01*
X58444000Y-243711000D01*
X58429000Y-243688000D01*
X58412000Y-243666000D01*
X58394000Y-243645000D01*
X58375000Y-243625000D01*
X58355000Y-243606000D01*
X58334000Y-243588000D01*
X58312000Y-243571000D01*
X58289000Y-243556000D01*
X58265000Y-243541000D01*
X58241000Y-243528000D01*
X58216000Y-243516000D01*
X58190000Y-243505000D01*
X58164000Y-243496000D01*
X58137000Y-243488000D01*
X58110000Y-243482000D01*
X58083000Y-243477000D01*
X58055000Y-243473000D01*
X58028000Y-243471000D01*
X58000000Y-243470000D01*
X58000000Y-242910000D01*
X58057000Y-242911000D01*
G36*
X58057000Y-242911000D02*
G01*
X58114000Y-242916000D01*
X58171000Y-242923000D01*
X58227000Y-242934000D01*
X58282000Y-242947000D01*
X58337000Y-242963000D01*
X58391000Y-242982000D01*
X58443000Y-243004000D01*
X58495000Y-243029000D01*
X58545000Y-243056000D01*
X58594000Y-243086000D01*
X58641000Y-243118000D01*
X58686000Y-243153000D01*
X58729000Y-243190000D01*
X58771000Y-243229000D01*
X58810000Y-243271000D01*
X58847000Y-243314000D01*
X58882000Y-243359000D01*
X58914000Y-243406000D01*
X58944000Y-243455000D01*
X58971000Y-243505000D01*
X58996000Y-243557000D01*
X59018000Y-243609000D01*
X59037000Y-243663000D01*
X59053000Y-243718000D01*
X59066000Y-243773000D01*
X59077000Y-243829000D01*
X59084000Y-243886000D01*
X59089000Y-243943000D01*
X59090000Y-244000000D01*
X59089000Y-244057000D01*
X59084000Y-244114000D01*
X59077000Y-244171000D01*
X59066000Y-244227000D01*
X59053000Y-244282000D01*
X59037000Y-244337000D01*
X59018000Y-244391000D01*
X58996000Y-244443000D01*
X58971000Y-244495000D01*
X58944000Y-244545000D01*
X58914000Y-244594000D01*
X58882000Y-244641000D01*
X58847000Y-244686000D01*
X58810000Y-244729000D01*
X58771000Y-244771000D01*
X58729000Y-244810000D01*
X58686000Y-244847000D01*
X58641000Y-244882000D01*
X58594000Y-244914000D01*
X58545000Y-244944000D01*
X58495000Y-244971000D01*
X58443000Y-244996000D01*
X58391000Y-245018000D01*
X58337000Y-245037000D01*
X58282000Y-245053000D01*
X58227000Y-245066000D01*
X58171000Y-245077000D01*
X58114000Y-245084000D01*
X58057000Y-245089000D01*
X58000000Y-245090000D01*
X58000000Y-244530000D01*
X58028000Y-244529000D01*
X58055000Y-244527000D01*
X58083000Y-244523000D01*
X58110000Y-244518000D01*
X58137000Y-244512000D01*
X58164000Y-244504000D01*
X58190000Y-244495000D01*
X58216000Y-244484000D01*
X58241000Y-244472000D01*
X58265000Y-244459000D01*
X58289000Y-244444000D01*
X58312000Y-244429000D01*
X58334000Y-244412000D01*
X58355000Y-244394000D01*
X58375000Y-244375000D01*
X58394000Y-244355000D01*
X58412000Y-244334000D01*
X58429000Y-244312000D01*
X58444000Y-244289000D01*
X58459000Y-244265000D01*
X58472000Y-244241000D01*
X58484000Y-244216000D01*
X58495000Y-244190000D01*
X58504000Y-244164000D01*
X58512000Y-244137000D01*
X58518000Y-244110000D01*
X58523000Y-244083000D01*
X58527000Y-244055000D01*
X58529000Y-244028000D01*
X58530000Y-244000000D01*
X58529000Y-243972000D01*
X58527000Y-243945000D01*
X58523000Y-243917000D01*
X58518000Y-243890000D01*
X58512000Y-243863000D01*
X58504000Y-243836000D01*
X58495000Y-243810000D01*
X58484000Y-243784000D01*
X58472000Y-243759000D01*
X58459000Y-243735000D01*
X58444000Y-243711000D01*
X58429000Y-243688000D01*
X58412000Y-243666000D01*
X58394000Y-243645000D01*
X58375000Y-243625000D01*
X58355000Y-243606000D01*
X58334000Y-243588000D01*
X58312000Y-243571000D01*
X58289000Y-243556000D01*
X58265000Y-243541000D01*
X58241000Y-243528000D01*
X58216000Y-243516000D01*
X58190000Y-243505000D01*
X58164000Y-243496000D01*
X58137000Y-243488000D01*
X58110000Y-243482000D01*
X58083000Y-243477000D01*
X58055000Y-243473000D01*
X58028000Y-243471000D01*
X58000000Y-243470000D01*
X58000000Y-242910000D01*
X58057000Y-242911000D01*
G37*
X58000000Y-243470000D02*
X57972000Y-243471000D01*
X57945000Y-243473000D01*
X57917000Y-243477000D01*
X57890000Y-243482000D01*
X57863000Y-243488000D01*
X57836000Y-243496000D01*
X57810000Y-243505000D01*
X57784000Y-243516000D01*
X57759000Y-243528000D01*
X57735000Y-243541000D01*
X57711000Y-243556000D01*
X57688000Y-243571000D01*
X57666000Y-243588000D01*
X57645000Y-243606000D01*
X57625000Y-243625000D01*
X57606000Y-243645000D01*
X57588000Y-243666000D01*
X57571000Y-243688000D01*
X57556000Y-243711000D01*
X57541000Y-243735000D01*
X57528000Y-243759000D01*
X57516000Y-243784000D01*
X57505000Y-243810000D01*
X57496000Y-243836000D01*
X57488000Y-243863000D01*
X57482000Y-243890000D01*
X57477000Y-243917000D01*
X57473000Y-243945000D01*
X57471000Y-243972000D01*
X57470000Y-244000000D01*
X57471000Y-244028000D01*
X57473000Y-244055000D01*
X57477000Y-244083000D01*
X57482000Y-244110000D01*
X57488000Y-244137000D01*
X57496000Y-244164000D01*
X57505000Y-244190000D01*
X57516000Y-244216000D01*
X57528000Y-244241000D01*
X57541000Y-244265000D01*
X57556000Y-244289000D01*
X57571000Y-244312000D01*
X57588000Y-244334000D01*
X57606000Y-244355000D01*
X57625000Y-244375000D01*
X57645000Y-244394000D01*
X57666000Y-244412000D01*
X57688000Y-244429000D01*
X57711000Y-244444000D01*
X57735000Y-244459000D01*
X57759000Y-244472000D01*
X57784000Y-244484000D01*
X57810000Y-244495000D01*
X57836000Y-244504000D01*
X57863000Y-244512000D01*
X57890000Y-244518000D01*
X57917000Y-244523000D01*
X57945000Y-244527000D01*
X57972000Y-244529000D01*
X58000000Y-244530000D01*
X58000000Y-245090000D01*
X57943000Y-245089000D01*
X57886000Y-245084000D01*
X57829000Y-245077000D01*
X57773000Y-245066000D01*
X57718000Y-245053000D01*
X57663000Y-245037000D01*
X57609000Y-245018000D01*
X57557000Y-244996000D01*
X57505000Y-244971000D01*
X57455000Y-244944000D01*
X57406000Y-244914000D01*
X57359000Y-244882000D01*
X57314000Y-244847000D01*
X57271000Y-244810000D01*
X57229000Y-244771000D01*
X57190000Y-244729000D01*
X57153000Y-244686000D01*
X57118000Y-244641000D01*
X57086000Y-244594000D01*
X57056000Y-244545000D01*
X57029000Y-244495000D01*
X57004000Y-244443000D01*
X56982000Y-244391000D01*
X56963000Y-244337000D01*
X56947000Y-244282000D01*
X56934000Y-244227000D01*
X56923000Y-244171000D01*
X56916000Y-244114000D01*
X56911000Y-244057000D01*
X56910000Y-244000000D01*
X56911000Y-243943000D01*
X56916000Y-243886000D01*
X56923000Y-243829000D01*
X56934000Y-243773000D01*
X56947000Y-243718000D01*
X56963000Y-243663000D01*
X56982000Y-243609000D01*
X57004000Y-243557000D01*
X57029000Y-243505000D01*
X57056000Y-243455000D01*
X57086000Y-243406000D01*
X57118000Y-243359000D01*
X57153000Y-243314000D01*
X57190000Y-243271000D01*
X57229000Y-243229000D01*
X57271000Y-243190000D01*
X57314000Y-243153000D01*
X57359000Y-243118000D01*
X57406000Y-243086000D01*
X57455000Y-243056000D01*
X57505000Y-243029000D01*
X57557000Y-243004000D01*
X57609000Y-242982000D01*
X57663000Y-242963000D01*
X57718000Y-242947000D01*
X57773000Y-242934000D01*
X57829000Y-242923000D01*
X57886000Y-242916000D01*
X57943000Y-242911000D01*
X58000000Y-242910000D01*
X58000000Y-243470000D01*
G36*
X58000000Y-243470000D02*
G01*
X57972000Y-243471000D01*
X57945000Y-243473000D01*
X57917000Y-243477000D01*
X57890000Y-243482000D01*
X57863000Y-243488000D01*
X57836000Y-243496000D01*
X57810000Y-243505000D01*
X57784000Y-243516000D01*
X57759000Y-243528000D01*
X57735000Y-243541000D01*
X57711000Y-243556000D01*
X57688000Y-243571000D01*
X57666000Y-243588000D01*
X57645000Y-243606000D01*
X57625000Y-243625000D01*
X57606000Y-243645000D01*
X57588000Y-243666000D01*
X57571000Y-243688000D01*
X57556000Y-243711000D01*
X57541000Y-243735000D01*
X57528000Y-243759000D01*
X57516000Y-243784000D01*
X57505000Y-243810000D01*
X57496000Y-243836000D01*
X57488000Y-243863000D01*
X57482000Y-243890000D01*
X57477000Y-243917000D01*
X57473000Y-243945000D01*
X57471000Y-243972000D01*
X57470000Y-244000000D01*
X57471000Y-244028000D01*
X57473000Y-244055000D01*
X57477000Y-244083000D01*
X57482000Y-244110000D01*
X57488000Y-244137000D01*
X57496000Y-244164000D01*
X57505000Y-244190000D01*
X57516000Y-244216000D01*
X57528000Y-244241000D01*
X57541000Y-244265000D01*
X57556000Y-244289000D01*
X57571000Y-244312000D01*
X57588000Y-244334000D01*
X57606000Y-244355000D01*
X57625000Y-244375000D01*
X57645000Y-244394000D01*
X57666000Y-244412000D01*
X57688000Y-244429000D01*
X57711000Y-244444000D01*
X57735000Y-244459000D01*
X57759000Y-244472000D01*
X57784000Y-244484000D01*
X57810000Y-244495000D01*
X57836000Y-244504000D01*
X57863000Y-244512000D01*
X57890000Y-244518000D01*
X57917000Y-244523000D01*
X57945000Y-244527000D01*
X57972000Y-244529000D01*
X58000000Y-244530000D01*
X58000000Y-245090000D01*
X57943000Y-245089000D01*
X57886000Y-245084000D01*
X57829000Y-245077000D01*
X57773000Y-245066000D01*
X57718000Y-245053000D01*
X57663000Y-245037000D01*
X57609000Y-245018000D01*
X57557000Y-244996000D01*
X57505000Y-244971000D01*
X57455000Y-244944000D01*
X57406000Y-244914000D01*
X57359000Y-244882000D01*
X57314000Y-244847000D01*
X57271000Y-244810000D01*
X57229000Y-244771000D01*
X57190000Y-244729000D01*
X57153000Y-244686000D01*
X57118000Y-244641000D01*
X57086000Y-244594000D01*
X57056000Y-244545000D01*
X57029000Y-244495000D01*
X57004000Y-244443000D01*
X56982000Y-244391000D01*
X56963000Y-244337000D01*
X56947000Y-244282000D01*
X56934000Y-244227000D01*
X56923000Y-244171000D01*
X56916000Y-244114000D01*
X56911000Y-244057000D01*
X56910000Y-244000000D01*
X56911000Y-243943000D01*
X56916000Y-243886000D01*
X56923000Y-243829000D01*
X56934000Y-243773000D01*
X56947000Y-243718000D01*
X56963000Y-243663000D01*
X56982000Y-243609000D01*
X57004000Y-243557000D01*
X57029000Y-243505000D01*
X57056000Y-243455000D01*
X57086000Y-243406000D01*
X57118000Y-243359000D01*
X57153000Y-243314000D01*
X57190000Y-243271000D01*
X57229000Y-243229000D01*
X57271000Y-243190000D01*
X57314000Y-243153000D01*
X57359000Y-243118000D01*
X57406000Y-243086000D01*
X57455000Y-243056000D01*
X57505000Y-243029000D01*
X57557000Y-243004000D01*
X57609000Y-242982000D01*
X57663000Y-242963000D01*
X57718000Y-242947000D01*
X57773000Y-242934000D01*
X57829000Y-242923000D01*
X57886000Y-242916000D01*
X57943000Y-242911000D01*
X58000000Y-242910000D01*
X58000000Y-243470000D01*
G37*
%TD*%
D11*
%TO.C,J7*%
X192460000Y-171540000D03*
D12*
X195000000Y-171540000D03*
X192460000Y-169000000D03*
X195000000Y-169000000D03*
X192460000Y-166460000D03*
X195000000Y-166460000D03*
X192460000Y-163920000D03*
X195000000Y-163920000D03*
X192460000Y-161380000D03*
X195000000Y-161380000D03*
X192460000Y-158840000D03*
X195000000Y-158840000D03*
X192460000Y-156300000D03*
X195000000Y-156300000D03*
X192460000Y-153760000D03*
X195000000Y-153760000D03*
X192460000Y-151220000D03*
X195000000Y-151220000D03*
X192460000Y-148680000D03*
X195000000Y-148680000D03*
X192460000Y-146140000D03*
X195000000Y-146140000D03*
X192460000Y-143600000D03*
X195000000Y-143600000D03*
X192460000Y-141060000D03*
X195000000Y-141060000D03*
X192460000Y-138520000D03*
X195000000Y-138520000D03*
X192460000Y-135980000D03*
X195000000Y-135980000D03*
X192460000Y-133440000D03*
X195000000Y-133440000D03*
X192460000Y-130900000D03*
X195000000Y-130900000D03*
X192460000Y-128360000D03*
X195000000Y-128360000D03*
%TD*%
D11*
%TO.C,J1*%
X126420000Y-176620000D03*
D12*
X128960000Y-176620000D03*
X131500000Y-176620000D03*
X134040000Y-176620000D03*
X136580000Y-176620000D03*
X139120000Y-176620000D03*
X141660000Y-176620000D03*
X144200000Y-176620000D03*
%TD*%
D11*
%TO.C,J3*%
X149280000Y-176620000D03*
D12*
X151820000Y-176620000D03*
X154360000Y-176620000D03*
X156900000Y-176620000D03*
X159440000Y-176620000D03*
X161980000Y-176620000D03*
X164520000Y-176620000D03*
X167060000Y-176620000D03*
%TD*%
D11*
%TO.C,J5*%
X172140000Y-176620000D03*
D12*
X174680000Y-176620000D03*
X177220000Y-176620000D03*
X179760000Y-176620000D03*
D13*
X182300000Y-176620000D03*
D12*
X184840000Y-176620000D03*
X187380000Y-176620000D03*
X189920000Y-176620000D03*
%TD*%
D11*
%TO.C,J2*%
X117276000Y-128360000D03*
D12*
X119816000Y-128360000D03*
X122356000Y-128360000D03*
X124896000Y-128360000D03*
X127436000Y-128360000D03*
X129976000Y-128360000D03*
X132516000Y-128360000D03*
X135056000Y-128360000D03*
X137596000Y-128360000D03*
X140136000Y-128360000D03*
%TD*%
D11*
%TO.C,J4*%
X144200000Y-128360000D03*
D12*
X146740000Y-128360000D03*
X149280000Y-128360000D03*
X151820000Y-128360000D03*
X154360000Y-128360000D03*
X156900000Y-128360000D03*
X159440000Y-128360000D03*
X161980000Y-128360000D03*
%TD*%
D11*
%TO.C,J6*%
X167060000Y-128360000D03*
D12*
X169600000Y-128360000D03*
X172140000Y-128360000D03*
X174680000Y-128360000D03*
X177220000Y-128360000D03*
X179760000Y-128360000D03*
X182300000Y-128360000D03*
X184840000Y-128360000D03*
%TD*%
D11*
%TO.C,J17*%
X148690000Y-141300000D03*
D12*
X146150000Y-141300000D03*
X143610000Y-141300000D03*
%TD*%
D14*
%TO.C,J10*%
X107370000Y-139160000D03*
D15*
X101570000Y-139160000D03*
D16*
X104370000Y-143960000D03*
%TD*%
D17*
%TO.C,MH6*%
X195000000Y-176620000D03*
%TD*%
D11*
%TO.C,J9*%
X139750000Y-160360000D03*
D12*
X139750000Y-162900000D03*
X139750000Y-165440000D03*
X139750000Y-167980000D03*
%TD*%
D11*
%TO.C,J19*%
X125960000Y-133250000D03*
D12*
X123420000Y-133250000D03*
X120880000Y-133250000D03*
%TD*%
D18*
%TO.C,LS2*%
X181910000Y-157510000D03*
X181910000Y-147510000D03*
%TD*%
D11*
%TO.C,J12*%
X168750000Y-161100000D03*
D12*
X166210000Y-161100000D03*
X163670000Y-161100000D03*
X161130000Y-161100000D03*
%TD*%
D11*
%TO.C,J18*%
X111780000Y-133590000D03*
D12*
X114320000Y-133590000D03*
X116860000Y-133590000D03*
%TD*%
D17*
%TO.C,MH1*%
X113720000Y-128360000D03*
%TD*%
D11*
%TO.C,J20*%
X181900000Y-163890000D03*
D12*
X181900000Y-166430000D03*
X181900000Y-168970000D03*
X181900000Y-171510000D03*
%TD*%
D11*
%TO.C,J8*%
X188040000Y-140640000D03*
D12*
X188040000Y-138100000D03*
X188040000Y-135560000D03*
%TD*%
D18*
%TO.C,LS1*%
X148390000Y-147510000D03*
X148390000Y-157510000D03*
%TD*%
D11*
%TO.C,J14*%
X116750000Y-175035000D03*
D12*
X116750000Y-177575000D03*
%TD*%
D11*
%TO.C,J16*%
X121180000Y-175025000D03*
D12*
X121180000Y-177565000D03*
%TD*%
D11*
%TO.C,J11*%
X139430000Y-134190000D03*
D12*
X139430000Y-136730000D03*
X139430000Y-139270000D03*
X139430000Y-141810000D03*
%TD*%
D11*
%TO.C,J13*%
X111350000Y-140555000D03*
D12*
X111350000Y-138015000D03*
%TD*%
D11*
%TO.C,J15*%
X100705000Y-148160000D03*
D12*
X103245000Y-148160000D03*
%TD*%
D17*
%TO.C,MH2*%
X112450000Y-176620000D03*
%TD*%
%TO.C,MH5*%
X188650000Y-128360000D03*
%TD*%
D19*
%TO.C,C71*%
X221300000Y-149650000D03*
X221300000Y-151550000D03*
%TD*%
D20*
%TO.C,R43*%
X236400000Y-238212500D03*
X236400000Y-236387500D03*
%TD*%
D21*
%TO.C,C20*%
X102322000Y-223165200D03*
X104222000Y-223165200D03*
%TD*%
D20*
%TO.C,R10*%
X144700000Y-236512500D03*
X144700000Y-234687500D03*
%TD*%
D22*
%TO.C,R13*%
X108700000Y-231087500D03*
X108700000Y-232912500D03*
%TD*%
D23*
%TO.C,MK5*%
X239005000Y-243935000D03*
D24*
X238155000Y-241755000D03*
X238155000Y-242455000D03*
X239855000Y-241755000D03*
X239855000Y-242455000D03*
%TD*%
D23*
%TO.C,MK6*%
X238980000Y-152450000D03*
D25*
X236800000Y-153300000D03*
X237500000Y-153300000D03*
X236800000Y-151600000D03*
X237500000Y-151600000D03*
%TD*%
D26*
%TO.C,C68*%
X242000000Y-232050000D03*
X242000000Y-230150000D03*
%TD*%
D20*
%TO.C,R41*%
X118440000Y-142272500D03*
X118440000Y-140447500D03*
%TD*%
D27*
%TO.C,R4*%
X65687500Y-68200000D03*
X67512500Y-68200000D03*
%TD*%
D19*
%TO.C,C1*%
X52900000Y-242250000D03*
X52900000Y-244150000D03*
%TD*%
%TO.C,C69*%
X228400000Y-154050000D03*
X228400000Y-155950000D03*
%TD*%
D28*
%TO.C,R7*%
X74412500Y-110500000D03*
X72587500Y-110500000D03*
%TD*%
D19*
%TO.C,C14*%
X68000000Y-104372000D03*
X68000000Y-106272000D03*
%TD*%
D23*
%TO.C,MK4*%
X148505000Y-243980000D03*
D24*
X147655000Y-241800000D03*
X147655000Y-242500000D03*
X149355000Y-241800000D03*
X149355000Y-242500000D03*
%TD*%
D28*
%TO.C,R45*%
X233012500Y-158000000D03*
X231187500Y-158000000D03*
%TD*%
D19*
%TO.C,C56*%
X115070000Y-170280000D03*
X115070000Y-172180000D03*
%TD*%
D29*
%TO.C,C79*%
X194950000Y-71000000D03*
X193050000Y-71000000D03*
%TD*%
D26*
%TO.C,C66*%
X235400000Y-232050000D03*
X235400000Y-230150000D03*
%TD*%
%TO.C,C9*%
X63400000Y-233450000D03*
X63400000Y-231550000D03*
%TD*%
D27*
%TO.C,R6*%
X65187500Y-153200000D03*
X67012500Y-153200000D03*
%TD*%
D19*
%TO.C,C19*%
X233600000Y-242450000D03*
X233600000Y-244350000D03*
%TD*%
D30*
%TO.C,U1*%
X72504600Y-103544000D03*
X73139600Y-103544000D03*
X73800000Y-103544000D03*
X74435000Y-103544000D03*
D31*
X75247800Y-104356800D03*
X75247800Y-104991800D03*
X75247800Y-105652200D03*
X75247800Y-106287200D03*
D30*
X74435000Y-107100000D03*
X73800000Y-107100000D03*
X73139600Y-107100000D03*
X72504600Y-107100000D03*
D31*
X71691800Y-106287200D03*
X71691800Y-105652200D03*
X71691800Y-104991800D03*
X71691800Y-104356800D03*
%TD*%
D21*
%TO.C,C59*%
X237350000Y-157000000D03*
X239250000Y-157000000D03*
%TD*%
%TO.C,C74*%
X233450000Y-72700000D03*
X235350000Y-72700000D03*
%TD*%
D29*
%TO.C,C31*%
X72250000Y-73000000D03*
X70350000Y-73000000D03*
%TD*%
D22*
%TO.C,R40*%
X115730000Y-137117500D03*
X115730000Y-138942500D03*
%TD*%
D19*
%TO.C,C57*%
X112140000Y-170240000D03*
X112140000Y-172140000D03*
%TD*%
D21*
%TO.C,C8*%
X120130000Y-159990000D03*
X122030000Y-159990000D03*
%TD*%
%TO.C,C12*%
X67050000Y-142700000D03*
X68950000Y-142700000D03*
%TD*%
D32*
%TO.C,U10*%
X195900000Y-75969600D03*
X195900000Y-76604600D03*
X195900000Y-77265000D03*
X195900000Y-77900000D03*
D33*
X195087200Y-78712800D03*
X194452200Y-78712800D03*
X193791800Y-78712800D03*
X193156800Y-78712800D03*
D32*
X192344000Y-77900000D03*
X192344000Y-77265000D03*
X192344000Y-76604600D03*
X192344000Y-75969600D03*
D33*
X193156800Y-75156800D03*
X193791800Y-75156800D03*
X194452200Y-75156800D03*
X195087200Y-75156800D03*
%TD*%
D29*
%TO.C,C72*%
X243250000Y-72700000D03*
X241350000Y-72700000D03*
%TD*%
D26*
%TO.C,C78*%
X240000000Y-197050000D03*
X240000000Y-195150000D03*
%TD*%
D19*
%TO.C,C2*%
X143400000Y-242450000D03*
X143400000Y-244350000D03*
%TD*%
D20*
%TO.C,R12*%
X97200000Y-233312500D03*
X97200000Y-231487500D03*
%TD*%
D26*
%TO.C,C60*%
X243900000Y-63450000D03*
X243900000Y-61550000D03*
%TD*%
D29*
%TO.C,C70*%
X223950000Y-161600000D03*
X222050000Y-161600000D03*
%TD*%
D22*
%TO.C,R50*%
X147500000Y-67587500D03*
X147500000Y-69412500D03*
%TD*%
D26*
%TO.C,C18*%
X150000000Y-231750000D03*
X150000000Y-229850000D03*
%TD*%
D19*
%TO.C,C29*%
X71300000Y-151550000D03*
X71300000Y-153450000D03*
%TD*%
D29*
%TO.C,C13*%
X80750000Y-80700000D03*
X78850000Y-80700000D03*
%TD*%
D34*
%TO.C,U12*%
X108655000Y-154565000D03*
X108655000Y-153425000D03*
D35*
X114955000Y-152285000D03*
D34*
X108655000Y-151145000D03*
X108655000Y-150005000D03*
%TD*%
D22*
%TO.C,R47*%
X241000000Y-67587500D03*
X241000000Y-69412500D03*
%TD*%
D20*
%TO.C,R54*%
X188100000Y-77812500D03*
X188100000Y-75987500D03*
%TD*%
D26*
%TO.C,C73*%
X238700000Y-77050000D03*
X238700000Y-75150000D03*
%TD*%
D23*
%TO.C,MK2*%
X58020000Y-152500000D03*
D25*
X60200000Y-151650000D03*
X59500000Y-151650000D03*
X60200000Y-153350000D03*
X59500000Y-153350000D03*
%TD*%
D22*
%TO.C,R42*%
X122330000Y-137367500D03*
X122330000Y-139192500D03*
%TD*%
D23*
%TO.C,MK7*%
X239000000Y-61975000D03*
D24*
X239850000Y-64155000D03*
X239850000Y-63455000D03*
X238150000Y-64155000D03*
X238150000Y-63455000D03*
%TD*%
D27*
%TO.C,R52*%
X230987500Y-191000000D03*
X232812500Y-191000000D03*
%TD*%
D26*
%TO.C,C28*%
X71300000Y-149050000D03*
X71300000Y-147150000D03*
%TD*%
D29*
%TO.C,C11*%
X59550000Y-146300000D03*
X57650000Y-146300000D03*
%TD*%
D19*
%TO.C,C6*%
X71400000Y-229850000D03*
X71400000Y-231750000D03*
%TD*%
D36*
%TO.C,U3*%
X122117500Y-161960000D03*
X122117500Y-162910000D03*
X122117500Y-163860000D03*
X119842500Y-163860000D03*
X119842500Y-162910000D03*
X119842500Y-161960000D03*
%TD*%
D19*
%TO.C,C75*%
X151300000Y-72850000D03*
X151300000Y-74750000D03*
%TD*%
D20*
%TO.C,R11*%
X152200000Y-236712500D03*
X152200000Y-234887500D03*
%TD*%
D27*
%TO.C,R3*%
X65087500Y-147200000D03*
X66912500Y-147200000D03*
%TD*%
D19*
%TO.C,C76*%
X152000000Y-77450000D03*
X152000000Y-79350000D03*
%TD*%
D26*
%TO.C,C17*%
X144800000Y-227250000D03*
X144800000Y-225350000D03*
%TD*%
D19*
%TO.C,C77*%
X147400000Y-72750000D03*
X147400000Y-74650000D03*
%TD*%
D20*
%TO.C,R8*%
X57200000Y-237912500D03*
X57200000Y-236087500D03*
%TD*%
D37*
%TO.C,U9*%
X233000000Y-197856000D03*
X232365000Y-197856000D03*
X231704600Y-197856000D03*
X231069600Y-197856000D03*
D38*
X230256800Y-197043200D03*
X230256800Y-196408200D03*
X230256800Y-195747800D03*
X230256800Y-195112800D03*
D37*
X231069600Y-194300000D03*
X231704600Y-194300000D03*
X232365000Y-194300000D03*
X233000000Y-194300000D03*
D38*
X233812800Y-195112800D03*
X233812800Y-195747800D03*
X233812800Y-196408200D03*
X233812800Y-197043200D03*
%TD*%
D22*
%TO.C,R53*%
X202400000Y-75687500D03*
X202400000Y-77512500D03*
%TD*%
D39*
%TO.C,U13*%
X112180000Y-160360000D03*
X114480000Y-160360000D03*
D40*
X114480000Y-166660000D03*
D39*
X116780000Y-160360000D03*
%TD*%
D27*
%TO.C,R2*%
X72487500Y-100500000D03*
X74312500Y-100500000D03*
%TD*%
D22*
%TO.C,R48*%
X237400000Y-67587500D03*
X237400000Y-69412500D03*
%TD*%
D20*
%TO.C,R9*%
X64200000Y-237712500D03*
X64200000Y-235887500D03*
%TD*%
%TO.C,R44*%
X239900000Y-238112500D03*
X239900000Y-236287500D03*
%TD*%
D26*
%TO.C,C30*%
X72200000Y-70150000D03*
X72200000Y-68250000D03*
%TD*%
%TO.C,C16*%
X146900000Y-231750000D03*
X146900000Y-229850000D03*
%TD*%
%TO.C,C65*%
X154400000Y-63850000D03*
X154400000Y-61950000D03*
%TD*%
D29*
%TO.C,C7*%
X121930000Y-166150000D03*
X120030000Y-166150000D03*
%TD*%
D22*
%TO.C,R49*%
X151300000Y-67487500D03*
X151300000Y-69312500D03*
%TD*%
D26*
%TO.C,C5*%
X60000000Y-233450000D03*
X60000000Y-231550000D03*
%TD*%
D21*
%TO.C,C67*%
X237850000Y-226700000D03*
X239750000Y-226700000D03*
%TD*%
D23*
%TO.C,MK1*%
X58000000Y-62020000D03*
D24*
X58850000Y-64200000D03*
X58850000Y-63500000D03*
X57150000Y-64200000D03*
X57150000Y-63500000D03*
%TD*%
D28*
%TO.C,R51*%
X233112500Y-201600000D03*
X231287500Y-201600000D03*
%TD*%
D27*
%TO.C,R5*%
X65787500Y-73000000D03*
X67612500Y-73000000D03*
%TD*%
D26*
%TO.C,C10*%
X64100000Y-63650000D03*
X64100000Y-61750000D03*
%TD*%
D41*
%TO.C,U2*%
X101422000Y-233065200D03*
X101422000Y-232430200D03*
X101422000Y-231769800D03*
X101422000Y-231134800D03*
D42*
X102234800Y-230322000D03*
X102869800Y-230322000D03*
X103530200Y-230322000D03*
X104165200Y-230322000D03*
D41*
X104978000Y-231134800D03*
X104978000Y-231769800D03*
X104978000Y-232430200D03*
X104978000Y-233065200D03*
D42*
X104165200Y-233878000D03*
X103530200Y-233878000D03*
X102869800Y-233878000D03*
X102234800Y-233878000D03*
%TD*%
D23*
%TO.C,MK8*%
X148495000Y-62020000D03*
D24*
X149345000Y-64200000D03*
X149345000Y-63500000D03*
X147645000Y-64200000D03*
X147645000Y-63500000D03*
%TD*%
D23*
%TO.C,MK3*%
X58000000Y-244000000D03*
D24*
X57150000Y-241820000D03*
X57150000Y-242520000D03*
X58850000Y-241820000D03*
X58850000Y-242520000D03*
%TD*%
D28*
%TO.C,R46*%
X229312500Y-151600000D03*
X227487500Y-151600000D03*
%TD*%
M02*
