%TF.GenerationSoftware,KiCad,Pcbnew,8.0.9*%
%TF.CreationDate,2025-04-11T10:25:08+02:00*%
%TF.ProjectId,Ultrasound shield_8mic,556c7472-6173-46f7-956e-642073686965,rev?*%
%TF.SameCoordinates,Original*%
%TF.FileFunction,Legend,Bot*%
%TF.FilePolarity,Positive*%
%FSLAX46Y46*%
G04 Gerber Fmt 4.6, Leading zero omitted, Abs format (unit mm)*
G04 Created by KiCad (PCBNEW 8.0.9) date 2025-04-11 10:25:08*
%MOMM*%
%LPD*%
G01*
G04 APERTURE LIST*
%ADD10C,0.150000*%
%ADD11C,0.120000*%
%ADD12C,0.127000*%
%ADD13C,0.200000*%
%ADD14C,0.152400*%
G04 APERTURE END LIST*
D10*
X219979580Y-149957142D02*
X220027200Y-149909523D01*
X220027200Y-149909523D02*
X220074819Y-149766666D01*
X220074819Y-149766666D02*
X220074819Y-149671428D01*
X220074819Y-149671428D02*
X220027200Y-149528571D01*
X220027200Y-149528571D02*
X219931961Y-149433333D01*
X219931961Y-149433333D02*
X219836723Y-149385714D01*
X219836723Y-149385714D02*
X219646247Y-149338095D01*
X219646247Y-149338095D02*
X219503390Y-149338095D01*
X219503390Y-149338095D02*
X219312914Y-149385714D01*
X219312914Y-149385714D02*
X219217676Y-149433333D01*
X219217676Y-149433333D02*
X219122438Y-149528571D01*
X219122438Y-149528571D02*
X219074819Y-149671428D01*
X219074819Y-149671428D02*
X219074819Y-149766666D01*
X219074819Y-149766666D02*
X219122438Y-149909523D01*
X219122438Y-149909523D02*
X219170057Y-149957142D01*
X219074819Y-150290476D02*
X219074819Y-150957142D01*
X219074819Y-150957142D02*
X220074819Y-150528571D01*
X220074819Y-151861904D02*
X220074819Y-151290476D01*
X220074819Y-151576190D02*
X219074819Y-151576190D01*
X219074819Y-151576190D02*
X219217676Y-151480952D01*
X219217676Y-151480952D02*
X219312914Y-151385714D01*
X219312914Y-151385714D02*
X219360533Y-151290476D01*
X234642857Y-237654819D02*
X234976190Y-237178628D01*
X235214285Y-237654819D02*
X235214285Y-236654819D01*
X235214285Y-236654819D02*
X234833333Y-236654819D01*
X234833333Y-236654819D02*
X234738095Y-236702438D01*
X234738095Y-236702438D02*
X234690476Y-236750057D01*
X234690476Y-236750057D02*
X234642857Y-236845295D01*
X234642857Y-236845295D02*
X234642857Y-236988152D01*
X234642857Y-236988152D02*
X234690476Y-237083390D01*
X234690476Y-237083390D02*
X234738095Y-237131009D01*
X234738095Y-237131009D02*
X234833333Y-237178628D01*
X234833333Y-237178628D02*
X235214285Y-237178628D01*
X233785714Y-236988152D02*
X233785714Y-237654819D01*
X234023809Y-236607200D02*
X234261904Y-237321485D01*
X234261904Y-237321485D02*
X233642857Y-237321485D01*
X233357142Y-236654819D02*
X232738095Y-236654819D01*
X232738095Y-236654819D02*
X233071428Y-237035771D01*
X233071428Y-237035771D02*
X232928571Y-237035771D01*
X232928571Y-237035771D02*
X232833333Y-237083390D01*
X232833333Y-237083390D02*
X232785714Y-237131009D01*
X232785714Y-237131009D02*
X232738095Y-237226247D01*
X232738095Y-237226247D02*
X232738095Y-237464342D01*
X232738095Y-237464342D02*
X232785714Y-237559580D01*
X232785714Y-237559580D02*
X232833333Y-237607200D01*
X232833333Y-237607200D02*
X232928571Y-237654819D01*
X232928571Y-237654819D02*
X233214285Y-237654819D01*
X233214285Y-237654819D02*
X233309523Y-237607200D01*
X233309523Y-237607200D02*
X233357142Y-237559580D01*
X103914857Y-225204780D02*
X103962476Y-225252400D01*
X103962476Y-225252400D02*
X104105333Y-225300019D01*
X104105333Y-225300019D02*
X104200571Y-225300019D01*
X104200571Y-225300019D02*
X104343428Y-225252400D01*
X104343428Y-225252400D02*
X104438666Y-225157161D01*
X104438666Y-225157161D02*
X104486285Y-225061923D01*
X104486285Y-225061923D02*
X104533904Y-224871447D01*
X104533904Y-224871447D02*
X104533904Y-224728590D01*
X104533904Y-224728590D02*
X104486285Y-224538114D01*
X104486285Y-224538114D02*
X104438666Y-224442876D01*
X104438666Y-224442876D02*
X104343428Y-224347638D01*
X104343428Y-224347638D02*
X104200571Y-224300019D01*
X104200571Y-224300019D02*
X104105333Y-224300019D01*
X104105333Y-224300019D02*
X103962476Y-224347638D01*
X103962476Y-224347638D02*
X103914857Y-224395257D01*
X103533904Y-224395257D02*
X103486285Y-224347638D01*
X103486285Y-224347638D02*
X103391047Y-224300019D01*
X103391047Y-224300019D02*
X103152952Y-224300019D01*
X103152952Y-224300019D02*
X103057714Y-224347638D01*
X103057714Y-224347638D02*
X103010095Y-224395257D01*
X103010095Y-224395257D02*
X102962476Y-224490495D01*
X102962476Y-224490495D02*
X102962476Y-224585733D01*
X102962476Y-224585733D02*
X103010095Y-224728590D01*
X103010095Y-224728590D02*
X103581523Y-225300019D01*
X103581523Y-225300019D02*
X102962476Y-225300019D01*
X102343428Y-224300019D02*
X102248190Y-224300019D01*
X102248190Y-224300019D02*
X102152952Y-224347638D01*
X102152952Y-224347638D02*
X102105333Y-224395257D01*
X102105333Y-224395257D02*
X102057714Y-224490495D01*
X102057714Y-224490495D02*
X102010095Y-224680971D01*
X102010095Y-224680971D02*
X102010095Y-224919066D01*
X102010095Y-224919066D02*
X102057714Y-225109542D01*
X102057714Y-225109542D02*
X102105333Y-225204780D01*
X102105333Y-225204780D02*
X102152952Y-225252400D01*
X102152952Y-225252400D02*
X102248190Y-225300019D01*
X102248190Y-225300019D02*
X102343428Y-225300019D01*
X102343428Y-225300019D02*
X102438666Y-225252400D01*
X102438666Y-225252400D02*
X102486285Y-225204780D01*
X102486285Y-225204780D02*
X102533904Y-225109542D01*
X102533904Y-225109542D02*
X102581523Y-224919066D01*
X102581523Y-224919066D02*
X102581523Y-224680971D01*
X102581523Y-224680971D02*
X102533904Y-224490495D01*
X102533904Y-224490495D02*
X102486285Y-224395257D01*
X102486285Y-224395257D02*
X102438666Y-224347638D01*
X102438666Y-224347638D02*
X102343428Y-224300019D01*
X143254819Y-235057142D02*
X142778628Y-234723809D01*
X143254819Y-234485714D02*
X142254819Y-234485714D01*
X142254819Y-234485714D02*
X142254819Y-234866666D01*
X142254819Y-234866666D02*
X142302438Y-234961904D01*
X142302438Y-234961904D02*
X142350057Y-235009523D01*
X142350057Y-235009523D02*
X142445295Y-235057142D01*
X142445295Y-235057142D02*
X142588152Y-235057142D01*
X142588152Y-235057142D02*
X142683390Y-235009523D01*
X142683390Y-235009523D02*
X142731009Y-234961904D01*
X142731009Y-234961904D02*
X142778628Y-234866666D01*
X142778628Y-234866666D02*
X142778628Y-234485714D01*
X143254819Y-236009523D02*
X143254819Y-235438095D01*
X143254819Y-235723809D02*
X142254819Y-235723809D01*
X142254819Y-235723809D02*
X142397676Y-235628571D01*
X142397676Y-235628571D02*
X142492914Y-235533333D01*
X142492914Y-235533333D02*
X142540533Y-235438095D01*
X142254819Y-236628571D02*
X142254819Y-236723809D01*
X142254819Y-236723809D02*
X142302438Y-236819047D01*
X142302438Y-236819047D02*
X142350057Y-236866666D01*
X142350057Y-236866666D02*
X142445295Y-236914285D01*
X142445295Y-236914285D02*
X142635771Y-236961904D01*
X142635771Y-236961904D02*
X142873866Y-236961904D01*
X142873866Y-236961904D02*
X143064342Y-236914285D01*
X143064342Y-236914285D02*
X143159580Y-236866666D01*
X143159580Y-236866666D02*
X143207200Y-236819047D01*
X143207200Y-236819047D02*
X143254819Y-236723809D01*
X143254819Y-236723809D02*
X143254819Y-236628571D01*
X143254819Y-236628571D02*
X143207200Y-236533333D01*
X143207200Y-236533333D02*
X143159580Y-236485714D01*
X143159580Y-236485714D02*
X143064342Y-236438095D01*
X143064342Y-236438095D02*
X142873866Y-236390476D01*
X142873866Y-236390476D02*
X142635771Y-236390476D01*
X142635771Y-236390476D02*
X142445295Y-236438095D01*
X142445295Y-236438095D02*
X142350057Y-236485714D01*
X142350057Y-236485714D02*
X142302438Y-236533333D01*
X142302438Y-236533333D02*
X142254819Y-236628571D01*
X111454819Y-231357142D02*
X110978628Y-231023809D01*
X111454819Y-230785714D02*
X110454819Y-230785714D01*
X110454819Y-230785714D02*
X110454819Y-231166666D01*
X110454819Y-231166666D02*
X110502438Y-231261904D01*
X110502438Y-231261904D02*
X110550057Y-231309523D01*
X110550057Y-231309523D02*
X110645295Y-231357142D01*
X110645295Y-231357142D02*
X110788152Y-231357142D01*
X110788152Y-231357142D02*
X110883390Y-231309523D01*
X110883390Y-231309523D02*
X110931009Y-231261904D01*
X110931009Y-231261904D02*
X110978628Y-231166666D01*
X110978628Y-231166666D02*
X110978628Y-230785714D01*
X111454819Y-232309523D02*
X111454819Y-231738095D01*
X111454819Y-232023809D02*
X110454819Y-232023809D01*
X110454819Y-232023809D02*
X110597676Y-231928571D01*
X110597676Y-231928571D02*
X110692914Y-231833333D01*
X110692914Y-231833333D02*
X110740533Y-231738095D01*
X110454819Y-232642857D02*
X110454819Y-233261904D01*
X110454819Y-233261904D02*
X110835771Y-232928571D01*
X110835771Y-232928571D02*
X110835771Y-233071428D01*
X110835771Y-233071428D02*
X110883390Y-233166666D01*
X110883390Y-233166666D02*
X110931009Y-233214285D01*
X110931009Y-233214285D02*
X111026247Y-233261904D01*
X111026247Y-233261904D02*
X111264342Y-233261904D01*
X111264342Y-233261904D02*
X111359580Y-233214285D01*
X111359580Y-233214285D02*
X111407200Y-233166666D01*
X111407200Y-233166666D02*
X111454819Y-233071428D01*
X111454819Y-233071428D02*
X111454819Y-232785714D01*
X111454819Y-232785714D02*
X111407200Y-232690476D01*
X111407200Y-232690476D02*
X111359580Y-232642857D01*
D11*
X239628571Y-247025069D02*
X239628571Y-246525069D01*
X239628571Y-246525069D02*
X239468571Y-246882212D01*
X239468571Y-246882212D02*
X239308571Y-246525069D01*
X239308571Y-246525069D02*
X239308571Y-247025069D01*
X239080000Y-247025069D02*
X239080000Y-246525069D01*
X238805714Y-247025069D02*
X239011428Y-246739355D01*
X238805714Y-246525069D02*
X239080000Y-246810783D01*
X238371428Y-246525069D02*
X238600000Y-246525069D01*
X238600000Y-246525069D02*
X238622857Y-246763164D01*
X238622857Y-246763164D02*
X238600000Y-246739355D01*
X238600000Y-246739355D02*
X238554286Y-246715545D01*
X238554286Y-246715545D02*
X238440000Y-246715545D01*
X238440000Y-246715545D02*
X238394286Y-246739355D01*
X238394286Y-246739355D02*
X238371428Y-246763164D01*
X238371428Y-246763164D02*
X238348571Y-246810783D01*
X238348571Y-246810783D02*
X238348571Y-246929831D01*
X238348571Y-246929831D02*
X238371428Y-246977450D01*
X238371428Y-246977450D02*
X238394286Y-247001260D01*
X238394286Y-247001260D02*
X238440000Y-247025069D01*
X238440000Y-247025069D02*
X238554286Y-247025069D01*
X238554286Y-247025069D02*
X238600000Y-247001260D01*
X238600000Y-247001260D02*
X238622857Y-246977450D01*
X235761017Y-151595428D02*
X235281017Y-151595428D01*
X235281017Y-151595428D02*
X235623874Y-151755428D01*
X235623874Y-151755428D02*
X235281017Y-151915428D01*
X235281017Y-151915428D02*
X235761017Y-151915428D01*
X235761017Y-152143999D02*
X235281017Y-152143999D01*
X235761017Y-152418285D02*
X235486731Y-152212571D01*
X235281017Y-152418285D02*
X235555302Y-152143999D01*
X235281017Y-152829714D02*
X235281017Y-152738285D01*
X235281017Y-152738285D02*
X235303874Y-152692571D01*
X235303874Y-152692571D02*
X235326731Y-152669714D01*
X235326731Y-152669714D02*
X235395302Y-152623999D01*
X235395302Y-152623999D02*
X235486731Y-152601142D01*
X235486731Y-152601142D02*
X235669588Y-152601142D01*
X235669588Y-152601142D02*
X235715302Y-152623999D01*
X235715302Y-152623999D02*
X235738160Y-152646856D01*
X235738160Y-152646856D02*
X235761017Y-152692571D01*
X235761017Y-152692571D02*
X235761017Y-152783999D01*
X235761017Y-152783999D02*
X235738160Y-152829714D01*
X235738160Y-152829714D02*
X235715302Y-152852571D01*
X235715302Y-152852571D02*
X235669588Y-152875428D01*
X235669588Y-152875428D02*
X235555302Y-152875428D01*
X235555302Y-152875428D02*
X235509588Y-152852571D01*
X235509588Y-152852571D02*
X235486731Y-152829714D01*
X235486731Y-152829714D02*
X235463874Y-152783999D01*
X235463874Y-152783999D02*
X235463874Y-152692571D01*
X235463874Y-152692571D02*
X235486731Y-152646856D01*
X235486731Y-152646856D02*
X235509588Y-152623999D01*
X235509588Y-152623999D02*
X235555302Y-152601142D01*
D10*
X244559580Y-230457142D02*
X244607200Y-230409523D01*
X244607200Y-230409523D02*
X244654819Y-230266666D01*
X244654819Y-230266666D02*
X244654819Y-230171428D01*
X244654819Y-230171428D02*
X244607200Y-230028571D01*
X244607200Y-230028571D02*
X244511961Y-229933333D01*
X244511961Y-229933333D02*
X244416723Y-229885714D01*
X244416723Y-229885714D02*
X244226247Y-229838095D01*
X244226247Y-229838095D02*
X244083390Y-229838095D01*
X244083390Y-229838095D02*
X243892914Y-229885714D01*
X243892914Y-229885714D02*
X243797676Y-229933333D01*
X243797676Y-229933333D02*
X243702438Y-230028571D01*
X243702438Y-230028571D02*
X243654819Y-230171428D01*
X243654819Y-230171428D02*
X243654819Y-230266666D01*
X243654819Y-230266666D02*
X243702438Y-230409523D01*
X243702438Y-230409523D02*
X243750057Y-230457142D01*
X243654819Y-231314285D02*
X243654819Y-231123809D01*
X243654819Y-231123809D02*
X243702438Y-231028571D01*
X243702438Y-231028571D02*
X243750057Y-230980952D01*
X243750057Y-230980952D02*
X243892914Y-230885714D01*
X243892914Y-230885714D02*
X244083390Y-230838095D01*
X244083390Y-230838095D02*
X244464342Y-230838095D01*
X244464342Y-230838095D02*
X244559580Y-230885714D01*
X244559580Y-230885714D02*
X244607200Y-230933333D01*
X244607200Y-230933333D02*
X244654819Y-231028571D01*
X244654819Y-231028571D02*
X244654819Y-231219047D01*
X244654819Y-231219047D02*
X244607200Y-231314285D01*
X244607200Y-231314285D02*
X244559580Y-231361904D01*
X244559580Y-231361904D02*
X244464342Y-231409523D01*
X244464342Y-231409523D02*
X244226247Y-231409523D01*
X244226247Y-231409523D02*
X244131009Y-231361904D01*
X244131009Y-231361904D02*
X244083390Y-231314285D01*
X244083390Y-231314285D02*
X244035771Y-231219047D01*
X244035771Y-231219047D02*
X244035771Y-231028571D01*
X244035771Y-231028571D02*
X244083390Y-230933333D01*
X244083390Y-230933333D02*
X244131009Y-230885714D01*
X244131009Y-230885714D02*
X244226247Y-230838095D01*
X244083390Y-231980952D02*
X244035771Y-231885714D01*
X244035771Y-231885714D02*
X243988152Y-231838095D01*
X243988152Y-231838095D02*
X243892914Y-231790476D01*
X243892914Y-231790476D02*
X243845295Y-231790476D01*
X243845295Y-231790476D02*
X243750057Y-231838095D01*
X243750057Y-231838095D02*
X243702438Y-231885714D01*
X243702438Y-231885714D02*
X243654819Y-231980952D01*
X243654819Y-231980952D02*
X243654819Y-232171428D01*
X243654819Y-232171428D02*
X243702438Y-232266666D01*
X243702438Y-232266666D02*
X243750057Y-232314285D01*
X243750057Y-232314285D02*
X243845295Y-232361904D01*
X243845295Y-232361904D02*
X243892914Y-232361904D01*
X243892914Y-232361904D02*
X243988152Y-232314285D01*
X243988152Y-232314285D02*
X244035771Y-232266666D01*
X244035771Y-232266666D02*
X244083390Y-232171428D01*
X244083390Y-232171428D02*
X244083390Y-231980952D01*
X244083390Y-231980952D02*
X244131009Y-231885714D01*
X244131009Y-231885714D02*
X244178628Y-231838095D01*
X244178628Y-231838095D02*
X244273866Y-231790476D01*
X244273866Y-231790476D02*
X244464342Y-231790476D01*
X244464342Y-231790476D02*
X244559580Y-231838095D01*
X244559580Y-231838095D02*
X244607200Y-231885714D01*
X244607200Y-231885714D02*
X244654819Y-231980952D01*
X244654819Y-231980952D02*
X244654819Y-232171428D01*
X244654819Y-232171428D02*
X244607200Y-232266666D01*
X244607200Y-232266666D02*
X244559580Y-232314285D01*
X244559580Y-232314285D02*
X244464342Y-232361904D01*
X244464342Y-232361904D02*
X244273866Y-232361904D01*
X244273866Y-232361904D02*
X244178628Y-232314285D01*
X244178628Y-232314285D02*
X244131009Y-232266666D01*
X244131009Y-232266666D02*
X244083390Y-232171428D01*
X120446033Y-141979999D02*
X120112700Y-141746666D01*
X120446033Y-141579999D02*
X119746033Y-141579999D01*
X119746033Y-141579999D02*
X119746033Y-141846666D01*
X119746033Y-141846666D02*
X119779366Y-141913333D01*
X119779366Y-141913333D02*
X119812700Y-141946666D01*
X119812700Y-141946666D02*
X119879366Y-141979999D01*
X119879366Y-141979999D02*
X119979366Y-141979999D01*
X119979366Y-141979999D02*
X120046033Y-141946666D01*
X120046033Y-141946666D02*
X120079366Y-141913333D01*
X120079366Y-141913333D02*
X120112700Y-141846666D01*
X120112700Y-141846666D02*
X120112700Y-141579999D01*
X119979366Y-142579999D02*
X120446033Y-142579999D01*
X119712700Y-142413333D02*
X120212700Y-142246666D01*
X120212700Y-142246666D02*
X120212700Y-142679999D01*
X120446033Y-143313333D02*
X120446033Y-142913333D01*
X120446033Y-143113333D02*
X119746033Y-143113333D01*
X119746033Y-143113333D02*
X119846033Y-143046666D01*
X119846033Y-143046666D02*
X119912700Y-142980000D01*
X119912700Y-142980000D02*
X119946033Y-142913333D01*
X66766666Y-70304819D02*
X67099999Y-69828628D01*
X67338094Y-70304819D02*
X67338094Y-69304819D01*
X67338094Y-69304819D02*
X66957142Y-69304819D01*
X66957142Y-69304819D02*
X66861904Y-69352438D01*
X66861904Y-69352438D02*
X66814285Y-69400057D01*
X66814285Y-69400057D02*
X66766666Y-69495295D01*
X66766666Y-69495295D02*
X66766666Y-69638152D01*
X66766666Y-69638152D02*
X66814285Y-69733390D01*
X66814285Y-69733390D02*
X66861904Y-69781009D01*
X66861904Y-69781009D02*
X66957142Y-69828628D01*
X66957142Y-69828628D02*
X67338094Y-69828628D01*
X65909523Y-69638152D02*
X65909523Y-70304819D01*
X66147618Y-69257200D02*
X66385713Y-69971485D01*
X66385713Y-69971485D02*
X65766666Y-69971485D01*
X51579580Y-243033333D02*
X51627200Y-242985714D01*
X51627200Y-242985714D02*
X51674819Y-242842857D01*
X51674819Y-242842857D02*
X51674819Y-242747619D01*
X51674819Y-242747619D02*
X51627200Y-242604762D01*
X51627200Y-242604762D02*
X51531961Y-242509524D01*
X51531961Y-242509524D02*
X51436723Y-242461905D01*
X51436723Y-242461905D02*
X51246247Y-242414286D01*
X51246247Y-242414286D02*
X51103390Y-242414286D01*
X51103390Y-242414286D02*
X50912914Y-242461905D01*
X50912914Y-242461905D02*
X50817676Y-242509524D01*
X50817676Y-242509524D02*
X50722438Y-242604762D01*
X50722438Y-242604762D02*
X50674819Y-242747619D01*
X50674819Y-242747619D02*
X50674819Y-242842857D01*
X50674819Y-242842857D02*
X50722438Y-242985714D01*
X50722438Y-242985714D02*
X50770057Y-243033333D01*
X51674819Y-243985714D02*
X51674819Y-243414286D01*
X51674819Y-243700000D02*
X50674819Y-243700000D01*
X50674819Y-243700000D02*
X50817676Y-243604762D01*
X50817676Y-243604762D02*
X50912914Y-243509524D01*
X50912914Y-243509524D02*
X50960533Y-243414286D01*
X227079580Y-154357142D02*
X227127200Y-154309523D01*
X227127200Y-154309523D02*
X227174819Y-154166666D01*
X227174819Y-154166666D02*
X227174819Y-154071428D01*
X227174819Y-154071428D02*
X227127200Y-153928571D01*
X227127200Y-153928571D02*
X227031961Y-153833333D01*
X227031961Y-153833333D02*
X226936723Y-153785714D01*
X226936723Y-153785714D02*
X226746247Y-153738095D01*
X226746247Y-153738095D02*
X226603390Y-153738095D01*
X226603390Y-153738095D02*
X226412914Y-153785714D01*
X226412914Y-153785714D02*
X226317676Y-153833333D01*
X226317676Y-153833333D02*
X226222438Y-153928571D01*
X226222438Y-153928571D02*
X226174819Y-154071428D01*
X226174819Y-154071428D02*
X226174819Y-154166666D01*
X226174819Y-154166666D02*
X226222438Y-154309523D01*
X226222438Y-154309523D02*
X226270057Y-154357142D01*
X226174819Y-155214285D02*
X226174819Y-155023809D01*
X226174819Y-155023809D02*
X226222438Y-154928571D01*
X226222438Y-154928571D02*
X226270057Y-154880952D01*
X226270057Y-154880952D02*
X226412914Y-154785714D01*
X226412914Y-154785714D02*
X226603390Y-154738095D01*
X226603390Y-154738095D02*
X226984342Y-154738095D01*
X226984342Y-154738095D02*
X227079580Y-154785714D01*
X227079580Y-154785714D02*
X227127200Y-154833333D01*
X227127200Y-154833333D02*
X227174819Y-154928571D01*
X227174819Y-154928571D02*
X227174819Y-155119047D01*
X227174819Y-155119047D02*
X227127200Y-155214285D01*
X227127200Y-155214285D02*
X227079580Y-155261904D01*
X227079580Y-155261904D02*
X226984342Y-155309523D01*
X226984342Y-155309523D02*
X226746247Y-155309523D01*
X226746247Y-155309523D02*
X226651009Y-155261904D01*
X226651009Y-155261904D02*
X226603390Y-155214285D01*
X226603390Y-155214285D02*
X226555771Y-155119047D01*
X226555771Y-155119047D02*
X226555771Y-154928571D01*
X226555771Y-154928571D02*
X226603390Y-154833333D01*
X226603390Y-154833333D02*
X226651009Y-154785714D01*
X226651009Y-154785714D02*
X226746247Y-154738095D01*
X227174819Y-155785714D02*
X227174819Y-155976190D01*
X227174819Y-155976190D02*
X227127200Y-156071428D01*
X227127200Y-156071428D02*
X227079580Y-156119047D01*
X227079580Y-156119047D02*
X226936723Y-156214285D01*
X226936723Y-156214285D02*
X226746247Y-156261904D01*
X226746247Y-156261904D02*
X226365295Y-156261904D01*
X226365295Y-156261904D02*
X226270057Y-156214285D01*
X226270057Y-156214285D02*
X226222438Y-156166666D01*
X226222438Y-156166666D02*
X226174819Y-156071428D01*
X226174819Y-156071428D02*
X226174819Y-155880952D01*
X226174819Y-155880952D02*
X226222438Y-155785714D01*
X226222438Y-155785714D02*
X226270057Y-155738095D01*
X226270057Y-155738095D02*
X226365295Y-155690476D01*
X226365295Y-155690476D02*
X226603390Y-155690476D01*
X226603390Y-155690476D02*
X226698628Y-155738095D01*
X226698628Y-155738095D02*
X226746247Y-155785714D01*
X226746247Y-155785714D02*
X226793866Y-155880952D01*
X226793866Y-155880952D02*
X226793866Y-156071428D01*
X226793866Y-156071428D02*
X226746247Y-156166666D01*
X226746247Y-156166666D02*
X226698628Y-156214285D01*
X226698628Y-156214285D02*
X226603390Y-156261904D01*
X73666666Y-112854819D02*
X73999999Y-112378628D01*
X74238094Y-112854819D02*
X74238094Y-111854819D01*
X74238094Y-111854819D02*
X73857142Y-111854819D01*
X73857142Y-111854819D02*
X73761904Y-111902438D01*
X73761904Y-111902438D02*
X73714285Y-111950057D01*
X73714285Y-111950057D02*
X73666666Y-112045295D01*
X73666666Y-112045295D02*
X73666666Y-112188152D01*
X73666666Y-112188152D02*
X73714285Y-112283390D01*
X73714285Y-112283390D02*
X73761904Y-112331009D01*
X73761904Y-112331009D02*
X73857142Y-112378628D01*
X73857142Y-112378628D02*
X74238094Y-112378628D01*
X73333332Y-111854819D02*
X72666666Y-111854819D01*
X72666666Y-111854819D02*
X73095237Y-112854819D01*
X66679580Y-104679142D02*
X66727200Y-104631523D01*
X66727200Y-104631523D02*
X66774819Y-104488666D01*
X66774819Y-104488666D02*
X66774819Y-104393428D01*
X66774819Y-104393428D02*
X66727200Y-104250571D01*
X66727200Y-104250571D02*
X66631961Y-104155333D01*
X66631961Y-104155333D02*
X66536723Y-104107714D01*
X66536723Y-104107714D02*
X66346247Y-104060095D01*
X66346247Y-104060095D02*
X66203390Y-104060095D01*
X66203390Y-104060095D02*
X66012914Y-104107714D01*
X66012914Y-104107714D02*
X65917676Y-104155333D01*
X65917676Y-104155333D02*
X65822438Y-104250571D01*
X65822438Y-104250571D02*
X65774819Y-104393428D01*
X65774819Y-104393428D02*
X65774819Y-104488666D01*
X65774819Y-104488666D02*
X65822438Y-104631523D01*
X65822438Y-104631523D02*
X65870057Y-104679142D01*
X66774819Y-105631523D02*
X66774819Y-105060095D01*
X66774819Y-105345809D02*
X65774819Y-105345809D01*
X65774819Y-105345809D02*
X65917676Y-105250571D01*
X65917676Y-105250571D02*
X66012914Y-105155333D01*
X66012914Y-105155333D02*
X66060533Y-105060095D01*
X66108152Y-106488666D02*
X66774819Y-106488666D01*
X65727200Y-106250571D02*
X66441485Y-106012476D01*
X66441485Y-106012476D02*
X66441485Y-106631523D01*
D11*
X149128571Y-246715817D02*
X149128571Y-246235817D01*
X149128571Y-246235817D02*
X148968571Y-246578674D01*
X148968571Y-246578674D02*
X148808571Y-246235817D01*
X148808571Y-246235817D02*
X148808571Y-246715817D01*
X148580000Y-246715817D02*
X148580000Y-246235817D01*
X148305714Y-246715817D02*
X148511428Y-246441531D01*
X148305714Y-246235817D02*
X148580000Y-246510102D01*
X147894286Y-246395817D02*
X147894286Y-246715817D01*
X148008571Y-246212960D02*
X148122857Y-246555817D01*
X148122857Y-246555817D02*
X147825714Y-246555817D01*
D10*
X232742857Y-156804819D02*
X233076190Y-156328628D01*
X233314285Y-156804819D02*
X233314285Y-155804819D01*
X233314285Y-155804819D02*
X232933333Y-155804819D01*
X232933333Y-155804819D02*
X232838095Y-155852438D01*
X232838095Y-155852438D02*
X232790476Y-155900057D01*
X232790476Y-155900057D02*
X232742857Y-155995295D01*
X232742857Y-155995295D02*
X232742857Y-156138152D01*
X232742857Y-156138152D02*
X232790476Y-156233390D01*
X232790476Y-156233390D02*
X232838095Y-156281009D01*
X232838095Y-156281009D02*
X232933333Y-156328628D01*
X232933333Y-156328628D02*
X233314285Y-156328628D01*
X231885714Y-156138152D02*
X231885714Y-156804819D01*
X232123809Y-155757200D02*
X232361904Y-156471485D01*
X232361904Y-156471485D02*
X231742857Y-156471485D01*
X230885714Y-155804819D02*
X231361904Y-155804819D01*
X231361904Y-155804819D02*
X231409523Y-156281009D01*
X231409523Y-156281009D02*
X231361904Y-156233390D01*
X231361904Y-156233390D02*
X231266666Y-156185771D01*
X231266666Y-156185771D02*
X231028571Y-156185771D01*
X231028571Y-156185771D02*
X230933333Y-156233390D01*
X230933333Y-156233390D02*
X230885714Y-156281009D01*
X230885714Y-156281009D02*
X230838095Y-156376247D01*
X230838095Y-156376247D02*
X230838095Y-156614342D01*
X230838095Y-156614342D02*
X230885714Y-156709580D01*
X230885714Y-156709580D02*
X230933333Y-156757200D01*
X230933333Y-156757200D02*
X231028571Y-156804819D01*
X231028571Y-156804819D02*
X231266666Y-156804819D01*
X231266666Y-156804819D02*
X231361904Y-156757200D01*
X231361904Y-156757200D02*
X231409523Y-156709580D01*
X115570000Y-173869366D02*
X115603333Y-173902700D01*
X115603333Y-173902700D02*
X115703333Y-173936033D01*
X115703333Y-173936033D02*
X115770000Y-173936033D01*
X115770000Y-173936033D02*
X115870000Y-173902700D01*
X115870000Y-173902700D02*
X115936667Y-173836033D01*
X115936667Y-173836033D02*
X115970000Y-173769366D01*
X115970000Y-173769366D02*
X116003333Y-173636033D01*
X116003333Y-173636033D02*
X116003333Y-173536033D01*
X116003333Y-173536033D02*
X115970000Y-173402700D01*
X115970000Y-173402700D02*
X115936667Y-173336033D01*
X115936667Y-173336033D02*
X115870000Y-173269366D01*
X115870000Y-173269366D02*
X115770000Y-173236033D01*
X115770000Y-173236033D02*
X115703333Y-173236033D01*
X115703333Y-173236033D02*
X115603333Y-173269366D01*
X115603333Y-173269366D02*
X115570000Y-173302700D01*
X114936667Y-173236033D02*
X115270000Y-173236033D01*
X115270000Y-173236033D02*
X115303333Y-173569366D01*
X115303333Y-173569366D02*
X115270000Y-173536033D01*
X115270000Y-173536033D02*
X115203333Y-173502700D01*
X115203333Y-173502700D02*
X115036667Y-173502700D01*
X115036667Y-173502700D02*
X114970000Y-173536033D01*
X114970000Y-173536033D02*
X114936667Y-173569366D01*
X114936667Y-173569366D02*
X114903333Y-173636033D01*
X114903333Y-173636033D02*
X114903333Y-173802700D01*
X114903333Y-173802700D02*
X114936667Y-173869366D01*
X114936667Y-173869366D02*
X114970000Y-173902700D01*
X114970000Y-173902700D02*
X115036667Y-173936033D01*
X115036667Y-173936033D02*
X115203333Y-173936033D01*
X115203333Y-173936033D02*
X115270000Y-173902700D01*
X115270000Y-173902700D02*
X115303333Y-173869366D01*
X114303333Y-173236033D02*
X114436666Y-173236033D01*
X114436666Y-173236033D02*
X114503333Y-173269366D01*
X114503333Y-173269366D02*
X114536666Y-173302700D01*
X114536666Y-173302700D02*
X114603333Y-173402700D01*
X114603333Y-173402700D02*
X114636666Y-173536033D01*
X114636666Y-173536033D02*
X114636666Y-173802700D01*
X114636666Y-173802700D02*
X114603333Y-173869366D01*
X114603333Y-173869366D02*
X114570000Y-173902700D01*
X114570000Y-173902700D02*
X114503333Y-173936033D01*
X114503333Y-173936033D02*
X114370000Y-173936033D01*
X114370000Y-173936033D02*
X114303333Y-173902700D01*
X114303333Y-173902700D02*
X114270000Y-173869366D01*
X114270000Y-173869366D02*
X114236666Y-173802700D01*
X114236666Y-173802700D02*
X114236666Y-173636033D01*
X114236666Y-173636033D02*
X114270000Y-173569366D01*
X114270000Y-173569366D02*
X114303333Y-173536033D01*
X114303333Y-173536033D02*
X114370000Y-173502700D01*
X114370000Y-173502700D02*
X114503333Y-173502700D01*
X114503333Y-173502700D02*
X114570000Y-173536033D01*
X114570000Y-173536033D02*
X114603333Y-173569366D01*
X114603333Y-173569366D02*
X114636666Y-173636033D01*
X194742857Y-68559580D02*
X194790476Y-68607200D01*
X194790476Y-68607200D02*
X194933333Y-68654819D01*
X194933333Y-68654819D02*
X195028571Y-68654819D01*
X195028571Y-68654819D02*
X195171428Y-68607200D01*
X195171428Y-68607200D02*
X195266666Y-68511961D01*
X195266666Y-68511961D02*
X195314285Y-68416723D01*
X195314285Y-68416723D02*
X195361904Y-68226247D01*
X195361904Y-68226247D02*
X195361904Y-68083390D01*
X195361904Y-68083390D02*
X195314285Y-67892914D01*
X195314285Y-67892914D02*
X195266666Y-67797676D01*
X195266666Y-67797676D02*
X195171428Y-67702438D01*
X195171428Y-67702438D02*
X195028571Y-67654819D01*
X195028571Y-67654819D02*
X194933333Y-67654819D01*
X194933333Y-67654819D02*
X194790476Y-67702438D01*
X194790476Y-67702438D02*
X194742857Y-67750057D01*
X194409523Y-67654819D02*
X193742857Y-67654819D01*
X193742857Y-67654819D02*
X194171428Y-68654819D01*
X193314285Y-68654819D02*
X193123809Y-68654819D01*
X193123809Y-68654819D02*
X193028571Y-68607200D01*
X193028571Y-68607200D02*
X192980952Y-68559580D01*
X192980952Y-68559580D02*
X192885714Y-68416723D01*
X192885714Y-68416723D02*
X192838095Y-68226247D01*
X192838095Y-68226247D02*
X192838095Y-67845295D01*
X192838095Y-67845295D02*
X192885714Y-67750057D01*
X192885714Y-67750057D02*
X192933333Y-67702438D01*
X192933333Y-67702438D02*
X193028571Y-67654819D01*
X193028571Y-67654819D02*
X193219047Y-67654819D01*
X193219047Y-67654819D02*
X193314285Y-67702438D01*
X193314285Y-67702438D02*
X193361904Y-67750057D01*
X193361904Y-67750057D02*
X193409523Y-67845295D01*
X193409523Y-67845295D02*
X193409523Y-68083390D01*
X193409523Y-68083390D02*
X193361904Y-68178628D01*
X193361904Y-68178628D02*
X193314285Y-68226247D01*
X193314285Y-68226247D02*
X193219047Y-68273866D01*
X193219047Y-68273866D02*
X193028571Y-68273866D01*
X193028571Y-68273866D02*
X192933333Y-68226247D01*
X192933333Y-68226247D02*
X192885714Y-68178628D01*
X192885714Y-68178628D02*
X192838095Y-68083390D01*
X233659580Y-230757142D02*
X233707200Y-230709523D01*
X233707200Y-230709523D02*
X233754819Y-230566666D01*
X233754819Y-230566666D02*
X233754819Y-230471428D01*
X233754819Y-230471428D02*
X233707200Y-230328571D01*
X233707200Y-230328571D02*
X233611961Y-230233333D01*
X233611961Y-230233333D02*
X233516723Y-230185714D01*
X233516723Y-230185714D02*
X233326247Y-230138095D01*
X233326247Y-230138095D02*
X233183390Y-230138095D01*
X233183390Y-230138095D02*
X232992914Y-230185714D01*
X232992914Y-230185714D02*
X232897676Y-230233333D01*
X232897676Y-230233333D02*
X232802438Y-230328571D01*
X232802438Y-230328571D02*
X232754819Y-230471428D01*
X232754819Y-230471428D02*
X232754819Y-230566666D01*
X232754819Y-230566666D02*
X232802438Y-230709523D01*
X232802438Y-230709523D02*
X232850057Y-230757142D01*
X232754819Y-231614285D02*
X232754819Y-231423809D01*
X232754819Y-231423809D02*
X232802438Y-231328571D01*
X232802438Y-231328571D02*
X232850057Y-231280952D01*
X232850057Y-231280952D02*
X232992914Y-231185714D01*
X232992914Y-231185714D02*
X233183390Y-231138095D01*
X233183390Y-231138095D02*
X233564342Y-231138095D01*
X233564342Y-231138095D02*
X233659580Y-231185714D01*
X233659580Y-231185714D02*
X233707200Y-231233333D01*
X233707200Y-231233333D02*
X233754819Y-231328571D01*
X233754819Y-231328571D02*
X233754819Y-231519047D01*
X233754819Y-231519047D02*
X233707200Y-231614285D01*
X233707200Y-231614285D02*
X233659580Y-231661904D01*
X233659580Y-231661904D02*
X233564342Y-231709523D01*
X233564342Y-231709523D02*
X233326247Y-231709523D01*
X233326247Y-231709523D02*
X233231009Y-231661904D01*
X233231009Y-231661904D02*
X233183390Y-231614285D01*
X233183390Y-231614285D02*
X233135771Y-231519047D01*
X233135771Y-231519047D02*
X233135771Y-231328571D01*
X233135771Y-231328571D02*
X233183390Y-231233333D01*
X233183390Y-231233333D02*
X233231009Y-231185714D01*
X233231009Y-231185714D02*
X233326247Y-231138095D01*
X232754819Y-232566666D02*
X232754819Y-232376190D01*
X232754819Y-232376190D02*
X232802438Y-232280952D01*
X232802438Y-232280952D02*
X232850057Y-232233333D01*
X232850057Y-232233333D02*
X232992914Y-232138095D01*
X232992914Y-232138095D02*
X233183390Y-232090476D01*
X233183390Y-232090476D02*
X233564342Y-232090476D01*
X233564342Y-232090476D02*
X233659580Y-232138095D01*
X233659580Y-232138095D02*
X233707200Y-232185714D01*
X233707200Y-232185714D02*
X233754819Y-232280952D01*
X233754819Y-232280952D02*
X233754819Y-232471428D01*
X233754819Y-232471428D02*
X233707200Y-232566666D01*
X233707200Y-232566666D02*
X233659580Y-232614285D01*
X233659580Y-232614285D02*
X233564342Y-232661904D01*
X233564342Y-232661904D02*
X233326247Y-232661904D01*
X233326247Y-232661904D02*
X233231009Y-232614285D01*
X233231009Y-232614285D02*
X233183390Y-232566666D01*
X233183390Y-232566666D02*
X233135771Y-232471428D01*
X233135771Y-232471428D02*
X233135771Y-232280952D01*
X233135771Y-232280952D02*
X233183390Y-232185714D01*
X233183390Y-232185714D02*
X233231009Y-232138095D01*
X233231009Y-232138095D02*
X233326247Y-232090476D01*
X65559580Y-232333333D02*
X65607200Y-232285714D01*
X65607200Y-232285714D02*
X65654819Y-232142857D01*
X65654819Y-232142857D02*
X65654819Y-232047619D01*
X65654819Y-232047619D02*
X65607200Y-231904762D01*
X65607200Y-231904762D02*
X65511961Y-231809524D01*
X65511961Y-231809524D02*
X65416723Y-231761905D01*
X65416723Y-231761905D02*
X65226247Y-231714286D01*
X65226247Y-231714286D02*
X65083390Y-231714286D01*
X65083390Y-231714286D02*
X64892914Y-231761905D01*
X64892914Y-231761905D02*
X64797676Y-231809524D01*
X64797676Y-231809524D02*
X64702438Y-231904762D01*
X64702438Y-231904762D02*
X64654819Y-232047619D01*
X64654819Y-232047619D02*
X64654819Y-232142857D01*
X64654819Y-232142857D02*
X64702438Y-232285714D01*
X64702438Y-232285714D02*
X64750057Y-232333333D01*
X65654819Y-232809524D02*
X65654819Y-233000000D01*
X65654819Y-233000000D02*
X65607200Y-233095238D01*
X65607200Y-233095238D02*
X65559580Y-233142857D01*
X65559580Y-233142857D02*
X65416723Y-233238095D01*
X65416723Y-233238095D02*
X65226247Y-233285714D01*
X65226247Y-233285714D02*
X64845295Y-233285714D01*
X64845295Y-233285714D02*
X64750057Y-233238095D01*
X64750057Y-233238095D02*
X64702438Y-233190476D01*
X64702438Y-233190476D02*
X64654819Y-233095238D01*
X64654819Y-233095238D02*
X64654819Y-232904762D01*
X64654819Y-232904762D02*
X64702438Y-232809524D01*
X64702438Y-232809524D02*
X64750057Y-232761905D01*
X64750057Y-232761905D02*
X64845295Y-232714286D01*
X64845295Y-232714286D02*
X65083390Y-232714286D01*
X65083390Y-232714286D02*
X65178628Y-232761905D01*
X65178628Y-232761905D02*
X65226247Y-232809524D01*
X65226247Y-232809524D02*
X65273866Y-232904762D01*
X65273866Y-232904762D02*
X65273866Y-233095238D01*
X65273866Y-233095238D02*
X65226247Y-233190476D01*
X65226247Y-233190476D02*
X65178628Y-233238095D01*
X65178628Y-233238095D02*
X65083390Y-233285714D01*
X66266666Y-155304819D02*
X66599999Y-154828628D01*
X66838094Y-155304819D02*
X66838094Y-154304819D01*
X66838094Y-154304819D02*
X66457142Y-154304819D01*
X66457142Y-154304819D02*
X66361904Y-154352438D01*
X66361904Y-154352438D02*
X66314285Y-154400057D01*
X66314285Y-154400057D02*
X66266666Y-154495295D01*
X66266666Y-154495295D02*
X66266666Y-154638152D01*
X66266666Y-154638152D02*
X66314285Y-154733390D01*
X66314285Y-154733390D02*
X66361904Y-154781009D01*
X66361904Y-154781009D02*
X66457142Y-154828628D01*
X66457142Y-154828628D02*
X66838094Y-154828628D01*
X65409523Y-154304819D02*
X65599999Y-154304819D01*
X65599999Y-154304819D02*
X65695237Y-154352438D01*
X65695237Y-154352438D02*
X65742856Y-154400057D01*
X65742856Y-154400057D02*
X65838094Y-154542914D01*
X65838094Y-154542914D02*
X65885713Y-154733390D01*
X65885713Y-154733390D02*
X65885713Y-155114342D01*
X65885713Y-155114342D02*
X65838094Y-155209580D01*
X65838094Y-155209580D02*
X65790475Y-155257200D01*
X65790475Y-155257200D02*
X65695237Y-155304819D01*
X65695237Y-155304819D02*
X65504761Y-155304819D01*
X65504761Y-155304819D02*
X65409523Y-155257200D01*
X65409523Y-155257200D02*
X65361904Y-155209580D01*
X65361904Y-155209580D02*
X65314285Y-155114342D01*
X65314285Y-155114342D02*
X65314285Y-154876247D01*
X65314285Y-154876247D02*
X65361904Y-154781009D01*
X65361904Y-154781009D02*
X65409523Y-154733390D01*
X65409523Y-154733390D02*
X65504761Y-154685771D01*
X65504761Y-154685771D02*
X65695237Y-154685771D01*
X65695237Y-154685771D02*
X65790475Y-154733390D01*
X65790475Y-154733390D02*
X65838094Y-154781009D01*
X65838094Y-154781009D02*
X65885713Y-154876247D01*
X232279580Y-242757142D02*
X232327200Y-242709523D01*
X232327200Y-242709523D02*
X232374819Y-242566666D01*
X232374819Y-242566666D02*
X232374819Y-242471428D01*
X232374819Y-242471428D02*
X232327200Y-242328571D01*
X232327200Y-242328571D02*
X232231961Y-242233333D01*
X232231961Y-242233333D02*
X232136723Y-242185714D01*
X232136723Y-242185714D02*
X231946247Y-242138095D01*
X231946247Y-242138095D02*
X231803390Y-242138095D01*
X231803390Y-242138095D02*
X231612914Y-242185714D01*
X231612914Y-242185714D02*
X231517676Y-242233333D01*
X231517676Y-242233333D02*
X231422438Y-242328571D01*
X231422438Y-242328571D02*
X231374819Y-242471428D01*
X231374819Y-242471428D02*
X231374819Y-242566666D01*
X231374819Y-242566666D02*
X231422438Y-242709523D01*
X231422438Y-242709523D02*
X231470057Y-242757142D01*
X232374819Y-243709523D02*
X232374819Y-243138095D01*
X232374819Y-243423809D02*
X231374819Y-243423809D01*
X231374819Y-243423809D02*
X231517676Y-243328571D01*
X231517676Y-243328571D02*
X231612914Y-243233333D01*
X231612914Y-243233333D02*
X231660533Y-243138095D01*
X232374819Y-244185714D02*
X232374819Y-244376190D01*
X232374819Y-244376190D02*
X232327200Y-244471428D01*
X232327200Y-244471428D02*
X232279580Y-244519047D01*
X232279580Y-244519047D02*
X232136723Y-244614285D01*
X232136723Y-244614285D02*
X231946247Y-244661904D01*
X231946247Y-244661904D02*
X231565295Y-244661904D01*
X231565295Y-244661904D02*
X231470057Y-244614285D01*
X231470057Y-244614285D02*
X231422438Y-244566666D01*
X231422438Y-244566666D02*
X231374819Y-244471428D01*
X231374819Y-244471428D02*
X231374819Y-244280952D01*
X231374819Y-244280952D02*
X231422438Y-244185714D01*
X231422438Y-244185714D02*
X231470057Y-244138095D01*
X231470057Y-244138095D02*
X231565295Y-244090476D01*
X231565295Y-244090476D02*
X231803390Y-244090476D01*
X231803390Y-244090476D02*
X231898628Y-244138095D01*
X231898628Y-244138095D02*
X231946247Y-244185714D01*
X231946247Y-244185714D02*
X231993866Y-244280952D01*
X231993866Y-244280952D02*
X231993866Y-244471428D01*
X231993866Y-244471428D02*
X231946247Y-244566666D01*
X231946247Y-244566666D02*
X231898628Y-244614285D01*
X231898628Y-244614285D02*
X231803390Y-244661904D01*
X67580602Y-109572344D02*
X68908361Y-109572344D01*
X68908361Y-109572344D02*
X69064568Y-109650447D01*
X69064568Y-109650447D02*
X69142672Y-109728551D01*
X69142672Y-109728551D02*
X69220775Y-109884758D01*
X69220775Y-109884758D02*
X69220775Y-110197172D01*
X69220775Y-110197172D02*
X69142672Y-110353379D01*
X69142672Y-110353379D02*
X69064568Y-110431482D01*
X69064568Y-110431482D02*
X68908361Y-110509586D01*
X68908361Y-110509586D02*
X67580602Y-110509586D01*
X69220775Y-112149758D02*
X69220775Y-111212516D01*
X69220775Y-111681137D02*
X67580602Y-111681137D01*
X67580602Y-111681137D02*
X67814912Y-111524930D01*
X67814912Y-111524930D02*
X67971119Y-111368723D01*
X67971119Y-111368723D02*
X68049223Y-111212516D01*
X239742857Y-159359580D02*
X239790476Y-159407200D01*
X239790476Y-159407200D02*
X239933333Y-159454819D01*
X239933333Y-159454819D02*
X240028571Y-159454819D01*
X240028571Y-159454819D02*
X240171428Y-159407200D01*
X240171428Y-159407200D02*
X240266666Y-159311961D01*
X240266666Y-159311961D02*
X240314285Y-159216723D01*
X240314285Y-159216723D02*
X240361904Y-159026247D01*
X240361904Y-159026247D02*
X240361904Y-158883390D01*
X240361904Y-158883390D02*
X240314285Y-158692914D01*
X240314285Y-158692914D02*
X240266666Y-158597676D01*
X240266666Y-158597676D02*
X240171428Y-158502438D01*
X240171428Y-158502438D02*
X240028571Y-158454819D01*
X240028571Y-158454819D02*
X239933333Y-158454819D01*
X239933333Y-158454819D02*
X239790476Y-158502438D01*
X239790476Y-158502438D02*
X239742857Y-158550057D01*
X238838095Y-158454819D02*
X239314285Y-158454819D01*
X239314285Y-158454819D02*
X239361904Y-158931009D01*
X239361904Y-158931009D02*
X239314285Y-158883390D01*
X239314285Y-158883390D02*
X239219047Y-158835771D01*
X239219047Y-158835771D02*
X238980952Y-158835771D01*
X238980952Y-158835771D02*
X238885714Y-158883390D01*
X238885714Y-158883390D02*
X238838095Y-158931009D01*
X238838095Y-158931009D02*
X238790476Y-159026247D01*
X238790476Y-159026247D02*
X238790476Y-159264342D01*
X238790476Y-159264342D02*
X238838095Y-159359580D01*
X238838095Y-159359580D02*
X238885714Y-159407200D01*
X238885714Y-159407200D02*
X238980952Y-159454819D01*
X238980952Y-159454819D02*
X239219047Y-159454819D01*
X239219047Y-159454819D02*
X239314285Y-159407200D01*
X239314285Y-159407200D02*
X239361904Y-159359580D01*
X238314285Y-159454819D02*
X238123809Y-159454819D01*
X238123809Y-159454819D02*
X238028571Y-159407200D01*
X238028571Y-159407200D02*
X237980952Y-159359580D01*
X237980952Y-159359580D02*
X237885714Y-159216723D01*
X237885714Y-159216723D02*
X237838095Y-159026247D01*
X237838095Y-159026247D02*
X237838095Y-158645295D01*
X237838095Y-158645295D02*
X237885714Y-158550057D01*
X237885714Y-158550057D02*
X237933333Y-158502438D01*
X237933333Y-158502438D02*
X238028571Y-158454819D01*
X238028571Y-158454819D02*
X238219047Y-158454819D01*
X238219047Y-158454819D02*
X238314285Y-158502438D01*
X238314285Y-158502438D02*
X238361904Y-158550057D01*
X238361904Y-158550057D02*
X238409523Y-158645295D01*
X238409523Y-158645295D02*
X238409523Y-158883390D01*
X238409523Y-158883390D02*
X238361904Y-158978628D01*
X238361904Y-158978628D02*
X238314285Y-159026247D01*
X238314285Y-159026247D02*
X238219047Y-159073866D01*
X238219047Y-159073866D02*
X238028571Y-159073866D01*
X238028571Y-159073866D02*
X237933333Y-159026247D01*
X237933333Y-159026247D02*
X237885714Y-158978628D01*
X237885714Y-158978628D02*
X237838095Y-158883390D01*
X71942857Y-71679580D02*
X71990476Y-71727200D01*
X71990476Y-71727200D02*
X72133333Y-71774819D01*
X72133333Y-71774819D02*
X72228571Y-71774819D01*
X72228571Y-71774819D02*
X72371428Y-71727200D01*
X72371428Y-71727200D02*
X72466666Y-71631961D01*
X72466666Y-71631961D02*
X72514285Y-71536723D01*
X72514285Y-71536723D02*
X72561904Y-71346247D01*
X72561904Y-71346247D02*
X72561904Y-71203390D01*
X72561904Y-71203390D02*
X72514285Y-71012914D01*
X72514285Y-71012914D02*
X72466666Y-70917676D01*
X72466666Y-70917676D02*
X72371428Y-70822438D01*
X72371428Y-70822438D02*
X72228571Y-70774819D01*
X72228571Y-70774819D02*
X72133333Y-70774819D01*
X72133333Y-70774819D02*
X71990476Y-70822438D01*
X71990476Y-70822438D02*
X71942857Y-70870057D01*
X71609523Y-70774819D02*
X70990476Y-70774819D01*
X70990476Y-70774819D02*
X71323809Y-71155771D01*
X71323809Y-71155771D02*
X71180952Y-71155771D01*
X71180952Y-71155771D02*
X71085714Y-71203390D01*
X71085714Y-71203390D02*
X71038095Y-71251009D01*
X71038095Y-71251009D02*
X70990476Y-71346247D01*
X70990476Y-71346247D02*
X70990476Y-71584342D01*
X70990476Y-71584342D02*
X71038095Y-71679580D01*
X71038095Y-71679580D02*
X71085714Y-71727200D01*
X71085714Y-71727200D02*
X71180952Y-71774819D01*
X71180952Y-71774819D02*
X71466666Y-71774819D01*
X71466666Y-71774819D02*
X71561904Y-71727200D01*
X71561904Y-71727200D02*
X71609523Y-71679580D01*
X70038095Y-71774819D02*
X70609523Y-71774819D01*
X70323809Y-71774819D02*
X70323809Y-70774819D01*
X70323809Y-70774819D02*
X70419047Y-70917676D01*
X70419047Y-70917676D02*
X70514285Y-71012914D01*
X70514285Y-71012914D02*
X70609523Y-71060533D01*
X114486033Y-138709999D02*
X114152700Y-138476666D01*
X114486033Y-138309999D02*
X113786033Y-138309999D01*
X113786033Y-138309999D02*
X113786033Y-138576666D01*
X113786033Y-138576666D02*
X113819366Y-138643333D01*
X113819366Y-138643333D02*
X113852700Y-138676666D01*
X113852700Y-138676666D02*
X113919366Y-138709999D01*
X113919366Y-138709999D02*
X114019366Y-138709999D01*
X114019366Y-138709999D02*
X114086033Y-138676666D01*
X114086033Y-138676666D02*
X114119366Y-138643333D01*
X114119366Y-138643333D02*
X114152700Y-138576666D01*
X114152700Y-138576666D02*
X114152700Y-138309999D01*
X114019366Y-139309999D02*
X114486033Y-139309999D01*
X113752700Y-139143333D02*
X114252700Y-138976666D01*
X114252700Y-138976666D02*
X114252700Y-139409999D01*
X113786033Y-139810000D02*
X113786033Y-139876666D01*
X113786033Y-139876666D02*
X113819366Y-139943333D01*
X113819366Y-139943333D02*
X113852700Y-139976666D01*
X113852700Y-139976666D02*
X113919366Y-140010000D01*
X113919366Y-140010000D02*
X114052700Y-140043333D01*
X114052700Y-140043333D02*
X114219366Y-140043333D01*
X114219366Y-140043333D02*
X114352700Y-140010000D01*
X114352700Y-140010000D02*
X114419366Y-139976666D01*
X114419366Y-139976666D02*
X114452700Y-139943333D01*
X114452700Y-139943333D02*
X114486033Y-139876666D01*
X114486033Y-139876666D02*
X114486033Y-139810000D01*
X114486033Y-139810000D02*
X114452700Y-139743333D01*
X114452700Y-139743333D02*
X114419366Y-139710000D01*
X114419366Y-139710000D02*
X114352700Y-139676666D01*
X114352700Y-139676666D02*
X114219366Y-139643333D01*
X114219366Y-139643333D02*
X114052700Y-139643333D01*
X114052700Y-139643333D02*
X113919366Y-139676666D01*
X113919366Y-139676666D02*
X113852700Y-139710000D01*
X113852700Y-139710000D02*
X113819366Y-139743333D01*
X113819366Y-139743333D02*
X113786033Y-139810000D01*
X112720000Y-173839366D02*
X112753333Y-173872700D01*
X112753333Y-173872700D02*
X112853333Y-173906033D01*
X112853333Y-173906033D02*
X112920000Y-173906033D01*
X112920000Y-173906033D02*
X113020000Y-173872700D01*
X113020000Y-173872700D02*
X113086667Y-173806033D01*
X113086667Y-173806033D02*
X113120000Y-173739366D01*
X113120000Y-173739366D02*
X113153333Y-173606033D01*
X113153333Y-173606033D02*
X113153333Y-173506033D01*
X113153333Y-173506033D02*
X113120000Y-173372700D01*
X113120000Y-173372700D02*
X113086667Y-173306033D01*
X113086667Y-173306033D02*
X113020000Y-173239366D01*
X113020000Y-173239366D02*
X112920000Y-173206033D01*
X112920000Y-173206033D02*
X112853333Y-173206033D01*
X112853333Y-173206033D02*
X112753333Y-173239366D01*
X112753333Y-173239366D02*
X112720000Y-173272700D01*
X112086667Y-173206033D02*
X112420000Y-173206033D01*
X112420000Y-173206033D02*
X112453333Y-173539366D01*
X112453333Y-173539366D02*
X112420000Y-173506033D01*
X112420000Y-173506033D02*
X112353333Y-173472700D01*
X112353333Y-173472700D02*
X112186667Y-173472700D01*
X112186667Y-173472700D02*
X112120000Y-173506033D01*
X112120000Y-173506033D02*
X112086667Y-173539366D01*
X112086667Y-173539366D02*
X112053333Y-173606033D01*
X112053333Y-173606033D02*
X112053333Y-173772700D01*
X112053333Y-173772700D02*
X112086667Y-173839366D01*
X112086667Y-173839366D02*
X112120000Y-173872700D01*
X112120000Y-173872700D02*
X112186667Y-173906033D01*
X112186667Y-173906033D02*
X112353333Y-173906033D01*
X112353333Y-173906033D02*
X112420000Y-173872700D01*
X112420000Y-173872700D02*
X112453333Y-173839366D01*
X111820000Y-173206033D02*
X111353333Y-173206033D01*
X111353333Y-173206033D02*
X111653333Y-173906033D01*
X121696666Y-158619366D02*
X121729999Y-158652700D01*
X121729999Y-158652700D02*
X121829999Y-158686033D01*
X121829999Y-158686033D02*
X121896666Y-158686033D01*
X121896666Y-158686033D02*
X121996666Y-158652700D01*
X121996666Y-158652700D02*
X122063333Y-158586033D01*
X122063333Y-158586033D02*
X122096666Y-158519366D01*
X122096666Y-158519366D02*
X122129999Y-158386033D01*
X122129999Y-158386033D02*
X122129999Y-158286033D01*
X122129999Y-158286033D02*
X122096666Y-158152700D01*
X122096666Y-158152700D02*
X122063333Y-158086033D01*
X122063333Y-158086033D02*
X121996666Y-158019366D01*
X121996666Y-158019366D02*
X121896666Y-157986033D01*
X121896666Y-157986033D02*
X121829999Y-157986033D01*
X121829999Y-157986033D02*
X121729999Y-158019366D01*
X121729999Y-158019366D02*
X121696666Y-158052700D01*
X121296666Y-158286033D02*
X121363333Y-158252700D01*
X121363333Y-158252700D02*
X121396666Y-158219366D01*
X121396666Y-158219366D02*
X121429999Y-158152700D01*
X121429999Y-158152700D02*
X121429999Y-158119366D01*
X121429999Y-158119366D02*
X121396666Y-158052700D01*
X121396666Y-158052700D02*
X121363333Y-158019366D01*
X121363333Y-158019366D02*
X121296666Y-157986033D01*
X121296666Y-157986033D02*
X121163333Y-157986033D01*
X121163333Y-157986033D02*
X121096666Y-158019366D01*
X121096666Y-158019366D02*
X121063333Y-158052700D01*
X121063333Y-158052700D02*
X121029999Y-158119366D01*
X121029999Y-158119366D02*
X121029999Y-158152700D01*
X121029999Y-158152700D02*
X121063333Y-158219366D01*
X121063333Y-158219366D02*
X121096666Y-158252700D01*
X121096666Y-158252700D02*
X121163333Y-158286033D01*
X121163333Y-158286033D02*
X121296666Y-158286033D01*
X121296666Y-158286033D02*
X121363333Y-158319366D01*
X121363333Y-158319366D02*
X121396666Y-158352700D01*
X121396666Y-158352700D02*
X121429999Y-158419366D01*
X121429999Y-158419366D02*
X121429999Y-158552700D01*
X121429999Y-158552700D02*
X121396666Y-158619366D01*
X121396666Y-158619366D02*
X121363333Y-158652700D01*
X121363333Y-158652700D02*
X121296666Y-158686033D01*
X121296666Y-158686033D02*
X121163333Y-158686033D01*
X121163333Y-158686033D02*
X121096666Y-158652700D01*
X121096666Y-158652700D02*
X121063333Y-158619366D01*
X121063333Y-158619366D02*
X121029999Y-158552700D01*
X121029999Y-158552700D02*
X121029999Y-158419366D01*
X121029999Y-158419366D02*
X121063333Y-158352700D01*
X121063333Y-158352700D02*
X121096666Y-158319366D01*
X121096666Y-158319366D02*
X121163333Y-158286033D01*
X68542857Y-141259580D02*
X68590476Y-141307200D01*
X68590476Y-141307200D02*
X68733333Y-141354819D01*
X68733333Y-141354819D02*
X68828571Y-141354819D01*
X68828571Y-141354819D02*
X68971428Y-141307200D01*
X68971428Y-141307200D02*
X69066666Y-141211961D01*
X69066666Y-141211961D02*
X69114285Y-141116723D01*
X69114285Y-141116723D02*
X69161904Y-140926247D01*
X69161904Y-140926247D02*
X69161904Y-140783390D01*
X69161904Y-140783390D02*
X69114285Y-140592914D01*
X69114285Y-140592914D02*
X69066666Y-140497676D01*
X69066666Y-140497676D02*
X68971428Y-140402438D01*
X68971428Y-140402438D02*
X68828571Y-140354819D01*
X68828571Y-140354819D02*
X68733333Y-140354819D01*
X68733333Y-140354819D02*
X68590476Y-140402438D01*
X68590476Y-140402438D02*
X68542857Y-140450057D01*
X67590476Y-141354819D02*
X68161904Y-141354819D01*
X67876190Y-141354819D02*
X67876190Y-140354819D01*
X67876190Y-140354819D02*
X67971428Y-140497676D01*
X67971428Y-140497676D02*
X68066666Y-140592914D01*
X68066666Y-140592914D02*
X68161904Y-140640533D01*
X67209523Y-140450057D02*
X67161904Y-140402438D01*
X67161904Y-140402438D02*
X67066666Y-140354819D01*
X67066666Y-140354819D02*
X66828571Y-140354819D01*
X66828571Y-140354819D02*
X66733333Y-140402438D01*
X66733333Y-140402438D02*
X66685714Y-140450057D01*
X66685714Y-140450057D02*
X66638095Y-140545295D01*
X66638095Y-140545295D02*
X66638095Y-140640533D01*
X66638095Y-140640533D02*
X66685714Y-140783390D01*
X66685714Y-140783390D02*
X67257142Y-141354819D01*
X67257142Y-141354819D02*
X66638095Y-141354819D01*
X189874690Y-82080402D02*
X189874690Y-83408161D01*
X189874690Y-83408161D02*
X189796587Y-83564368D01*
X189796587Y-83564368D02*
X189718483Y-83642472D01*
X189718483Y-83642472D02*
X189562276Y-83720575D01*
X189562276Y-83720575D02*
X189249862Y-83720575D01*
X189249862Y-83720575D02*
X189093655Y-83642472D01*
X189093655Y-83642472D02*
X189015552Y-83564368D01*
X189015552Y-83564368D02*
X188937448Y-83408161D01*
X188937448Y-83408161D02*
X188937448Y-82080402D01*
X187297276Y-83720575D02*
X188234518Y-83720575D01*
X187765897Y-83720575D02*
X187765897Y-82080402D01*
X187765897Y-82080402D02*
X187922104Y-82314712D01*
X187922104Y-82314712D02*
X188078311Y-82470919D01*
X188078311Y-82470919D02*
X188234518Y-82549023D01*
X186281930Y-82080402D02*
X186125723Y-82080402D01*
X186125723Y-82080402D02*
X185969516Y-82158505D01*
X185969516Y-82158505D02*
X185891413Y-82236609D01*
X185891413Y-82236609D02*
X185813309Y-82392816D01*
X185813309Y-82392816D02*
X185735206Y-82705230D01*
X185735206Y-82705230D02*
X185735206Y-83095747D01*
X185735206Y-83095747D02*
X185813309Y-83408161D01*
X185813309Y-83408161D02*
X185891413Y-83564368D01*
X185891413Y-83564368D02*
X185969516Y-83642472D01*
X185969516Y-83642472D02*
X186125723Y-83720575D01*
X186125723Y-83720575D02*
X186281930Y-83720575D01*
X186281930Y-83720575D02*
X186438137Y-83642472D01*
X186438137Y-83642472D02*
X186516241Y-83564368D01*
X186516241Y-83564368D02*
X186594344Y-83408161D01*
X186594344Y-83408161D02*
X186672448Y-83095747D01*
X186672448Y-83095747D02*
X186672448Y-82705230D01*
X186672448Y-82705230D02*
X186594344Y-82392816D01*
X186594344Y-82392816D02*
X186516241Y-82236609D01*
X186516241Y-82236609D02*
X186438137Y-82158505D01*
X186438137Y-82158505D02*
X186281930Y-82080402D01*
X243042857Y-75259580D02*
X243090476Y-75307200D01*
X243090476Y-75307200D02*
X243233333Y-75354819D01*
X243233333Y-75354819D02*
X243328571Y-75354819D01*
X243328571Y-75354819D02*
X243471428Y-75307200D01*
X243471428Y-75307200D02*
X243566666Y-75211961D01*
X243566666Y-75211961D02*
X243614285Y-75116723D01*
X243614285Y-75116723D02*
X243661904Y-74926247D01*
X243661904Y-74926247D02*
X243661904Y-74783390D01*
X243661904Y-74783390D02*
X243614285Y-74592914D01*
X243614285Y-74592914D02*
X243566666Y-74497676D01*
X243566666Y-74497676D02*
X243471428Y-74402438D01*
X243471428Y-74402438D02*
X243328571Y-74354819D01*
X243328571Y-74354819D02*
X243233333Y-74354819D01*
X243233333Y-74354819D02*
X243090476Y-74402438D01*
X243090476Y-74402438D02*
X243042857Y-74450057D01*
X242709523Y-74354819D02*
X242042857Y-74354819D01*
X242042857Y-74354819D02*
X242471428Y-75354819D01*
X241709523Y-74450057D02*
X241661904Y-74402438D01*
X241661904Y-74402438D02*
X241566666Y-74354819D01*
X241566666Y-74354819D02*
X241328571Y-74354819D01*
X241328571Y-74354819D02*
X241233333Y-74402438D01*
X241233333Y-74402438D02*
X241185714Y-74450057D01*
X241185714Y-74450057D02*
X241138095Y-74545295D01*
X241138095Y-74545295D02*
X241138095Y-74640533D01*
X241138095Y-74640533D02*
X241185714Y-74783390D01*
X241185714Y-74783390D02*
X241757142Y-75354819D01*
X241757142Y-75354819D02*
X241138095Y-75354819D01*
X243559580Y-195457142D02*
X243607200Y-195409523D01*
X243607200Y-195409523D02*
X243654819Y-195266666D01*
X243654819Y-195266666D02*
X243654819Y-195171428D01*
X243654819Y-195171428D02*
X243607200Y-195028571D01*
X243607200Y-195028571D02*
X243511961Y-194933333D01*
X243511961Y-194933333D02*
X243416723Y-194885714D01*
X243416723Y-194885714D02*
X243226247Y-194838095D01*
X243226247Y-194838095D02*
X243083390Y-194838095D01*
X243083390Y-194838095D02*
X242892914Y-194885714D01*
X242892914Y-194885714D02*
X242797676Y-194933333D01*
X242797676Y-194933333D02*
X242702438Y-195028571D01*
X242702438Y-195028571D02*
X242654819Y-195171428D01*
X242654819Y-195171428D02*
X242654819Y-195266666D01*
X242654819Y-195266666D02*
X242702438Y-195409523D01*
X242702438Y-195409523D02*
X242750057Y-195457142D01*
X242654819Y-195790476D02*
X242654819Y-196457142D01*
X242654819Y-196457142D02*
X243654819Y-196028571D01*
X243083390Y-196980952D02*
X243035771Y-196885714D01*
X243035771Y-196885714D02*
X242988152Y-196838095D01*
X242988152Y-196838095D02*
X242892914Y-196790476D01*
X242892914Y-196790476D02*
X242845295Y-196790476D01*
X242845295Y-196790476D02*
X242750057Y-196838095D01*
X242750057Y-196838095D02*
X242702438Y-196885714D01*
X242702438Y-196885714D02*
X242654819Y-196980952D01*
X242654819Y-196980952D02*
X242654819Y-197171428D01*
X242654819Y-197171428D02*
X242702438Y-197266666D01*
X242702438Y-197266666D02*
X242750057Y-197314285D01*
X242750057Y-197314285D02*
X242845295Y-197361904D01*
X242845295Y-197361904D02*
X242892914Y-197361904D01*
X242892914Y-197361904D02*
X242988152Y-197314285D01*
X242988152Y-197314285D02*
X243035771Y-197266666D01*
X243035771Y-197266666D02*
X243083390Y-197171428D01*
X243083390Y-197171428D02*
X243083390Y-196980952D01*
X243083390Y-196980952D02*
X243131009Y-196885714D01*
X243131009Y-196885714D02*
X243178628Y-196838095D01*
X243178628Y-196838095D02*
X243273866Y-196790476D01*
X243273866Y-196790476D02*
X243464342Y-196790476D01*
X243464342Y-196790476D02*
X243559580Y-196838095D01*
X243559580Y-196838095D02*
X243607200Y-196885714D01*
X243607200Y-196885714D02*
X243654819Y-196980952D01*
X243654819Y-196980952D02*
X243654819Y-197171428D01*
X243654819Y-197171428D02*
X243607200Y-197266666D01*
X243607200Y-197266666D02*
X243559580Y-197314285D01*
X243559580Y-197314285D02*
X243464342Y-197361904D01*
X243464342Y-197361904D02*
X243273866Y-197361904D01*
X243273866Y-197361904D02*
X243178628Y-197314285D01*
X243178628Y-197314285D02*
X243131009Y-197266666D01*
X243131009Y-197266666D02*
X243083390Y-197171428D01*
X143759580Y-246333333D02*
X143807200Y-246285714D01*
X143807200Y-246285714D02*
X143854819Y-246142857D01*
X143854819Y-246142857D02*
X143854819Y-246047619D01*
X143854819Y-246047619D02*
X143807200Y-245904762D01*
X143807200Y-245904762D02*
X143711961Y-245809524D01*
X143711961Y-245809524D02*
X143616723Y-245761905D01*
X143616723Y-245761905D02*
X143426247Y-245714286D01*
X143426247Y-245714286D02*
X143283390Y-245714286D01*
X143283390Y-245714286D02*
X143092914Y-245761905D01*
X143092914Y-245761905D02*
X142997676Y-245809524D01*
X142997676Y-245809524D02*
X142902438Y-245904762D01*
X142902438Y-245904762D02*
X142854819Y-246047619D01*
X142854819Y-246047619D02*
X142854819Y-246142857D01*
X142854819Y-246142857D02*
X142902438Y-246285714D01*
X142902438Y-246285714D02*
X142950057Y-246333333D01*
X142950057Y-246714286D02*
X142902438Y-246761905D01*
X142902438Y-246761905D02*
X142854819Y-246857143D01*
X142854819Y-246857143D02*
X142854819Y-247095238D01*
X142854819Y-247095238D02*
X142902438Y-247190476D01*
X142902438Y-247190476D02*
X142950057Y-247238095D01*
X142950057Y-247238095D02*
X143045295Y-247285714D01*
X143045295Y-247285714D02*
X143140533Y-247285714D01*
X143140533Y-247285714D02*
X143283390Y-247238095D01*
X143283390Y-247238095D02*
X143854819Y-246666667D01*
X143854819Y-246666667D02*
X143854819Y-247285714D01*
X99304819Y-231757142D02*
X98828628Y-231423809D01*
X99304819Y-231185714D02*
X98304819Y-231185714D01*
X98304819Y-231185714D02*
X98304819Y-231566666D01*
X98304819Y-231566666D02*
X98352438Y-231661904D01*
X98352438Y-231661904D02*
X98400057Y-231709523D01*
X98400057Y-231709523D02*
X98495295Y-231757142D01*
X98495295Y-231757142D02*
X98638152Y-231757142D01*
X98638152Y-231757142D02*
X98733390Y-231709523D01*
X98733390Y-231709523D02*
X98781009Y-231661904D01*
X98781009Y-231661904D02*
X98828628Y-231566666D01*
X98828628Y-231566666D02*
X98828628Y-231185714D01*
X99304819Y-232709523D02*
X99304819Y-232138095D01*
X99304819Y-232423809D02*
X98304819Y-232423809D01*
X98304819Y-232423809D02*
X98447676Y-232328571D01*
X98447676Y-232328571D02*
X98542914Y-232233333D01*
X98542914Y-232233333D02*
X98590533Y-232138095D01*
X98400057Y-233090476D02*
X98352438Y-233138095D01*
X98352438Y-233138095D02*
X98304819Y-233233333D01*
X98304819Y-233233333D02*
X98304819Y-233471428D01*
X98304819Y-233471428D02*
X98352438Y-233566666D01*
X98352438Y-233566666D02*
X98400057Y-233614285D01*
X98400057Y-233614285D02*
X98495295Y-233661904D01*
X98495295Y-233661904D02*
X98590533Y-233661904D01*
X98590533Y-233661904D02*
X98733390Y-233614285D01*
X98733390Y-233614285D02*
X99304819Y-233042857D01*
X99304819Y-233042857D02*
X99304819Y-233661904D01*
X244259580Y-65857142D02*
X244307200Y-65809523D01*
X244307200Y-65809523D02*
X244354819Y-65666666D01*
X244354819Y-65666666D02*
X244354819Y-65571428D01*
X244354819Y-65571428D02*
X244307200Y-65428571D01*
X244307200Y-65428571D02*
X244211961Y-65333333D01*
X244211961Y-65333333D02*
X244116723Y-65285714D01*
X244116723Y-65285714D02*
X243926247Y-65238095D01*
X243926247Y-65238095D02*
X243783390Y-65238095D01*
X243783390Y-65238095D02*
X243592914Y-65285714D01*
X243592914Y-65285714D02*
X243497676Y-65333333D01*
X243497676Y-65333333D02*
X243402438Y-65428571D01*
X243402438Y-65428571D02*
X243354819Y-65571428D01*
X243354819Y-65571428D02*
X243354819Y-65666666D01*
X243354819Y-65666666D02*
X243402438Y-65809523D01*
X243402438Y-65809523D02*
X243450057Y-65857142D01*
X243354819Y-66714285D02*
X243354819Y-66523809D01*
X243354819Y-66523809D02*
X243402438Y-66428571D01*
X243402438Y-66428571D02*
X243450057Y-66380952D01*
X243450057Y-66380952D02*
X243592914Y-66285714D01*
X243592914Y-66285714D02*
X243783390Y-66238095D01*
X243783390Y-66238095D02*
X244164342Y-66238095D01*
X244164342Y-66238095D02*
X244259580Y-66285714D01*
X244259580Y-66285714D02*
X244307200Y-66333333D01*
X244307200Y-66333333D02*
X244354819Y-66428571D01*
X244354819Y-66428571D02*
X244354819Y-66619047D01*
X244354819Y-66619047D02*
X244307200Y-66714285D01*
X244307200Y-66714285D02*
X244259580Y-66761904D01*
X244259580Y-66761904D02*
X244164342Y-66809523D01*
X244164342Y-66809523D02*
X243926247Y-66809523D01*
X243926247Y-66809523D02*
X243831009Y-66761904D01*
X243831009Y-66761904D02*
X243783390Y-66714285D01*
X243783390Y-66714285D02*
X243735771Y-66619047D01*
X243735771Y-66619047D02*
X243735771Y-66428571D01*
X243735771Y-66428571D02*
X243783390Y-66333333D01*
X243783390Y-66333333D02*
X243831009Y-66285714D01*
X243831009Y-66285714D02*
X243926247Y-66238095D01*
X243354819Y-67428571D02*
X243354819Y-67523809D01*
X243354819Y-67523809D02*
X243402438Y-67619047D01*
X243402438Y-67619047D02*
X243450057Y-67666666D01*
X243450057Y-67666666D02*
X243545295Y-67714285D01*
X243545295Y-67714285D02*
X243735771Y-67761904D01*
X243735771Y-67761904D02*
X243973866Y-67761904D01*
X243973866Y-67761904D02*
X244164342Y-67714285D01*
X244164342Y-67714285D02*
X244259580Y-67666666D01*
X244259580Y-67666666D02*
X244307200Y-67619047D01*
X244307200Y-67619047D02*
X244354819Y-67523809D01*
X244354819Y-67523809D02*
X244354819Y-67428571D01*
X244354819Y-67428571D02*
X244307200Y-67333333D01*
X244307200Y-67333333D02*
X244259580Y-67285714D01*
X244259580Y-67285714D02*
X244164342Y-67238095D01*
X244164342Y-67238095D02*
X243973866Y-67190476D01*
X243973866Y-67190476D02*
X243735771Y-67190476D01*
X243735771Y-67190476D02*
X243545295Y-67238095D01*
X243545295Y-67238095D02*
X243450057Y-67285714D01*
X243450057Y-67285714D02*
X243402438Y-67333333D01*
X243402438Y-67333333D02*
X243354819Y-67428571D01*
X223642857Y-160279580D02*
X223690476Y-160327200D01*
X223690476Y-160327200D02*
X223833333Y-160374819D01*
X223833333Y-160374819D02*
X223928571Y-160374819D01*
X223928571Y-160374819D02*
X224071428Y-160327200D01*
X224071428Y-160327200D02*
X224166666Y-160231961D01*
X224166666Y-160231961D02*
X224214285Y-160136723D01*
X224214285Y-160136723D02*
X224261904Y-159946247D01*
X224261904Y-159946247D02*
X224261904Y-159803390D01*
X224261904Y-159803390D02*
X224214285Y-159612914D01*
X224214285Y-159612914D02*
X224166666Y-159517676D01*
X224166666Y-159517676D02*
X224071428Y-159422438D01*
X224071428Y-159422438D02*
X223928571Y-159374819D01*
X223928571Y-159374819D02*
X223833333Y-159374819D01*
X223833333Y-159374819D02*
X223690476Y-159422438D01*
X223690476Y-159422438D02*
X223642857Y-159470057D01*
X223309523Y-159374819D02*
X222642857Y-159374819D01*
X222642857Y-159374819D02*
X223071428Y-160374819D01*
X222071428Y-159374819D02*
X221976190Y-159374819D01*
X221976190Y-159374819D02*
X221880952Y-159422438D01*
X221880952Y-159422438D02*
X221833333Y-159470057D01*
X221833333Y-159470057D02*
X221785714Y-159565295D01*
X221785714Y-159565295D02*
X221738095Y-159755771D01*
X221738095Y-159755771D02*
X221738095Y-159993866D01*
X221738095Y-159993866D02*
X221785714Y-160184342D01*
X221785714Y-160184342D02*
X221833333Y-160279580D01*
X221833333Y-160279580D02*
X221880952Y-160327200D01*
X221880952Y-160327200D02*
X221976190Y-160374819D01*
X221976190Y-160374819D02*
X222071428Y-160374819D01*
X222071428Y-160374819D02*
X222166666Y-160327200D01*
X222166666Y-160327200D02*
X222214285Y-160279580D01*
X222214285Y-160279580D02*
X222261904Y-160184342D01*
X222261904Y-160184342D02*
X222309523Y-159993866D01*
X222309523Y-159993866D02*
X222309523Y-159755771D01*
X222309523Y-159755771D02*
X222261904Y-159565295D01*
X222261904Y-159565295D02*
X222214285Y-159470057D01*
X222214285Y-159470057D02*
X222166666Y-159422438D01*
X222166666Y-159422438D02*
X222071428Y-159374819D01*
X145854819Y-67957142D02*
X145378628Y-67623809D01*
X145854819Y-67385714D02*
X144854819Y-67385714D01*
X144854819Y-67385714D02*
X144854819Y-67766666D01*
X144854819Y-67766666D02*
X144902438Y-67861904D01*
X144902438Y-67861904D02*
X144950057Y-67909523D01*
X144950057Y-67909523D02*
X145045295Y-67957142D01*
X145045295Y-67957142D02*
X145188152Y-67957142D01*
X145188152Y-67957142D02*
X145283390Y-67909523D01*
X145283390Y-67909523D02*
X145331009Y-67861904D01*
X145331009Y-67861904D02*
X145378628Y-67766666D01*
X145378628Y-67766666D02*
X145378628Y-67385714D01*
X144854819Y-68861904D02*
X144854819Y-68385714D01*
X144854819Y-68385714D02*
X145331009Y-68338095D01*
X145331009Y-68338095D02*
X145283390Y-68385714D01*
X145283390Y-68385714D02*
X145235771Y-68480952D01*
X145235771Y-68480952D02*
X145235771Y-68719047D01*
X145235771Y-68719047D02*
X145283390Y-68814285D01*
X145283390Y-68814285D02*
X145331009Y-68861904D01*
X145331009Y-68861904D02*
X145426247Y-68909523D01*
X145426247Y-68909523D02*
X145664342Y-68909523D01*
X145664342Y-68909523D02*
X145759580Y-68861904D01*
X145759580Y-68861904D02*
X145807200Y-68814285D01*
X145807200Y-68814285D02*
X145854819Y-68719047D01*
X145854819Y-68719047D02*
X145854819Y-68480952D01*
X145854819Y-68480952D02*
X145807200Y-68385714D01*
X145807200Y-68385714D02*
X145759580Y-68338095D01*
X144854819Y-69528571D02*
X144854819Y-69623809D01*
X144854819Y-69623809D02*
X144902438Y-69719047D01*
X144902438Y-69719047D02*
X144950057Y-69766666D01*
X144950057Y-69766666D02*
X145045295Y-69814285D01*
X145045295Y-69814285D02*
X145235771Y-69861904D01*
X145235771Y-69861904D02*
X145473866Y-69861904D01*
X145473866Y-69861904D02*
X145664342Y-69814285D01*
X145664342Y-69814285D02*
X145759580Y-69766666D01*
X145759580Y-69766666D02*
X145807200Y-69719047D01*
X145807200Y-69719047D02*
X145854819Y-69623809D01*
X145854819Y-69623809D02*
X145854819Y-69528571D01*
X145854819Y-69528571D02*
X145807200Y-69433333D01*
X145807200Y-69433333D02*
X145759580Y-69385714D01*
X145759580Y-69385714D02*
X145664342Y-69338095D01*
X145664342Y-69338095D02*
X145473866Y-69290476D01*
X145473866Y-69290476D02*
X145235771Y-69290476D01*
X145235771Y-69290476D02*
X145045295Y-69338095D01*
X145045295Y-69338095D02*
X144950057Y-69385714D01*
X144950057Y-69385714D02*
X144902438Y-69433333D01*
X144902438Y-69433333D02*
X144854819Y-69528571D01*
X151159580Y-233907142D02*
X151207200Y-233859523D01*
X151207200Y-233859523D02*
X151254819Y-233716666D01*
X151254819Y-233716666D02*
X151254819Y-233621428D01*
X151254819Y-233621428D02*
X151207200Y-233478571D01*
X151207200Y-233478571D02*
X151111961Y-233383333D01*
X151111961Y-233383333D02*
X151016723Y-233335714D01*
X151016723Y-233335714D02*
X150826247Y-233288095D01*
X150826247Y-233288095D02*
X150683390Y-233288095D01*
X150683390Y-233288095D02*
X150492914Y-233335714D01*
X150492914Y-233335714D02*
X150397676Y-233383333D01*
X150397676Y-233383333D02*
X150302438Y-233478571D01*
X150302438Y-233478571D02*
X150254819Y-233621428D01*
X150254819Y-233621428D02*
X150254819Y-233716666D01*
X150254819Y-233716666D02*
X150302438Y-233859523D01*
X150302438Y-233859523D02*
X150350057Y-233907142D01*
X151254819Y-234859523D02*
X151254819Y-234288095D01*
X151254819Y-234573809D02*
X150254819Y-234573809D01*
X150254819Y-234573809D02*
X150397676Y-234478571D01*
X150397676Y-234478571D02*
X150492914Y-234383333D01*
X150492914Y-234383333D02*
X150540533Y-234288095D01*
X150683390Y-235430952D02*
X150635771Y-235335714D01*
X150635771Y-235335714D02*
X150588152Y-235288095D01*
X150588152Y-235288095D02*
X150492914Y-235240476D01*
X150492914Y-235240476D02*
X150445295Y-235240476D01*
X150445295Y-235240476D02*
X150350057Y-235288095D01*
X150350057Y-235288095D02*
X150302438Y-235335714D01*
X150302438Y-235335714D02*
X150254819Y-235430952D01*
X150254819Y-235430952D02*
X150254819Y-235621428D01*
X150254819Y-235621428D02*
X150302438Y-235716666D01*
X150302438Y-235716666D02*
X150350057Y-235764285D01*
X150350057Y-235764285D02*
X150445295Y-235811904D01*
X150445295Y-235811904D02*
X150492914Y-235811904D01*
X150492914Y-235811904D02*
X150588152Y-235764285D01*
X150588152Y-235764285D02*
X150635771Y-235716666D01*
X150635771Y-235716666D02*
X150683390Y-235621428D01*
X150683390Y-235621428D02*
X150683390Y-235430952D01*
X150683390Y-235430952D02*
X150731009Y-235335714D01*
X150731009Y-235335714D02*
X150778628Y-235288095D01*
X150778628Y-235288095D02*
X150873866Y-235240476D01*
X150873866Y-235240476D02*
X151064342Y-235240476D01*
X151064342Y-235240476D02*
X151159580Y-235288095D01*
X151159580Y-235288095D02*
X151207200Y-235335714D01*
X151207200Y-235335714D02*
X151254819Y-235430952D01*
X151254819Y-235430952D02*
X151254819Y-235621428D01*
X151254819Y-235621428D02*
X151207200Y-235716666D01*
X151207200Y-235716666D02*
X151159580Y-235764285D01*
X151159580Y-235764285D02*
X151064342Y-235811904D01*
X151064342Y-235811904D02*
X150873866Y-235811904D01*
X150873866Y-235811904D02*
X150778628Y-235764285D01*
X150778628Y-235764285D02*
X150731009Y-235716666D01*
X150731009Y-235716666D02*
X150683390Y-235621428D01*
X69979580Y-151857142D02*
X70027200Y-151809523D01*
X70027200Y-151809523D02*
X70074819Y-151666666D01*
X70074819Y-151666666D02*
X70074819Y-151571428D01*
X70074819Y-151571428D02*
X70027200Y-151428571D01*
X70027200Y-151428571D02*
X69931961Y-151333333D01*
X69931961Y-151333333D02*
X69836723Y-151285714D01*
X69836723Y-151285714D02*
X69646247Y-151238095D01*
X69646247Y-151238095D02*
X69503390Y-151238095D01*
X69503390Y-151238095D02*
X69312914Y-151285714D01*
X69312914Y-151285714D02*
X69217676Y-151333333D01*
X69217676Y-151333333D02*
X69122438Y-151428571D01*
X69122438Y-151428571D02*
X69074819Y-151571428D01*
X69074819Y-151571428D02*
X69074819Y-151666666D01*
X69074819Y-151666666D02*
X69122438Y-151809523D01*
X69122438Y-151809523D02*
X69170057Y-151857142D01*
X69170057Y-152238095D02*
X69122438Y-152285714D01*
X69122438Y-152285714D02*
X69074819Y-152380952D01*
X69074819Y-152380952D02*
X69074819Y-152619047D01*
X69074819Y-152619047D02*
X69122438Y-152714285D01*
X69122438Y-152714285D02*
X69170057Y-152761904D01*
X69170057Y-152761904D02*
X69265295Y-152809523D01*
X69265295Y-152809523D02*
X69360533Y-152809523D01*
X69360533Y-152809523D02*
X69503390Y-152761904D01*
X69503390Y-152761904D02*
X70074819Y-152190476D01*
X70074819Y-152190476D02*
X70074819Y-152809523D01*
X70074819Y-153285714D02*
X70074819Y-153476190D01*
X70074819Y-153476190D02*
X70027200Y-153571428D01*
X70027200Y-153571428D02*
X69979580Y-153619047D01*
X69979580Y-153619047D02*
X69836723Y-153714285D01*
X69836723Y-153714285D02*
X69646247Y-153761904D01*
X69646247Y-153761904D02*
X69265295Y-153761904D01*
X69265295Y-153761904D02*
X69170057Y-153714285D01*
X69170057Y-153714285D02*
X69122438Y-153666666D01*
X69122438Y-153666666D02*
X69074819Y-153571428D01*
X69074819Y-153571428D02*
X69074819Y-153380952D01*
X69074819Y-153380952D02*
X69122438Y-153285714D01*
X69122438Y-153285714D02*
X69170057Y-153238095D01*
X69170057Y-153238095D02*
X69265295Y-153190476D01*
X69265295Y-153190476D02*
X69503390Y-153190476D01*
X69503390Y-153190476D02*
X69598628Y-153238095D01*
X69598628Y-153238095D02*
X69646247Y-153285714D01*
X69646247Y-153285714D02*
X69693866Y-153380952D01*
X69693866Y-153380952D02*
X69693866Y-153571428D01*
X69693866Y-153571428D02*
X69646247Y-153666666D01*
X69646247Y-153666666D02*
X69598628Y-153714285D01*
X69598628Y-153714285D02*
X69503390Y-153761904D01*
X80442857Y-79379580D02*
X80490476Y-79427200D01*
X80490476Y-79427200D02*
X80633333Y-79474819D01*
X80633333Y-79474819D02*
X80728571Y-79474819D01*
X80728571Y-79474819D02*
X80871428Y-79427200D01*
X80871428Y-79427200D02*
X80966666Y-79331961D01*
X80966666Y-79331961D02*
X81014285Y-79236723D01*
X81014285Y-79236723D02*
X81061904Y-79046247D01*
X81061904Y-79046247D02*
X81061904Y-78903390D01*
X81061904Y-78903390D02*
X81014285Y-78712914D01*
X81014285Y-78712914D02*
X80966666Y-78617676D01*
X80966666Y-78617676D02*
X80871428Y-78522438D01*
X80871428Y-78522438D02*
X80728571Y-78474819D01*
X80728571Y-78474819D02*
X80633333Y-78474819D01*
X80633333Y-78474819D02*
X80490476Y-78522438D01*
X80490476Y-78522438D02*
X80442857Y-78570057D01*
X79490476Y-79474819D02*
X80061904Y-79474819D01*
X79776190Y-79474819D02*
X79776190Y-78474819D01*
X79776190Y-78474819D02*
X79871428Y-78617676D01*
X79871428Y-78617676D02*
X79966666Y-78712914D01*
X79966666Y-78712914D02*
X80061904Y-78760533D01*
X79157142Y-78474819D02*
X78538095Y-78474819D01*
X78538095Y-78474819D02*
X78871428Y-78855771D01*
X78871428Y-78855771D02*
X78728571Y-78855771D01*
X78728571Y-78855771D02*
X78633333Y-78903390D01*
X78633333Y-78903390D02*
X78585714Y-78951009D01*
X78585714Y-78951009D02*
X78538095Y-79046247D01*
X78538095Y-79046247D02*
X78538095Y-79284342D01*
X78538095Y-79284342D02*
X78585714Y-79379580D01*
X78585714Y-79379580D02*
X78633333Y-79427200D01*
X78633333Y-79427200D02*
X78728571Y-79474819D01*
X78728571Y-79474819D02*
X79014285Y-79474819D01*
X79014285Y-79474819D02*
X79109523Y-79427200D01*
X79109523Y-79427200D02*
X79157142Y-79379580D01*
X117736666Y-147766033D02*
X117736666Y-148332700D01*
X117736666Y-148332700D02*
X117703333Y-148399366D01*
X117703333Y-148399366D02*
X117669999Y-148432700D01*
X117669999Y-148432700D02*
X117603333Y-148466033D01*
X117603333Y-148466033D02*
X117469999Y-148466033D01*
X117469999Y-148466033D02*
X117403333Y-148432700D01*
X117403333Y-148432700D02*
X117369999Y-148399366D01*
X117369999Y-148399366D02*
X117336666Y-148332700D01*
X117336666Y-148332700D02*
X117336666Y-147766033D01*
X116636666Y-148466033D02*
X117036666Y-148466033D01*
X116836666Y-148466033D02*
X116836666Y-147766033D01*
X116836666Y-147766033D02*
X116903333Y-147866033D01*
X116903333Y-147866033D02*
X116970000Y-147932700D01*
X116970000Y-147932700D02*
X117036666Y-147966033D01*
X116369999Y-147832700D02*
X116336666Y-147799366D01*
X116336666Y-147799366D02*
X116269999Y-147766033D01*
X116269999Y-147766033D02*
X116103333Y-147766033D01*
X116103333Y-147766033D02*
X116036666Y-147799366D01*
X116036666Y-147799366D02*
X116003333Y-147832700D01*
X116003333Y-147832700D02*
X115969999Y-147899366D01*
X115969999Y-147899366D02*
X115969999Y-147966033D01*
X115969999Y-147966033D02*
X116003333Y-148066033D01*
X116003333Y-148066033D02*
X116403333Y-148466033D01*
X116403333Y-148466033D02*
X115969999Y-148466033D01*
X243354819Y-69057142D02*
X242878628Y-68723809D01*
X243354819Y-68485714D02*
X242354819Y-68485714D01*
X242354819Y-68485714D02*
X242354819Y-68866666D01*
X242354819Y-68866666D02*
X242402438Y-68961904D01*
X242402438Y-68961904D02*
X242450057Y-69009523D01*
X242450057Y-69009523D02*
X242545295Y-69057142D01*
X242545295Y-69057142D02*
X242688152Y-69057142D01*
X242688152Y-69057142D02*
X242783390Y-69009523D01*
X242783390Y-69009523D02*
X242831009Y-68961904D01*
X242831009Y-68961904D02*
X242878628Y-68866666D01*
X242878628Y-68866666D02*
X242878628Y-68485714D01*
X242688152Y-69914285D02*
X243354819Y-69914285D01*
X242307200Y-69676190D02*
X243021485Y-69438095D01*
X243021485Y-69438095D02*
X243021485Y-70057142D01*
X242354819Y-70342857D02*
X242354819Y-71009523D01*
X242354819Y-71009523D02*
X243354819Y-70580952D01*
X188554819Y-72344642D02*
X188078628Y-72011309D01*
X188554819Y-71773214D02*
X187554819Y-71773214D01*
X187554819Y-71773214D02*
X187554819Y-72154166D01*
X187554819Y-72154166D02*
X187602438Y-72249404D01*
X187602438Y-72249404D02*
X187650057Y-72297023D01*
X187650057Y-72297023D02*
X187745295Y-72344642D01*
X187745295Y-72344642D02*
X187888152Y-72344642D01*
X187888152Y-72344642D02*
X187983390Y-72297023D01*
X187983390Y-72297023D02*
X188031009Y-72249404D01*
X188031009Y-72249404D02*
X188078628Y-72154166D01*
X188078628Y-72154166D02*
X188078628Y-71773214D01*
X187554819Y-73249404D02*
X187554819Y-72773214D01*
X187554819Y-72773214D02*
X188031009Y-72725595D01*
X188031009Y-72725595D02*
X187983390Y-72773214D01*
X187983390Y-72773214D02*
X187935771Y-72868452D01*
X187935771Y-72868452D02*
X187935771Y-73106547D01*
X187935771Y-73106547D02*
X187983390Y-73201785D01*
X187983390Y-73201785D02*
X188031009Y-73249404D01*
X188031009Y-73249404D02*
X188126247Y-73297023D01*
X188126247Y-73297023D02*
X188364342Y-73297023D01*
X188364342Y-73297023D02*
X188459580Y-73249404D01*
X188459580Y-73249404D02*
X188507200Y-73201785D01*
X188507200Y-73201785D02*
X188554819Y-73106547D01*
X188554819Y-73106547D02*
X188554819Y-72868452D01*
X188554819Y-72868452D02*
X188507200Y-72773214D01*
X188507200Y-72773214D02*
X188459580Y-72725595D01*
X187888152Y-74154166D02*
X188554819Y-74154166D01*
X187507200Y-73916071D02*
X188221485Y-73677976D01*
X188221485Y-73677976D02*
X188221485Y-74297023D01*
D11*
X55715817Y-151771428D02*
X55235817Y-151771428D01*
X55235817Y-151771428D02*
X55578674Y-151931428D01*
X55578674Y-151931428D02*
X55235817Y-152091428D01*
X55235817Y-152091428D02*
X55715817Y-152091428D01*
X55715817Y-152319999D02*
X55235817Y-152319999D01*
X55715817Y-152594285D02*
X55441531Y-152388571D01*
X55235817Y-152594285D02*
X55510102Y-152319999D01*
X55281531Y-152777142D02*
X55258674Y-152799999D01*
X55258674Y-152799999D02*
X55235817Y-152845714D01*
X55235817Y-152845714D02*
X55235817Y-152959999D01*
X55235817Y-152959999D02*
X55258674Y-153005714D01*
X55258674Y-153005714D02*
X55281531Y-153028571D01*
X55281531Y-153028571D02*
X55327245Y-153051428D01*
X55327245Y-153051428D02*
X55372960Y-153051428D01*
X55372960Y-153051428D02*
X55441531Y-153028571D01*
X55441531Y-153028571D02*
X55715817Y-152754285D01*
X55715817Y-152754285D02*
X55715817Y-153051428D01*
D10*
X124296033Y-137099999D02*
X123962700Y-136866666D01*
X124296033Y-136699999D02*
X123596033Y-136699999D01*
X123596033Y-136699999D02*
X123596033Y-136966666D01*
X123596033Y-136966666D02*
X123629366Y-137033333D01*
X123629366Y-137033333D02*
X123662700Y-137066666D01*
X123662700Y-137066666D02*
X123729366Y-137099999D01*
X123729366Y-137099999D02*
X123829366Y-137099999D01*
X123829366Y-137099999D02*
X123896033Y-137066666D01*
X123896033Y-137066666D02*
X123929366Y-137033333D01*
X123929366Y-137033333D02*
X123962700Y-136966666D01*
X123962700Y-136966666D02*
X123962700Y-136699999D01*
X123829366Y-137699999D02*
X124296033Y-137699999D01*
X123562700Y-137533333D02*
X124062700Y-137366666D01*
X124062700Y-137366666D02*
X124062700Y-137799999D01*
X123662700Y-138033333D02*
X123629366Y-138066666D01*
X123629366Y-138066666D02*
X123596033Y-138133333D01*
X123596033Y-138133333D02*
X123596033Y-138300000D01*
X123596033Y-138300000D02*
X123629366Y-138366666D01*
X123629366Y-138366666D02*
X123662700Y-138400000D01*
X123662700Y-138400000D02*
X123729366Y-138433333D01*
X123729366Y-138433333D02*
X123796033Y-138433333D01*
X123796033Y-138433333D02*
X123896033Y-138400000D01*
X123896033Y-138400000D02*
X124296033Y-138000000D01*
X124296033Y-138000000D02*
X124296033Y-138433333D01*
D11*
X239728571Y-59615817D02*
X239728571Y-59135817D01*
X239728571Y-59135817D02*
X239568571Y-59478674D01*
X239568571Y-59478674D02*
X239408571Y-59135817D01*
X239408571Y-59135817D02*
X239408571Y-59615817D01*
X239180000Y-59615817D02*
X239180000Y-59135817D01*
X238905714Y-59615817D02*
X239111428Y-59341531D01*
X238905714Y-59135817D02*
X239180000Y-59410102D01*
X238745714Y-59135817D02*
X238425714Y-59135817D01*
X238425714Y-59135817D02*
X238631428Y-59615817D01*
D10*
X232542857Y-193104819D02*
X232876190Y-192628628D01*
X233114285Y-193104819D02*
X233114285Y-192104819D01*
X233114285Y-192104819D02*
X232733333Y-192104819D01*
X232733333Y-192104819D02*
X232638095Y-192152438D01*
X232638095Y-192152438D02*
X232590476Y-192200057D01*
X232590476Y-192200057D02*
X232542857Y-192295295D01*
X232542857Y-192295295D02*
X232542857Y-192438152D01*
X232542857Y-192438152D02*
X232590476Y-192533390D01*
X232590476Y-192533390D02*
X232638095Y-192581009D01*
X232638095Y-192581009D02*
X232733333Y-192628628D01*
X232733333Y-192628628D02*
X233114285Y-192628628D01*
X231638095Y-192104819D02*
X232114285Y-192104819D01*
X232114285Y-192104819D02*
X232161904Y-192581009D01*
X232161904Y-192581009D02*
X232114285Y-192533390D01*
X232114285Y-192533390D02*
X232019047Y-192485771D01*
X232019047Y-192485771D02*
X231780952Y-192485771D01*
X231780952Y-192485771D02*
X231685714Y-192533390D01*
X231685714Y-192533390D02*
X231638095Y-192581009D01*
X231638095Y-192581009D02*
X231590476Y-192676247D01*
X231590476Y-192676247D02*
X231590476Y-192914342D01*
X231590476Y-192914342D02*
X231638095Y-193009580D01*
X231638095Y-193009580D02*
X231685714Y-193057200D01*
X231685714Y-193057200D02*
X231780952Y-193104819D01*
X231780952Y-193104819D02*
X232019047Y-193104819D01*
X232019047Y-193104819D02*
X232114285Y-193057200D01*
X232114285Y-193057200D02*
X232161904Y-193009580D01*
X231209523Y-192200057D02*
X231161904Y-192152438D01*
X231161904Y-192152438D02*
X231066666Y-192104819D01*
X231066666Y-192104819D02*
X230828571Y-192104819D01*
X230828571Y-192104819D02*
X230733333Y-192152438D01*
X230733333Y-192152438D02*
X230685714Y-192200057D01*
X230685714Y-192200057D02*
X230638095Y-192295295D01*
X230638095Y-192295295D02*
X230638095Y-192390533D01*
X230638095Y-192390533D02*
X230685714Y-192533390D01*
X230685714Y-192533390D02*
X231257142Y-193104819D01*
X231257142Y-193104819D02*
X230638095Y-193104819D01*
X69459580Y-147457142D02*
X69507200Y-147409523D01*
X69507200Y-147409523D02*
X69554819Y-147266666D01*
X69554819Y-147266666D02*
X69554819Y-147171428D01*
X69554819Y-147171428D02*
X69507200Y-147028571D01*
X69507200Y-147028571D02*
X69411961Y-146933333D01*
X69411961Y-146933333D02*
X69316723Y-146885714D01*
X69316723Y-146885714D02*
X69126247Y-146838095D01*
X69126247Y-146838095D02*
X68983390Y-146838095D01*
X68983390Y-146838095D02*
X68792914Y-146885714D01*
X68792914Y-146885714D02*
X68697676Y-146933333D01*
X68697676Y-146933333D02*
X68602438Y-147028571D01*
X68602438Y-147028571D02*
X68554819Y-147171428D01*
X68554819Y-147171428D02*
X68554819Y-147266666D01*
X68554819Y-147266666D02*
X68602438Y-147409523D01*
X68602438Y-147409523D02*
X68650057Y-147457142D01*
X68650057Y-147838095D02*
X68602438Y-147885714D01*
X68602438Y-147885714D02*
X68554819Y-147980952D01*
X68554819Y-147980952D02*
X68554819Y-148219047D01*
X68554819Y-148219047D02*
X68602438Y-148314285D01*
X68602438Y-148314285D02*
X68650057Y-148361904D01*
X68650057Y-148361904D02*
X68745295Y-148409523D01*
X68745295Y-148409523D02*
X68840533Y-148409523D01*
X68840533Y-148409523D02*
X68983390Y-148361904D01*
X68983390Y-148361904D02*
X69554819Y-147790476D01*
X69554819Y-147790476D02*
X69554819Y-148409523D01*
X68983390Y-148980952D02*
X68935771Y-148885714D01*
X68935771Y-148885714D02*
X68888152Y-148838095D01*
X68888152Y-148838095D02*
X68792914Y-148790476D01*
X68792914Y-148790476D02*
X68745295Y-148790476D01*
X68745295Y-148790476D02*
X68650057Y-148838095D01*
X68650057Y-148838095D02*
X68602438Y-148885714D01*
X68602438Y-148885714D02*
X68554819Y-148980952D01*
X68554819Y-148980952D02*
X68554819Y-149171428D01*
X68554819Y-149171428D02*
X68602438Y-149266666D01*
X68602438Y-149266666D02*
X68650057Y-149314285D01*
X68650057Y-149314285D02*
X68745295Y-149361904D01*
X68745295Y-149361904D02*
X68792914Y-149361904D01*
X68792914Y-149361904D02*
X68888152Y-149314285D01*
X68888152Y-149314285D02*
X68935771Y-149266666D01*
X68935771Y-149266666D02*
X68983390Y-149171428D01*
X68983390Y-149171428D02*
X68983390Y-148980952D01*
X68983390Y-148980952D02*
X69031009Y-148885714D01*
X69031009Y-148885714D02*
X69078628Y-148838095D01*
X69078628Y-148838095D02*
X69173866Y-148790476D01*
X69173866Y-148790476D02*
X69364342Y-148790476D01*
X69364342Y-148790476D02*
X69459580Y-148838095D01*
X69459580Y-148838095D02*
X69507200Y-148885714D01*
X69507200Y-148885714D02*
X69554819Y-148980952D01*
X69554819Y-148980952D02*
X69554819Y-149171428D01*
X69554819Y-149171428D02*
X69507200Y-149266666D01*
X69507200Y-149266666D02*
X69459580Y-149314285D01*
X69459580Y-149314285D02*
X69364342Y-149361904D01*
X69364342Y-149361904D02*
X69173866Y-149361904D01*
X69173866Y-149361904D02*
X69078628Y-149314285D01*
X69078628Y-149314285D02*
X69031009Y-149266666D01*
X69031009Y-149266666D02*
X68983390Y-149171428D01*
X59242857Y-148559580D02*
X59290476Y-148607200D01*
X59290476Y-148607200D02*
X59433333Y-148654819D01*
X59433333Y-148654819D02*
X59528571Y-148654819D01*
X59528571Y-148654819D02*
X59671428Y-148607200D01*
X59671428Y-148607200D02*
X59766666Y-148511961D01*
X59766666Y-148511961D02*
X59814285Y-148416723D01*
X59814285Y-148416723D02*
X59861904Y-148226247D01*
X59861904Y-148226247D02*
X59861904Y-148083390D01*
X59861904Y-148083390D02*
X59814285Y-147892914D01*
X59814285Y-147892914D02*
X59766666Y-147797676D01*
X59766666Y-147797676D02*
X59671428Y-147702438D01*
X59671428Y-147702438D02*
X59528571Y-147654819D01*
X59528571Y-147654819D02*
X59433333Y-147654819D01*
X59433333Y-147654819D02*
X59290476Y-147702438D01*
X59290476Y-147702438D02*
X59242857Y-147750057D01*
X58290476Y-148654819D02*
X58861904Y-148654819D01*
X58576190Y-148654819D02*
X58576190Y-147654819D01*
X58576190Y-147654819D02*
X58671428Y-147797676D01*
X58671428Y-147797676D02*
X58766666Y-147892914D01*
X58766666Y-147892914D02*
X58861904Y-147940533D01*
X57338095Y-148654819D02*
X57909523Y-148654819D01*
X57623809Y-148654819D02*
X57623809Y-147654819D01*
X57623809Y-147654819D02*
X57719047Y-147797676D01*
X57719047Y-147797676D02*
X57814285Y-147892914D01*
X57814285Y-147892914D02*
X57909523Y-147940533D01*
X69659580Y-231733333D02*
X69707200Y-231685714D01*
X69707200Y-231685714D02*
X69754819Y-231542857D01*
X69754819Y-231542857D02*
X69754819Y-231447619D01*
X69754819Y-231447619D02*
X69707200Y-231304762D01*
X69707200Y-231304762D02*
X69611961Y-231209524D01*
X69611961Y-231209524D02*
X69516723Y-231161905D01*
X69516723Y-231161905D02*
X69326247Y-231114286D01*
X69326247Y-231114286D02*
X69183390Y-231114286D01*
X69183390Y-231114286D02*
X68992914Y-231161905D01*
X68992914Y-231161905D02*
X68897676Y-231209524D01*
X68897676Y-231209524D02*
X68802438Y-231304762D01*
X68802438Y-231304762D02*
X68754819Y-231447619D01*
X68754819Y-231447619D02*
X68754819Y-231542857D01*
X68754819Y-231542857D02*
X68802438Y-231685714D01*
X68802438Y-231685714D02*
X68850057Y-231733333D01*
X68754819Y-232590476D02*
X68754819Y-232400000D01*
X68754819Y-232400000D02*
X68802438Y-232304762D01*
X68802438Y-232304762D02*
X68850057Y-232257143D01*
X68850057Y-232257143D02*
X68992914Y-232161905D01*
X68992914Y-232161905D02*
X69183390Y-232114286D01*
X69183390Y-232114286D02*
X69564342Y-232114286D01*
X69564342Y-232114286D02*
X69659580Y-232161905D01*
X69659580Y-232161905D02*
X69707200Y-232209524D01*
X69707200Y-232209524D02*
X69754819Y-232304762D01*
X69754819Y-232304762D02*
X69754819Y-232495238D01*
X69754819Y-232495238D02*
X69707200Y-232590476D01*
X69707200Y-232590476D02*
X69659580Y-232638095D01*
X69659580Y-232638095D02*
X69564342Y-232685714D01*
X69564342Y-232685714D02*
X69326247Y-232685714D01*
X69326247Y-232685714D02*
X69231009Y-232638095D01*
X69231009Y-232638095D02*
X69183390Y-232590476D01*
X69183390Y-232590476D02*
X69135771Y-232495238D01*
X69135771Y-232495238D02*
X69135771Y-232304762D01*
X69135771Y-232304762D02*
X69183390Y-232209524D01*
X69183390Y-232209524D02*
X69231009Y-232161905D01*
X69231009Y-232161905D02*
X69326247Y-232114286D01*
X124253333Y-164286033D02*
X124253333Y-164852700D01*
X124253333Y-164852700D02*
X124220000Y-164919366D01*
X124220000Y-164919366D02*
X124186666Y-164952700D01*
X124186666Y-164952700D02*
X124120000Y-164986033D01*
X124120000Y-164986033D02*
X123986666Y-164986033D01*
X123986666Y-164986033D02*
X123920000Y-164952700D01*
X123920000Y-164952700D02*
X123886666Y-164919366D01*
X123886666Y-164919366D02*
X123853333Y-164852700D01*
X123853333Y-164852700D02*
X123853333Y-164286033D01*
X123586667Y-164286033D02*
X123153333Y-164286033D01*
X123153333Y-164286033D02*
X123386667Y-164552700D01*
X123386667Y-164552700D02*
X123286667Y-164552700D01*
X123286667Y-164552700D02*
X123220000Y-164586033D01*
X123220000Y-164586033D02*
X123186667Y-164619366D01*
X123186667Y-164619366D02*
X123153333Y-164686033D01*
X123153333Y-164686033D02*
X123153333Y-164852700D01*
X123153333Y-164852700D02*
X123186667Y-164919366D01*
X123186667Y-164919366D02*
X123220000Y-164952700D01*
X123220000Y-164952700D02*
X123286667Y-164986033D01*
X123286667Y-164986033D02*
X123486667Y-164986033D01*
X123486667Y-164986033D02*
X123553333Y-164952700D01*
X123553333Y-164952700D02*
X123586667Y-164919366D01*
X123469999Y-161204819D02*
X123469999Y-161442914D01*
X123708094Y-161347676D02*
X123469999Y-161442914D01*
X123469999Y-161442914D02*
X123231904Y-161347676D01*
X123612856Y-161633390D02*
X123469999Y-161442914D01*
X123469999Y-161442914D02*
X123327142Y-161633390D01*
X149979580Y-73157142D02*
X150027200Y-73109523D01*
X150027200Y-73109523D02*
X150074819Y-72966666D01*
X150074819Y-72966666D02*
X150074819Y-72871428D01*
X150074819Y-72871428D02*
X150027200Y-72728571D01*
X150027200Y-72728571D02*
X149931961Y-72633333D01*
X149931961Y-72633333D02*
X149836723Y-72585714D01*
X149836723Y-72585714D02*
X149646247Y-72538095D01*
X149646247Y-72538095D02*
X149503390Y-72538095D01*
X149503390Y-72538095D02*
X149312914Y-72585714D01*
X149312914Y-72585714D02*
X149217676Y-72633333D01*
X149217676Y-72633333D02*
X149122438Y-72728571D01*
X149122438Y-72728571D02*
X149074819Y-72871428D01*
X149074819Y-72871428D02*
X149074819Y-72966666D01*
X149074819Y-72966666D02*
X149122438Y-73109523D01*
X149122438Y-73109523D02*
X149170057Y-73157142D01*
X149074819Y-73490476D02*
X149074819Y-74157142D01*
X149074819Y-74157142D02*
X150074819Y-73728571D01*
X149074819Y-75014285D02*
X149074819Y-74538095D01*
X149074819Y-74538095D02*
X149551009Y-74490476D01*
X149551009Y-74490476D02*
X149503390Y-74538095D01*
X149503390Y-74538095D02*
X149455771Y-74633333D01*
X149455771Y-74633333D02*
X149455771Y-74871428D01*
X149455771Y-74871428D02*
X149503390Y-74966666D01*
X149503390Y-74966666D02*
X149551009Y-75014285D01*
X149551009Y-75014285D02*
X149646247Y-75061904D01*
X149646247Y-75061904D02*
X149884342Y-75061904D01*
X149884342Y-75061904D02*
X149979580Y-75014285D01*
X149979580Y-75014285D02*
X150027200Y-74966666D01*
X150027200Y-74966666D02*
X150074819Y-74871428D01*
X150074819Y-74871428D02*
X150074819Y-74633333D01*
X150074819Y-74633333D02*
X150027200Y-74538095D01*
X150027200Y-74538095D02*
X149979580Y-74490476D01*
X152754819Y-231657142D02*
X152278628Y-231323809D01*
X152754819Y-231085714D02*
X151754819Y-231085714D01*
X151754819Y-231085714D02*
X151754819Y-231466666D01*
X151754819Y-231466666D02*
X151802438Y-231561904D01*
X151802438Y-231561904D02*
X151850057Y-231609523D01*
X151850057Y-231609523D02*
X151945295Y-231657142D01*
X151945295Y-231657142D02*
X152088152Y-231657142D01*
X152088152Y-231657142D02*
X152183390Y-231609523D01*
X152183390Y-231609523D02*
X152231009Y-231561904D01*
X152231009Y-231561904D02*
X152278628Y-231466666D01*
X152278628Y-231466666D02*
X152278628Y-231085714D01*
X152754819Y-232609523D02*
X152754819Y-232038095D01*
X152754819Y-232323809D02*
X151754819Y-232323809D01*
X151754819Y-232323809D02*
X151897676Y-232228571D01*
X151897676Y-232228571D02*
X151992914Y-232133333D01*
X151992914Y-232133333D02*
X152040533Y-232038095D01*
X152754819Y-233561904D02*
X152754819Y-232990476D01*
X152754819Y-233276190D02*
X151754819Y-233276190D01*
X151754819Y-233276190D02*
X151897676Y-233180952D01*
X151897676Y-233180952D02*
X151992914Y-233085714D01*
X151992914Y-233085714D02*
X152040533Y-232990476D01*
X66166666Y-149304819D02*
X66499999Y-148828628D01*
X66738094Y-149304819D02*
X66738094Y-148304819D01*
X66738094Y-148304819D02*
X66357142Y-148304819D01*
X66357142Y-148304819D02*
X66261904Y-148352438D01*
X66261904Y-148352438D02*
X66214285Y-148400057D01*
X66214285Y-148400057D02*
X66166666Y-148495295D01*
X66166666Y-148495295D02*
X66166666Y-148638152D01*
X66166666Y-148638152D02*
X66214285Y-148733390D01*
X66214285Y-148733390D02*
X66261904Y-148781009D01*
X66261904Y-148781009D02*
X66357142Y-148828628D01*
X66357142Y-148828628D02*
X66738094Y-148828628D01*
X65833332Y-148304819D02*
X65214285Y-148304819D01*
X65214285Y-148304819D02*
X65547618Y-148685771D01*
X65547618Y-148685771D02*
X65404761Y-148685771D01*
X65404761Y-148685771D02*
X65309523Y-148733390D01*
X65309523Y-148733390D02*
X65261904Y-148781009D01*
X65261904Y-148781009D02*
X65214285Y-148876247D01*
X65214285Y-148876247D02*
X65214285Y-149114342D01*
X65214285Y-149114342D02*
X65261904Y-149209580D01*
X65261904Y-149209580D02*
X65309523Y-149257200D01*
X65309523Y-149257200D02*
X65404761Y-149304819D01*
X65404761Y-149304819D02*
X65690475Y-149304819D01*
X65690475Y-149304819D02*
X65785713Y-149257200D01*
X65785713Y-149257200D02*
X65833332Y-149209580D01*
X150679580Y-77757142D02*
X150727200Y-77709523D01*
X150727200Y-77709523D02*
X150774819Y-77566666D01*
X150774819Y-77566666D02*
X150774819Y-77471428D01*
X150774819Y-77471428D02*
X150727200Y-77328571D01*
X150727200Y-77328571D02*
X150631961Y-77233333D01*
X150631961Y-77233333D02*
X150536723Y-77185714D01*
X150536723Y-77185714D02*
X150346247Y-77138095D01*
X150346247Y-77138095D02*
X150203390Y-77138095D01*
X150203390Y-77138095D02*
X150012914Y-77185714D01*
X150012914Y-77185714D02*
X149917676Y-77233333D01*
X149917676Y-77233333D02*
X149822438Y-77328571D01*
X149822438Y-77328571D02*
X149774819Y-77471428D01*
X149774819Y-77471428D02*
X149774819Y-77566666D01*
X149774819Y-77566666D02*
X149822438Y-77709523D01*
X149822438Y-77709523D02*
X149870057Y-77757142D01*
X149774819Y-78090476D02*
X149774819Y-78757142D01*
X149774819Y-78757142D02*
X150774819Y-78328571D01*
X149774819Y-79566666D02*
X149774819Y-79376190D01*
X149774819Y-79376190D02*
X149822438Y-79280952D01*
X149822438Y-79280952D02*
X149870057Y-79233333D01*
X149870057Y-79233333D02*
X150012914Y-79138095D01*
X150012914Y-79138095D02*
X150203390Y-79090476D01*
X150203390Y-79090476D02*
X150584342Y-79090476D01*
X150584342Y-79090476D02*
X150679580Y-79138095D01*
X150679580Y-79138095D02*
X150727200Y-79185714D01*
X150727200Y-79185714D02*
X150774819Y-79280952D01*
X150774819Y-79280952D02*
X150774819Y-79471428D01*
X150774819Y-79471428D02*
X150727200Y-79566666D01*
X150727200Y-79566666D02*
X150679580Y-79614285D01*
X150679580Y-79614285D02*
X150584342Y-79661904D01*
X150584342Y-79661904D02*
X150346247Y-79661904D01*
X150346247Y-79661904D02*
X150251009Y-79614285D01*
X150251009Y-79614285D02*
X150203390Y-79566666D01*
X150203390Y-79566666D02*
X150155771Y-79471428D01*
X150155771Y-79471428D02*
X150155771Y-79280952D01*
X150155771Y-79280952D02*
X150203390Y-79185714D01*
X150203390Y-79185714D02*
X150251009Y-79138095D01*
X150251009Y-79138095D02*
X150346247Y-79090476D01*
X145249580Y-229507142D02*
X145297200Y-229459523D01*
X145297200Y-229459523D02*
X145344819Y-229316666D01*
X145344819Y-229316666D02*
X145344819Y-229221428D01*
X145344819Y-229221428D02*
X145297200Y-229078571D01*
X145297200Y-229078571D02*
X145201961Y-228983333D01*
X145201961Y-228983333D02*
X145106723Y-228935714D01*
X145106723Y-228935714D02*
X144916247Y-228888095D01*
X144916247Y-228888095D02*
X144773390Y-228888095D01*
X144773390Y-228888095D02*
X144582914Y-228935714D01*
X144582914Y-228935714D02*
X144487676Y-228983333D01*
X144487676Y-228983333D02*
X144392438Y-229078571D01*
X144392438Y-229078571D02*
X144344819Y-229221428D01*
X144344819Y-229221428D02*
X144344819Y-229316666D01*
X144344819Y-229316666D02*
X144392438Y-229459523D01*
X144392438Y-229459523D02*
X144440057Y-229507142D01*
X145344819Y-230459523D02*
X145344819Y-229888095D01*
X145344819Y-230173809D02*
X144344819Y-230173809D01*
X144344819Y-230173809D02*
X144487676Y-230078571D01*
X144487676Y-230078571D02*
X144582914Y-229983333D01*
X144582914Y-229983333D02*
X144630533Y-229888095D01*
X144344819Y-230792857D02*
X144344819Y-231459523D01*
X144344819Y-231459523D02*
X145344819Y-231030952D01*
X146079580Y-73057142D02*
X146127200Y-73009523D01*
X146127200Y-73009523D02*
X146174819Y-72866666D01*
X146174819Y-72866666D02*
X146174819Y-72771428D01*
X146174819Y-72771428D02*
X146127200Y-72628571D01*
X146127200Y-72628571D02*
X146031961Y-72533333D01*
X146031961Y-72533333D02*
X145936723Y-72485714D01*
X145936723Y-72485714D02*
X145746247Y-72438095D01*
X145746247Y-72438095D02*
X145603390Y-72438095D01*
X145603390Y-72438095D02*
X145412914Y-72485714D01*
X145412914Y-72485714D02*
X145317676Y-72533333D01*
X145317676Y-72533333D02*
X145222438Y-72628571D01*
X145222438Y-72628571D02*
X145174819Y-72771428D01*
X145174819Y-72771428D02*
X145174819Y-72866666D01*
X145174819Y-72866666D02*
X145222438Y-73009523D01*
X145222438Y-73009523D02*
X145270057Y-73057142D01*
X145174819Y-73390476D02*
X145174819Y-74057142D01*
X145174819Y-74057142D02*
X146174819Y-73628571D01*
X145174819Y-74342857D02*
X145174819Y-75009523D01*
X145174819Y-75009523D02*
X146174819Y-74580952D01*
X59304819Y-236833333D02*
X58828628Y-236500000D01*
X59304819Y-236261905D02*
X58304819Y-236261905D01*
X58304819Y-236261905D02*
X58304819Y-236642857D01*
X58304819Y-236642857D02*
X58352438Y-236738095D01*
X58352438Y-236738095D02*
X58400057Y-236785714D01*
X58400057Y-236785714D02*
X58495295Y-236833333D01*
X58495295Y-236833333D02*
X58638152Y-236833333D01*
X58638152Y-236833333D02*
X58733390Y-236785714D01*
X58733390Y-236785714D02*
X58781009Y-236738095D01*
X58781009Y-236738095D02*
X58828628Y-236642857D01*
X58828628Y-236642857D02*
X58828628Y-236261905D01*
X58733390Y-237404762D02*
X58685771Y-237309524D01*
X58685771Y-237309524D02*
X58638152Y-237261905D01*
X58638152Y-237261905D02*
X58542914Y-237214286D01*
X58542914Y-237214286D02*
X58495295Y-237214286D01*
X58495295Y-237214286D02*
X58400057Y-237261905D01*
X58400057Y-237261905D02*
X58352438Y-237309524D01*
X58352438Y-237309524D02*
X58304819Y-237404762D01*
X58304819Y-237404762D02*
X58304819Y-237595238D01*
X58304819Y-237595238D02*
X58352438Y-237690476D01*
X58352438Y-237690476D02*
X58400057Y-237738095D01*
X58400057Y-237738095D02*
X58495295Y-237785714D01*
X58495295Y-237785714D02*
X58542914Y-237785714D01*
X58542914Y-237785714D02*
X58638152Y-237738095D01*
X58638152Y-237738095D02*
X58685771Y-237690476D01*
X58685771Y-237690476D02*
X58733390Y-237595238D01*
X58733390Y-237595238D02*
X58733390Y-237404762D01*
X58733390Y-237404762D02*
X58781009Y-237309524D01*
X58781009Y-237309524D02*
X58828628Y-237261905D01*
X58828628Y-237261905D02*
X58923866Y-237214286D01*
X58923866Y-237214286D02*
X59114342Y-237214286D01*
X59114342Y-237214286D02*
X59209580Y-237261905D01*
X59209580Y-237261905D02*
X59257200Y-237309524D01*
X59257200Y-237309524D02*
X59304819Y-237404762D01*
X59304819Y-237404762D02*
X59304819Y-237595238D01*
X59304819Y-237595238D02*
X59257200Y-237690476D01*
X59257200Y-237690476D02*
X59209580Y-237738095D01*
X59209580Y-237738095D02*
X59114342Y-237785714D01*
X59114342Y-237785714D02*
X58923866Y-237785714D01*
X58923866Y-237785714D02*
X58828628Y-237738095D01*
X58828628Y-237738095D02*
X58781009Y-237690476D01*
X58781009Y-237690476D02*
X58733390Y-237595238D01*
X240110802Y-190250344D02*
X241438561Y-190250344D01*
X241438561Y-190250344D02*
X241594768Y-190328447D01*
X241594768Y-190328447D02*
X241672872Y-190406551D01*
X241672872Y-190406551D02*
X241750975Y-190562758D01*
X241750975Y-190562758D02*
X241750975Y-190875172D01*
X241750975Y-190875172D02*
X241672872Y-191031379D01*
X241672872Y-191031379D02*
X241594768Y-191109482D01*
X241594768Y-191109482D02*
X241438561Y-191187586D01*
X241438561Y-191187586D02*
X240110802Y-191187586D01*
X241750975Y-192046723D02*
X241750975Y-192359137D01*
X241750975Y-192359137D02*
X241672872Y-192515344D01*
X241672872Y-192515344D02*
X241594768Y-192593448D01*
X241594768Y-192593448D02*
X241360458Y-192749655D01*
X241360458Y-192749655D02*
X241048044Y-192827758D01*
X241048044Y-192827758D02*
X240423216Y-192827758D01*
X240423216Y-192827758D02*
X240267009Y-192749655D01*
X240267009Y-192749655D02*
X240188905Y-192671551D01*
X240188905Y-192671551D02*
X240110802Y-192515344D01*
X240110802Y-192515344D02*
X240110802Y-192202930D01*
X240110802Y-192202930D02*
X240188905Y-192046723D01*
X240188905Y-192046723D02*
X240267009Y-191968620D01*
X240267009Y-191968620D02*
X240423216Y-191890516D01*
X240423216Y-191890516D02*
X240813733Y-191890516D01*
X240813733Y-191890516D02*
X240969940Y-191968620D01*
X240969940Y-191968620D02*
X241048044Y-192046723D01*
X241048044Y-192046723D02*
X241126147Y-192202930D01*
X241126147Y-192202930D02*
X241126147Y-192515344D01*
X241126147Y-192515344D02*
X241048044Y-192671551D01*
X241048044Y-192671551D02*
X240969940Y-192749655D01*
X240969940Y-192749655D02*
X240813733Y-192827758D01*
X205054819Y-76057142D02*
X204578628Y-75723809D01*
X205054819Y-75485714D02*
X204054819Y-75485714D01*
X204054819Y-75485714D02*
X204054819Y-75866666D01*
X204054819Y-75866666D02*
X204102438Y-75961904D01*
X204102438Y-75961904D02*
X204150057Y-76009523D01*
X204150057Y-76009523D02*
X204245295Y-76057142D01*
X204245295Y-76057142D02*
X204388152Y-76057142D01*
X204388152Y-76057142D02*
X204483390Y-76009523D01*
X204483390Y-76009523D02*
X204531009Y-75961904D01*
X204531009Y-75961904D02*
X204578628Y-75866666D01*
X204578628Y-75866666D02*
X204578628Y-75485714D01*
X204054819Y-76961904D02*
X204054819Y-76485714D01*
X204054819Y-76485714D02*
X204531009Y-76438095D01*
X204531009Y-76438095D02*
X204483390Y-76485714D01*
X204483390Y-76485714D02*
X204435771Y-76580952D01*
X204435771Y-76580952D02*
X204435771Y-76819047D01*
X204435771Y-76819047D02*
X204483390Y-76914285D01*
X204483390Y-76914285D02*
X204531009Y-76961904D01*
X204531009Y-76961904D02*
X204626247Y-77009523D01*
X204626247Y-77009523D02*
X204864342Y-77009523D01*
X204864342Y-77009523D02*
X204959580Y-76961904D01*
X204959580Y-76961904D02*
X205007200Y-76914285D01*
X205007200Y-76914285D02*
X205054819Y-76819047D01*
X205054819Y-76819047D02*
X205054819Y-76580952D01*
X205054819Y-76580952D02*
X205007200Y-76485714D01*
X205007200Y-76485714D02*
X204959580Y-76438095D01*
X204054819Y-77342857D02*
X204054819Y-77961904D01*
X204054819Y-77961904D02*
X204435771Y-77628571D01*
X204435771Y-77628571D02*
X204435771Y-77771428D01*
X204435771Y-77771428D02*
X204483390Y-77866666D01*
X204483390Y-77866666D02*
X204531009Y-77914285D01*
X204531009Y-77914285D02*
X204626247Y-77961904D01*
X204626247Y-77961904D02*
X204864342Y-77961904D01*
X204864342Y-77961904D02*
X204959580Y-77914285D01*
X204959580Y-77914285D02*
X205007200Y-77866666D01*
X205007200Y-77866666D02*
X205054819Y-77771428D01*
X205054819Y-77771428D02*
X205054819Y-77485714D01*
X205054819Y-77485714D02*
X205007200Y-77390476D01*
X205007200Y-77390476D02*
X204959580Y-77342857D01*
X114726666Y-158026033D02*
X114726666Y-158592700D01*
X114726666Y-158592700D02*
X114693333Y-158659366D01*
X114693333Y-158659366D02*
X114659999Y-158692700D01*
X114659999Y-158692700D02*
X114593333Y-158726033D01*
X114593333Y-158726033D02*
X114459999Y-158726033D01*
X114459999Y-158726033D02*
X114393333Y-158692700D01*
X114393333Y-158692700D02*
X114359999Y-158659366D01*
X114359999Y-158659366D02*
X114326666Y-158592700D01*
X114326666Y-158592700D02*
X114326666Y-158026033D01*
X113626666Y-158726033D02*
X114026666Y-158726033D01*
X113826666Y-158726033D02*
X113826666Y-158026033D01*
X113826666Y-158026033D02*
X113893333Y-158126033D01*
X113893333Y-158126033D02*
X113960000Y-158192700D01*
X113960000Y-158192700D02*
X114026666Y-158226033D01*
X113393333Y-158026033D02*
X112959999Y-158026033D01*
X112959999Y-158026033D02*
X113193333Y-158292700D01*
X113193333Y-158292700D02*
X113093333Y-158292700D01*
X113093333Y-158292700D02*
X113026666Y-158326033D01*
X113026666Y-158326033D02*
X112993333Y-158359366D01*
X112993333Y-158359366D02*
X112959999Y-158426033D01*
X112959999Y-158426033D02*
X112959999Y-158592700D01*
X112959999Y-158592700D02*
X112993333Y-158659366D01*
X112993333Y-158659366D02*
X113026666Y-158692700D01*
X113026666Y-158692700D02*
X113093333Y-158726033D01*
X113093333Y-158726033D02*
X113293333Y-158726033D01*
X113293333Y-158726033D02*
X113359999Y-158692700D01*
X113359999Y-158692700D02*
X113393333Y-158659366D01*
X73566666Y-99154819D02*
X73899999Y-98678628D01*
X74138094Y-99154819D02*
X74138094Y-98154819D01*
X74138094Y-98154819D02*
X73757142Y-98154819D01*
X73757142Y-98154819D02*
X73661904Y-98202438D01*
X73661904Y-98202438D02*
X73614285Y-98250057D01*
X73614285Y-98250057D02*
X73566666Y-98345295D01*
X73566666Y-98345295D02*
X73566666Y-98488152D01*
X73566666Y-98488152D02*
X73614285Y-98583390D01*
X73614285Y-98583390D02*
X73661904Y-98631009D01*
X73661904Y-98631009D02*
X73757142Y-98678628D01*
X73757142Y-98678628D02*
X74138094Y-98678628D01*
X73185713Y-98250057D02*
X73138094Y-98202438D01*
X73138094Y-98202438D02*
X73042856Y-98154819D01*
X73042856Y-98154819D02*
X72804761Y-98154819D01*
X72804761Y-98154819D02*
X72709523Y-98202438D01*
X72709523Y-98202438D02*
X72661904Y-98250057D01*
X72661904Y-98250057D02*
X72614285Y-98345295D01*
X72614285Y-98345295D02*
X72614285Y-98440533D01*
X72614285Y-98440533D02*
X72661904Y-98583390D01*
X72661904Y-98583390D02*
X73233332Y-99154819D01*
X73233332Y-99154819D02*
X72614285Y-99154819D01*
X236154819Y-66657142D02*
X235678628Y-66323809D01*
X236154819Y-66085714D02*
X235154819Y-66085714D01*
X235154819Y-66085714D02*
X235154819Y-66466666D01*
X235154819Y-66466666D02*
X235202438Y-66561904D01*
X235202438Y-66561904D02*
X235250057Y-66609523D01*
X235250057Y-66609523D02*
X235345295Y-66657142D01*
X235345295Y-66657142D02*
X235488152Y-66657142D01*
X235488152Y-66657142D02*
X235583390Y-66609523D01*
X235583390Y-66609523D02*
X235631009Y-66561904D01*
X235631009Y-66561904D02*
X235678628Y-66466666D01*
X235678628Y-66466666D02*
X235678628Y-66085714D01*
X235488152Y-67514285D02*
X236154819Y-67514285D01*
X235107200Y-67276190D02*
X235821485Y-67038095D01*
X235821485Y-67038095D02*
X235821485Y-67657142D01*
X235583390Y-68180952D02*
X235535771Y-68085714D01*
X235535771Y-68085714D02*
X235488152Y-68038095D01*
X235488152Y-68038095D02*
X235392914Y-67990476D01*
X235392914Y-67990476D02*
X235345295Y-67990476D01*
X235345295Y-67990476D02*
X235250057Y-68038095D01*
X235250057Y-68038095D02*
X235202438Y-68085714D01*
X235202438Y-68085714D02*
X235154819Y-68180952D01*
X235154819Y-68180952D02*
X235154819Y-68371428D01*
X235154819Y-68371428D02*
X235202438Y-68466666D01*
X235202438Y-68466666D02*
X235250057Y-68514285D01*
X235250057Y-68514285D02*
X235345295Y-68561904D01*
X235345295Y-68561904D02*
X235392914Y-68561904D01*
X235392914Y-68561904D02*
X235488152Y-68514285D01*
X235488152Y-68514285D02*
X235535771Y-68466666D01*
X235535771Y-68466666D02*
X235583390Y-68371428D01*
X235583390Y-68371428D02*
X235583390Y-68180952D01*
X235583390Y-68180952D02*
X235631009Y-68085714D01*
X235631009Y-68085714D02*
X235678628Y-68038095D01*
X235678628Y-68038095D02*
X235773866Y-67990476D01*
X235773866Y-67990476D02*
X235964342Y-67990476D01*
X235964342Y-67990476D02*
X236059580Y-68038095D01*
X236059580Y-68038095D02*
X236107200Y-68085714D01*
X236107200Y-68085714D02*
X236154819Y-68180952D01*
X236154819Y-68180952D02*
X236154819Y-68371428D01*
X236154819Y-68371428D02*
X236107200Y-68466666D01*
X236107200Y-68466666D02*
X236059580Y-68514285D01*
X236059580Y-68514285D02*
X235964342Y-68561904D01*
X235964342Y-68561904D02*
X235773866Y-68561904D01*
X235773866Y-68561904D02*
X235678628Y-68514285D01*
X235678628Y-68514285D02*
X235631009Y-68466666D01*
X235631009Y-68466666D02*
X235583390Y-68371428D01*
X66304819Y-236633333D02*
X65828628Y-236300000D01*
X66304819Y-236061905D02*
X65304819Y-236061905D01*
X65304819Y-236061905D02*
X65304819Y-236442857D01*
X65304819Y-236442857D02*
X65352438Y-236538095D01*
X65352438Y-236538095D02*
X65400057Y-236585714D01*
X65400057Y-236585714D02*
X65495295Y-236633333D01*
X65495295Y-236633333D02*
X65638152Y-236633333D01*
X65638152Y-236633333D02*
X65733390Y-236585714D01*
X65733390Y-236585714D02*
X65781009Y-236538095D01*
X65781009Y-236538095D02*
X65828628Y-236442857D01*
X65828628Y-236442857D02*
X65828628Y-236061905D01*
X66304819Y-237109524D02*
X66304819Y-237300000D01*
X66304819Y-237300000D02*
X66257200Y-237395238D01*
X66257200Y-237395238D02*
X66209580Y-237442857D01*
X66209580Y-237442857D02*
X66066723Y-237538095D01*
X66066723Y-237538095D02*
X65876247Y-237585714D01*
X65876247Y-237585714D02*
X65495295Y-237585714D01*
X65495295Y-237585714D02*
X65400057Y-237538095D01*
X65400057Y-237538095D02*
X65352438Y-237490476D01*
X65352438Y-237490476D02*
X65304819Y-237395238D01*
X65304819Y-237395238D02*
X65304819Y-237204762D01*
X65304819Y-237204762D02*
X65352438Y-237109524D01*
X65352438Y-237109524D02*
X65400057Y-237061905D01*
X65400057Y-237061905D02*
X65495295Y-237014286D01*
X65495295Y-237014286D02*
X65733390Y-237014286D01*
X65733390Y-237014286D02*
X65828628Y-237061905D01*
X65828628Y-237061905D02*
X65876247Y-237109524D01*
X65876247Y-237109524D02*
X65923866Y-237204762D01*
X65923866Y-237204762D02*
X65923866Y-237395238D01*
X65923866Y-237395238D02*
X65876247Y-237490476D01*
X65876247Y-237490476D02*
X65828628Y-237538095D01*
X65828628Y-237538095D02*
X65733390Y-237585714D01*
X243042857Y-237554819D02*
X243376190Y-237078628D01*
X243614285Y-237554819D02*
X243614285Y-236554819D01*
X243614285Y-236554819D02*
X243233333Y-236554819D01*
X243233333Y-236554819D02*
X243138095Y-236602438D01*
X243138095Y-236602438D02*
X243090476Y-236650057D01*
X243090476Y-236650057D02*
X243042857Y-236745295D01*
X243042857Y-236745295D02*
X243042857Y-236888152D01*
X243042857Y-236888152D02*
X243090476Y-236983390D01*
X243090476Y-236983390D02*
X243138095Y-237031009D01*
X243138095Y-237031009D02*
X243233333Y-237078628D01*
X243233333Y-237078628D02*
X243614285Y-237078628D01*
X242185714Y-236888152D02*
X242185714Y-237554819D01*
X242423809Y-236507200D02*
X242661904Y-237221485D01*
X242661904Y-237221485D02*
X242042857Y-237221485D01*
X241233333Y-236888152D02*
X241233333Y-237554819D01*
X241471428Y-236507200D02*
X241709523Y-237221485D01*
X241709523Y-237221485D02*
X241090476Y-237221485D01*
X74239580Y-68557142D02*
X74287200Y-68509523D01*
X74287200Y-68509523D02*
X74334819Y-68366666D01*
X74334819Y-68366666D02*
X74334819Y-68271428D01*
X74334819Y-68271428D02*
X74287200Y-68128571D01*
X74287200Y-68128571D02*
X74191961Y-68033333D01*
X74191961Y-68033333D02*
X74096723Y-67985714D01*
X74096723Y-67985714D02*
X73906247Y-67938095D01*
X73906247Y-67938095D02*
X73763390Y-67938095D01*
X73763390Y-67938095D02*
X73572914Y-67985714D01*
X73572914Y-67985714D02*
X73477676Y-68033333D01*
X73477676Y-68033333D02*
X73382438Y-68128571D01*
X73382438Y-68128571D02*
X73334819Y-68271428D01*
X73334819Y-68271428D02*
X73334819Y-68366666D01*
X73334819Y-68366666D02*
X73382438Y-68509523D01*
X73382438Y-68509523D02*
X73430057Y-68557142D01*
X73334819Y-68890476D02*
X73334819Y-69509523D01*
X73334819Y-69509523D02*
X73715771Y-69176190D01*
X73715771Y-69176190D02*
X73715771Y-69319047D01*
X73715771Y-69319047D02*
X73763390Y-69414285D01*
X73763390Y-69414285D02*
X73811009Y-69461904D01*
X73811009Y-69461904D02*
X73906247Y-69509523D01*
X73906247Y-69509523D02*
X74144342Y-69509523D01*
X74144342Y-69509523D02*
X74239580Y-69461904D01*
X74239580Y-69461904D02*
X74287200Y-69414285D01*
X74287200Y-69414285D02*
X74334819Y-69319047D01*
X74334819Y-69319047D02*
X74334819Y-69033333D01*
X74334819Y-69033333D02*
X74287200Y-68938095D01*
X74287200Y-68938095D02*
X74239580Y-68890476D01*
X73334819Y-70128571D02*
X73334819Y-70223809D01*
X73334819Y-70223809D02*
X73382438Y-70319047D01*
X73382438Y-70319047D02*
X73430057Y-70366666D01*
X73430057Y-70366666D02*
X73525295Y-70414285D01*
X73525295Y-70414285D02*
X73715771Y-70461904D01*
X73715771Y-70461904D02*
X73953866Y-70461904D01*
X73953866Y-70461904D02*
X74144342Y-70414285D01*
X74144342Y-70414285D02*
X74239580Y-70366666D01*
X74239580Y-70366666D02*
X74287200Y-70319047D01*
X74287200Y-70319047D02*
X74334819Y-70223809D01*
X74334819Y-70223809D02*
X74334819Y-70128571D01*
X74334819Y-70128571D02*
X74287200Y-70033333D01*
X74287200Y-70033333D02*
X74239580Y-69985714D01*
X74239580Y-69985714D02*
X74144342Y-69938095D01*
X74144342Y-69938095D02*
X73953866Y-69890476D01*
X73953866Y-69890476D02*
X73715771Y-69890476D01*
X73715771Y-69890476D02*
X73525295Y-69938095D01*
X73525295Y-69938095D02*
X73430057Y-69985714D01*
X73430057Y-69985714D02*
X73382438Y-70033333D01*
X73382438Y-70033333D02*
X73334819Y-70128571D01*
X147159580Y-233957142D02*
X147207200Y-233909523D01*
X147207200Y-233909523D02*
X147254819Y-233766666D01*
X147254819Y-233766666D02*
X147254819Y-233671428D01*
X147254819Y-233671428D02*
X147207200Y-233528571D01*
X147207200Y-233528571D02*
X147111961Y-233433333D01*
X147111961Y-233433333D02*
X147016723Y-233385714D01*
X147016723Y-233385714D02*
X146826247Y-233338095D01*
X146826247Y-233338095D02*
X146683390Y-233338095D01*
X146683390Y-233338095D02*
X146492914Y-233385714D01*
X146492914Y-233385714D02*
X146397676Y-233433333D01*
X146397676Y-233433333D02*
X146302438Y-233528571D01*
X146302438Y-233528571D02*
X146254819Y-233671428D01*
X146254819Y-233671428D02*
X146254819Y-233766666D01*
X146254819Y-233766666D02*
X146302438Y-233909523D01*
X146302438Y-233909523D02*
X146350057Y-233957142D01*
X147254819Y-234909523D02*
X147254819Y-234338095D01*
X147254819Y-234623809D02*
X146254819Y-234623809D01*
X146254819Y-234623809D02*
X146397676Y-234528571D01*
X146397676Y-234528571D02*
X146492914Y-234433333D01*
X146492914Y-234433333D02*
X146540533Y-234338095D01*
X146254819Y-235766666D02*
X146254819Y-235576190D01*
X146254819Y-235576190D02*
X146302438Y-235480952D01*
X146302438Y-235480952D02*
X146350057Y-235433333D01*
X146350057Y-235433333D02*
X146492914Y-235338095D01*
X146492914Y-235338095D02*
X146683390Y-235290476D01*
X146683390Y-235290476D02*
X147064342Y-235290476D01*
X147064342Y-235290476D02*
X147159580Y-235338095D01*
X147159580Y-235338095D02*
X147207200Y-235385714D01*
X147207200Y-235385714D02*
X147254819Y-235480952D01*
X147254819Y-235480952D02*
X147254819Y-235671428D01*
X147254819Y-235671428D02*
X147207200Y-235766666D01*
X147207200Y-235766666D02*
X147159580Y-235814285D01*
X147159580Y-235814285D02*
X147064342Y-235861904D01*
X147064342Y-235861904D02*
X146826247Y-235861904D01*
X146826247Y-235861904D02*
X146731009Y-235814285D01*
X146731009Y-235814285D02*
X146683390Y-235766666D01*
X146683390Y-235766666D02*
X146635771Y-235671428D01*
X146635771Y-235671428D02*
X146635771Y-235480952D01*
X146635771Y-235480952D02*
X146683390Y-235385714D01*
X146683390Y-235385714D02*
X146731009Y-235338095D01*
X146731009Y-235338095D02*
X146826247Y-235290476D01*
X156439580Y-62257142D02*
X156487200Y-62209523D01*
X156487200Y-62209523D02*
X156534819Y-62066666D01*
X156534819Y-62066666D02*
X156534819Y-61971428D01*
X156534819Y-61971428D02*
X156487200Y-61828571D01*
X156487200Y-61828571D02*
X156391961Y-61733333D01*
X156391961Y-61733333D02*
X156296723Y-61685714D01*
X156296723Y-61685714D02*
X156106247Y-61638095D01*
X156106247Y-61638095D02*
X155963390Y-61638095D01*
X155963390Y-61638095D02*
X155772914Y-61685714D01*
X155772914Y-61685714D02*
X155677676Y-61733333D01*
X155677676Y-61733333D02*
X155582438Y-61828571D01*
X155582438Y-61828571D02*
X155534819Y-61971428D01*
X155534819Y-61971428D02*
X155534819Y-62066666D01*
X155534819Y-62066666D02*
X155582438Y-62209523D01*
X155582438Y-62209523D02*
X155630057Y-62257142D01*
X155534819Y-63114285D02*
X155534819Y-62923809D01*
X155534819Y-62923809D02*
X155582438Y-62828571D01*
X155582438Y-62828571D02*
X155630057Y-62780952D01*
X155630057Y-62780952D02*
X155772914Y-62685714D01*
X155772914Y-62685714D02*
X155963390Y-62638095D01*
X155963390Y-62638095D02*
X156344342Y-62638095D01*
X156344342Y-62638095D02*
X156439580Y-62685714D01*
X156439580Y-62685714D02*
X156487200Y-62733333D01*
X156487200Y-62733333D02*
X156534819Y-62828571D01*
X156534819Y-62828571D02*
X156534819Y-63019047D01*
X156534819Y-63019047D02*
X156487200Y-63114285D01*
X156487200Y-63114285D02*
X156439580Y-63161904D01*
X156439580Y-63161904D02*
X156344342Y-63209523D01*
X156344342Y-63209523D02*
X156106247Y-63209523D01*
X156106247Y-63209523D02*
X156011009Y-63161904D01*
X156011009Y-63161904D02*
X155963390Y-63114285D01*
X155963390Y-63114285D02*
X155915771Y-63019047D01*
X155915771Y-63019047D02*
X155915771Y-62828571D01*
X155915771Y-62828571D02*
X155963390Y-62733333D01*
X155963390Y-62733333D02*
X156011009Y-62685714D01*
X156011009Y-62685714D02*
X156106247Y-62638095D01*
X155534819Y-64114285D02*
X155534819Y-63638095D01*
X155534819Y-63638095D02*
X156011009Y-63590476D01*
X156011009Y-63590476D02*
X155963390Y-63638095D01*
X155963390Y-63638095D02*
X155915771Y-63733333D01*
X155915771Y-63733333D02*
X155915771Y-63971428D01*
X155915771Y-63971428D02*
X155963390Y-64066666D01*
X155963390Y-64066666D02*
X156011009Y-64114285D01*
X156011009Y-64114285D02*
X156106247Y-64161904D01*
X156106247Y-64161904D02*
X156344342Y-64161904D01*
X156344342Y-64161904D02*
X156439580Y-64114285D01*
X156439580Y-64114285D02*
X156487200Y-64066666D01*
X156487200Y-64066666D02*
X156534819Y-63971428D01*
X156534819Y-63971428D02*
X156534819Y-63733333D01*
X156534819Y-63733333D02*
X156487200Y-63638095D01*
X156487200Y-63638095D02*
X156439580Y-63590476D01*
X118969366Y-166123333D02*
X119002700Y-166090000D01*
X119002700Y-166090000D02*
X119036033Y-165990000D01*
X119036033Y-165990000D02*
X119036033Y-165923333D01*
X119036033Y-165923333D02*
X119002700Y-165823333D01*
X119002700Y-165823333D02*
X118936033Y-165756667D01*
X118936033Y-165756667D02*
X118869366Y-165723333D01*
X118869366Y-165723333D02*
X118736033Y-165690000D01*
X118736033Y-165690000D02*
X118636033Y-165690000D01*
X118636033Y-165690000D02*
X118502700Y-165723333D01*
X118502700Y-165723333D02*
X118436033Y-165756667D01*
X118436033Y-165756667D02*
X118369366Y-165823333D01*
X118369366Y-165823333D02*
X118336033Y-165923333D01*
X118336033Y-165923333D02*
X118336033Y-165990000D01*
X118336033Y-165990000D02*
X118369366Y-166090000D01*
X118369366Y-166090000D02*
X118402700Y-166123333D01*
X118336033Y-166356667D02*
X118336033Y-166823333D01*
X118336033Y-166823333D02*
X119036033Y-166523333D01*
X149754819Y-67757142D02*
X149278628Y-67423809D01*
X149754819Y-67185714D02*
X148754819Y-67185714D01*
X148754819Y-67185714D02*
X148754819Y-67566666D01*
X148754819Y-67566666D02*
X148802438Y-67661904D01*
X148802438Y-67661904D02*
X148850057Y-67709523D01*
X148850057Y-67709523D02*
X148945295Y-67757142D01*
X148945295Y-67757142D02*
X149088152Y-67757142D01*
X149088152Y-67757142D02*
X149183390Y-67709523D01*
X149183390Y-67709523D02*
X149231009Y-67661904D01*
X149231009Y-67661904D02*
X149278628Y-67566666D01*
X149278628Y-67566666D02*
X149278628Y-67185714D01*
X149088152Y-68614285D02*
X149754819Y-68614285D01*
X148707200Y-68376190D02*
X149421485Y-68138095D01*
X149421485Y-68138095D02*
X149421485Y-68757142D01*
X149754819Y-69185714D02*
X149754819Y-69376190D01*
X149754819Y-69376190D02*
X149707200Y-69471428D01*
X149707200Y-69471428D02*
X149659580Y-69519047D01*
X149659580Y-69519047D02*
X149516723Y-69614285D01*
X149516723Y-69614285D02*
X149326247Y-69661904D01*
X149326247Y-69661904D02*
X148945295Y-69661904D01*
X148945295Y-69661904D02*
X148850057Y-69614285D01*
X148850057Y-69614285D02*
X148802438Y-69566666D01*
X148802438Y-69566666D02*
X148754819Y-69471428D01*
X148754819Y-69471428D02*
X148754819Y-69280952D01*
X148754819Y-69280952D02*
X148802438Y-69185714D01*
X148802438Y-69185714D02*
X148850057Y-69138095D01*
X148850057Y-69138095D02*
X148945295Y-69090476D01*
X148945295Y-69090476D02*
X149183390Y-69090476D01*
X149183390Y-69090476D02*
X149278628Y-69138095D01*
X149278628Y-69138095D02*
X149326247Y-69185714D01*
X149326247Y-69185714D02*
X149373866Y-69280952D01*
X149373866Y-69280952D02*
X149373866Y-69471428D01*
X149373866Y-69471428D02*
X149326247Y-69566666D01*
X149326247Y-69566666D02*
X149278628Y-69614285D01*
X149278628Y-69614285D02*
X149183390Y-69661904D01*
X62039580Y-232333333D02*
X62087200Y-232285714D01*
X62087200Y-232285714D02*
X62134819Y-232142857D01*
X62134819Y-232142857D02*
X62134819Y-232047619D01*
X62134819Y-232047619D02*
X62087200Y-231904762D01*
X62087200Y-231904762D02*
X61991961Y-231809524D01*
X61991961Y-231809524D02*
X61896723Y-231761905D01*
X61896723Y-231761905D02*
X61706247Y-231714286D01*
X61706247Y-231714286D02*
X61563390Y-231714286D01*
X61563390Y-231714286D02*
X61372914Y-231761905D01*
X61372914Y-231761905D02*
X61277676Y-231809524D01*
X61277676Y-231809524D02*
X61182438Y-231904762D01*
X61182438Y-231904762D02*
X61134819Y-232047619D01*
X61134819Y-232047619D02*
X61134819Y-232142857D01*
X61134819Y-232142857D02*
X61182438Y-232285714D01*
X61182438Y-232285714D02*
X61230057Y-232333333D01*
X61134819Y-233238095D02*
X61134819Y-232761905D01*
X61134819Y-232761905D02*
X61611009Y-232714286D01*
X61611009Y-232714286D02*
X61563390Y-232761905D01*
X61563390Y-232761905D02*
X61515771Y-232857143D01*
X61515771Y-232857143D02*
X61515771Y-233095238D01*
X61515771Y-233095238D02*
X61563390Y-233190476D01*
X61563390Y-233190476D02*
X61611009Y-233238095D01*
X61611009Y-233238095D02*
X61706247Y-233285714D01*
X61706247Y-233285714D02*
X61944342Y-233285714D01*
X61944342Y-233285714D02*
X62039580Y-233238095D01*
X62039580Y-233238095D02*
X62087200Y-233190476D01*
X62087200Y-233190476D02*
X62134819Y-233095238D01*
X62134819Y-233095238D02*
X62134819Y-232857143D01*
X62134819Y-232857143D02*
X62087200Y-232761905D01*
X62087200Y-232761905D02*
X62039580Y-232714286D01*
X239442857Y-229259580D02*
X239490476Y-229307200D01*
X239490476Y-229307200D02*
X239633333Y-229354819D01*
X239633333Y-229354819D02*
X239728571Y-229354819D01*
X239728571Y-229354819D02*
X239871428Y-229307200D01*
X239871428Y-229307200D02*
X239966666Y-229211961D01*
X239966666Y-229211961D02*
X240014285Y-229116723D01*
X240014285Y-229116723D02*
X240061904Y-228926247D01*
X240061904Y-228926247D02*
X240061904Y-228783390D01*
X240061904Y-228783390D02*
X240014285Y-228592914D01*
X240014285Y-228592914D02*
X239966666Y-228497676D01*
X239966666Y-228497676D02*
X239871428Y-228402438D01*
X239871428Y-228402438D02*
X239728571Y-228354819D01*
X239728571Y-228354819D02*
X239633333Y-228354819D01*
X239633333Y-228354819D02*
X239490476Y-228402438D01*
X239490476Y-228402438D02*
X239442857Y-228450057D01*
X238585714Y-228354819D02*
X238776190Y-228354819D01*
X238776190Y-228354819D02*
X238871428Y-228402438D01*
X238871428Y-228402438D02*
X238919047Y-228450057D01*
X238919047Y-228450057D02*
X239014285Y-228592914D01*
X239014285Y-228592914D02*
X239061904Y-228783390D01*
X239061904Y-228783390D02*
X239061904Y-229164342D01*
X239061904Y-229164342D02*
X239014285Y-229259580D01*
X239014285Y-229259580D02*
X238966666Y-229307200D01*
X238966666Y-229307200D02*
X238871428Y-229354819D01*
X238871428Y-229354819D02*
X238680952Y-229354819D01*
X238680952Y-229354819D02*
X238585714Y-229307200D01*
X238585714Y-229307200D02*
X238538095Y-229259580D01*
X238538095Y-229259580D02*
X238490476Y-229164342D01*
X238490476Y-229164342D02*
X238490476Y-228926247D01*
X238490476Y-228926247D02*
X238538095Y-228831009D01*
X238538095Y-228831009D02*
X238585714Y-228783390D01*
X238585714Y-228783390D02*
X238680952Y-228735771D01*
X238680952Y-228735771D02*
X238871428Y-228735771D01*
X238871428Y-228735771D02*
X238966666Y-228783390D01*
X238966666Y-228783390D02*
X239014285Y-228831009D01*
X239014285Y-228831009D02*
X239061904Y-228926247D01*
X238157142Y-228354819D02*
X237490476Y-228354819D01*
X237490476Y-228354819D02*
X237919047Y-229354819D01*
D11*
X58628571Y-59815817D02*
X58628571Y-59335817D01*
X58628571Y-59335817D02*
X58468571Y-59678674D01*
X58468571Y-59678674D02*
X58308571Y-59335817D01*
X58308571Y-59335817D02*
X58308571Y-59815817D01*
X58080000Y-59815817D02*
X58080000Y-59335817D01*
X57805714Y-59815817D02*
X58011428Y-59541531D01*
X57805714Y-59335817D02*
X58080000Y-59610102D01*
X57348571Y-59815817D02*
X57622857Y-59815817D01*
X57485714Y-59815817D02*
X57485714Y-59335817D01*
X57485714Y-59335817D02*
X57531428Y-59404388D01*
X57531428Y-59404388D02*
X57577143Y-59450102D01*
X57577143Y-59450102D02*
X57622857Y-59472960D01*
D10*
X232842857Y-200404819D02*
X233176190Y-199928628D01*
X233414285Y-200404819D02*
X233414285Y-199404819D01*
X233414285Y-199404819D02*
X233033333Y-199404819D01*
X233033333Y-199404819D02*
X232938095Y-199452438D01*
X232938095Y-199452438D02*
X232890476Y-199500057D01*
X232890476Y-199500057D02*
X232842857Y-199595295D01*
X232842857Y-199595295D02*
X232842857Y-199738152D01*
X232842857Y-199738152D02*
X232890476Y-199833390D01*
X232890476Y-199833390D02*
X232938095Y-199881009D01*
X232938095Y-199881009D02*
X233033333Y-199928628D01*
X233033333Y-199928628D02*
X233414285Y-199928628D01*
X231938095Y-199404819D02*
X232414285Y-199404819D01*
X232414285Y-199404819D02*
X232461904Y-199881009D01*
X232461904Y-199881009D02*
X232414285Y-199833390D01*
X232414285Y-199833390D02*
X232319047Y-199785771D01*
X232319047Y-199785771D02*
X232080952Y-199785771D01*
X232080952Y-199785771D02*
X231985714Y-199833390D01*
X231985714Y-199833390D02*
X231938095Y-199881009D01*
X231938095Y-199881009D02*
X231890476Y-199976247D01*
X231890476Y-199976247D02*
X231890476Y-200214342D01*
X231890476Y-200214342D02*
X231938095Y-200309580D01*
X231938095Y-200309580D02*
X231985714Y-200357200D01*
X231985714Y-200357200D02*
X232080952Y-200404819D01*
X232080952Y-200404819D02*
X232319047Y-200404819D01*
X232319047Y-200404819D02*
X232414285Y-200357200D01*
X232414285Y-200357200D02*
X232461904Y-200309580D01*
X230938095Y-200404819D02*
X231509523Y-200404819D01*
X231223809Y-200404819D02*
X231223809Y-199404819D01*
X231223809Y-199404819D02*
X231319047Y-199547676D01*
X231319047Y-199547676D02*
X231414285Y-199642914D01*
X231414285Y-199642914D02*
X231509523Y-199690533D01*
X66866666Y-75104819D02*
X67199999Y-74628628D01*
X67438094Y-75104819D02*
X67438094Y-74104819D01*
X67438094Y-74104819D02*
X67057142Y-74104819D01*
X67057142Y-74104819D02*
X66961904Y-74152438D01*
X66961904Y-74152438D02*
X66914285Y-74200057D01*
X66914285Y-74200057D02*
X66866666Y-74295295D01*
X66866666Y-74295295D02*
X66866666Y-74438152D01*
X66866666Y-74438152D02*
X66914285Y-74533390D01*
X66914285Y-74533390D02*
X66961904Y-74581009D01*
X66961904Y-74581009D02*
X67057142Y-74628628D01*
X67057142Y-74628628D02*
X67438094Y-74628628D01*
X65961904Y-74104819D02*
X66438094Y-74104819D01*
X66438094Y-74104819D02*
X66485713Y-74581009D01*
X66485713Y-74581009D02*
X66438094Y-74533390D01*
X66438094Y-74533390D02*
X66342856Y-74485771D01*
X66342856Y-74485771D02*
X66104761Y-74485771D01*
X66104761Y-74485771D02*
X66009523Y-74533390D01*
X66009523Y-74533390D02*
X65961904Y-74581009D01*
X65961904Y-74581009D02*
X65914285Y-74676247D01*
X65914285Y-74676247D02*
X65914285Y-74914342D01*
X65914285Y-74914342D02*
X65961904Y-75009580D01*
X65961904Y-75009580D02*
X66009523Y-75057200D01*
X66009523Y-75057200D02*
X66104761Y-75104819D01*
X66104761Y-75104819D02*
X66342856Y-75104819D01*
X66342856Y-75104819D02*
X66438094Y-75057200D01*
X66438094Y-75057200D02*
X66485713Y-75009580D01*
X62059580Y-62157142D02*
X62107200Y-62109523D01*
X62107200Y-62109523D02*
X62154819Y-61966666D01*
X62154819Y-61966666D02*
X62154819Y-61871428D01*
X62154819Y-61871428D02*
X62107200Y-61728571D01*
X62107200Y-61728571D02*
X62011961Y-61633333D01*
X62011961Y-61633333D02*
X61916723Y-61585714D01*
X61916723Y-61585714D02*
X61726247Y-61538095D01*
X61726247Y-61538095D02*
X61583390Y-61538095D01*
X61583390Y-61538095D02*
X61392914Y-61585714D01*
X61392914Y-61585714D02*
X61297676Y-61633333D01*
X61297676Y-61633333D02*
X61202438Y-61728571D01*
X61202438Y-61728571D02*
X61154819Y-61871428D01*
X61154819Y-61871428D02*
X61154819Y-61966666D01*
X61154819Y-61966666D02*
X61202438Y-62109523D01*
X61202438Y-62109523D02*
X61250057Y-62157142D01*
X62154819Y-63109523D02*
X62154819Y-62538095D01*
X62154819Y-62823809D02*
X61154819Y-62823809D01*
X61154819Y-62823809D02*
X61297676Y-62728571D01*
X61297676Y-62728571D02*
X61392914Y-62633333D01*
X61392914Y-62633333D02*
X61440533Y-62538095D01*
X61154819Y-63728571D02*
X61154819Y-63823809D01*
X61154819Y-63823809D02*
X61202438Y-63919047D01*
X61202438Y-63919047D02*
X61250057Y-63966666D01*
X61250057Y-63966666D02*
X61345295Y-64014285D01*
X61345295Y-64014285D02*
X61535771Y-64061904D01*
X61535771Y-64061904D02*
X61773866Y-64061904D01*
X61773866Y-64061904D02*
X61964342Y-64014285D01*
X61964342Y-64014285D02*
X62059580Y-63966666D01*
X62059580Y-63966666D02*
X62107200Y-63919047D01*
X62107200Y-63919047D02*
X62154819Y-63823809D01*
X62154819Y-63823809D02*
X62154819Y-63728571D01*
X62154819Y-63728571D02*
X62107200Y-63633333D01*
X62107200Y-63633333D02*
X62059580Y-63585714D01*
X62059580Y-63585714D02*
X61964342Y-63538095D01*
X61964342Y-63538095D02*
X61773866Y-63490476D01*
X61773866Y-63490476D02*
X61535771Y-63490476D01*
X61535771Y-63490476D02*
X61345295Y-63538095D01*
X61345295Y-63538095D02*
X61250057Y-63585714D01*
X61250057Y-63585714D02*
X61202438Y-63633333D01*
X61202438Y-63633333D02*
X61154819Y-63728571D01*
X106202435Y-237332852D02*
X106202435Y-238660611D01*
X106202435Y-238660611D02*
X106124332Y-238816818D01*
X106124332Y-238816818D02*
X106046228Y-238894922D01*
X106046228Y-238894922D02*
X105890021Y-238973025D01*
X105890021Y-238973025D02*
X105577607Y-238973025D01*
X105577607Y-238973025D02*
X105421400Y-238894922D01*
X105421400Y-238894922D02*
X105343297Y-238816818D01*
X105343297Y-238816818D02*
X105265193Y-238660611D01*
X105265193Y-238660611D02*
X105265193Y-237332852D01*
X104562263Y-237489059D02*
X104484159Y-237410955D01*
X104484159Y-237410955D02*
X104327952Y-237332852D01*
X104327952Y-237332852D02*
X103937435Y-237332852D01*
X103937435Y-237332852D02*
X103781228Y-237410955D01*
X103781228Y-237410955D02*
X103703124Y-237489059D01*
X103703124Y-237489059D02*
X103625021Y-237645266D01*
X103625021Y-237645266D02*
X103625021Y-237801473D01*
X103625021Y-237801473D02*
X103703124Y-238035783D01*
X103703124Y-238035783D02*
X104640366Y-238973025D01*
X104640366Y-238973025D02*
X103625021Y-238973025D01*
D11*
X149128571Y-59815817D02*
X149128571Y-59335817D01*
X149128571Y-59335817D02*
X148968571Y-59678674D01*
X148968571Y-59678674D02*
X148808571Y-59335817D01*
X148808571Y-59335817D02*
X148808571Y-59815817D01*
X148580000Y-59815817D02*
X148580000Y-59335817D01*
X148305714Y-59815817D02*
X148511428Y-59541531D01*
X148305714Y-59335817D02*
X148580000Y-59610102D01*
X148031428Y-59541531D02*
X148077143Y-59518674D01*
X148077143Y-59518674D02*
X148100000Y-59495817D01*
X148100000Y-59495817D02*
X148122857Y-59450102D01*
X148122857Y-59450102D02*
X148122857Y-59427245D01*
X148122857Y-59427245D02*
X148100000Y-59381531D01*
X148100000Y-59381531D02*
X148077143Y-59358674D01*
X148077143Y-59358674D02*
X148031428Y-59335817D01*
X148031428Y-59335817D02*
X147940000Y-59335817D01*
X147940000Y-59335817D02*
X147894286Y-59358674D01*
X147894286Y-59358674D02*
X147871428Y-59381531D01*
X147871428Y-59381531D02*
X147848571Y-59427245D01*
X147848571Y-59427245D02*
X147848571Y-59450102D01*
X147848571Y-59450102D02*
X147871428Y-59495817D01*
X147871428Y-59495817D02*
X147894286Y-59518674D01*
X147894286Y-59518674D02*
X147940000Y-59541531D01*
X147940000Y-59541531D02*
X148031428Y-59541531D01*
X148031428Y-59541531D02*
X148077143Y-59564388D01*
X148077143Y-59564388D02*
X148100000Y-59587245D01*
X148100000Y-59587245D02*
X148122857Y-59632960D01*
X148122857Y-59632960D02*
X148122857Y-59724388D01*
X148122857Y-59724388D02*
X148100000Y-59770102D01*
X148100000Y-59770102D02*
X148077143Y-59792960D01*
X148077143Y-59792960D02*
X148031428Y-59815817D01*
X148031428Y-59815817D02*
X147940000Y-59815817D01*
X147940000Y-59815817D02*
X147894286Y-59792960D01*
X147894286Y-59792960D02*
X147871428Y-59770102D01*
X147871428Y-59770102D02*
X147848571Y-59724388D01*
X147848571Y-59724388D02*
X147848571Y-59632960D01*
X147848571Y-59632960D02*
X147871428Y-59587245D01*
X147871428Y-59587245D02*
X147894286Y-59564388D01*
X147894286Y-59564388D02*
X147940000Y-59541531D01*
X58628571Y-247215817D02*
X58628571Y-246735817D01*
X58628571Y-246735817D02*
X58468571Y-247078674D01*
X58468571Y-247078674D02*
X58308571Y-246735817D01*
X58308571Y-246735817D02*
X58308571Y-247215817D01*
X58080000Y-247215817D02*
X58080000Y-246735817D01*
X57805714Y-247215817D02*
X58011428Y-246941531D01*
X57805714Y-246735817D02*
X58080000Y-247010102D01*
X57645714Y-246735817D02*
X57348571Y-246735817D01*
X57348571Y-246735817D02*
X57508571Y-246918674D01*
X57508571Y-246918674D02*
X57440000Y-246918674D01*
X57440000Y-246918674D02*
X57394286Y-246941531D01*
X57394286Y-246941531D02*
X57371428Y-246964388D01*
X57371428Y-246964388D02*
X57348571Y-247010102D01*
X57348571Y-247010102D02*
X57348571Y-247124388D01*
X57348571Y-247124388D02*
X57371428Y-247170102D01*
X57371428Y-247170102D02*
X57394286Y-247192960D01*
X57394286Y-247192960D02*
X57440000Y-247215817D01*
X57440000Y-247215817D02*
X57577143Y-247215817D01*
X57577143Y-247215817D02*
X57622857Y-247192960D01*
X57622857Y-247192960D02*
X57645714Y-247170102D01*
D10*
X229042857Y-150404819D02*
X229376190Y-149928628D01*
X229614285Y-150404819D02*
X229614285Y-149404819D01*
X229614285Y-149404819D02*
X229233333Y-149404819D01*
X229233333Y-149404819D02*
X229138095Y-149452438D01*
X229138095Y-149452438D02*
X229090476Y-149500057D01*
X229090476Y-149500057D02*
X229042857Y-149595295D01*
X229042857Y-149595295D02*
X229042857Y-149738152D01*
X229042857Y-149738152D02*
X229090476Y-149833390D01*
X229090476Y-149833390D02*
X229138095Y-149881009D01*
X229138095Y-149881009D02*
X229233333Y-149928628D01*
X229233333Y-149928628D02*
X229614285Y-149928628D01*
X228185714Y-149738152D02*
X228185714Y-150404819D01*
X228423809Y-149357200D02*
X228661904Y-150071485D01*
X228661904Y-150071485D02*
X228042857Y-150071485D01*
X227233333Y-149404819D02*
X227423809Y-149404819D01*
X227423809Y-149404819D02*
X227519047Y-149452438D01*
X227519047Y-149452438D02*
X227566666Y-149500057D01*
X227566666Y-149500057D02*
X227661904Y-149642914D01*
X227661904Y-149642914D02*
X227709523Y-149833390D01*
X227709523Y-149833390D02*
X227709523Y-150214342D01*
X227709523Y-150214342D02*
X227661904Y-150309580D01*
X227661904Y-150309580D02*
X227614285Y-150357200D01*
X227614285Y-150357200D02*
X227519047Y-150404819D01*
X227519047Y-150404819D02*
X227328571Y-150404819D01*
X227328571Y-150404819D02*
X227233333Y-150357200D01*
X227233333Y-150357200D02*
X227185714Y-150309580D01*
X227185714Y-150309580D02*
X227138095Y-150214342D01*
X227138095Y-150214342D02*
X227138095Y-149976247D01*
X227138095Y-149976247D02*
X227185714Y-149881009D01*
X227185714Y-149881009D02*
X227233333Y-149833390D01*
X227233333Y-149833390D02*
X227328571Y-149785771D01*
X227328571Y-149785771D02*
X227519047Y-149785771D01*
X227519047Y-149785771D02*
X227614285Y-149833390D01*
X227614285Y-149833390D02*
X227661904Y-149881009D01*
X227661904Y-149881009D02*
X227709523Y-149976247D01*
D11*
%TO.C,C71*%
X220565000Y-150861252D02*
X220565000Y-150338748D01*
X222035000Y-150861252D02*
X222035000Y-150338748D01*
%TO.C,R43*%
X235665000Y-237072936D02*
X235665000Y-237527064D01*
X237135000Y-237072936D02*
X237135000Y-237527064D01*
%TO.C,C20*%
X103533252Y-222430200D02*
X103010748Y-222430200D01*
X103533252Y-223900200D02*
X103010748Y-223900200D01*
%TO.C,R10*%
X143965000Y-235372936D02*
X143965000Y-235827064D01*
X145435000Y-235372936D02*
X145435000Y-235827064D01*
%TO.C,R13*%
X107965000Y-232227064D02*
X107965000Y-231772936D01*
X109435000Y-232227064D02*
X109435000Y-231772936D01*
D12*
%TO.C,MK5*%
X237505000Y-243000000D02*
X237505000Y-245255000D01*
X238305000Y-245255000D02*
X237505000Y-245255000D01*
X240505000Y-243000000D02*
X240505000Y-245255000D01*
X240505000Y-245255000D02*
X239705000Y-245255000D01*
D13*
X236855000Y-241755000D02*
G75*
G02*
X236655000Y-241755000I-100000J0D01*
G01*
X236655000Y-241755000D02*
G75*
G02*
X236855000Y-241755000I100000J0D01*
G01*
D12*
%TO.C,MK6*%
X238045000Y-150950000D02*
X240300000Y-150950000D01*
X238045000Y-153950000D02*
X240300000Y-153950000D01*
X240300000Y-150950000D02*
X240300000Y-151750000D01*
X240300000Y-153150000D02*
X240300000Y-153950000D01*
D13*
X236900000Y-154700000D02*
G75*
G02*
X236700000Y-154700000I-100000J0D01*
G01*
X236700000Y-154700000D02*
G75*
G02*
X236900000Y-154700000I100000J0D01*
G01*
D11*
%TO.C,C68*%
X241265000Y-230838748D02*
X241265000Y-231361252D01*
X242735000Y-230838748D02*
X242735000Y-231361252D01*
D10*
%TO.C,R41*%
X117705000Y-141587064D02*
X117705000Y-141132936D01*
X119175000Y-141587064D02*
X119175000Y-141132936D01*
D11*
%TO.C,R4*%
X66827064Y-67465000D02*
X66372936Y-67465000D01*
X66827064Y-68935000D02*
X66372936Y-68935000D01*
%TO.C,C1*%
X52165000Y-243461252D02*
X52165000Y-242938748D01*
X53635000Y-243461252D02*
X53635000Y-242938748D01*
%TO.C,C69*%
X227665000Y-155261252D02*
X227665000Y-154738748D01*
X229135000Y-155261252D02*
X229135000Y-154738748D01*
%TO.C,R7*%
X73272936Y-109765000D02*
X73727064Y-109765000D01*
X73272936Y-111235000D02*
X73727064Y-111235000D01*
%TO.C,C14*%
X67265000Y-105583252D02*
X67265000Y-105060748D01*
X68735000Y-105583252D02*
X68735000Y-105060748D01*
D12*
%TO.C,MK4*%
X147005000Y-243045000D02*
X147005000Y-245300000D01*
X147805000Y-245300000D02*
X147005000Y-245300000D01*
X150005000Y-243045000D02*
X150005000Y-245300000D01*
X150005000Y-245300000D02*
X149205000Y-245300000D01*
D13*
X146355000Y-241800000D02*
G75*
G02*
X146155000Y-241800000I-100000J0D01*
G01*
X146155000Y-241800000D02*
G75*
G02*
X146355000Y-241800000I100000J0D01*
G01*
D11*
%TO.C,R45*%
X231872936Y-157265000D02*
X232327064Y-157265000D01*
X231872936Y-158735000D02*
X232327064Y-158735000D01*
D10*
%TO.C,C56*%
X114335000Y-170968748D02*
X114335000Y-171491252D01*
X115805000Y-170968748D02*
X115805000Y-171491252D01*
D11*
%TO.C,C79*%
X193738748Y-70265000D02*
X194261252Y-70265000D01*
X193738748Y-71735000D02*
X194261252Y-71735000D01*
%TO.C,C66*%
X234665000Y-230838748D02*
X234665000Y-231361252D01*
X236135000Y-230838748D02*
X236135000Y-231361252D01*
%TO.C,C9*%
X62665000Y-232238748D02*
X62665000Y-232761252D01*
X64135000Y-232238748D02*
X64135000Y-232761252D01*
%TO.C,R6*%
X66327064Y-152465000D02*
X65872936Y-152465000D01*
X66327064Y-153935000D02*
X65872936Y-153935000D01*
%TO.C,C19*%
X232865000Y-243661252D02*
X232865000Y-243138748D01*
X234335000Y-243661252D02*
X234335000Y-243138748D01*
D14*
%TO.C,U1*%
X71463200Y-103315400D02*
X71463200Y-103848800D01*
X71463200Y-106795200D02*
X71463200Y-107328600D01*
X71463200Y-107328600D02*
X71996600Y-107328600D01*
X71996600Y-103315400D02*
X71463200Y-103315400D01*
X74943000Y-107328600D02*
X75476400Y-107328600D01*
X75476400Y-103315400D02*
X74943000Y-103315400D01*
X75476400Y-103848800D02*
X75476400Y-103315400D01*
X75476400Y-107328600D02*
X75476400Y-106795200D01*
D11*
%TO.C,C59*%
X238561252Y-156265000D02*
X238038748Y-156265000D01*
X238561252Y-157735000D02*
X238038748Y-157735000D01*
%TO.C,C74*%
X234661252Y-71965000D02*
X234138748Y-71965000D01*
X234661252Y-73435000D02*
X234138748Y-73435000D01*
%TO.C,C31*%
X71038748Y-72265000D02*
X71561252Y-72265000D01*
X71038748Y-73735000D02*
X71561252Y-73735000D01*
D10*
%TO.C,R40*%
X114995000Y-137802936D02*
X114995000Y-138257064D01*
X116465000Y-137802936D02*
X116465000Y-138257064D01*
%TO.C,C57*%
X111405000Y-170928748D02*
X111405000Y-171451252D01*
X112875000Y-170928748D02*
X112875000Y-171451252D01*
%TO.C,C8*%
X120818748Y-159255000D02*
X121341252Y-159255000D01*
X120818748Y-160725000D02*
X121341252Y-160725000D01*
D11*
%TO.C,C12*%
X68261252Y-141965000D02*
X67738748Y-141965000D01*
X68261252Y-143435000D02*
X67738748Y-143435000D01*
D14*
%TO.C,U10*%
X192115400Y-74928200D02*
X192115400Y-75461600D01*
X192115400Y-78408000D02*
X192115400Y-78941400D01*
X192115400Y-78941400D02*
X192648800Y-78941400D01*
X192648800Y-74928200D02*
X192115400Y-74928200D01*
X195595200Y-78941400D02*
X196128600Y-78941400D01*
X196128600Y-74928200D02*
X195595200Y-74928200D01*
X196128600Y-75461600D02*
X196128600Y-74928200D01*
X196128600Y-78941400D02*
X196128600Y-78408000D01*
D11*
%TO.C,C72*%
X242038748Y-71965000D02*
X242561252Y-71965000D01*
X242038748Y-73435000D02*
X242561252Y-73435000D01*
%TO.C,C78*%
X239265000Y-195838748D02*
X239265000Y-196361252D01*
X240735000Y-195838748D02*
X240735000Y-196361252D01*
%TO.C,C2*%
X142665000Y-243661252D02*
X142665000Y-243138748D01*
X144135000Y-243661252D02*
X144135000Y-243138748D01*
%TO.C,R12*%
X96465000Y-232172936D02*
X96465000Y-232627064D01*
X97935000Y-232172936D02*
X97935000Y-232627064D01*
%TO.C,C60*%
X243165000Y-62238748D02*
X243165000Y-62761252D01*
X244635000Y-62238748D02*
X244635000Y-62761252D01*
%TO.C,C70*%
X222738748Y-160865000D02*
X223261252Y-160865000D01*
X222738748Y-162335000D02*
X223261252Y-162335000D01*
%TO.C,R50*%
X146765000Y-68727064D02*
X146765000Y-68272936D01*
X148235000Y-68727064D02*
X148235000Y-68272936D01*
%TO.C,C18*%
X149265000Y-230538748D02*
X149265000Y-231061252D01*
X150735000Y-230538748D02*
X150735000Y-231061252D01*
%TO.C,C29*%
X70565000Y-152761252D02*
X70565000Y-152238748D01*
X72035000Y-152761252D02*
X72035000Y-152238748D01*
%TO.C,C13*%
X79538748Y-79965000D02*
X80061252Y-79965000D01*
X79538748Y-81435000D02*
X80061252Y-81435000D01*
D10*
%TO.C,U12*%
X110385000Y-148835000D02*
X110385000Y-149305000D01*
X110385000Y-149305000D02*
X109285000Y-149305000D01*
X110385000Y-155265000D02*
X107555000Y-155265000D01*
X110385000Y-155735000D02*
X110385000Y-155265000D01*
X116805000Y-148835000D02*
X110385000Y-148835000D01*
X116805000Y-155735000D02*
X110385000Y-155735000D01*
D11*
%TO.C,R47*%
X240265000Y-68727064D02*
X240265000Y-68272936D01*
X241735000Y-68727064D02*
X241735000Y-68272936D01*
%TO.C,R54*%
X187365000Y-76672936D02*
X187365000Y-77127064D01*
X188835000Y-76672936D02*
X188835000Y-77127064D01*
%TO.C,C73*%
X237965000Y-75838748D02*
X237965000Y-76361252D01*
X239435000Y-75838748D02*
X239435000Y-76361252D01*
D12*
%TO.C,MK2*%
X56700000Y-151800000D02*
X56700000Y-151000000D01*
X56700000Y-154000000D02*
X56700000Y-153200000D01*
X58955000Y-151000000D02*
X56700000Y-151000000D01*
X58955000Y-154000000D02*
X56700000Y-154000000D01*
D13*
X60300000Y-150250000D02*
G75*
G02*
X60100000Y-150250000I-100000J0D01*
G01*
X60100000Y-150250000D02*
G75*
G02*
X60300000Y-150250000I100000J0D01*
G01*
D10*
%TO.C,R42*%
X121595000Y-138052936D02*
X121595000Y-138507064D01*
X123065000Y-138052936D02*
X123065000Y-138507064D01*
D12*
%TO.C,MK7*%
X237500000Y-60655000D02*
X238300000Y-60655000D01*
X237500000Y-62910000D02*
X237500000Y-60655000D01*
X239700000Y-60655000D02*
X240500000Y-60655000D01*
X240500000Y-62910000D02*
X240500000Y-60655000D01*
D13*
X241350000Y-64155000D02*
G75*
G02*
X241150000Y-64155000I-100000J0D01*
G01*
X241150000Y-64155000D02*
G75*
G02*
X241350000Y-64155000I100000J0D01*
G01*
D11*
%TO.C,R52*%
X232127064Y-190265000D02*
X231672936Y-190265000D01*
X232127064Y-191735000D02*
X231672936Y-191735000D01*
%TO.C,C28*%
X70565000Y-147838748D02*
X70565000Y-148361252D01*
X72035000Y-147838748D02*
X72035000Y-148361252D01*
%TO.C,C11*%
X58338748Y-145565000D02*
X58861252Y-145565000D01*
X58338748Y-147035000D02*
X58861252Y-147035000D01*
%TO.C,C6*%
X70665000Y-231061252D02*
X70665000Y-230538748D01*
X72135000Y-231061252D02*
X72135000Y-230538748D01*
D10*
%TO.C,U3*%
X120980000Y-161350000D02*
X120180000Y-161350000D01*
X120980000Y-161350000D02*
X122780000Y-161350000D01*
X120980000Y-164470000D02*
X120180000Y-164470000D01*
X120980000Y-164470000D02*
X121780000Y-164470000D01*
D11*
%TO.C,C75*%
X150565000Y-74061252D02*
X150565000Y-73538748D01*
X152035000Y-74061252D02*
X152035000Y-73538748D01*
%TO.C,R11*%
X151465000Y-235572936D02*
X151465000Y-236027064D01*
X152935000Y-235572936D02*
X152935000Y-236027064D01*
%TO.C,R3*%
X66227064Y-146465000D02*
X65772936Y-146465000D01*
X66227064Y-147935000D02*
X65772936Y-147935000D01*
%TO.C,C76*%
X151265000Y-78661252D02*
X151265000Y-78138748D01*
X152735000Y-78661252D02*
X152735000Y-78138748D01*
%TO.C,C17*%
X144065000Y-226038748D02*
X144065000Y-226561252D01*
X145535000Y-226038748D02*
X145535000Y-226561252D01*
%TO.C,C77*%
X146665000Y-73961252D02*
X146665000Y-73438748D01*
X148135000Y-73961252D02*
X148135000Y-73438748D01*
%TO.C,R8*%
X56465000Y-236772936D02*
X56465000Y-237227064D01*
X57935000Y-236772936D02*
X57935000Y-237227064D01*
D14*
%TO.C,U9*%
X230028200Y-194071400D02*
X230028200Y-194604800D01*
X230028200Y-197551200D02*
X230028200Y-198084600D01*
X230028200Y-198084600D02*
X230561600Y-198084600D01*
X230561600Y-194071400D02*
X230028200Y-194071400D01*
X233508000Y-198084600D02*
X234041400Y-198084600D01*
X234041400Y-194071400D02*
X233508000Y-194071400D01*
X234041400Y-194604800D02*
X234041400Y-194071400D01*
X234041400Y-198084600D02*
X234041400Y-197551200D01*
D11*
%TO.C,R53*%
X201665000Y-76827064D02*
X201665000Y-76372936D01*
X203135000Y-76827064D02*
X203135000Y-76372936D01*
D10*
%TO.C,U13*%
X111070000Y-159410000D02*
X111070000Y-165420000D01*
X111070000Y-165420000D02*
X112330000Y-165420000D01*
X117890000Y-161660000D02*
X117890000Y-165420000D01*
X117890000Y-165420000D02*
X116630000Y-165420000D01*
D11*
%TO.C,R2*%
X73627064Y-99765000D02*
X73172936Y-99765000D01*
X73627064Y-101235000D02*
X73172936Y-101235000D01*
%TO.C,R48*%
X236665000Y-68727064D02*
X236665000Y-68272936D01*
X238135000Y-68727064D02*
X238135000Y-68272936D01*
%TO.C,R9*%
X63465000Y-236572936D02*
X63465000Y-237027064D01*
X64935000Y-236572936D02*
X64935000Y-237027064D01*
%TO.C,R44*%
X239165000Y-236972936D02*
X239165000Y-237427064D01*
X240635000Y-236972936D02*
X240635000Y-237427064D01*
%TO.C,C30*%
X71465000Y-68938748D02*
X71465000Y-69461252D01*
X72935000Y-68938748D02*
X72935000Y-69461252D01*
%TO.C,C16*%
X146165000Y-230538748D02*
X146165000Y-231061252D01*
X147635000Y-230538748D02*
X147635000Y-231061252D01*
%TO.C,C65*%
X153665000Y-62638748D02*
X153665000Y-63161252D01*
X155135000Y-62638748D02*
X155135000Y-63161252D01*
D10*
%TO.C,C7*%
X121241252Y-165415000D02*
X120718748Y-165415000D01*
X121241252Y-166885000D02*
X120718748Y-166885000D01*
D11*
%TO.C,R49*%
X150565000Y-68627064D02*
X150565000Y-68172936D01*
X152035000Y-68627064D02*
X152035000Y-68172936D01*
%TO.C,C5*%
X59265000Y-232238748D02*
X59265000Y-232761252D01*
X60735000Y-232238748D02*
X60735000Y-232761252D01*
%TO.C,C67*%
X239061252Y-225965000D02*
X238538748Y-225965000D01*
X239061252Y-227435000D02*
X238538748Y-227435000D01*
D12*
%TO.C,MK1*%
X56500000Y-60700000D02*
X57300000Y-60700000D01*
X56500000Y-62955000D02*
X56500000Y-60700000D01*
X58700000Y-60700000D02*
X59500000Y-60700000D01*
X59500000Y-62955000D02*
X59500000Y-60700000D01*
D13*
X60350000Y-64200000D02*
G75*
G02*
X60150000Y-64200000I-100000J0D01*
G01*
X60150000Y-64200000D02*
G75*
G02*
X60350000Y-64200000I100000J0D01*
G01*
D11*
%TO.C,R51*%
X231972936Y-200865000D02*
X232427064Y-200865000D01*
X231972936Y-202335000D02*
X232427064Y-202335000D01*
%TO.C,R5*%
X66927064Y-72265000D02*
X66472936Y-72265000D01*
X66927064Y-73735000D02*
X66472936Y-73735000D01*
%TO.C,C10*%
X63365000Y-62438748D02*
X63365000Y-62961252D01*
X64835000Y-62438748D02*
X64835000Y-62961252D01*
D14*
%TO.C,U2*%
X101193400Y-230093400D02*
X101193400Y-230626800D01*
X101193400Y-233573200D02*
X101193400Y-234106600D01*
X101193400Y-234106600D02*
X101726800Y-234106600D01*
X101726800Y-230093400D02*
X101193400Y-230093400D01*
X104673200Y-234106600D02*
X105206600Y-234106600D01*
X105206600Y-230093400D02*
X104673200Y-230093400D01*
X105206600Y-230626800D02*
X105206600Y-230093400D01*
X105206600Y-234106600D02*
X105206600Y-233573200D01*
D12*
%TO.C,MK8*%
X146995000Y-60700000D02*
X147795000Y-60700000D01*
X146995000Y-62955000D02*
X146995000Y-60700000D01*
X149195000Y-60700000D02*
X149995000Y-60700000D01*
X149995000Y-62955000D02*
X149995000Y-60700000D01*
D13*
X150845000Y-64200000D02*
G75*
G02*
X150645000Y-64200000I-100000J0D01*
G01*
X150645000Y-64200000D02*
G75*
G02*
X150845000Y-64200000I100000J0D01*
G01*
D12*
%TO.C,MK3*%
X56500000Y-243065000D02*
X56500000Y-245320000D01*
X57300000Y-245320000D02*
X56500000Y-245320000D01*
X59500000Y-243065000D02*
X59500000Y-245320000D01*
X59500000Y-245320000D02*
X58700000Y-245320000D01*
D13*
X55850000Y-241820000D02*
G75*
G02*
X55650000Y-241820000I-100000J0D01*
G01*
X55650000Y-241820000D02*
G75*
G02*
X55850000Y-241820000I100000J0D01*
G01*
D11*
%TO.C,R46*%
X228172936Y-150865000D02*
X228627064Y-150865000D01*
X228172936Y-152335000D02*
X228627064Y-152335000D01*
%TD*%
M02*
